<?xml version="1.0" encoding="iso-8859-1"?>
<!-- Generator: Adobe Illustrator 18.1.1, SVG Export Plug-In . SVG Version: 6.00 Build 0)  -->
<svg version="1.1" id="Object" xmlns="http://www.w3.org/2000/svg" xmlns:xlink="http://www.w3.org/1999/xlink" x="0px" y="0px"
	 viewBox="0 0 880 505" style="enable-background:new 0 0 880 505;" xml:space="preserve">
<g id="Background">
	<rect style="fill:#D4FBFF;" width="880" height="505"/>
</g>
<g id="Color">
	<path style="fill:#F6F7F7;" d="M258.501,214.708c-5.948-23.84,9.105-45.223,12.141-49.535c3.527-5.01,12.069-16.813,27.681-22.825
		c4.922-1.895,12.815-4.934,22.339-2.914c8.614,1.827,15.055,7.049,18.94,10.198c4.091,3.316,3.424,3.683,9.713,9.227
		c7.022,6.191,10.634,9.314,15.54,10.684c2.227,0.622,9.256,2.584,14.569-0.971c2.081-1.393,4.79-4.228,6.799-16.997
		c2.523-16.032-0.627-18.674,1.943-27.195c3.567-11.829,13.205-18.57,16.512-20.882c13.261-9.274,27.197-8.548,31.566-8.256
		c17.983,1.204,29.797,11.634,36.422,17.483c11.64,10.276,17.734,21.926,20.882,29.624c-2.496,28.455-1.97,49.206-0.971,63.132
		c0.789,10.998,1.24,22.019,1.943,33.023c0.959,15.028,1.409,20.445,0.486,28.167c-1.46,12.214-5.344,21.74-8.256,27.681
		c-29.785,13.274-59.571,26.548-89.356,39.822c-7.517-1.167-15.933-3.233-24.767-6.799c-34.227-13.815-52.649-41.224-60.219-54.391
		c-9.958-3.74-17.188-8.529-21.853-12.141c-12.606-9.758-19.25-20.793-23.31-27.681
		C262.525,225.158,260.069,220.992,258.501,214.708z"/>
	<path style="fill:#444445;" d="M240.533,88.444c-1.875,0.427-4.701,1.405-6.313,3.885c-1.773,2.727-1.127,5.809-0.486,10.198
		c0.729,4.989,0.761,10.061,1.457,15.055c1.286,9.22,0.979,13.503,1.457,20.882c1.416,21.872,7.821,41.632,11.17,51.963
		c2.067,6.378,5.04,14.713,9.227,24.282c0.047-5.086,0.492-12.319,2.342-20.771c1.697-7.748,3.935-17.972,11.348-28.808
		c3.199-4.675,10.272-14.743,23.57-20.951c5.359-2.502,12.996-6.067,22.472-4.744c11.606,1.621,20.378,10.184,24.282,13.112
		c10.189,7.643,12.117,11.317,20.882,15.055c4.863,2.074,9.67,3.505,14.569,1.943c1.187-0.379,4.726-1.561,6.799-4.856
		c2.032-3.231,1.608-6.827,1.457-8.256c0,0-1.094-10.339,0.486-25.253c1.497-14.138,10.594-23.684,11.655-24.767
		c8.332-8.508,18.228-10.761,22.339-11.655c13.303-2.895,24.051,0.764,30.109,2.914c22.712,8.06,34.73,26.438,38.851,33.509
		c-1.743-9.328-5.352-23.081-13.598-37.879c-4.348-7.802-6.586-9.797-26.224-33.509c-23.381-28.232-28.145-34.927-33.509-33.509
		c-7.128,1.885-10.304,16.783-12.626,27.681c-1.338,6.28-1.791,11.666-1.943,15.54c-4.219,0.049-10.677,0.317-18.454,1.457
		c-13.297,1.948-22.805,5.372-41.279,12.141c-14.225,5.212-21.338,7.818-26.71,11.17c-5.426,3.385-9.133,6.542-21.368,14.569
		c-7.882,5.171-11.859,7.757-13.598,7.77c-8.941,0.067-12.427-10.821-30.595-23.31C245.055,91.067,242.284,89.434,240.533,88.444z"
		/>
	<path style="fill:#F6F7F7;" d="M377.724,436.4c4.068,15.802,11.278,39.83,18.211,39.336c2.479-0.177,7.026-3.637,10.927-29.138
		C397.149,443.198,387.437,439.799,377.724,436.4z"/>
	<path style="fill:#F6F7F7;" d="M438.914,421.102c3.192,2.505,8.598,6.091,16.026,8.013c15.132,3.916,27.857-1.868,34.966-5.099
		c7.701-3.5,18.533-8.424,24.767-20.397c3.732-7.167,4.35-14.043,4.371-18.211c-17.575,7.143-35.566,14.894-53.905,23.31
		C456.218,412.812,447.476,416.944,438.914,421.102z"/>
	<path style="fill:#F6F7F7;" d="M581.69,348.986c-3.642,11.898-7.284,23.796-10.927,35.694c1.325,1.617,15.212,18.363,21.125,15.297
		c4.386-2.273,2.422-14.427,1.457-20.397C591.091,365.63,585.593,355.189,581.69,348.986z"/>
	<path style="fill:#444445;" d="M505.203,212.766c1.157,5.431,2.725,11.303,4.856,17.483c4.971,14.412,11.483,26.072,17.483,34.966
		c3.723-5.342,7.446-10.684,11.17-16.026C527.542,237.047,516.372,224.906,505.203,212.766z"/>
	<path style="fill:#444445;" d="M494.519,192.855c-2.052-0.1-4.562,10.469-5.828,19.911c-2.5,18.645,0.681,26.71,0.486,38.365
		c-0.488,29.125-21.464,45.428-17.483,49.535c2.644,2.728,14.697-1.581,56.819-33.509c-5.569-8.091-9.3-15.084-11.655-19.911
		c-3.988-8.172-7.677-17.912-15.055-37.394c-1.363-3.598-3.017-7.082-4.371-10.684C495.637,194.392,495.283,192.892,494.519,192.855
		z"/>
	<path style="fill:#444445;" d="M337.659,323.976"/>
	<path style="fill:#F59699;" d="M390.593,194.797c-3.305,1.33-4.036,5.526-3.399,8.256c0.119,0.508,0.878,3.762,3.885,4.856
		c2.528,0.92,5.253-0.194,6.799-1.943c2.037-2.305,2.087-5.784,0.486-8.256C396.779,195.265,393.47,193.639,390.593,194.797z"/>
	<path style="fill:#444445;" d="M377.724,440.77c7.348,30.978,12.614,38.294,16.269,38.122c3.685-0.173,7.688-8.049,9.227-12.141
		c2.74-7.282,2.302-14.875,5.828-15.783c0.549-0.141,0.992-0.029,1.188-0.041c2.725-0.177,7.586-1.121,25.036-6.515
		c12.181-3.765,22.376-6.589,37.151-12.384c12.107-4.748,21.019-8.17,27.859-10.766c7.905-3,15.095-4.342,24.64-9.435
		c1.067-0.569,4.175-2.468,10.391-6.266c7.439-4.545,15.254-8.518,22.339-13.598c6.655-4.772,9.384-7.653,13.112-6.799
		c2.561,0.587,3.445,2.443,6.313,5.342c5.091,5.144,13.355,10.462,16.026,9.227c2.858-1.321,2.848-11.775-9.956-52.206
		c-23.068,13.355-46.135,26.71-69.203,40.065c-1.356,4.157-6.987,19.755-23.31,29.138c-22.83,13.124-46.486,2.542-48.806,1.457
		C420.46,425.716,399.092,433.243,377.724,440.77z"/>
	<path style="fill:#FACBCB;" d="M315.077,279.783c-12.736,5.251-29.344,13.613-46.621,26.953
		c-19.133,14.772-32.282,30.395-40.793,42.25c-1.938,3.934-13.64,28.664-2.185,53.177c2.19,4.686,8.688,18.188,24.039,24.767
		c2.47,1.059,15.376,6.591,27.681,1.457c9.377-3.912,9.013-10.098,24.039-20.397c7.6-5.209,12.072-8.18,17.483-7.285
		c6.562,1.087,7.168,6.647,16.754,13.841c4.186,3.141,12.577,9.437,22.582,9.47c6.382,0.021,12.598-3.871,24.767-11.655
		c15.658-10.016,15.364-12.288,24.767-16.754c13.01-6.179,24.719-7.125,26.953-7.284c12.849-0.918,14.15,2.594,24.039,0.728
		c9.575-1.806,16.067-6.554,24.039-12.384c4.526-3.31,12.661-9.816,21.125-20.397c12.246-15.307,10.28-20.515,20.397-28.41
		c7.528-5.875,15.599-8.441,21.125-10.198c12.782-4.064,14.584-1.259,24.039-5.099c3.525-1.431,15.808-6.42,22.582-18.211
		c4.691-8.167,2.313-11.891,8.013-18.211c1.052-1.167,7.037-7.804,16.026-8.741c7.951-0.83,10.485,3.611,17.483,2.185
		c6.603-1.345,10.706-6.594,12.384-8.741c5.091-6.514,3.891-11.148,8.013-29.866c2.935-13.326,4.022-13.151,3.642-16.754
		c-1.457-13.84-18.151-22.709-24.767-26.224c-38.895-20.664-123.447,9.51-133.306,13.112c0.389,2.847,0.777,5.693,1.166,8.54
		c4.225,4.438,8.45,8.876,12.675,13.313c3.244-0.454,9.452-0.817,16.026,2.185c2.775,1.267,7.711,3.522,10.198,8.741
		c0,0,1.395,2.928,1.457,6.556c0.273,16.076-18.94,32.78-18.94,32.78c-28.784,25.026-58.14,27.768-111.453,54.634
		c-8.845,4.457-22.489,11.665-41.522,15.297c-16.926,3.231-15.574-0.66-34.237,2.914c-5.044,0.966-10.265,2.231-14.569-0.728
		c-3.942-2.71-6.788-8.739-5.099-14.569c1.457-5.029,5.58-7.469,6.556-8.013c-0.243-10.198-0.486-20.397-0.728-30.595
		C318.962,288.039,317.02,283.911,315.077,279.783z"/>
	<path style="fill:#444445;" d="M311.921,271.527c3.451,0.006,8.488,0.41,14.083,2.428c7.096,2.56,12.418,6.754,20.397,15.055
		c11.479,11.942,13.625,16.544,18.454,21.853c6.37,7.003,18.537,14.556,44.193,14.569c-6.829,4.957-17.599,11.692-32.052,16.512
		c-13.714,4.573-26.344,9.66-33.023,3.885c-3.054-2.641-2.549-5.481-4.856-13.598c-3.219-11.324-6.796-14.92-13.598-28.167
		C321.727,296.681,316.68,285.805,311.921,271.527z"/>
	<path style="fill:#444445;" d="M321.148,290.952c4.242,7.424,8.559,15.846,12.626,25.253c5.142,11.892,8.891,23.053,11.655,33.023
		c-7.446-0.647-14.893-1.295-22.339-1.943c-0.627-8.779-1.123-17.85-1.457-27.195C321.275,310.07,321.125,300.35,321.148,290.952z"
		/>
	<path style="fill:#FFCC67;" d="M225.478,354.813c0.735,0.269-2.295,7.87-3.642,22.582c-0.858,9.362-0.259,13.139,0,14.569
		c1.486,8.211,5.292,13.861,7.285,16.754c2.652,3.851,9.473,13.463,22.582,18.211c3.961,1.435,18.293,6.627,29.866,0
		c7.491-4.29,6.236-9.185,18.211-18.94c6.14-5.002,10.55-8.493,16.026-8.013c5.696,0.499,7.26,4.832,15.297,10.927
		c3.097,2.348,12.342,9.36,23.31,10.927c12.269,1.752,22.475-3.911,29.866-8.013c13.577-7.534,11.232-11.838,23.31-18.211
		c12.86-6.785,26.114-7.498,35.694-8.013c13.91-0.748,14.064,1.717,21.853,0c14.265-3.145,23.385-13.536,31.323-22.582
		c14.445-16.46,12.093-23.245,25.496-33.509c8.385-6.421,17.617-10.13,21.853-11.655c11.904-4.285,16.372-2.848,27.681-8.013
		c8.047-3.675,13.27-6.06,17.483-11.655c7.556-10.035,2.797-18.357,10.927-26.224c5.959-5.767,13.896-6.503,14.569-6.556
		c9.234-0.731,12.872,5.073,19.668,3.642c2.828-0.595,7.02-2.616,13.112-13.841c4.265-7.859,10.206-21.601,11.655-41.522
		c3.662,5.866,8.643,15.836,8.741,28.41c0.139,17.718-9.493,30.982-17.483,40.793c-35.23,43.26-75.759,68.474-75.759,68.474
		c-22.562,14.036-62.548,37.108-120.194,59.733c-35.367,13.881-66.799,21.152-129.664,35.694c-8.13,1.881-26.921,6.039-50.263,2.185
		c-13.165-2.173-29.77-5.149-43.707-18.94c-3.799-3.759-17.704-17.959-18.211-40.065C211.872,370.465,224.347,354.4,225.478,354.813
		z"/>
</g>
<g id="Line">
	<g>
		<g>
			<path style="fill:#231F20;" d="M320.559,320.777c-5.516,5.56-11.661,17.294-3.824,23.388c7.599,5.908,21.068,5.504,29.977,4.886
				c11.451-0.794,22.517-2.568,33.376-6.35c7.844-2.733,15.282-6.427,22.889-9.738c25.373-11.042,51.544-20.159,76.71-31.687
				c17.575-8.051,36.642-17.262,49.744-31.926c4.579-5.124,8.483-10.824,11.507-16.997c3.046-6.218,6.118-13.422,3.19-20.263
				c-4.64-10.841-19.036-12.967-29.264-10.95c-1.761,0.347-1.11,2.695,0.389,2.877c9.587,1.166,26.982,3.76,23.823,17.415
				c-2.435,10.525-10.145,20.679-17.823,28.027c-11.702,11.2-27.312,18.788-41.831,25.584
				c-20.689,9.684-42.123,17.846-63.201,26.637c-15.434,6.437-30.368,14.212-46.433,18.988c-11.951,3.553-23.713,6.155-36.273,5.021
				c-4.573-0.413-10.357-0.981-14.202-3.75c-6.34-4.566-0.517-14.482,3.484-18.926C324.152,321.509,322.004,319.321,320.559,320.777
				L320.559,320.777z"/>
		</g>
	</g>
	<g>
		<g>
			<path style="fill:#231F20;" d="M313.424,277.371c-30.828,14.718-59.583,35.399-81.719,61.597
				c-15.41,18.238-24.913,39.524-20.297,63.807c7.088,37.28,48.111,51.348,81.667,50.471c32.649-0.853,65.915-6.501,97.35-15.325
				c27.051-7.593,53.929-17.243,80.107-27.421c28.702-11.16,55.494-25.503,81.954-41.165c27.544-16.304,55.022-33.67,78.587-55.494
				c19.178-17.761,38.672-41.41,38.445-69.013c-0.226-27.398-19.709-55.898-45.767-64.909c-14.375-4.971-30.326-4.907-45.285-3.543
				c-20.068,1.829-40.038,6.22-58.904,13.336c-7.443,2.807-14.575,6.001-21.543,9.836c-1.842,1.014-0.595,4.196,1.46,3.463
				c33.375-11.905,68.533-23.491,104.505-20.465c10.089,0.849,20.114,3.35,28.714,8.837c13.625,8.693,23.732,23.566,28.11,38.998
				c7.577,26.707-7.462,51.153-25.304,69.893c-20.837,21.885-46.396,39.008-72.008,54.764
				c-24.46,15.047-49.352,29.692-75.667,41.277c-29.822,13.128-61.089,23.189-92.072,33.167
				c-20.282,6.532-41.488,10.716-62.54,13.764c-34.047,4.929-75.916,9.834-102.877-16.71c-18.34-18.056-18.502-47.721-6.087-69.058
				c7.503-12.894,17.959-24.046,28.758-34.24c11.405-10.765,23.864-20.369,37.097-28.78c8.093-5.144,16.457-9.855,25.012-14.186
				C317.06,279.29,315.358,276.448,313.424,277.371L313.424,277.371z"/>
		</g>
	</g>
	<g>
		<g>
			<path style="fill:#231F20;" d="M584.875,352.16c0.091,0.037,0.182,0.073,0.274,0.11c0.336,0.135,0.707-0.151,0.804-0.456
				c0.053-0.17,0.107-0.339,0.16-0.509c0.146-0.461-0.11-0.867-0.46-1.131c-0.128-0.097-0.257-0.194-0.385-0.29
				c-0.459-0.346-1.129-0.14-1.515,0.195c-2.037,1.775,0.14,5.81,0.765,7.933c1.862,6.331,3.669,12.67,4.92,19.157
				c0.526,2.728,3.867,16.807,0.867,18.37c-1.723,0.898-6.908-3.334-8.189-4.259c-3.33-2.403-6.638-4.724-10.126-6.899
				c-1.4-0.873-2.514,0.994-1.633,2.117c4.883,6.218,25.501,23.881,25.731,5.684c0.176-13.957-4.272-29.343-10.371-41.849
				c-0.249,0.612-0.498,1.224-0.747,1.836c-0.097-0.253-0.195-0.506-0.292-0.759C584.453,351.689,584.543,352.026,584.875,352.16
				L584.875,352.16z"/>
		</g>
	</g>
	<g>
		<g>
			<path style="fill:#231F20;" d="M379.445,444.638c1.89,7.808,4.377,15.42,7.398,22.865c1.572,3.875,3.009,10.733,7.893,11.561
				c5.404,0.916,7.956-4.539,9.101-8.804c1.565-5.829,4.214-14.228,2.79-20.21c-0.277-1.166-2.133-1.499-2.677-0.35
				c-1.816,3.835-1.656,8.383-2.439,12.542c-0.66,3.51-2.279,16.63-8.194,10.559c-1.55-1.591-2.712-6.071-3.505-8.024
				c-0.929-2.288-1.808-4.596-2.64-6.92c-1.663-4.647-3.142-9.365-4.524-14.102C382.047,441.703,378.941,442.558,379.445,444.638
				L379.445,444.638z"/>
		</g>
	</g>
	<g>
		<g>
			<path style="fill:#231F20;" d="M406.991,451.497c2.904,0.811,5.982-0.131,8.887-0.737c4.013-0.837,8.004-1.852,11.979-2.853
				c7.775-1.958,15.49-4.131,23.147-6.506c15.948-4.946,31.626-10.733,46.982-17.29c26.48-11.307,51.867-25.001,75.953-40.77
				c1.906-1.248,0.131-4.324-1.794-3.069c-23.609,15.386-48.463,28.855-74.331,40.044c-15.583,6.741-31.536,12.635-47.747,17.682
				c-7.652,2.382-15.365,4.581-23.117,6.615c-3.971,1.042-7.964,1.976-11.946,2.971c-2.881,0.72-5.915,1.148-8.236,3.065
				C406.463,450.899,406.65,451.401,406.991,451.497L406.991,451.497z"/>
		</g>
	</g>
	<g>
		<g>
			<path style="fill:#231F20;" d="M232.932,94.759c-0.274,30.702,3.611,61.932,12.083,91.46
				c7.749,27.009,18.998,56.889,42.093,74.57c10.93,8.367,24.457,14.714,38.324,15.391c1.254,0.061,1.455-1.812,0.291-2.148
				c-12.243-3.538-24.168-7.35-34.643-14.852c-8.845-6.335-15.947-14.747-21.673-23.942c-17.425-27.984-25.778-62.508-30.262-94.863
				c-2.095-15.12-3.102-30.367-3.674-45.615C235.41,93.132,232.947,93.118,232.932,94.759L232.932,94.759z"/>
		</g>
	</g>
	<g>
		<g>
			<path style="fill:#231F20;" d="M421.309,29.496c-0.242-0.014-0.485-0.028-0.727-0.042c-0.151-0.009-0.15,0.226,0,0.234
				c0.242,0.014,0.485,0.028,0.727,0.042C421.46,29.739,421.459,29.504,421.309,29.496L421.309,29.496z"/>
		</g>
	</g>
	<g>
		<g>
			<path style="fill:#231F20;" d="M419.84,31.382c22.82,23.082,45.646,47.588,59.901,77.156
				c14.886,30.877,14.329,65.519,10.036,98.729c-0.122,0.944,1.354,1.069,1.611,0.218c7.44-24.632,7.644-52.775,1.29-77.636
				c-6.406-25.064-21.14-46.527-36.989-66.569c-9.998-12.643-21.127-24.541-34.027-34.26
				C420.272,27.973,418.673,30.202,419.84,31.382L419.84,31.382z"/>
		</g>
	</g>
	<g>
		<g>
			<path style="fill:#231F20;" d="M307.767,268.263c-0.135,2.835,1.607,4.814,2.942,7.279c1.642,3.033,3.251,6.084,4.827,9.152
				c3.478,6.768,6.74,13.647,9.852,20.591c3.29,7.343,6.374,14.772,9.28,22.276c1.301,3.357,2.611,6.712,3.88,10.081
				c1.243,3.299,2.103,7.16,4.211,10.012c0.874,1.182,3.097,0.942,3.021-0.818c-0.289-6.682-4.53-14.254-7.09-20.384
				c-2.986-7.148-6.14-14.228-9.45-21.232c-3.392-7.176-6.98-14.255-10.674-21.28c-1.61-3.061-3.253-6.105-4.928-9.131
				c-1.401-2.533-2.428-5.614-5.048-7.018C308.214,267.589,307.787,267.843,307.767,268.263L307.767,268.263z"/>
		</g>
	</g>
	<g>
		<g>
			<path style="fill:#231F20;" d="M495.179,187.873c-0.939,7.257,1.447,13.59,3.887,20.328c2.428,6.704,4.87,13.405,7.511,20.028
				c5.05,12.663,10.577,25.653,18.187,37.015c1.346,2.009,4.582,0.169,3.272-1.912c-7.262-11.538-13.388-23.264-18.504-35.917
				c-2.452-6.065-4.759-12.187-7.04-18.317c-2.561-6.882-5.272-13.814-5.711-21.224
				C496.718,186.818,495.309,186.871,495.179,187.873L495.179,187.873z"/>
		</g>
	</g>
	<g>
		<g>
			<path style="fill:#231F20;" d="M318.446,287.022c-0.931,4.515-0.042,9.322,0.313,13.883c0.43,5.529,0.86,11.058,1.29,16.587
				c0.405,5.202,0.765,10.407,1.142,15.611c0.31,4.264-0.088,9.451,2.162,13.197c0.482,0.803,1.551,0.547,1.856-0.243
				c1.632-4.221,0.24-9.513-0.193-13.93c-0.509-5.203-1.024-10.405-1.504-15.611c-0.48-5.204-0.959-10.408-1.439-15.611
				c-0.42-4.559-0.331-9.584-2.009-13.883C319.794,286.325,318.63,286.129,318.446,287.022L318.446,287.022z"/>
		</g>
	</g>
	<g>
		<g>
			<path style="fill:#231F20;" d="M500.663,208.869c3.331,8.467,11.166,15.994,16.985,22.861c3.211,3.79,6.467,7.541,9.767,11.254
				c3.261,3.669,6.495,8.344,10.734,10.896c1.448,0.872,2.937-0.826,2.218-2.218c-2.02-3.908-5.795-7.015-8.742-10.259
				c-3.547-3.905-7.046-7.852-10.495-11.843c-6.069-7.023-11.709-16.178-19.321-21.574
				C501.278,207.608,500.417,208.244,500.663,208.869L500.663,208.869z"/>
		</g>
	</g>
	<g>
		<g>
			<path style="fill:#231F20;" d="M261.144,219.723c-2.102-14.63-1.17-30.126,5.508-43.547
				c6.647-13.359,18.596-25.722,31.634-32.927c16.409-9.067,32.315,0.674,44.924,11.503c8.321,7.147,17.621,16.814,29.354,16.984
				c1.311,0.019,1.662-2.082,0.317-2.34c-11.424-2.194-19.759-8.764-28.376-16.221c-8.575-7.42-18.479-14.822-30.174-15.718
				c-13.372-1.024-25.601,6.454-34.943,15.322c-8.502,8.071-15.679,17.802-19.435,28.98c-4.146,12.339-4.853,26.07-1.181,38.618
				C259.229,221.94,261.364,221.249,261.144,219.723L261.144,219.723z"/>
		</g>
	</g>
	<g>
		<g>
			<path style="fill:#231F20;" d="M351.548,161.304c7.303,8.04,22.809,16.462,31.688,5.723c3.721-4.5,3.911-10.828,3.664-16.375
				c-0.317-7.126-1.19-13.931,0.574-20.97c3.814-15.22,15.997-27.353,31.103-31.364c13.354-3.546,26.61-1.664,38.75,4.778
				c7.462,3.96,13.517,9.483,19.13,15.719c2.9,3.222,5.738,6.494,7.844,10.305c1.949,3.525,3.239,7.341,5.218,10.856
				c0.602,1.069,1.988,0.464,2.111-0.572c1.504-12.666-11.636-25.48-20.574-32.843c-9.896-8.153-22.475-13.638-35.333-14.462
				c-27.57-1.768-53.296,19.293-52.857,47.831c0.117,7.617,2.899,17.394-1.585,24.241c-7.622,11.641-21.042,0.877-28.858-4.002
				C351.706,159.72,351.011,160.712,351.548,161.304L351.548,161.304z"/>
		</g>
	</g>
	<g>
		<g>
			<path style="fill:#231F20;" d="M235.112,94.746c0.5-4.441,6.86-3.746,9.561-2.738c2.704,1.009,4.99,2.761,7.167,4.63
				c4.246,3.644,8.249,7.587,12.431,11.309c4.03,3.586,12.376,14.536,18.508,9.632c1.344-1.075-0.135-3.054-1.577-2.709
				c-4.082,0.975-7.924-3.949-10.615-6.309c-2.706-2.374-5.393-4.773-8.122-7.121c-4.159-3.577-8.356-7.592-13.13-10.358
				c-4.999-2.895-15.431-4.712-15.824,3.666C233.461,95.794,234.999,95.746,235.112,94.746L235.112,94.746z"/>
		</g>
	</g>
	<g>
		<path style="fill:#231F20;" d="M304.279,182.173c-0.33,1.332-0.103,2.456,0.061,3.165c0.197,0.853,1.676,6.993,5.359,9.776
			c1.272,0.961,1.914,0.894,2.205,0.744c0.337-0.174,0.556-0.51,0.734-0.844c1.257-2.351,1.204-5.251,0.305-7.76
			c-0.987-2.756-2.292-4.331-4.432-6.582c-0.975-1.025-1.58-1.428-2.186-1.348C304.968,179.504,304.342,181.917,304.279,182.173z"/>
		<g>
			<path style="fill:#231F20;" d="M303.503,181.72c-3.789,5.209,7.481,20.95,10.586,12.998c2.025-5.186-0.999-10.612-4.536-14.297
				c-1.108-1.154-2.419-2.556-4.13-1.759c-1.337,0.622-1.711,2.175-1.672,3.511c0.015,0.526,0.703,0.713,0.983,0.266
				c0.484-0.775,0.838-1.489,1.759-1.641c1.451-0.24,3.08,2.35,3.843,3.457c1.055,1.53,1.801,3.231,2.025,5.082
				c0.21,1.733,0.293,6.378-2.356,4.32c-3.64-2.827-3.594-7.824-4.86-11.723C304.892,181.155,303.955,181.099,303.503,181.72z"/>
		</g>
	</g>
	<g>
		<path style="fill:#231F20;" d="M430.938,132.564c-0.287,4.1,1.42,8.453,4.586,10.79c0.39,0.288,2.822,2.16,3.74,1.242
			c0.353-0.353,0.492-0.863,0.581-1.354c1.454-7.955-3.525-13.196-3.525-13.196c-1.037-1.259-2.261-2.745-3.392-2.474
			C431.26,127.969,430.984,131.908,430.938,132.564z"/>
		<g>
			<path style="fill:#231F20;" d="M430.355,132.403c-0.898,4.981,1.674,11.129,6.579,13.2c5.576,2.354,4.632-7.132,3.789-10.073
				c-0.811-2.83-3.409-8.21-6.587-9.161c-3.313-0.991-5.64,4.348-3.696,6.692c0.253,0.305,0.732,0.233,0.994,0
				c1.443-1.279,0.702-4.911,3.295-2.834c1.113,0.891,2.004,2.542,2.604,3.779c0.815,1.681,3.105,9.986-0.173,9.059
				c-3.962-1.121-5.215-7.123-5.617-10.501C431.471,131.952,430.487,131.667,430.355,132.403z"/>
		</g>
	</g>
	<g>
		<g>
			<path style="fill:#231F20;" d="M388.521,196.41c-4.034,2.629-3.581,8.444,0.008,11.315c3.41,2.727,9.323,1.661,10.962-2.638
				c1.525-3.998-0.378-9.473-4.74-10.775c-4.501-1.344-9.653,2.392-8.748,7.179c0.115,0.608,1.043,0.703,1.321,0.173
				c1.189-2.274,3.318-4.709,6.069-4.75c3.77-0.057,7.042,4.237,4.359,7.531c-1.932,2.371-5.194,3.692-7.814,1.455
				c-2.906-2.48-2.156-5.643-0.508-8.581C389.742,196.763,389.097,196.035,388.521,196.41L388.521,196.41z"/>
		</g>
	</g>
	<g>
		<g>
			<path style="fill:#231F20;" d="M276.026,116.85c2.748,7.709,15.798-5.137,18.19-6.917c10.034-7.465,20.79-13.976,32.041-19.434
				c11.34-5.501,23.335-9.812,35.514-13.044c5.91-1.568,11.887-2.844,17.871-4.086c6.488-1.347,13.181-1.813,19.607-3.28
				c0.888-0.203,0.607-1.424-0.202-1.496c-5.329-0.474-11.265,0.334-16.582,0.874c-5.145,0.523-10.221,1.454-15.263,2.592
				c-10.738,2.424-21.253,5.841-31.376,10.162c-10.238,4.369-20.17,9.378-29.599,15.305c-4.709,2.96-9.283,6.135-13.715,9.495
				c-1.884,1.428-3.765,2.871-5.567,4.402c-1.323,1.124-8.002,8.301-9.778,4.947C276.842,115.752,275.786,116.175,276.026,116.85
				L276.026,116.85z"/>
		</g>
	</g>
	<g>
		<g>
			<path style="fill:#231F20;" d="M425.579,32.966c-2.04-3.221-4.778-6.424-8.828-6.975c-4.924-0.67-7.716,3.913-9.723,7.676
				c-2.616,4.904-3.958,10.135-5.004,15.549c-1.197,6.198-4.16,13.646-3.237,19.902c0.133,0.902,1.331,0.815,1.749,0.229
				c2.782-3.903,3.268-9.593,4.19-14.219c0.685-3.434,1.14-6.925,1.945-10.333c1.023-4.329,3-11.936,6.935-14.577
				c3.383-2.27,8.004,1.304,10.438,3.932C424.794,34.958,426.174,33.906,425.579,32.966L425.579,32.966z"/>
		</g>
	</g>
	<g>
		<g>
			<path style="fill:#231F20;" d="M227.056,351.545c-8.29,13.733-9.591,30.631-5.042,45.87
				c5.622,18.834,21.977,32.208,41.627,34.005c11.741,1.074,20.623-3.835,28.448-12.218c7.912-8.475,21.352-24.641,33.643-13.078
				c3.714,3.494,6.055,8.2,9.558,11.892c3.396,3.579,7.736,5.965,12.541,7.07c6.573,1.511,13.506,0.901,19.998-0.733
				c9.911-2.495,18.112-9.095,25.935-15.356c5.189-4.154,10.094-8.929,15.778-12.411c6.314-3.868,13.562-5.229,20.872-5.621
				c2.034-0.109,2.744-3.346,0.509-3.76c-22.326-4.136-36.323,16.516-53.075,27.182c-5.492,3.496-11.469,5.678-17.922,6.494
				c-4.213,0.532-8.638,0.479-12.734-0.71c-6.417-1.863-9.939-6.153-13.762-11.305c-5.338-7.194-11.72-12.405-21.224-10.246
				c-11.231,2.551-17.634,12.365-25.278,19.995c-9.504,9.486-21.28,10.733-33.684,6.518c-10.221-3.473-18.774-10.168-24.161-19.562
				c-9.543-16.642-9.241-36.206-0.813-53.315C228.667,351.449,227.529,350.762,227.056,351.545L227.056,351.545z"/>
		</g>
	</g>
	<g>
		<g>
			<path style="fill:#231F20;" d="M331.887,412.649c5.69,8.195,14.283,12.772,24.327,12.6c9.824-0.168,18.424-4.456,26.447-9.785
				c9.603-6.378,18.382-14.065,28.504-19.649c4.983-2.749,9.967-4.46,15.644-5.038c4.774-0.486,9.357,0.658,14.091,1.056
				c24.371,2.049,45.583-10.64,60.864-28.569c12.672-14.868,20.771-37.938,42.064-42.408c11.57-2.429,22.899-4.474,33.651-9.778
				c9.782-4.826,18.836-14.604,20.079-25.767c0.23-2.066-2.808-2.62-3.749-1.015c-2.651,4.525-4.682,9.345-8.084,13.414
				c-3.69,4.414-8.33,7.559-13.576,9.83c-9.342,4.045-18.884,6.12-28.782,8.107c-17.581,3.53-27.555,18.723-36.611,32.752
				c-12.901,19.985-31.447,36.416-55.995,38.714c-9.888,0.925-19.432-2.017-29.246,0.094c-9.204,1.98-17.219,7.838-24.628,13.351
				c-9.551,7.106-19.101,15.914-30.56,19.801c-11.973,4.062-24.99,1.183-33.365-8.539
				C332.459,411.239,331.443,412.01,331.887,412.649L331.887,412.649z"/>
		</g>
	</g>
	<g>
		<g>
			<path style="fill:#231F20;" d="M555.706,316.213c12.096-3.049,26.27-9.073,34.803-18.507c4.209-4.653,5.863-9.812,7.804-15.62
				c1.734-5.188,4.978-8.759,9.607-11.461c2.263-1.321,4.766-2.534,7.389-2.896c4.196-0.579,6.589,1.618,9.887,3.698
				c5.117,3.227,11.048,2.592,15.797-1.077c4.548-3.513,6.744-8.766,8.384-14.096c2.027-6.591,3.973-13.221,5.787-19.873
				c2.757-10.111,4.262-22.253-1.364-31.748c-0.819-1.382-3.215-0.859-3.13,0.848c0.317,6.37,2.543,12.474,2.264,18.94
				c-0.127,2.927-0.949,5.817-1.681,8.639c-1.446,5.575-3.096,11.099-4.72,16.624c-1.945,6.62-3.543,14.962-10.358,18.382
				c-6.914,3.47-10.946-3.805-17.323-4.514c-4.548-0.506-9.083,1.381-12.931,3.652c-2.864,1.69-5.589,3.771-7.65,6.398
				c-3.22,4.105-3.835,9.098-5.7,13.815c-5.738,14.516-24.524,21.052-37.753,26.69C553.587,314.632,554.483,316.522,555.706,316.213
				L555.706,316.213z"/>
		</g>
	</g>
	<g id="Layer_5">
		<g>
			<g>
				<path style="fill:#4757A6;" d="M560.101,255.286c3.454-0.381,6.786-0.993,10.116-2.015c2.906-0.893,6.218-1.601,8.429-3.785
					c0.609-0.602,0.148-1.656-0.691-1.667c-2.981-0.04-5.776,1.49-8.586,2.379c-3.183,1.007-6.367,2.007-9.549,3.017
					C558.748,253.555,558.863,255.423,560.101,255.286L560.101,255.286z"/>
			</g>
		</g>
		<g>
			<g>
				<path style="fill:#ED3867;" d="M584.258,223.851c3.632,1.151,7.304,2.159,10.941,3.289c2.879,0.894,5.828,2.595,8.85,1.677
					c0.511-0.155,0.755-0.735,0.49-1.205c-1.619-2.878-5.272-3.566-8.25-4.423c-3.845-1.107-7.69-1.734-11.693-1.832
					C583.128,221.322,582.919,223.427,584.258,223.851L584.258,223.851z"/>
			</g>
		</g>
		<g>
			<g>
				<path style="fill:#349946;" d="M552.498,215.91c3.608-1.951,6.855-4.649,10.269-6.923c3.081-2.052,6.396-4.074,9.017-6.706
					c0.617-0.619-0.003-1.776-0.874-1.502c-3.769,1.187-7.208,3.486-10.456,5.694c-3.295,2.24-6.818,4.426-9.637,7.258
					C549.692,214.862,551.119,216.655,552.498,215.91L552.498,215.91z"/>
			</g>
		</g>
		<g>
			<g>
				<path style="fill:#ED3867;" d="M298.759,321.501c-2.854-0.944-6.014,2.409-8.152,3.952c-2.839,2.049-5.817,3.949-7.493,7.122
					c-0.439,0.832,0.282,1.694,1.169,1.521c3.713-0.727,6.532-3.265,9.462-5.502c2.046-1.562,5.708-3.393,5.631-6.283
					C299.365,321.924,299.119,321.62,298.759,321.501L298.759,321.501z"/>
			</g>
		</g>
		<g>
			<g>
				<path style="fill:#F79838;" d="M262.487,361.735c5.828-1.617,13.85-3.067,18.43-7.252c0.653-0.597,0.163-1.862-0.746-1.8
					c-3.075,0.208-5.889,1.643-8.755,2.704c-3.227,1.194-6.477,2.297-9.77,3.298C259.704,359.275,260.515,362.282,262.487,361.735
					L262.487,361.735z"/>
			</g>
		</g>
		<g>
			<g>
				<path style="fill:#349946;" d="M282.068,381.616c0.037-0.164,0.074-0.327,0.11-0.491c0.37-1.644-2.052-2.879-2.86-1.206
					c-1.3,2.691-2.032,5.708-2.756,8.599c-0.654,2.611-1.397,5.383-0.869,8.062c0.189,0.958,1.459,0.941,1.928,0.252
					c1.454-2.138,1.901-4.848,2.52-7.327c0.691-2.767,1.632-5.56,2.038-8.38c-1.025-0.139-2.049-0.277-3.074-0.416
					c0.016,0.171,0.032,0.342,0.048,0.513C279.297,382.778,281.675,383.367,282.068,381.616L282.068,381.616z"/>
			</g>
		</g>
		<g>
			<g>
				<path style="fill:#4757A6;" d="M315.775,369.721c1.31,0.856,2.418,2.209,3.618,3.226c1.192,1.011,2.365,2.046,3.502,3.12
					c1.828,1.727,3.38,4.255,5.807,5.122c0.764,0.273,1.274-0.527,1.177-1.177c-0.404-2.726-3.45-5.022-5.414-6.723
					c-1.062-0.92-2.181-1.792-3.343-2.584c-1.456-0.992-3.063-1.45-4.56-2.333C315.692,367.857,314.938,369.174,315.775,369.721
					L315.775,369.721z"/>
			</g>
		</g>
		<g>
			<g>
				<path style="fill:#F79838;" d="M362.559,377.148c0.269-0.681,0.537-1.361,0.806-2.042c-0.764-0.588-1.529-1.175-2.293-1.763
					c-1.764,5.616-3.782,11.611-4.229,17.498c-0.066,0.875,1.109,1.028,1.529,0.414c3.342-4.888,4.885-11.276,5.711-17.082
					c0.323-2.273-3.053-2.656-3.066-0.415c-0.007,1.258-0.034,2.339,0.238,3.567C361.425,378.094,362.505,377.858,362.559,377.148
					L362.559,377.148z"/>
			</g>
		</g>
		<g>
			<g>
				<path style="fill:#ED3867;" d="M392.342,360.794c1.504-0.207,3.495,1.657,4.631,2.385c1.64,1.051,3.28,2.102,4.92,3.152
					c2.695,1.727,5.167,3.769,8.425,4.053c0.863,0.075,1.359-0.995,0.961-1.675c-2.15-3.679-6.947-5.606-10.451-7.788
					c-2.997-1.866-5.826-4.413-9.514-3.857C388.849,357.437,389.916,361.128,392.342,360.794L392.342,360.794z"/>
			</g>
		</g>
		<g>
			<g>
				<path style="fill:#349946;" d="M447.263,339.148c-1.015,2.274-1.598,4.698-2.287,7.087c-0.689,2.389-1.482,4.757-1.465,7.265
					c0.006,0.918,1.239,1.239,1.711,0.463c1.302-2.139,1.837-4.579,2.473-6.978c0.638-2.407,1.381-4.788,1.68-7.265
					C449.506,338.623,447.709,338.148,447.263,339.148L447.263,339.148z"/>
			</g>
		</g>
		<g>
			<g>
				<path style="fill:#4757A6;" d="M470.385,329.207c0.611,2.935,1.94,5.795,2.968,8.611c0.849,2.325,1.421,5.024,3.333,6.703
					c0.751,0.659,1.719,0.163,1.834-0.76c0.34-2.723-1.267-5.444-2.239-7.93c-1.011-2.585-1.843-5.34-3.219-7.754
					C472.212,326.586,470.055,327.622,470.385,329.207L470.385,329.207z"/>
			</g>
		</g>
		<g>
			<g>
				<path style="fill:#ED3867;" d="M492.601,313.061c7.684,0.95,18.876,0.177,25.531-4.11c0.827-0.533,0.505-1.832-0.503-1.856
					c-4.08-0.099-7.984,1.113-11.988,1.759c-4.444,0.717-8.94,0.961-13.383,1.675C490.693,310.78,491.298,312.9,492.601,313.061
					L492.601,313.061z"/>
			</g>
		</g>
		<g>
			<g>
				<path style="fill:#F79838;" d="M536.633,281.857c-0.398,1.939-0.796,3.878-1.194,5.817c-0.352,1.713-0.722,3.136-0.155,4.838
					c0.154,0.461,0.812,0.74,1.175,0.31c1.14-1.35,1.367-2.689,1.677-4.405c0.353-1.951,0.706-3.903,1.058-5.854
					C539.495,280.9,536.979,280.17,536.633,281.857L536.633,281.857z"/>
			</g>
		</g>
		<g>
			<g>
				<path style="fill:#349946;" d="M547.649,266.494c1.936,2.909,3.5,6.075,4.378,9.47c0.731,2.823,0.371,5.861,1.577,8.511
					c0.337,0.742,1.534,0.686,1.889,0c1.536-2.973,0.481-6.913-0.443-9.973c-1.093-3.619-2.874-6.745-5.253-9.665
					C548.819,263.638,546.792,265.207,547.649,266.494L547.649,266.494z"/>
			</g>
		</g>
		<g>
			<g>
				<path style="fill:#F79838;" d="M533.251,210.729c0.472-1.347,0.602-2.723,0.419-4.143c-0.137-1.061-0.614-2.879-1.944-2.939
					c-1.261-0.057-1.297,1.41-1.238,2.313c0.097,1.486,0.249,2.926,0.193,4.422C530.622,211.923,532.782,212.065,533.251,210.729
					L533.251,210.729z"/>
			</g>
		</g>
	</g>
</g>
</svg>
