<?xml version="1.0" encoding="iso-8859-1"?>
<!-- Generator: Adobe Illustrator 18.1.1, SVG Export Plug-In . SVG Version: 6.00 Build 0)  -->
<svg version="1.1" xmlns="http://www.w3.org/2000/svg" xmlns:xlink="http://www.w3.org/1999/xlink" x="0px" y="0px"
	 viewBox="0 0 880 505" style="enable-background:new 0 0 880 505;" xml:space="preserve">
<g id="Background">
	<rect style="fill:#92C4FF;" width="880" height="505"/>
</g>
<g id="Color">
	<path style="fill:#FFED45;" d="M511.833,127.833c-9.335-0.535-18.78-0.982-28.333-1.333c-39.532-1.454-77.501-1.149-113.75,0.5
		c-2.5,2.667-5,5.333-7.5,8c-0.75,38.333-1.5,76.667-2.25,115c64.5,0.5,129,1,193.5,1.5c0.056-4.833,0.111-9.667,0.167-14.5
		c-4.188-11.182-7.357-20.24-9.333-26c-13.269-38.665-19.904-57.997-20.083-58.75c-0.634-2.655-2.411-10.464-8-18.75
		C514.522,130.938,512.887,129.008,511.833,127.833z"/>
	<path style="fill:#FFED45;" d="M216.5,127.5c5.125-0.5,10.25-1,15.375-1.5c37.708,0.167,75.417,0.333,113.125,0.5
		c3.667,3,7.333,6,11,9c1.49,3.667,2.979,7.333,4.469,11c-0.167,35.167-0.302,70.333-0.469,105.5c-52,0-104,0-156,0
		c0.5-37.167,1-74.333,1.5-111.5c1.252-2.102,2.886-4.507,5-7C212.582,131.045,214.655,129.065,216.5,127.5z"/>
	<path style="fill:#D7E6FF;" d="M391,144c0,0-5.127,1.835-9,5.5c-5.633,5.33-3.846,13.515-4.5,33
		c-0.457,13.598-1.816,24.185,1.5,33.5c1.909,5.361,4.561,8.041,6.5,9.5c1.719,1.294,3.814,2.333,6.5,3
		c17.052,4.236,92.671,2.13,97.5,2c18.108-0.487,34.674,0.067,38.5-8.5c0.836-1.871,0.724-3.747,0.5-7.5
		c-0.619-10.38-4.816-14.878-9.5-27c-1.557-4.029-2.871-8.686-5.5-18c-3.272-11.591-4.084-16.312-8.5-20.5
		c-3.272-3.103-7.024-4.493-11-5.5c-14.335-3.631-23.447-0.224-39,0.5c-17.271,0.803-40.204-1.809-55.5-1.5
		C398.097,142.528,394.855,142.62,391,144z"/>
	<path style="fill:#D7E6FF;" d="M552,144.5c-7.436,2.687-10.256,6.374-11.5,9c-5.017,10.593,8.446,19.061,15.5,46.5
		c2.797,10.88,2.779,17.71,7.5,19.5c5.333,2.022,12.491-3.989,17-8.5C571,188.833,561.5,166.667,552,144.5z"/>
	<path style="fill:#D7E6FF;" d="M335.5,144c4.846,2.943,7.262,7.173,8,8.5c4.298,7.732,1.479,12.881,1,31.5
		c-0.311,12.104,0.772,14.128-0.5,23.5c-1.191,8.781-1.787,13.171-4.5,16.5c-5.935,7.283-17.29,4.488-35.833,3.667
		c-35.313-1.564-48.883,6.147-71.333-2.667c-5.571-2.187-11.601-5.357-14-11.333c-2.241-5.582,0.741-8.493,2-18.667
		c1.997-16.131-4.159-19.631-0.667-32.667c0.999-3.727,2.839-10.596,8.667-15.333c6.327-5.143,13.67-4.778,24-4.667
		c36.355,0.39,54.532,0.586,62.667-0.667C319.515,140.972,327.962,139.421,335.5,144z"/>
	<path style="fill:#D7E6FF;" d="M164.333,141.667c3.572,0.217,11.655,1.236,18,7.333c6.177,5.935,7.341,13.447,8.667,22
		c0.847,5.463,1.496,14.088-0.667,24.667c-0.444,5.111-0.889,10.222-1.333,15.333c-0.122,2.151-0.647,5.232-2.667,8
		c-3.344,4.583-9.152,6.072-18,6.667c-8.139,0.547-20.724,0.464-36.667-3.333C142.556,195.444,153.444,168.556,164.333,141.667z"/>
	<path style="fill:#FFED45;" d="M246,68.333c-15,0.444-29.5,0.889-44.167,1.333c-0.618,0.78-5.1,6.53-3.417,14
		c1.21,5.371,4.968,8.433,6.125,9.333C218.319,92.556,232,92.111,246,91.667C246,83.889,246,76.111,246,68.333z"/>
	<path style="fill:#FFED45;" d="M449,68c0,8.667,0,17.333,0,26c12-0.111,24-0.222,36-0.333c5.175-0.901,9.364-4.56,10.667-9.333
		c1.593-5.84-1.396-12.39-7.333-15.333C475.222,68.667,462.111,68.333,449,68z"/>
	<path style="fill:#FFED45;" d="M246.5,69.5c0.011,1.408,0.073,9.634,0.083,11.042c0.011,1.51,0.073,9.948,0.083,11.458
		C263,92,296,92,296,92c0-7.667,0-15.333,0-23C279.5,69.167,263,69.333,246.5,69.5z"/>
	<path style="fill:#FFED45;" d="M346,69c0,7.333,0,14.667,0,22c17.778,0,53,0,53,0c0.333-7.111,0.667-14.222,1-21.333
		C382,69.444,364,69.222,346,69z"/>
	<path style="fill:#FFED45;" d="M449.667,69c0.111,7.333,0.222,14.667,0.333,22c-16.778,0.111-33.556,0.222-50.333,0.333
		c-0.111-7.444-0.222-14.889-0.333-22.333C416.111,69,432.889,69,449.667,69z"/>
	<path style="fill:#FFED45;" d="M295,69c17,0,34.333,0,51.333,0c-0.111,7.333-0.389,14.667-0.5,22C328.944,91.333,312,91.667,295,92
		C295,84.333,295,76.667,295,69z"/>
	<path style="fill:#FFED45;" d="M776,283.333c0,7.444,0,14.889,0,22.333c8,0.111,16.056,0.222,24.167,0.333
		c-0.333-7.444-0.583-14.889-0.917-22.333C791.472,283.556,783,283.444,776,283.333z"/>
	<path style="fill:#7A7A7A;" d="M224.667,362.667c-4.021,1.795-20.515,9.16-27.333,28c-7.206,19.91,2.04,37.033,3.333,39.333
		c9.393,16.716,25.78,21.61,32.667,23.667c7.062,2.109,24.95,7.452,42-2.667c14.92-8.855,19.686-23.905,21-29
		c4.667-18.098-2.724-32.749-5.333-37.333c-1.502-2.639-8.089-13.658-22-20.667c-4.849-2.443-15.935-7.094-30-5.333
		C235.907,359.054,230.623,360.007,224.667,362.667z"/>
	<path style="fill:#D3D3D3;" d="M245.667,387c-7.937,0.339-16.015,5.498-18.667,14c-2.213,7.097-0.123,14.852,5,20
		c8.116,8.156,19.361,5.268,20.333,5c1.61-0.444,7.65-2.211,11.667-8.333c0.637-0.971,4.326-6.783,3-14
		C265.303,394.434,256.071,386.556,245.667,387z"/>
	<path style="fill:#7A7A7A;" d="M584,372c-2.937,2.466-16.329,13.711-18,32c-2.424,26.526,20.988,54.967,49,56
		c26.693,0.984,43.319-23.444,45-26c2.859-4.347,9.986-15.528,9-31c-0.085-1.33-1.825-23.082-20-36
		C628.916,352.724,600.866,357.838,584,372z"/>
	<path style="fill:#D3D3D3;" d="M612,388c-1.409,0.465-10.368,3.587-13.333,12.667c-2.264,6.932,0.407,12.923,1.333,15
		c0.972,2.181,3.653,8.192,10.333,11c6.528,2.744,12.569,0.62,14.333,0c6.257-2.199,14.925-8.49,15.333-18.667
		c0.324-8.096-4.729-14.924-10.667-18.333C621.327,385.07,613.266,387.582,612,388z"/>
	<path style="fill:#FF2E2E;" d="M186.667,113.667c-13.37,4.572-20.324,19.483-23.667,29.667c4.386-0.669,14.966-1.684,21,4.667
		c3.773,3.971,3.421,8.35,4,20c1.529,30.77,5.785,36.533,0,46c-1.035,1.694-4.821,7.717-12,11c-4.788,2.19-8.657,2.05-23,2
		c-7.721-0.027-13.788-0.012-17,0c-1.333,8-2.667,16-4,24c24.333,0.333,48.667,0.667,73,1c-0.333-35.667-0.667-71.333-1-107
		c0.448-2.004,1.897-7.232,6.667-11.667c5.609-5.214,12.092-5.875,14-6c39.444-0.111,78.889-0.222,118.333-0.333
		c2.546,0.711,7.306,2.425,11.667,6.667c2.699,2.625,4.348,5.345,5.333,7.333c0.629-2.302,2.156-6.574,6-10.333
		c1.75-1.711,3.53-2.877,5-3.667c45.667,0,91.333,0,137,0c1.455,0.529,3.577,1.49,5.75,3.25c2.082,1.686,3.432,3.473,4.25,4.75
		c11.833,34.167,23.667,68.333,35.5,102.5c-0.167,4.167-0.333,8.333-0.5,12.5c11.667-0.333,23.333-0.667,35-1
		c-1.333-7-2.667-14-4-21c-3.803,1.052-10.284,2.153-16-1c-3.583-1.976-6.42-5.378-12-20c-3.95-10.351-3.854-12.119-7-21
		c-7.096-20.03-12.579-25.126-10-33c0.959-2.927,3.316-7.108,10-11c-1.244-3.717-6.943-19.368-23-27c-6.576-3.125-12.749-3.889-17-4
		c-188.892,3.223-263.658,3.369-277,2c-9.67-0.992-14.113-0.995-23-1C197.381,111.993,191.571,111.99,186.667,113.667z"/>
	<path style="fill:#FF2E2E;" d="M551.667,250.667c37.361-2.181,78.702-2.52,123.333,0.333c24.77,1.583,48.304,4.006,70.5,7
		c3.366,0.53,9.3,1.911,15.5,6c6.529,4.305,10.218,9.544,12,12.5c0.505,9.047,1.113,21.755,1.5,37c0.977,38.475-0.649,45.815-4.5,53
		c-8.779,16.381-24.52,23.37-29.5,25.5c-23.05,9.858-44.047,2.811-49,1c-1.161-6.994-5.833-29.715-26-47
		c-2.818-2.415-34.246-28.41-72.5-15c-24.975,8.755-43.204,30.92-47.5,57.5c-74.635,1.028-149.269,2.056-223.904,3.084
		c-0.237-3.146-3.618-40.088-34.498-56.997c-33.873-18.548-69.625,4.097-74.996,7.5c-24.027,15.218-33.174,38.28-35.998,46.498
		c-6.869,1.23-29.215,4.391-43.498-9c-7.663-7.185-11.284-17.52-11.999-46.498c-0.496-20.086,0.413-48.727,7.06-83.421
		c25.667,0.333,51.333,0.667,77,1c0.111,14.778,0.222,29.556,0.333,44.333c1.315,3.827,3.084,4.728,4,5
		c1.618,0.48,2.869-0.324,6.667-1.667c2.187-0.773,4.46-1.284,6.667-2c4.252-1.379,13.072-2.651,25.333-2.333
		c7.488,0.194,17.995,0.466,31.333,4c11.016,2.919,25.892,6.86,39.667,19.333c9.251,8.377,14.611,17.53,17.667,24
		c3.117,1.391,5.652,1.489,7.333,1.333c7.896-0.73,14.981-8.714,17.667-20c0.11,1.805,0.761,9.097,6.667,14.333
		c4.427,3.925,9.525,4.671,12,5c5.102,0.678,9.102-0.365,10.333-0.667c10.803-2.649,20.591-0.259,71,0
		c14.06,0.072,10.92-0.126,16.667,0c21.978,0.481,37.14,2.706,57-0.333c4.889-0.748,11.528-2.04,15.667-7.333
		c3.347-4.28,3.585-9.294,3.667-11.667C554.742,310.094,553.956,284.399,551.667,250.667z"/>
	<path style="fill:#FFED45;" d="M713,267c-0.323,0.172-3.943,2.191-5,6.333c-0.232,0.91-0.942,3.503,0.333,5.667
		c1.354,2.298,4.187,2.84,6.667,3.333c16.543,3.292,17.62,4.46,21,3c2.728-1.179,6.742-3.981,6.667-7.333
		c-0.061-2.678-2.773-4.634-4.667-6c-1.613-1.163-3.768-2.34-11.333-4C719.327,266.39,715.604,265.613,713,267z"/>
	<path style="fill:#FFED45;" d="M361.5,299c-1.22,3.296-3.813,11.66-1.5,22c2.089,9.337,7.087,15.408,9.5,18
		c1.098,0.403,2.831,0.988,5,1.5c8.951,2.113,16.3,0.843,18.5,0.5c11.692-1.821,23.668,0.141,35.5,0
		c19.01-0.226,21.478,0.231,52.5,0.5c13.748,0.119,33.773,0.207,58.5,0c2.99-0.78,7.843-2.569,11-7c2.381-3.341,2.813-6.802,3-8.5
		c1.885-17.12-0.408-43.668,0-63c0.099-4.666,0.344-8.407,0.5-10.5c-64.333-0.333-128.667-0.667-193-1
		C361.167,267.333,361.333,283.167,361.5,299z"/>
	<path style="fill:#FFED45;" d="M204,251.25c0,15.75,0,31.5,0,47.25c0.984,0.529,2.53,1.221,4.5,1.5c4.937,0.7,8.998-1.691,10.5-2.5
		c3.735-2.011,9.824-2.674,22-4c12.357-1.346,22.039,0.577,31.875,2.531c15.404,3.06,23.908,4.749,32.563,11.484
		c3.811,2.966,2.726,3.077,14.063,13.484c7.401,6.795,9.282,8.049,11.5,12c2.025,3.606,2.341,5.914,4.969,7.508
		c4.148,2.515,9.552,0.486,11.016-0.004c10.55-3.532,13.653-16.835,14.016-18.504c0-24.333,0-48.667,0-73
		C308.833,249.75,257,250.5,204,251.25z"/>
</g>
<g id="Line">
	<path style="fill:#272525;" d="M265.497,355.353c-21.883-8.168-47.796-1.066-62.55,16.993
		c-14.887,18.221-17.249,44.352-5.137,64.705c12.167,20.443,36.15,30.889,59.416,26.521c26.282-4.934,45.112-28.865,45.401-55.26
		C302.368,384.658,287.668,363.629,265.497,355.353z M261.793,449.829c-17.703,6.35-37.533,1.179-49.655-13.274
		c-11.897-14.185-13.344-35.062-3.919-50.899c9.362-15.73,28.278-24.473,46.336-20.88c20.824,4.144,35.784,22.356,36.016,43.535
		C290.373,426.446,279.121,443.614,261.793,449.829z"/>
	<path style="fill:#272525;" d="M256.729,382.666c-10.001-3.798-21.809-0.728-28.706,7.447c-7.068,8.379-8.222,20.706-2.492,30.137
		c5.641,9.285,16.525,13.97,27.148,12.02c11.982-2.199,20.272-12.839,20.866-24.7c0.023-0.217,0.037-0.439,0.031-0.675
		c0.007-0.29-0.014-0.562-0.05-0.823C272.956,395.623,266.648,386.433,256.729,382.666z M247.7,423.73
		c-9.174,0.022-16.858-7.662-16.836-16.835c0.022-9.188,7.632-16.835,16.836-16.835c9.361,0,16.603,7.656,16.835,16.835
		C264.302,416.093,257.062,423.707,247.7,423.73z"/>
	<path style="fill:#272525;" d="M636.526,355.353c-21.883-8.168-47.796-1.066-62.551,16.993
		c-14.887,18.221-17.249,44.352-5.137,64.705c12.167,20.443,36.151,30.889,59.416,26.521c26.282-4.934,45.112-28.865,45.401-55.26
		C673.398,384.658,658.697,363.629,636.526,355.353z M632.823,449.829c-17.703,6.35-37.533,1.179-49.655-13.274
		c-11.897-14.185-13.344-35.062-3.918-50.899c9.362-15.73,28.278-24.473,46.335-20.88c20.824,4.144,35.784,22.356,36.016,43.535
		C661.402,426.446,650.151,443.614,632.823,449.829z"/>
	<path style="fill:#272525;" d="M627.758,382.666c-10.002-3.798-21.81-0.728-28.706,7.447c-7.067,8.379-8.221,20.706-2.492,30.137
		c5.641,9.285,16.524,13.97,27.148,12.02c11.982-2.199,20.271-12.839,20.866-24.7c0.023-0.217,0.037-0.439,0.031-0.675
		c0.007-0.29-0.014-0.562-0.05-0.823C643.986,395.623,637.677,386.433,627.758,382.666z M618.729,423.73
		c-9.174,0.022-16.858-7.662-16.835-16.835c0.023-9.188,7.632-16.835,16.835-16.835c9.361,0,16.603,7.656,16.835,16.835
		C635.331,416.093,628.091,423.707,618.729,423.73z"/>
	<path style="fill:#272525;" d="M804.988,314.462h-23.781c-0.001-2.103-0.003-4.205-0.006-6.307c5.979,0,11.958,0,17.937,0
		c0.589,0,1.038-0.215,1.359-0.537c0.024-0.02,0.045-0.043,0.068-0.064c0.012-0.013,0.025-0.025,0.037-0.039
		c0.327-0.321,0.545-0.773,0.545-1.368c0-7.743,0-15.487,0-23.23c0-1.086-0.921-2.009-2.009-2.009c-6.236,0-12.472,0-18.708,0
		c-2.03-7.573-7.869-14.738-13.639-19.304c-6.023-4.766-12.263-7.165-19.682-8.775c-14.405-3.126-29.148-4.807-43.813-6.146
		c-22.899-2.091-45.899-3.12-68.897-3.61c-14.374-0.373-28.754-0.493-43.121-0.359c-6.262-39.5-17.803-80.08-42.145-112.362
		c-0.256-0.7-0.655-1.313-1.158-1.83c-4.48-7.93-11.725-14.114-20.027-17.787c-5.138-2.273-10.411-3.631-15.984-4.303
		c-3.352-0.404-9.059-1.464-13.191-0.47c-13.709,0-27.418,0-41.127,0v-8.736h25.434c4.476,0,8.36-2.526,10.22-6.165
		c2.293-1.762,4.007-4.254,4.735-7.329c2.104-8.877-3.772-17.204-12.918-17.701c-10.724,0-21.448,0-32.172,0
		c-25.098,0-50.195,0-75.293,0c-28.86,0-57.72,0-86.58,0c-21.942,0-43.884,0-65.826,0c-5.166,0-10.333,0-15.499,0
		c-1.93,0-3.812,0.039-5.691,0.632c-8.639,2.726-11.824,13.787-7.126,21.199c0.063,0.1,0.132,0.185,0.197,0.282
		c0.939,5.14,5.614,9.081,11.21,9.081h27.522v8.736c-6.49,0-12.979,0-19.469,0c-8.358,0-16.716,0-25.074,0
		c-11.457,0-18.793,9.151-24.592,18.06c-12.179,18.712-20.044,40.635-26.931,61.742c-2.72,8.336-5.224,16.753-7.417,25.247
		c-1.489-0.378-3.041-0.59-4.644-0.59h-33.55c-10.544,0-19.172,8.627-19.172,19.172v101.609c0,10.544,8.627,19.172,19.172,19.172
		h18.425c0.006,0.931,0.007,1.863,0.017,2.794c0.186,16.968,9.157,32.554,23.558,41.496c12.996,8.07,27.237,7.625,41.878,7.625
		c2.389,0,5.416-1.854,5.813-4.426c0.363-2.356,0.621-4.792,0.963-7.216c0.546-0.633,0.935-1.373,1.069-2.186
		c1.27-7.741,3.875-15.13,7.6-21.841c12.086-14.551,30.099-23.43,49.253-23.771c20.251-0.361,39.71,8.714,52.44,24.477
		c7.116,8.812,11.474,19.417,13.318,30.538c0.426,2.571,3.369,4.426,5.813,4.426c26.197,0,52.393,0,78.59,0
		c41.702,0,83.404,0,125.106,0c9.502,0,19.005,0,28.507,0c2.414,0,5.387-1.855,5.813-4.426c3.971-23.948,20.706-44.233,43.968-51.77
		c23.429-7.591,49.696-1.441,67.071,16.075c9.681,9.759,15.719,22.176,17.961,35.696c0.426,2.571,3.369,4.426,5.813,4.426
		c13.096,0,26.191,0,39.287,0c7.222,0,14.365-0.178,21.297-2.556c11.549-3.963,21.554-12.009,27.552-22.697
		c5.59-9.96,6.255-20.399,6.255-31.51c0-0.63-0.086-1.214-0.243-1.749c0.229-5.02,0.075-10.111-0.025-15.116h23.707V314.462z
		 M549.129,151.911c4.398,7.491,8.263,15.317,11.585,23.341c5.64,13.624,9.971,27.752,13.363,42.109
		c-1.37,0.029-2.739,0.032-4.079-0.08c-2.251-0.188-2.896-1.785-3.949-4.341c-1.763-4.279-3.025-8.878-4.558-13.26
		c-4.203-12.01-8.406-24.02-12.61-36.029C547.425,159.488,545.211,154.662,549.129,151.911z M451.454,72.058
		c10.546,0,21.092,0,31.638,0c0.675,0,1.349,0,2.024,0c9.728,0.528,9.492,15.324-0.094,15.915c-0.944,0.058-1.91,0-2.855,0
		c-5.514,0-11.029,0-16.543,0c-4.723,0-9.446,0-14.17,0V72.058z M401.553,72.058c13.124,0,26.248,0,39.371,0
		c2.083,0,4.166,0,6.249,0v15.915c-15.207,0-30.414,0-45.62,0V72.058z M441.799,97.225v8.736c-39.496,0-78.992,0-118.489,0
		c-23.868,0-47.735,0-71.603,0v-8.736H441.799z M347.781,72.058c5.741,0,11.482,0,17.223,0c10.756,0,21.513,0,32.269,0v15.915
		c-16.497,0-32.995,0-49.492,0V72.058z M297.88,72.058c15.207,0,30.413,0,45.62,0v15.915c-8.4,0-16.799,0-25.199,0
		c-6.807,0-13.614,0-20.421,0V72.058z M247.98,72.058c11.559,0,23.119,0,34.678,0c3.647,0,7.294,0,10.942,0v15.915
		c-15.207,0-30.413,0-45.62,0V72.058z M208.602,87.973c-5.629-0.176-8.971-5.187-7.477-10.589c1.054-3.809,4.474-5.264,8.053-5.326
		c4.426-0.076,8.861,0,13.287,0c7.078,0,14.157,0,21.235,0v15.918C232.017,87.995,220.275,88.339,208.602,87.973z M146.319,205.684
		c5.287-18.65,11.532-37.314,19.735-54.953c3.103-0.12,6.475-0.308,9.218,0.898c4.666,2.052,6.978,6.86,7.069,11.738
		c0.139,7.396,0,14.808,0,22.204c0,7.173,0.147,14.363,0,21.535c-0.103,5.016-2.671,9.93-7.555,11.8
		c-2.688,1.029-5.94,0.653-8.767,0.653c-7.793,0-15.587,0-23.38,0C143.765,214.906,145.015,210.282,146.319,205.684z
		 M138.761,241.698c0.089-1.261,0.162-2.516,0.296-3.774c0.041-0.391,0.092-0.782,0.142-1.172c0.008-0.056,0.018-0.119,0.029-0.191
		c0.152-1.004,0.31-2.007,0.482-3.009c0.111-0.649,0.235-1.296,0.353-1.943c0.042,0.001,0.082,0.006,0.124,0.006
		c8.61,0,17.22,0,25.83,0c4.022,0,8.09,0.196,11.972-1.084c7.884-2.599,14.079-9.572,15.777-17.704
		c1.655-7.926,0.629-16.844,0.629-24.865c0-8.264,0.199-16.555,0-24.817c-0.21-8.683-4.414-17.054-12.121-21.439
		c-3.317-1.888-6.774-2.588-10.324-2.843c3.509-6.625,7.299-12.916,12.302-17.705c0.469-0.449,0.955-0.878,1.446-1.303
		c0.055-0.047,0.095-0.083,0.135-0.119c0.028-0.018,0.048-0.032,0.081-0.054c0.237-0.161,0.467-0.338,0.714-0.484
		c0.414-0.246,0.826-0.482,1.244-0.71c-0.227,0.153,0.71-0.226,1.174-0.43c0.07-0.031,0.123-0.057,0.174-0.082
		c0.083,0.015,0.189,0.029,0.343,0.039c0.18,0.012,0.364-0.005,0.544,0c7.001,0.186,14.032,0,21.034,0c34.085,0,68.17,0,102.255,0
		c40.228,0,80.456,0,120.684,0c14.69,0,29.38,0,44.069,0c6.943,0,13.957,0.292,20.895,0c0.213-0.009,0.425-0.022,0.635-0.04
		c-0.032,0.013-0.064,0.027-0.097,0.04c14.913-0.884,31.221,3.587,38.581,17.676c0.057,0.109,0.12,0.209,0.181,0.312
		c1.116,2.033,2.979,3.967,4.404,5.917c-6.668,4.593-9.842,12.369-6.923,20.854c1.922,5.586,3.903,11.152,5.854,16.727
		c4.446,12.702,8.242,25.961,13.452,38.374c2.255,5.373,5.752,10.16,11.838,11.208c3.152,0.543,6.49,0.326,9.712,0.267
		c1.038,5.182,1.972,10.383,2.811,15.592c-8.009,0-16.018,0-24.028,0c0.055-2.636,0.406-5.569-0.086-8.125
		c-0.504-2.619-1.87-5.312-2.752-7.819c-9.983-28.367-19.968-56.733-29.951-85.1c-0.819-2.328-1.639-4.657-2.459-6.985
		c-3.031-7.736-9.722-12.294-18.012-12.381c-3.523-0.037-7.049,0-10.572,0c-15.101,0-30.202,0-45.303,0c-16.236,0-32.472,0-48.708,0
		c-4.943,0-9.885,0-14.828,0c-3.287,0-6.805-0.307-10.001,0.431c-6.611,1.526-11.108,6.728-12.483,13.001
		c-0.171-0.373-0.354-0.745-0.552-1.115c-4.053-7.59-11.972-12.123-20.49-12.306c-1.808-0.039-3.622,0-5.431,0
		c-24.576,0-49.152,0-73.729,0c-10.013,0-20.027,0-30.04,0c-2.448,0-4.897-0.08-7.324,0.297
		c-8.612,1.339-15.881,7.642-18.558,15.921c-1.811,5.603-1.092,12.32-1.092,18.133c0,10.94,0,21.881,0,32.821
		c0,17.742,0,35.484,0,53.227c-1.492,0-2.985,0-4.477,0c-2.999,0-5.998,0-8.997,0c-15.392,0-30.877-0.446-46.295-0.213
		c-1.633-0.038-3.266-0.057-4.892-0.046C138.577,243.692,138.69,242.697,138.761,241.698z M363.884,287.619
		c0-7.615,0-15.23,0-22.845c1.992-0.486,3.483-2.285,3.483-4.421v-3.353c17.355,0,34.709,0,52.064,0c18.234,0,36.467,0,54.7,0
		c19.668,0,39.336,0,59.003,0c6.09,0,12.195,0.072,18.304,0.143c0,1.663,0,3.327,0,4.99c0,15.99,0,31.98,0,47.97
		c0,4.596,0.025,9.193,0,13.789c-0.046,8.442-5.649,15.143-14.365,15.447c-21.49,0.751-43.14,0-64.64,0c-28.787,0-57.574,0-86.36,0
		c-2.507,0-5.025,0.067-7.532,0c-8.227-0.221-14.391-6.181-14.657-14.458c-0.112-3.484-0.1-6.98-0.068-10.475
		c2.026-0.461,3.551-2.279,3.551-4.439V292.04C367.367,289.904,365.875,288.104,363.884,287.619z M551.438,238.298
		c-0.004,1.658,0,3.315,0,4.973c0,0.557,0,1.114,0,1.672c-2.497,0-4.995,0-7.492,0c-17.092,0-34.184,0-51.276,0
		c-19.264,0-38.527,0-57.791,0c-22.504,0-45.008,0-67.512,0v-2.517c0-2.136-1.492-3.936-3.483-4.421c0-8.276,0-16.552,0-24.828
		c0-23.409,0-46.818,0-70.227c0-5.86,2.319-11.348,8.226-13.57c3.22-1.211,6.975-0.827,10.406-0.827c11.821,0,23.643,0,35.464,0
		c27.59,0,55.18,0,82.77,0c6.814,0,12.923,2.607,15.596,9.431c8.322,23.644,16.643,47.287,24.965,70.931
		c3.331,9.464,7.371,18.946,10.071,28.614c0.033,0.118,0.056,0.172,0.072,0.191C551.445,237.82,551.439,237.994,551.438,238.298z
		 M207.118,147.787c0.233-10.603,8.618-18.995,19.222-19.224c5.529-0.12,11.075,0,16.605,0c25.142,0,50.284,0,75.426,0
		c6.845,0,13.701-0.112,20.545,0c11.927,0.195,19.586,9.503,19.586,20.94c0,17.587,0,35.173,0,52.76c0,11.877,0,23.754,0,35.631
		c-2.294,0.229-4.102,2.179-4.102,4.531v2.517c-6.477,0-12.955,0-19.432,0c-10.546,0-21.093,0-31.639,0c-32.07,0-64.141,0-96.211,0
		c0-10.523,0-21.046,0-31.569c0-20.641,0-41.282,0-61.923C207.118,150.231,207.091,149.007,207.118,147.787z M207.118,293.222
		c0-2.933,0-5.865,0-8.797c0-9.142,0-18.284,0-27.425c26.921,0,53.842,0,80.763,0c9.516,0,19.032,0,28.548,0
		c12.657,0,25.314,0,37.97,0v3.353c0,2.352,1.807,4.302,4.102,4.531c0,5.41,0,10.82,0,16.231c0,2.124,0.023,4.256,0.055,6.391
		c-2.32,0.204-4.156,2.164-4.156,4.534v17.926c0,2.447,1.957,4.454,4.382,4.546c-0.059,2.595-0.147,5.186-0.31,7.763
		c-0.632,9.99-9.153,18.098-19.191,18.098c-2.208-0.283-4.611-5.577-5.804-7.298c-1.472-2.124-3.022-4.196-4.636-6.215
		c-2.949-3.689-6.155-7.175-9.612-10.393c-6.282-5.847-13.382-10.833-21.068-14.658c-13.994-6.963-29.571-10.065-45.142-10.218
		c-13.699-0.134-27.421,1.909-40.655,5.377c-2.105,0.552-4.441,0.873-5.245-1.669C206.939,294.735,207.118,293.811,207.118,293.222z
		 M769.159,343.717c-0.008,0.752-0.043,1.5-0.095,2.245c-5.149,15.023-19.041,25.274-35.102,25.49c-13.14,0-26.28,0-39.42,0
		c-5.893-25.897-25.419-47.313-50.748-55.691c-27.235-9.008-58.23-1.311-78.26,19.145c-9.863,10.072-16.804,22.825-19.918,36.545
		c-24.375,0-48.749,0-73.124,0c-41.104,0-82.207,0-123.31,0c-7.767,0-15.534,0-23.301,0c-5.651-24.862-23.788-45.406-47.655-54.585
		c-25.931-9.973-55.892-4.135-76.832,13.82c-11.548,9.902-19.772,23.353-23.789,37.984c-0.276,1.003-0.299,1.935-0.134,2.781
		c-1.927,0-3.855,0-5.782,0c-20.811-0.26-37.913-16.666-38.001-37.638c-0.057-13.513,0-27.027,0-40.54
		c0-6.489,1.124-12.661,2.298-19.028c0.161-0.874,0.146-1.793-0.028-2.679c0.875-4.856,1.75-9.712,2.625-14.568
		c13.41,0,26.821,0,40.231,0c2.376,0,4.752,0,7.127,0c5.719,0,11.439,0,17.158,0c0,4.961,0,9.922,0,14.883
		c0,7.424-0.062,14.85,0,22.274c0.026,3.054,0.714,5.999,3.973,7.227c2.986,1.126,6.88-0.701,9.845-1.414
		c3.219-0.774,6.459-1.459,9.718-2.045c33.819-6.082,69.66-0.215,94.074,25.682c3.528,3.742,6.741,7.767,9.646,12.009
		c2.405,3.512,3.875,7.683,8.194,8.643c0.217,0.081,0.456,0.134,0.731,0.134c0.217,0.028,0.409,0.015,0.59-0.015
		c9.715-0.239,17.333-6.34,20.725-14.643c2.018,7.218,8.057,12.775,15.939,13.531c6.866,0.658,14.014,0.093,20.898,0.093
		c15.284,0,30.569,0,45.853,0c29.245,0,58.49,0,87.736,0c2.024,0,4.056,0.055,6.079,0c10.21-0.28,18.067-8.144,18.357-18.346
		c0.303-10.624,0-21.301,0-31.928c0-11.965,0-23.931,0-35.896c10.997,0.123,22.001,0.199,32.955-0.188c0.26-0.009,0.521,0,0.781,0
		c7.095,0,14.19,0,21.285,0c22.127,0,44.377,0.684,66.497,0c0.297-0.009,0.595,0,0.892,0c0.677,0.041,1.292-0.019,1.85-0.153
		c17.809,1.012,35.596,2.613,53.137,5.517c6.108,1.011,13.007,1.755,18.819,3.941c3.921,1.475,7.704,4.401,10.597,7.384
		c2.9,2.991,6.797,8.059,6.856,12.399c0.008,9.457,0.063,18.916,0.094,28.374h-16.113v14.196h16.131
		C769.231,333.678,769.21,338.698,769.159,343.717z M781.181,286.088c0-0.27-0.018-0.528-0.046-0.779
		c-0.007-0.128-0.014-0.256-0.023-0.384c5.339,0,10.678,0,16.017,0c0,6.404,0,12.807,0,19.211c-5.31,0-10.621,0-15.931,0
		C781.19,298.12,781.186,292.104,781.181,286.088z"/>
	<path style="fill:#272525;" d="M736.832,268.748c-0.136-0.058-0.286-0.105-0.453-0.135c-5.52-1.01-11.04-2.021-16.559-3.032
		c-2.463-0.451-4.874-0.982-7.365-0.289c-4.081,1.134-7.146,4.815-7.295,9.088c-0.274,7.814,6.788,9.826,12.919,10.949
		c3.549,0.65,7.098,1.299,10.647,1.949c2.181,0.399,4.501,1.03,6.727,0.834C746.866,287.108,747.035,271.764,736.832,268.748z
		 M733.806,284.113c-1.778-0.13-3.59-0.634-5.339-0.954c-4.639-0.849-9.488-1.378-14.052-2.572
		c-7.102-1.86-6.464-11.866,1.203-11.657c1.75,0.048,3.581,0.608,5.294,0.922c4.799,0.879,9.599,1.757,14.399,2.636
		C742.621,274.327,741.621,284.684,733.806,284.113z"/>
	<path style="fill:#272525;" d="M391.274,276.496h18.317c2.652,0,4.822-2.17,4.822-4.822v-0.679c0-2.652-2.17-4.822-4.822-4.822
		h-18.317c-2.652,0-4.822,2.17-4.822,4.822v0.679C386.451,274.326,388.621,276.496,391.274,276.496z"/>
	<path style="fill:#272525;" d="M214.882,210.849c0.083,10.154,6.177,19.397,16.24,22.181c3.903,1.08,8.12,0.792,12.131,0.792
		c27.992,0,55.983,0,83.975,0c0.742,0,1.484,0,2.226,0c0.265,0,0.518-0.017,0.764-0.044c11.925-0.776,21.02-10.087,21.338-22.163
		c0.132-5.023,0-10.068,0-15.093c0-12.888,0.819-26.061-0.037-38.926c-0.788-11.844-10.387-20.697-22.148-21.007
		c-3.329-0.087-6.672,0-10.002,0c-15.629,0-31.258,0-46.886,0c-11.639,0-23.286-0.129-34.924,0
		c-9.884,0.109-18.784,6.108-21.729,15.737c-1.535,5.023-0.949,10.857-0.949,16.047
		C214.882,182.531,214.766,196.693,214.882,210.849z M230.85,150.738c3.14-2.402,6.745-2.092,10.421-2.092
		c5.364,0,10.729,0,16.092,0c23.98,0,48.124-0.846,72.09,0c7.054,0.249,10.047,5.909,10.047,12.195c0,6.128,0,12.257,0,18.385
		c0,7.604,0,15.208,0,22.812c0,3.85,0.687,8.563-0.361,12.339c-1.225,4.41-5.198,7.236-9.685,7.389c-23.917,0-47.834,0-71.751,0
		c-5.477,0-10.955,0-16.432,0c-3.676,0-7.281,0.311-10.421-2.092c-4.399-3.365-3.913-8.453-3.913-13.319c0-7.05,0-14.1,0-21.149
		c0-7.05,0-14.1,0-21.149C226.938,159.192,226.451,154.104,230.85,150.738z"/>
	<path style="fill:#272525;" d="M528.223,193.351c-3.191-8.535-6.382-17.07-9.573-25.606c-2.506-6.703-4.49-13.989-7.815-20.294
		c-3.612-6.849-9.412-9.552-16.806-9.552c-5.676,0-11.352,0-17.027,0c-18.526,0-37.053,0-55.579,0c-7.61,0-15.22,0-22.83,0
		c-3.7,0-7.67-0.361-11.334,0.323c-11.48,2.143-16.372,13.97-16.401,24.481c-0.021,7.803,0,15.607,0,23.411
		c0,7.909,0,15.818,0,23.727c0,10.197,4.122,21.699,15.017,24.693c3.521,0.967,7.551,0.597,11.167,0.597c6.595,0,13.189,0,19.784,0
		c32.138,0,64.276,0,96.414,0c0.702,0,1.404,0,2.106,0c0.284,0,0.554-0.021,0.817-0.052c12.391-0.913,22.827-12.293,18.343-24.915
		C532.507,204.529,530.317,198.953,528.223,193.351z M515.349,223.075c-26.266,0-52.533,0-78.799,0c-13.774,0-27.549,0-41.323,0
		c-2.854,0-6.114,0.534-8.434-1.431c-4.912-4.16-3.877-11.761-3.877-17.532c0-14.269-0.245-28.561,0-42.829
		c0.1-5.818,2.825-11.328,8.993-11.328c4.883,0,9.767,0,14.651,0c29.561,0,59.13-0.192,88.69,0c1.257,0.008,2.349-0.07,3.245,0.671
		c3.024,2.505,4.187,8.572,5.481,12.168c1.783,4.951,3.687,9.862,5.53,14.791c3.078,8.232,6.155,16.464,9.233,24.696
		c1.073,2.87,2.146,5.74,3.219,8.61c0.569,1.521,1.653,3.635,1.692,5.216C523.749,220.196,518.977,222.945,515.349,223.075z"/>
</g>
</svg>
