<?xml version="1.0" encoding="iso-8859-1"?>
<!-- Generator: Adobe Illustrator 18.1.1, SVG Export Plug-In . SVG Version: 6.00 Build 0)  -->
<svg version="1.1" xmlns="http://www.w3.org/2000/svg" xmlns:xlink="http://www.w3.org/1999/xlink" x="0px" y="0px"
	 viewBox="0 0 880 505" style="enable-background:new 0 0 880 505;" xml:space="preserve">
<g id="Background">
	<rect style="fill:#FFBB88;" width="880" height="505"/>
</g>
<g id="Color">
	<path style="fill:#FF1010;" d="M157.75,216c8.669-4.317,20.261-11.87,27.125-25c7.147-13.67,3.81-23.135,9.063-37
		c6.863-18.117,22.321-27.723,34.031-35c18.025-11.201,38.983-17.298,146.031-19.75c49.667-1.137,72.216-0.445,99.984,3.75
		c19.781,2.988,36.183,6.843,48.008,10c2.262,9.204,7.077,23.236,18.004,37c22.355,28.16,53.876,34.5,63.002,36
		c3.382,4.92,8.52,11.181,16.001,17c13.116,10.202,26.532,13.672,34.001,15c-29.167,0-88,0-88,0c1.453-4.4,3.429-12.594,1.25-22.25
		c-0.929-4.115-2.281-7.029-2.75-8c-4.23-8.75-10.959-13.142-16-17c-6.187-4.736-2.247-2.862-20.75-21
		c-18.511-18.146-27.766-27.218-32.5-30c-12.915-7.588-31.285-8.079-67.5-8.75c-16.832-0.312-30.685-0.042-40,0.25
		c-1.458,0.036-6.292,0.335-10.75,4c-4.447,3.655-5.68,8.324-6,9.75c-0.417,30.917-0.833,61.833-1.25,92.75
		C298.417,217.167,228.083,216.583,157.75,216z"/>
	<path style="fill:#FF1010;" d="M374.25,117.25c-2.299,2.052-3.92,4.151-5.03,5.847c0.149,31.301,0.298,62.602,0.446,93.903
		c65.778,0.222,131.556,0.444,197.333,0.667c-0.198-3.321-0.529-8.681-1-15.417c-0.527-7.535-0.794-10.586-2.75-14
		c-2.166-3.781-5.135-5.796-6.25-6.583c-6.15-4.342-6.348-6.935-26-28c-17.411-18.663-26.29-28.093-34.75-32.917
		c-9.699-5.53-18.798-8.016-25-9.25c-29.333,0.083-58.667,0.167-88,0.25C380.937,112.648,377.577,114.28,374.25,117.25z"/>
	<path style="fill:#D7E6FF;" d="M395,125c-3.333,4.667-6.667,9.333-10,14c-0.667,16.667-1.333,33.333-2,50c4,3.333,8,6.667,12,10
		c50.333-0.667,100.667-1.333,151-2c-4.343-5.613-9.001-11.294-14-17c-19.59-22.362-39.966-40.051-59-54
		C447,125.667,421,125.333,395,125z"/>
	<path style="fill:#D7E6FF;" d="M279,125c-4.311,1.096-26.127,7.11-39,29c-10.243,17.418-8.72,34.509-8,40
		c38.333,0.667,76.667,1.333,115,2c0.333-21.667,0.667-43.333,1-65c-4.747-2.583-10.419-5.097-17-7
		C308.812,117.582,289.254,121.852,279,125z"/>
	<path style="fill:#D7E6FF;" d="M524,112c1.403,7.644,5.918,26.392,22,43c20.644,21.32,46.095,24.393,53,25
		c-5.214-9.65-13.141-21.859-25-34C555.806,127.373,536.569,117.312,524,112z"/>
	<path style="fill:#FF1010;" d="M368.5,228.5c0.333,43.667,0.667,87.333,1,131c48,0.5,96,1,144,1.5c0.763-7.841,3.096-20.625,11-34
		c13.729-23.232,35.025-32.609,42.5-35.5c0-24.5,0-49,0-73.5c-66.667-0.167-133.333-0.333-200-0.5
		C367.5,221.167,368,224.833,368.5,228.5z"/>
	<path style="fill:#FF1010;" d="M733,217c4.404-0.518,16.471-2.143,28.5,4c14.682,7.497,20.95,22.297,24,29.5
		c8.407,19.852,6.345,37.453,3,66c-2.077,17.73-3.214,26.723-8,33c-16.406,21.516-55.032,15.073-61,14
		c-3.417-10.394-14.847-40.533-46-61c-47.944-31.499-100.978-12.744-107-10.5c-0.167-25-0.333-50-0.5-75
		C652.276,219.785,707.852,219.958,733,217z"/>
	<path style="fill:#FFF53B;" d="M729,235c-3.029,3.12-2.57,7.787-2.5,8.5c1.181,12.01,20.794,17.048,24.5,18
		c5.529,1.42,12.349,3.172,16-0.5c3.038-3.056,2.608-8.585,1.5-12C763.818,234.567,736.953,226.809,729,235z"/>
	<path style="fill:#FFF53B;" d="M791.5,278.5c1.332-0.41,9.517-2.811,14,1.5c1.395,1.342,2.194,3.104,3,9.5
		c1.488,11.803,2.232,17.704-0.5,20.5c-3.787,3.876-11.802,3.6-19.5,0C789.5,299.5,790.5,289,791.5,278.5z"/>
	<path style="fill:#FF1010;" d="M370,217c-0.333,47-0.667,94-1,141c-17.333,0.333-34.667,0.667-52,1
		c-3.631-12.242-13.873-39.893-41-58c-40.345-26.93-95.27-17.552-129,10c-20.529,16.769-29.874,37.547-34,49
		c-6.747-4.911-18.688-15.143-25-32c-3.636-9.712-3.765-17.245-4-31c-0.372-21.804-0.655-38.336,9-55c3.44-5.937,10.63-16.186,25-25
		C202,217,286,217,370,217z"/>
	<path style="fill:#FFF53B;" d="M106,251c-0.013-2.341,0.315-6.179,2.667-9.667c4.71-6.984,14.425-7.949,25-9
		c4.089-0.406,10.054-0.707,17.333,0c-0.111,6.667-0.222,13.333-0.333,20C135.778,251.889,120.889,251.444,106,251z"/>
	<path style="fill:#FFF53B;" d="M84.5,280.5c0.333,11.167,0.667,22.333,1,33.5c-0.794,0.489-6.722,4.014-12.5,1.5
		c-4.258-1.852-5.924-5.892-7-8.5c-3.359-8.145-3.97-22.455,4.5-27C75.818,277.146,82.182,279.502,84.5,280.5z"/>
	<path style="fill:#7A7A7A;" d="M599.667,316.333c-3.372,1.135-29.523,10.418-37.333,36.667c-6.387,21.464,3.82,39.718,7.333,46
		c3.157,5.646,11.981,21.426,31.333,28.667c25.534,9.554,48.067-3.74,50.667-5.333c2.068-1.268,25.082-15.921,28-44.667
		c0.472-4.647,1.741-22.696-10-39.333C654.38,316.672,624.501,307.975,599.667,316.333z"/>
	<path style="fill:#7A7A7A;" d="M217.667,311c-30.781,1.284-47.272,32.011-49.333,36c-2.611,5.054-15.675,30.338-3.333,54
		c14.976,28.712,53.34,28.162,58.667,28c7.84-0.238,30.992-0.942,45.333-19.333c13.969-17.914,9.623-39.842,8.667-44.667
		C272.483,338.847,248.496,309.714,217.667,311z"/>
	<path style="fill:#D3D3D3;" d="M209,349c-9.05,5.323-14.773,16.831-11.333,27.333C201.725,388.723,216.39,393.169,227,391
		c1.007-0.206,15.174-3.346,18.667-16c2.881-10.44-3.821-18.961-4.667-20C233.903,346.28,219.955,342.556,209,349z"/>
	<path style="fill:#D3D3D3;" d="M609,345.667c-7.929,3.82-13.346,12.211-13.333,21.333c0.017,12.491,10.206,19.459,13.333,21.333
		c7.489,4.488,19.666,6.84,28.667,0c7.559-5.744,8.542-14.676,8.667-16c1.087-11.554-7.148-19.248-8.667-20.667
		C631.785,346.171,620.173,340.284,609,345.667z"/>
</g>
<g id="Layer_1">
	<g>
		<path style="fill:#272525;" d="M231.401,339.182c-12.044-4.49-26.266-0.646-34.46,9.226c-8.366,10.079-9.761,24.751-2.939,36.063
			c6.83,11.326,20.072,16.966,32.982,14.54c14.26-2.68,24.17-15.464,24.917-29.577c0.03-0.29,0.048-0.588,0.041-0.903
			c0.01-0.387-0.018-0.749-0.063-1.099C251.195,354.771,243.433,343.668,231.401,339.182z M220.731,386.93
			c-10.085-0.019-18.442-8.409-18.423-18.493c0.019-10.072,8.404-18.465,18.493-18.424c10.263,0.042,18.209,8.393,18.423,18.493
			C238.972,378.589,230.996,386.949,220.731,386.93z"/>
		<path style="fill:#272525;" d="M241.757,309.212c-25.209-9.416-55.029-1.311-72.053,19.496
			c-17.272,21.11-19.913,51.523-5.624,74.981c14.13,23.198,41.523,35.051,68.117,30.003c30.147-5.722,51.822-33.127,52.182-63.454
			C284.159,343.053,267.246,318.733,241.757,309.212z M237.638,419.022c-20.876,7.511-44.125,1.148-58.373-15.807
			c-14.022-16.687-15.525-41.418-4.375-59.963c11.124-18.503,33.451-28.634,54.708-24.297c24.377,4.973,41.861,26.446,42.063,51.258
			C271.406,391.647,258.046,411.68,237.638,419.022z"/>
		<path style="fill:#272525;" d="M630.804,339.933c-12.043-4.49-26.266-0.646-34.46,9.226c-8.366,10.079-9.761,24.751-2.939,36.063
			c6.83,11.326,20.072,16.966,32.982,14.54c14.26-2.68,24.17-15.464,24.917-29.577c0.03-0.29,0.048-0.588,0.041-0.903
			c0.01-0.387-0.018-0.749-0.063-1.099C650.598,355.521,642.836,344.418,630.804,339.933z M620.134,387.68
			c-10.084-0.019-18.442-8.409-18.423-18.493c0.019-10.072,8.404-18.465,18.493-18.424c10.263,0.042,18.209,8.393,18.423,18.493
			C638.375,379.339,630.399,387.7,620.134,387.68z"/>
		<path style="fill:#272525;" d="M641.16,309.963c-25.209-9.416-55.029-1.311-72.053,19.496
			c-17.273,21.11-19.913,51.522-5.624,74.981c14.13,23.198,41.523,35.051,68.117,30.003c30.147-5.722,51.822-33.127,52.182-63.454
			C683.562,343.803,666.649,319.484,641.16,309.963z M637.041,419.773c-20.876,7.511-44.125,1.148-58.373-15.807
			c-14.022-16.687-15.525-41.418-4.375-59.964c11.124-18.503,33.451-28.634,54.708-24.297c24.377,4.973,41.862,26.446,42.063,51.258
			C670.81,392.397,657.449,412.43,637.041,419.773z"/>
		<path style="fill:#272525;" d="M153.953,231.697c-0.002-1.206-0.967-2.039-2.116-2.124c-15.98-1.173-48.243,0.28-48.752,22.217
			c-0.027,1.145,0.987,2.121,2.116,2.124c15.323,0.029,30.646,0.058,45.969,0.086c0.645,0.001,1.133-0.239,1.473-0.601
			c0.009-0.007,0.018-0.01,0.027-0.018c2.05-1.659,1.152-8.123,1.194-10.333C153.936,239.266,153.96,235.481,153.953,231.697z
			 M149.31,250.761c-0.039,0.05-0.067,0.103-0.099,0.155c-0.004-0.021,0.028-0.086,0.113-0.19
			C149.319,250.74,149.314,250.747,149.31,250.761z M149.658,240.943c-0.029,2.144-0.064,4.289-0.148,6.432
			c-0.03,0.774-0.159,1.599-0.152,2.383c-13.945-0.026-27.889-0.052-41.834-0.079c1.726-10.177,14.046-13.576,23.073-14.993
			c6.251-0.981,12.749-1.315,19.104-0.998C149.698,236.106,149.692,238.525,149.658,240.943z"/>
		<path style="fill:#272525;" d="M755.947,234.635c-7.921-4.202-25.635-9.539-30.943,1.5c-4.623,9.614,7.26,19.439,14.446,23.401
			c8.282,4.566,25.355,9.823,31.452-0.907c0.094-0.166,0.158-0.329,0.206-0.491c0.003-0.005,0.006-0.01,0.008-0.015
			C775.304,248.21,763.441,238.61,755.947,234.635z M767.181,256.584c-4.883,8.317-20.137,2.43-26.2-1.044
			c-4.902-2.809-15.693-10.786-12.041-17.786c1.869-3.584,7.08-3.947,10.617-3.729c5.431,0.334,10.78,2.264,15.476,4.947
			C760.446,242.064,769.845,249.223,767.181,256.584z"/>
		<path style="fill:#272525;" d="M416.393,240.347l-17.382-0.033c-2.798-0.005-5.092,2.28-5.097,5.078
			c-0.005,2.798,2.28,5.092,5.078,5.097l17.382,0.033c2.798,0.005,5.092-2.28,5.097-5.078
			C421.476,242.646,419.19,240.353,416.393,240.347z"/>
		<path style="fill:#272525;" d="M530.679,166.922c-12.531-11.726-25.159-23.295-37.679-35.02
			c-7.06-6.612-14.951-11.163-24.584-12.752c-7.046-1.162-14.134-1.177-21.246-1.191c-15.52-0.029-31.04-0.058-46.56-0.087
			c-9.145-0.017-17.648,3.441-20.762,12.88c-1.7,5.153-0.919,11.575-0.93,16.909c-0.017,8.71-0.033,17.42-0.049,26.129
			c-0.01,5.223-0.54,10.764,0.253,15.953c1.46,9.554,9.681,15.6,19.044,15.74c3.469,0.052,6.942,0.013,10.411,0.019
			c14.855,0.028,29.709,0.056,44.564,0.084c28.375,0.053,56.802,0.624,85.174,0.16c0.546-0.009,1.092,0.002,1.639,0.003
			c0.384,0.001,0.743-0.035,1.091-0.088c5.6-0.629,10.245-4.076,10.453-10.248c0.198-5.89-3.424-11.612-7.253-15.782
			C540.096,175.115,535.153,171.108,530.679,166.922z M474.18,192.908c-25.2-0.048-50.4-0.142-75.599-0.142
			c-4,0-6.789-2.085-7.016-6.316c-0.294-5.468,0.021-11.039,0.031-16.513c0.015-7.997,0.03-15.994,0.045-23.991
			c0.007-3.575-1.168-10.238,1.358-13.257c2.723-3.256,9.115-2.096,12.853-2.089c7.851,0.015,15.703,0.03,23.554,0.044
			c6.722,0.013,13.444,0.025,20.166,0.038c6.735,0.013,13.551-0.043,20.106,1.702c7.676,2.044,12.732,6.853,18.341,12.418
			c6.059,6.01,12.599,11.397,18.814,17.213c9.292,8.695,19.239,17.006,28.036,26.195c1.33,1.39,2.566,3.032,3.336,4.818
			C516.863,192.989,495.521,192.948,474.18,192.908z"/>
		<path style="fill:#272525;" d="M354.792,138.689c0.009-4.967,0.012-9.709-2.795-14.131c-3.87-6.096-10.326-8.211-17.168-8.224
			c-12.061-0.023-24.123-0.045-36.184-0.068c-13.739-0.026-26.768,0.995-39.246,7.553c-16.497,8.671-28.927,24.813-32.968,43.02
			c-1.614,7.275-2.545,15.918-1.355,23.383c1.416,8.881,8.984,14.649,17.73,14.97c7.88,0.289,15.819,0.03,23.703,0.044
			c23.202,0.044,46.405,0.087,69.607,0.131c0.244,0.013,0.495,0.014,0.755,0.001c0.465,0.001,0.901-0.045,1.314-0.121
			c9.366-1.04,16.151-8.155,16.516-17.798c0.139-3.667,0.014-7.365,0.021-11.034C354.744,163.841,354.768,151.265,354.792,138.689z
			 M336.894,192.65c-17.831-0.033-35.662-0.067-53.493-0.101c-10.759-0.02-21.518-0.04-32.277-0.06
			c-2.574-0.005-5.179,0.11-7.751-0.014c-4.376-0.212-5.864-2.847-5.857-6.942c0.029-15.641,4.05-29.983,15.41-41.301
			c10.17-10.132,23.713-15.249,37.97-15.261c10.279-0.009,20.558,0.039,30.837,0.058c4.592,0.009,9.183,0.012,13.775,0.026
			c3.515,0.01,6.281,1.254,6.572,5.246c0.767,10.546-0.04,21.443-0.06,32.013c-0.011,5.744-0.022,11.488-0.032,17.232
			C341.981,187.449,342.281,192.388,336.894,192.65z"/>
		<path style="fill:#272525;" d="M809.91,306.307c0.567-1.744,0.858-3.656,0.862-5.665c0.011-5.851,1.352-13.808-1.589-19.158
			c-2.707-4.924-8.073-7.245-13.162-6.652c-0.002-4.323-0.067-8.64-0.275-12.939c-1.362-28.087-24.81-50.293-52.795-50.697
			c-8.135-0.015-16.27-0.03-24.405-0.046c-12.273-0.023-24.546-0.046-36.818-0.069c-0.848-0.514-1.868-0.847-3.07-0.908
			c-7.627-0.388-13.246-1.28-20.553-2.707c-13.411-2.618-27.081-6.531-38.549-14.191c-5.897-3.939-9.679-8.82-13.42-14.738
			c-5.052-7.993-10.695-15.641-16.838-22.829c-11.212-13.118-24.402-24.572-38.929-33.888
			c-31.22-20.021-67.568-29.073-104.371-28.716c-19.679,0.191-39.368-0.12-59.048-0.111c-16.815,0.008-33.655,0.723-50.464,1.101
			c-11.86,0.267-23.803,0.086-35.625,1.229c-21.256,2.054-42.536,6.454-62.295,14.686c-24.091,10.037-46.939,27.185-53.515,53.735
			c-4.125,16.653-9.086,32.921-25.651,41.732c-6.013,3.198-12.723,4.408-19.481,4.46c-0.442,0.004-0.856,0.05-1.251,0.124
			c-1.215-0.003-2.43-0.005-3.646-0.007c-10.563-0.02-20.867,2.092-29.993,7.675c-10.762,6.583-18.901,16.854-22.924,28.8
			c-2.426,7.205-2.64,14.607-2.654,22.102c-0.005,2.8-0.019,5.601-0.032,8.402c-4.428-0.848-9.254,0.489-12.473,4.262
			c-4.438,5.202-3.171,13.045-3.183,19.381c-0.006,3.5-0.148,6.937,1.606,10.126c2.276,4.139,6.772,6.842,11.505,6.851
			c1.036-0.051,2.013-0.195,2.932-0.417c1,7.814,3.706,15.264,7.783,21.828c-0.756,0.318-1.342,1.028-1.291,1.925
			c0.762,13.391,3.343,27.99,16.921,33.906c9.64,4.199,19.312,3.543,29.566,3.562c0.204,0,0.403-0.036,0.594-0.094l16.249,0.031
			c-0.708-14.157,2.588-28.542,9.936-40.927c15.135-25.511,45.512-39.479,74.434-33.5c25.888,5.352,46.061,24.564,53.798,49.007
			c0.569,2.23,1.051,4.489,1.422,6.778c0.104,0.643,0.362,1.242,0.724,1.785c0.803,4.262,1.247,8.64,1.283,13.099
			c-0.016,1.346-0.081,2.686-0.17,4.023l20.151,0.744c0-0.009-0.002-0.018-0.002-0.027c23.001,0.663,46.055,0.275,69.062,0.318
			c38.334,0.072,76.667,0.144,115,0.216c9.012,0.017,18.024,0.034,27.036,0.051c0.047,0,0.098-0.017,0.145-0.021l13.594,0.026
			l0-0.141l12.281,0.023c-0.35-5.928,0.01-11.901,1.059-17.758c0.389-0.558,0.665-1.18,0.776-1.848
			c0.59-3.559,1.443-7.046,2.535-10.438c1.463-4.001,3.273-7.886,5.453-11.589c15.014-25.511,45.148-39.479,73.837-33.501
			c32.899,6.856,56.496,36.459,56.767,70.669c-0.019,1.583-0.098,3.16-0.217,4.729l17.19,0.032c0.003-0.045,0.004-0.091,0.007-0.137
			c2.781,0.083,5.561,0.167,8.342,0.251c0.155,0.038,0.309,0.065,0.456,0.065c12.105,0.023,24.211,0.075,36.316,0.094
			c13.396,0.02,29.883-0.813,37.901-13.366c5.986-9.373,5.011-21.53,3.113-31.987c-0.005-0.218-0.046-0.427-0.122-0.623
			c-0.099-0.426-0.288-0.751-0.54-0.981c0.868-1.991,1.616-4.036,2.241-6.123l11.914,0.022c6.062,0.012,11.032-4.939,11.043-11.002
			C816.403,311.904,813.73,308.049,809.91,306.307z M76.882,313.413c-9.243-0.017-8.886-9.335-8.873-15.86
			c0.013-6.685-0.666-16.624,8.934-16.643c0.91-0.002,1.724,0.09,2.457,0.258c-0.052,9.928-0.113,19.857-0.029,29.783
			c0.006,0.694,0.029,1.385,0.061,2.075C78.675,313.232,77.83,313.366,76.882,313.413z M567.304,151.05
			c6.361,5.991,12.285,12.468,17.668,19.351c1.904,2.435,3.645,4.986,5.34,7.568c-25.205-9.531-46.672-27.983-58.146-52.048
			C544.92,132.733,556.767,141.126,567.304,151.05z M352.61,349.101c-6.743-0.013-13.486-0.025-20.229-0.038
			c-6.63-38.306-39.059-66.313-75.256-76.844c-40.573-11.804-86.669-3.266-118.345,25.314c-13.873,12.517-24.41,28.71-29.136,46.772
			c-5.374-3.706-9.849-8.683-12.977-14.552c-3.704-6.949-4.585-14.348-4.57-22.069c0.014-7.73,0.029-15.461,0.044-23.191
			c0.029-15.617-1.901-31.992,7.915-45.368c7.922-10.795,20.454-16.355,33.642-16.357c11.107-0.001,22.213,0.042,33.32,0.063
			c23.192,0.044,46.385,0.087,69.577,0.131c31.274,0.059,62.549,0.118,93.824,0.176c11.122,0.021,22.245,0.042,33.367,0.063
			l-0.005,2.646c-0.004,2.205,1.5,4.073,3.533,4.636c-0.024,12.808-0.048,25.617-0.072,38.425c-1.817,0.684-3.122,2.437-3.125,4.485
			l-0.031,16.599c-0.004,2.049,1.295,3.806,3.109,4.497c-0.026,14.128-0.053,28.255-0.08,42.383
			c-0.006,3.078-0.139,6.186-0.017,9.262c0.042,1.05,0.178,2.047,0.394,2.995C362.528,349.12,357.569,349.111,352.61,349.101z
			 M564.167,227.711c-0.032,17.152-0.065,34.305-0.097,51.457c-10.127,4.604-19.617,10.592-28.06,17.997
			c-15.499,13.594-26.68,31.85-30.294,52.224c-19.301-0.036-38.601-0.073-57.901-0.109c-25.256-0.048-50.511-0.095-75.767-0.143
			c-0.73-2.49-0.711-5.25-0.705-8.181c0.029-15.5,0.058-31,0.087-46.5c1.758-0.713,3.009-2.438,3.013-4.444l0.031-16.599
			c0.004-2.007-1.241-3.736-2.996-4.456c0.024-12.948,0.049-25.895,0.073-38.843c1.532-0.803,2.585-2.407,2.589-4.247l0.005-2.646
			c20.763,0.039,41.526,0.078,62.289,0.117c35.387,0.067,70.773,0.133,106.16,0.2c7.193,0.013,14.387,0.027,21.58,0.04
			C564.172,224.956,564.17,226.333,564.167,227.711z M564.199,210.86c-0.855-0.002-1.71-0.003-2.565-0.005
			c-35.652-0.067-71.303-0.134-106.955-0.201c-26.837-0.05-53.673-0.101-80.51-0.151l0.003-1.235
			c0.004-1.841-1.044-3.448-2.573-4.257c0.014-7.233,0.027-14.466,0.041-21.699c0.001-0.726,0.003-1.453,0.004-2.18
			c0-0.012,0.004-0.024,0.004-0.037c0.031-16.283,0.061-32.567,0.092-48.85c0.004-2.399-0.218-5.02,0.287-7.382
			c1.624-7.598,9.288-11.35,16.435-11.536c6.747-0.175,13.598-0.3,20.326-0.288c16.525,0.031,33.051,0.026,49.576,0.093
			c12.247,0.05,24.182,1.988,34.689,8.602c12.109,7.623,21.653,19.09,31.622,29.176c12.02,12.161,24.195,24.172,36.296,36.252
			c2.959,3.168,3.106,6.778,3.118,10.912c0.002,0.491-0.228,2.221,0.016,3.329c-0.136,0.958,0.106,3.683,0.105,4.027
			C564.206,207.241,564.202,209.05,564.199,210.86z M567.818,199.493c0.137-0.094,0.511-1.56,0.508-2.036
			c-0.011-1.753-0.04-3.509-0.31-5.245c-0.497-3.194-1.844-5.688-4.042-8.041c-11.05-11.03-22.111-22.05-33.151-33.09
			c-9.982-9.983-19.364-20.945-30.639-29.524c-11.019-8.384-23.767-12.087-37.514-12.59c-17.339-0.635-34.774-0.13-52.123-0.163
			c-6.997-0.013-13.991,0.27-21.015,0.286c-11.111,0.026-21.701,6.627-22.024,18.631c-0.476,17.753-0.067,35.569-0.1,53.329
			c0,0.012-0.004,0.024-0.004,0.036c-0.015,7.846-0.03,15.693-0.044,23.539c-2.035,0.555-3.546,2.418-3.55,4.623l-0.002,1.235
			c-6.016-0.011-12.033-0.022-18.049-0.034c-32.59-0.061-65.18-0.123-97.77-0.184c-24.351-0.046-48.702-0.091-73.053-0.137
			c1.562-1.336,3.062-2.769,4.477-4.323c7.449-8.181,12.559-18.319,15.648-28.896c1.911-6.543,2.645-13.173,5.625-19.423
			c5.241-10.993,14.078-19.662,24.231-26.198c19.564-12.596,42.982-18.667,65.791-22.025c2.856-0.42,2.268-0.342,4.993-0.667
			c1.847-0.22,3.698-0.42,5.55-0.595c2.239-0.212,4.484-0.405,6.732-0.519c4.13-0.21,8.276-0.215,12.41-0.308
			c38.307-0.862,76.508-1.444,114.822-1.372c9.555,0.018,19.167-0.397,28.702,0.324c9.709,0.733,17.741,2.027,27.794,4.476
			c9.852,2.4,19.506,5.601,28.796,9.655c7.234,22.114,24.691,41.954,43.678,54.307c10.325,6.717,21.783,11.559,33.652,14.785
			c0.925,1.306,1.868,2.599,2.866,3.85c6.42,8.049,15.397,13.655,24.901,17.775c-18.974-0.036-37.947-0.071-56.921-0.107
			c-0.05-3.594-0.169-7.175-0.408-10.729C568.259,199.893,567.928,199.674,567.818,199.493z M783.006,308.417
			c-2.059,2.001-3.348,4.79-3.354,7.87c-0.004,2.32,0.722,4.477,1.956,6.26c-1.318,5.057-3.577,9.841-6.815,14.094
			c-4.582,6.02-10.792,10.557-17.776,13.247c-0.725-0.016-1.446-0.03-2.157-0.031c-8.323-0.016-16.646-0.031-24.969-0.047
			c-6.668-38.522-39.406-66.603-75.843-77.012c-27.902-7.97-58.828-6.483-85.735,4.534c0.023-12.054,0.045-24.108,0.068-36.162
			c0.011-5.821,0.157-11.701,0.252-17.584c22.847,0.043,45.694,0.086,68.541,0.129c23.318,0.044,46.637,0.087,69.955,0.131
			c11.433,0.022,22.885,0.241,34.317,0.065c0.493-0.008,0.987,0.002,1.48,0.003c20.593,0.298,38.789,16.464,40.065,37.372
			c0.729,11.946,0.05,24.103,0.028,36.065C783.012,301.039,783.019,304.728,783.006,308.417z M805.723,305.331
			c-0.111-0.004-0.219-0.017-0.331-0.018l-9.632-0.018c-0.017-1.384-0.033-2.765-0.031-4.138c0.014-7.362,0.213-14.77,0.275-22.17
			c0.518-0.074,1.071-0.114,1.665-0.115c9.255-0.018,8.886,9.355,8.873,15.86C806.537,298.154,806.7,302.124,805.723,305.331z"/>
	</g>
</g>
</svg>
