<?xml version="1.0" encoding="iso-8859-1"?>
<!-- Generator: Adobe Illustrator 18.1.1, SVG Export Plug-In . SVG Version: 6.00 Build 0)  -->
<svg version="1.1" xmlns="http://www.w3.org/2000/svg" xmlns:xlink="http://www.w3.org/1999/xlink" x="0px" y="0px"
	 viewBox="0 0 880 505" style="enable-background:new 0 0 880 505;" xml:space="preserve">
<g id="Background">
	<rect style="fill:#FFAEAE;" width="880" height="505"/>
</g>
<g id="Color">
	<path style="fill:#D68030;" d="M86.002,249c0,0,0.001,0,0.001,0C86.003,249,86.002,249,86.002,249
		c5.949-1,11.518-8.754,11.518-8.754s33.228,21.434,59.478,12.313c17.826-5.818,15.28-12.009,29.733-13.917
		c13.867,1.908,11.425,8.06,28.528,13.878c25.185,9.121,57.065-12.371,57.065-12.371s5.343,7.781,11.051,8.647
		c-14.33-5.28-17.353-24.392-17.353-24.392s15.463-16.285,0.826-77.091c-15.146-44.232-28.16-24.012-28.16-24.012
		s-17.218,17.354-26.083,47.57c-16.719-7.188-43.585-5.743-57.621,0c-21.415-55.532-35.733-52.43-35.733-52.43
		s-12.109,4.644-17.44,25.597c-17.083,73.101,0.865,80.365,0.865,80.365l-1.721,9.99c0,0-12.404,14.338-15.249,14.401
		c0.972,4.261,11.179,4.992,11.179,4.992s-5.159,3.038-10.429,4.835c7.275-1.779,12.842-4.816,12.857-4.824
		C99.297,253.796,91.386,255,86.002,249z M247.038,131.843c24.045,7.061,15.91,84.522,15.91,84.522s-18.126-35.191-42.615-42.825
		C220.333,173.541,236.733,130.508,247.038,131.843z M123.194,130.669c10.305-1.336,26.704,41.697,26.704,41.697
		c-24.488,7.633-42.615,42.825-42.615,42.825S99.149,137.73,123.194,130.669z"/>
	<path style="fill:#D68030;" d="M172.563,318.575c-8.447-8.525-9.527-18.014-9.645-19.46l-2.627,0.836c0,0-6.32,16.26-9.508,26.256
		c-14.673,2.098-14.086,18.738-14.086,18.738s0.223,4.228,0.487,10.191c0.266-1.495,0.752-3.06,1.64-3.564
		c0.461-0.262,0.994-0.257,1.498,0.013c0.195,0.104,0.335,0.288,0.384,0.504c0.347,1.535,1.812,2.417,2.861,2.863
		c-0.125-1.205-0.129-2.901,0.629-3.832c0.373-0.458,0.888-0.701,1.49-0.701c0.306,0,0.584,0.183,0.703,0.466
		c1.127,2.663,3.048,3.968,3.068,3.981c0.042,0.028,0.065,0.074,0.101,0.109c0.516-2.154,1.233-3.904,2.24-4.461
		c0.207-0.113,0.452-0.127,0.671-0.034c0.216,0.093,0.378,0.281,0.438,0.509c0.609,2.335,1.466,3.178,1.989,3.483
		c0.35-0.923,1.202-2.466,3.235-3.89c0.218-0.152,0.501-0.179,0.746-0.073c0.245,0.108,0.414,0.336,0.449,0.602
		c0.282,2.201,1.931,3.431,2.971,3.998c0.278-0.946,1.019-2.355,2.947-3.921c0.212-0.171,0.5-0.216,0.757-0.119
		c0.256,0.098,0.438,0.326,0.479,0.597c0.597,3.92,3.312,5.387,3.427,5.448c0.239,0.124,0.395,0.365,0.41,0.634
		c0.005,0.074,0.302,5.211,0.816,10.432C170.429,357.391,168.794,326.417,172.563,318.575z"/>
	<path style="fill:#D68030;" d="M198.102,318.575c2.922,5.864,2.711,24.666,2.114,38.289c0.797-0.56,2.566-2.121,3.035-5.198
		c0.041-0.271,0.224-0.499,0.479-0.597c0.256-0.097,0.544-0.052,0.757,0.119c1.928,1.566,2.669,2.975,2.947,3.921
		c1.04-0.566,2.689-1.797,2.971-3.998c0.034-0.265,0.204-0.494,0.449-0.602c0.245-0.106,0.529-0.079,0.746,0.073
		c2.034,1.424,2.886,2.967,3.235,3.89c0.523-0.305,1.38-1.148,1.989-3.483c0.06-0.228,0.221-0.416,0.438-0.509
		c0.218-0.093,0.464-0.08,0.671,0.034c1.007,0.557,1.724,2.307,2.24,4.461c0.035-0.035,0.058-0.081,0.101-0.109
		c0.019-0.013,1.94-1.318,3.068-3.981c0.119-0.283,0.397-0.466,0.703-0.466c0.602,0,1.117,0.242,1.49,0.701
		c0.758,0.932,0.754,2.628,0.629,3.832c1.05-0.445,2.514-1.328,2.861-2.863c0.049-0.215,0.188-0.4,0.384-0.504
		c0.504-0.27,0.993-0.275,1.454-0.013c0.521,0.296,1.139,0.959,1.139,1.756v-14.334c0,0-5.139-13.74-13.277-11.947
		c-2.936-10.514-8.4-25.686-9.214-27.923c-0.48,0.064-0.954,0.125-1.425,0.184C207.886,301.263,206.535,310.366,198.102,318.575z"/>
	<rect x="208.073" y="299.307" style="fill:#D68030;" width="0.011" height="0.001"/>
	<path style="fill:#D68030;" d="M281.743,336.068c-0.298,0.011-5.929,0.145-9.839-3.746c-0.306,2.122-0.164,3.567-0.162,3.588
		c0.043,0.414-0.084,0.827-0.353,1.144c-0.268,0.318-0.655,0.512-1.07,0.538c-0.262,0.016-0.543,0.025-0.84,0.025
		c-3.835,0-10.259-1.482-12.863-7.124c-4.168,1.322-5.198,4.812-5.209,4.85c-0.112,0.399-0.382,0.736-0.747,0.932
		c-0.366,0.195-0.794,0.234-1.19,0.108c-2.309-0.742-6.054-3.474-6.388-8.906c-1.847,1.875-2.828,3.788-2.842,3.814
		c-0.278,0.55-0.851,0.847-1.442,0.817c-0.103,3.655,0.435,6.042,0.435,6.042s9.998,8.859,5.97,19.155
		c-3.393,8.672-10.374,6.687-12.493,5.845c-0.031,3.032,0.024,6.752,0.378,9.327c18.69,5.981,37.428-4.808,37.428-4.808
		s17.016-11.459,12.315-32.073C282.546,335.88,282.144,336.055,281.743,336.068z"/>
	<polyline style="fill:none;stroke:#FFFFFF;stroke-width:0;stroke-linecap:round;stroke-linejoin:round;" points="271,253.985 
		271,254 270.802,254 	"/>
	<path style="fill:#FFFFFF;" d="M288.531,259.793C279.02,258.796,270.81,254,270.802,254c-0.098,0-0.195,0-0.195,0
		c0.006,0,0.152-0.004,0.393-0.015c0.616-0.029,1.908-0.109,3.479-0.322c2.628-0.425,6.11-1.676,8.895-4.793
		c-5.707-0.866-11.051-8.689-11.051-8.689s-31.88,21.466-57.065,12.345c-17.103-5.818-14.66-11.993-28.528-13.901
		c-14.454,1.908-11.908,8.069-29.733,13.887c-26.249,9.121-59.478-12.264-59.478-12.264S91.951,248,86.003,249c0,0-0.001,0-0.001,0
		c5.384,6,13.295,5,13.309,5h0.001c0,0-5.573,2.992-12.858,4.774c-2.818,0.961-5.668,1.49-7.778,1.085
		c4.996,10.5,19.927,12.886,26.063,13.443c1.58,0.087,2.552,0.046,2.552,0.046l-0.165,0.083c0.189,0.007,0.296,0.004,0.296,0.004
		l-3.365,1.705l-9.209,5.145c1.134,0.713,4.546,2.734,9.02,4.263c4.185,0.831,9.854,1.34,17.321,0.858
		c12.014,8.209,28.364,11.986,41.729,13.71c-0.01-0.124-0.014-0.196-0.014-0.196l22.197,0.163l22.973-0.163
		c0,0-0.074,0.139-0.074,0.387c0,0.001,0,0.001,0,0.001c1-0.059,0.987-0.119,1.467-0.184c0.007-0.001,0.035-0.002,0.042-0.003
		c-0.066-0.182-0.095-0.288-0.095-0.288s3.512-0.197,8.909-1.169c10.735-2.138,22.283-5.846,31.289-12.26
		c0.446,0.03,0.88,0.052,1.313,0.075c0.04-0.026,0.081-0.049,0.121-0.075c15.92,0.782,22.537-3.039,24.61-4.674l-4.769-2.778
		c-2.169-1.017-4.87-2.493-7.939-4.624c0.064,0.002,0.123,0.001,0.187,0.002c1.683,0.013,15.104-0.131,23.016-7.526
		c2.668-3.072,3.141-5.837,3.141-5.837L288.531,259.793z"/>
	<path style="fill:#FFFFFF;" d="M198.102,318.575c8.434-8.209,9.784-17.312,9.982-19.268c-0.004,0-0.007,0.001-0.011,0.001
		c-12.13,1.509-21.342,1.199-21.342,1.199s-10.403,0.336-23.813-1.394c0.118,1.446,1.198,10.936,9.645,19.46
		c-3.768,7.842-2.134,38.816-1.431,49.605c0.169,1.721,0.363,3.449,0.577,5.01l0.45,1.821l10.057,1.808
		c2.023,0.088,4.244,0.07,6.61-0.127l8.656-1.501c0.086-0.023,0.172-0.045,0.258-0.069c0.01-0.079,0.015-0.154,0.028-0.234
		c1.012-6.208,1.639-17.033,1.645-17.141c0.015-0.269,0.171-0.511,0.41-0.634c0.025-0.013,0.174-0.096,0.393-0.249
		C200.812,343.241,201.024,324.439,198.102,318.575z"/>
	<path style="fill:#FFFFFF;" d="M240.241,331.292c0.013-0.026,0.994-1.94,2.842-3.814c0.334,5.431,4.078,8.163,6.388,8.906
		c0.396,0.126,0.824,0.087,1.19-0.108c0.364-0.196,0.634-0.532,0.747-0.932c0.011-0.038,1.042-3.528,5.209-4.85
		c2.604,5.642,9.027,7.124,12.863,7.124c0.297,0,0.578-0.009,0.84-0.025c0.415-0.026,0.802-0.221,1.07-0.538
		c0.268-0.318,0.396-0.731,0.353-1.144c-0.002-0.021-0.145-1.466,0.162-3.588c3.911,3.891,9.541,3.757,9.839,3.746
		c0.401-0.013,0.803-0.188,1.089-0.471c-0.672-2.945-1.786-6.077-3.458-9.389c-4.971-8.207-5.637-17.866-5.637-17.866l3.387-7.299
		c0,0-5.947-3.65-23.104,4.362c-12.57,8.469-15.029,19.833-15.222,26.705C239.39,332.139,239.964,331.842,240.241,331.292z"/>
	<path style="fill:#F4B59E;" d="M262.948,216.365c0,0,8.135-77.461-15.91-84.522c-10.305-1.336-26.705,41.697-26.705,41.697
		C244.821,181.174,262.948,216.365,262.948,216.365z"/>
	<path style="fill:#F4B59E;" d="M149.899,172.366c0,0-16.399-43.033-26.704-41.697c-24.045,7.061-15.91,84.522-15.91,84.522
		S125.41,180,149.899,172.366z"/>
	<path style="fill:#6D413B;" d="M430.525,337.123c0-17.106,4.285-31.676,10.284-37.211c-18.105-0.581-32.009-3.172-42.11-6.047
		c2.88,1.087,5.098,1.919,5.257,1.959c0.477,0.123,18.392,3.224,18.392,3.224L412.452,326h-1.902l-6.861,5.072l-5.323,8.953
		l0.362,18.656l0.479,13.026l-0.162,1.125l0.589-1.835l8.635,0.623l3.387-1.239l11.259,1.671l8.709-0.668l0.985,3.789l2.396,0.569
		C430.083,371.466,430.525,359.266,430.525,337.123z"/>
	<path style="fill:#6D413B;" d="M461.798,337.123c0,28.865-0.001,36.692-5.724,38.81l3.751-0.783c0,0,0.128,0.45,0.223,1.007
		l1.24-4.773l8.709,0.668l11.259-1.67l3.387,1.241l8.635-0.62l0.711,1.794l0.01-0.648v-6.807l9.441,2.799l5.535-2.896L504.571,362
		h5.985l3.507-2.52l-3.054-3.62l2.796-2.559l1.168-4.525l-1.465-6.37l-2.825-3.246l-2.387,0.949l-2.548,4.035l-5.625,5.802
		l-5.955,0.929l-1.489-13.908l-5.791-7.762l-6.428-2.859l-3.63-11.293l-6.267-15.831l8.6-2.004
		c-7.886,1.547-17.034,2.613-27.546,2.795C457.563,305.62,461.798,320.117,461.798,337.123z"/>
	<polygon style="fill:#6D413B;" points="432.049,378.439 432.073,378.274 431.873,378.521 	"/>
	<polygon style="fill:#6D413B;" points="398.366,377.521 399.311,377.776 398.657,375.511 	"/>
	<path style="fill:#6D413B;" d="M558.166,149.096l-4.255-18.319l-27.432,3.083l-22.035,7.59l-17.043,12.573l-3.593,12.246
		l-0.516,8.357l-26.551-8.064l-12.341-1.297l-17.869,3.143l-18.478,6.218l0.155-5.828l-2.818-4.807l-10.596-14.218l-4.69-6.485
		l-16.212-7.12l-16.711-3.674l-19.749-1.717l-5.261,25.409l0.985,16.985l7.81,19.783l14.456,10.789l15.998,5.324l-2.927,6.944
		c5.638-9.793,14.941-16.652,29.363-17.554c23.093,0,42.109,17.224,44.653,39.389c1.886-0.43,3.858-0.662,5.889-0.662
		c1.79,0,3.533,0.182,5.213,0.519c2.521-22.096,20.856-39.246,43.115-39.246c11.998,0.777,20.329,5.973,25.891,13.655l-1.503-3.856
		l13.613-3.055l11.284-8.593l9.708-14.648l3.452-15.692L558.166,149.096z M402.805,176.483c-0.048,0.271-0.237,0.496-0.496,0.587
		c-15.219,5.383-28.49,25.636-28.621,25.84c-0.142,0.218-0.385,0.348-0.641,0.348c-0.027,0-0.055-0.001-0.083-0.004
		c-8.447-0.921-15.197-4.649-20.059-11.077c-13.414-17.736-8.215-49.675-7.987-51.026c0.067-0.397,0.416-0.668,0.83-0.633
		c1.652,0.167,40.622,4.287,53.395,21.154C402.518,166.127,403.749,171.11,402.805,176.483z M435.092,189.206
		c-1.694,0.464-3.685-1.412-4.446-4.19c-0.761-2.778-0.005-5.407,1.689-5.871c1.694-0.464,3.685,1.412,4.446,4.19
		C437.542,186.113,436.786,188.742,435.092,189.206z M448.4,201.223c-1.756,0-3.181-2.335-3.181-5.216
		c0-2.881,1.424-5.216,3.181-5.216c1.757,0,3.181,2.335,3.181,5.216C451.581,198.888,450.157,201.223,448.4,201.223z
		 M465.335,185.016c-0.761,2.778-2.752,4.654-4.446,4.19c-1.694-0.464-2.451-3.093-1.689-5.871s2.752-4.654,4.446-4.19
		C465.34,179.609,466.096,182.237,465.335,185.016z M538.332,192.177c-4.862,6.429-11.611,10.156-20.059,11.077
		c-0.028,0.003-0.056,0.004-0.083,0.004c-0.256,0-0.499-0.13-0.641-0.348c-0.131-0.204-13.402-20.457-28.621-25.84
		c-0.259-0.092-0.449-0.316-0.496-0.587c-0.944-5.372,0.288-10.356,3.662-14.811c12.773-16.866,51.743-20.987,53.395-21.154
		c0.414-0.035,0.763,0.236,0.83,0.633C546.546,142.502,551.745,174.44,538.332,192.177z"/>
	<path style="fill:#F1CD7A;" d="M496.727,198.457c-22.259,0-40.594,17.15-43.115,39.246c10.914,2.187,19.087,11.088,19.087,21.744
		c0,12.295-10.879,22.263-24.3,22.263c-13.42,0-24.3-9.967-24.3-22.263c0-10.434,7.837-19.189,18.411-21.601
		c-2.544-22.165-21.56-39.389-44.653-39.389c-14.421,0.902-23.725,7.761-29.363,17.554c-1.857,3.226-3.324,6.765-4.435,10.522
		c-0.148,0.502-0.285,1.011-0.421,1.52c-0.534,1.997-0.974,4.048-1.328,6.139c-0.805,4.754-1.172,9.705-1.172,14.677
		c0,8.014,1.29,14.876,3.865,20.509c1.678,3.67,3.909,6.812,6.703,9.393c2.111,1.95,4.527,3.596,7.283,4.893l-0.537,0.418
		l-1.099,0.855c0,0,6.682,4.755,21.345,8.929c10.101,2.875,24.005,5.467,42.11,6.047c1.67-1.54,3.472-2.382,5.352-2.382
		c1.92,0,3.757,0.88,5.456,2.482c10.512-0.182,19.66-1.249,27.546-2.795c3.186-0.625,6.165-1.327,8.942-2.083
		c6.574-1.79,12.02-3.871,16.408-5.899c3.935-1.819,7.028-3.594,9.318-5.073c12.345-5.416,18.364-17.574,18.364-35.294
		c0-13.645-2.62-27.147-9.578-36.756C517.057,204.43,508.726,199.234,496.727,198.457z"/>
	<path style="fill:#FFFFFF;" d="M424.1,259.447c0,12.295,10.879,22.263,24.3,22.263c13.42,0,24.3-9.967,24.3-22.263
		c0-10.655-8.173-19.557-19.087-21.744c-1.68-0.337-3.422-0.519-5.213-0.519c-2.031,0-4.003,0.232-5.889,0.662
		C431.937,240.258,424.1,249.013,424.1,259.447z"/>
	<ellipse style="fill:#F1CD7A;" cx="448.4" cy="196.007" rx="3.181" ry="5.216"/>
	
		<ellipse transform="matrix(0.2642 -0.9645 0.9645 0.2642 162.4887 581.3456)" style="fill:#F1CD7A;" cx="462.267" cy="184.175" rx="5.216" ry="3.181"/>
	
		<ellipse transform="matrix(-0.2642 -0.9645 0.9645 -0.2642 370.6839 651.1389)" style="fill:#F1CD7A;" cx="433.714" cy="184.175" rx="5.216" ry="3.18"/>
	<path style="fill:#F1CD7A;" d="M461.798,337.123c0-17.006-4.235-31.503-10.18-37.11c-1.699-1.602-3.537-2.482-5.456-2.482
		c-1.88,0-3.682,0.842-5.352,2.382c-6,5.534-10.284,20.105-10.284,37.211c0,22.143-0.441,34.343,4.481,38.618
		c1.891,1.643,4.572,2.12,8.378,1.534c0.868-0.134,1.789-0.318,2.778-0.56c2.789,0,5.077,0.023,6.96-0.166
		c1.123-0.113,2.102-0.302,2.953-0.617C461.797,373.815,461.798,365.988,461.798,337.123z"/>
	<polygon style="fill:#1C1C1C;" points="422.915,372.052 411.656,370.382 408.269,371.622 399.634,371.002 399.044,372.843 
		398.436,374.745 398.657,375.511 399.311,377.776 399.49,378.397 407.267,379.733 414.423,379.335 416.081,380.199 417.62,381.002 
		427.177,380.726 430.167,380.639 431.873,378.521 432.073,378.274 433.088,377.013 432.609,375.173 431.625,371.384 	"/>
	<polygon style="fill:#1C1C1C;" points="484.644,371.622 481.257,370.382 469.997,372.052 461.288,371.384 460.048,376.157 
		459.825,377.013 460.139,377.403 462.746,380.639 475.293,381.002 478.001,379.59 478.49,379.335 485.646,379.733 493.422,378.397 
		493.855,376.899 494.333,375.243 494.477,374.745 493.853,372.796 493.279,371.002 	"/>
	<path style="fill:#F4B59E;" d="M545.488,140.518c-1.652,0.167-40.622,4.287-53.395,21.154c-3.374,4.456-4.605,9.439-3.662,14.811
		c0.048,0.271,0.237,0.496,0.496,0.587c15.219,5.383,28.49,25.636,28.621,25.84c0.142,0.218,0.385,0.348,0.641,0.348
		c0.027,0,0.055-0.001,0.083-0.004c8.448-0.921,15.197-4.649,20.059-11.077c13.414-17.736,8.215-49.675,7.987-51.026
		C546.251,140.754,545.902,140.483,545.488,140.518z"/>
	<path style="fill:#F4B59E;" d="M345.749,140.518c-0.414-0.035-0.763,0.236-0.83,0.633c-0.228,1.351-5.427,33.289,7.987,51.026
		c4.862,6.429,11.611,10.156,20.059,11.077c0.028,0.003,0.057,0.004,0.083,0.004c0.256,0,0.499-0.13,0.641-0.348
		c0.131-0.204,13.402-20.457,28.621-25.84c0.259-0.092,0.449-0.316,0.496-0.587c0.944-5.372-0.288-10.356-3.662-14.811
		C386.371,144.805,347.401,140.685,345.749,140.518z"/>
	<path style="fill:#F7DCA5;" d="M467.905,169.516l6.465-7.216l12.725-15.11l8.134-14.343l-4.524-7.309
		c0,0-4.479-10.698-4.703-11.474c-0.224-0.776-1.22-7.757-1.22-7.757l3.01-2.561l3.611,1.412l1.632,5.728l5.09,12.333l3.116-9.939
		l0.809-12.023l4.118-3.435l3.673,1.871l1.373,3.309l-1.44,14.508l-6.086,19.192l-7.061,13.885l10.878-2.863l6.87-3.721l7.252-4.008
		l4.103,1.336v4.734l-4.103,3.281l-17.747,7.824l-13.549,1.431l-6.085,7.666l-6.993,5.843L467.905,169.516z"/>
	<path style="fill:#F7DCA5;" d="M423.822,169.516l-6.465-7.216l-12.725-15.11l-8.134-14.343l4.524-7.309
		c0,0,4.479-10.698,4.703-11.474c0.224-0.776,1.22-7.757,1.22-7.757l-3.01-2.561l-3.611,1.412l-1.632,5.728l-5.09,12.333
		l-3.116-9.939l-0.809-12.023l-4.118-3.435l-3.673,1.871l-1.373,3.309l1.44,14.508l6.086,19.192l7.061,13.885l-10.878-2.863
		l-6.87-3.721l-7.252-4.008l-4.103,1.336v4.734l4.103,3.281l17.748,7.824l13.549,1.431l6.085,7.666l6.993,5.843L423.822,169.516z"/>
	<path style="fill:#D68030;" d="M680.807,372.296c0,0-3.414-43.797,1.171-53.338c-7.183-7.249-9.039-15.199-9.506-18.306
		c-0.796-0.089-1.587-0.18-2.364-0.28l-9.345,26.219l-8.115,3.436l-4.485,7.59l-1.716,11.112l0.667,20.606l-0.653,6.602l0.093,0.361
		l0.446-3.588c0,0,0-7.443,0-13.009c8,2.195,12-2.38,12-2.38v0.014c0-2.364-0.205-5.233-0.205-8.702
		c6.934,5.057,20.009,2.29,20.009,2.29l1.02,18.606l0.83,5.865l-0.009,0.007l5.715,0.853l-4.784-0.86L680.807,372.296z"/>
	<path style="fill:#D68030;" d="M768.719,322.316l-11.112-2.269l-9.012,4.587l-4.749,7.414l-2.364,7.362l-4.316-8.008l-5.127-3.69
		l-3.496-1.122l-3.533-11.013l-5.853-14.817c-0.605,0.068-1.216,0.13-1.832,0.19c-0.558,3.292-2.585,10.978-9.807,18.007
		c4.754,9.542,1.214,53.338,1.214,53.338l-0.794,3.098l-0.029,0.005l0.674,2.366l0.389,0.366l-0.489-2.737l0.845-5.865l1.049-18.606
		c0,0,12.956,2.767,19.89-2.29c0,3.469-0.265,6.338-0.265,8.702v-0.014c0,0,4,4.575,12,2.38c0,2.313,0,4.945,0,7.238l8.615,3.687
		l10.705-1.292c0,0,8.518-3.622,12.164-9.488c3.646-5.866,5.446-15.89,5.446-15.89l-2.168-11.779L768.719,322.316z"/>
	<path style="fill:#D68030;" d="M672.12,256.588c-0.043-0.426-0.065-0.851-0.065-1.274c0-9.838,10.958-17.843,24.427-17.843
		c13.469,0,24.427,8.005,24.427,17.843c0,0.308-0.012,1.44-0.034,1.749c9.019-5.88,35.056-21.512,58.396-14.188l-1.608-11.649
		l-6.174-17.116l5.192-20.66l1.99-22.795l-1.805-23.042l-4.372-12.402l-5.865-7.015l-13.423,6.306l-16.287,16.498l-16.197,19.691
		l-16.975-4.178l-9.497-1.004l-11.636,1.297l-14.722,4.348l-19.369-23.541l-18.115-16.592l-8.628-2.824l-5.867,7.015l-5.539,19.801
		l0.511,32.126l6.035,26.972l-3.144,7.664l-4.167,14.795l-0.414,6.314C634.63,235.367,663.101,251.001,672.12,256.588z
		 M764.986,135.374c15.323,5.385,4.071,74.108,4.071,74.108c-1.348-1.846-2.728-3.645-4.135-5.402
		c-8.856-11-19.81-20.46-31.762-28.042c-1.863-1.081-3.762-2.108-5.705-3.068C727.455,172.969,755.745,131.928,764.986,135.374z
		 M723.059,204.959c4.313-1.393,8.682,0.18,9.759,3.514c1.077,3.334-1.546,7.166-5.859,8.559c-4.313,1.393-8.682-0.18-9.759-3.515
		C716.123,210.184,718.746,206.352,723.059,204.959z M663.081,208.473c1.077-3.334,5.446-4.908,9.759-3.514
		c4.313,1.393,6.935,5.225,5.859,8.559c-1.077,3.334-5.446,4.908-9.759,3.515C664.627,215.64,662.004,211.807,663.081,208.473z
		 M623.656,135.374c9.24-3.446,37.531,37.596,37.531,37.596c-1.943,0.96-3.842,1.987-5.706,3.069
		c-11.952,7.582-22.905,17.042-31.761,28.041c-1.407,1.758-2.787,3.557-4.136,5.403
		C619.585,209.482,608.333,140.759,623.656,135.374z"/>
	<polygon style="fill:#D68030;" points="662.166,379.486 663.15,380.383 662.495,379.461 	"/>
	<path style="fill:#F7DCA5;" d="M733.076,175.982c0,0,21.44-29.551,28.158-27.046c11.141,3.915,3.807,55.285,3.807,55.285
		c-0.039-0.048-0.081-0.094-0.119-0.142c1.407,1.757,2.787,3.556,4.135,5.402c0,0,11.252-68.723-4.071-74.108
		c-9.24-3.446-37.531,37.596-37.531,37.596c1.943,0.96,3.842,1.987,5.705,3.068C733.132,176.02,733.104,176,733.076,175.982z"/>
	<path style="fill:#F4B59E;" d="M761.234,148.937c-6.718-2.505-28.158,27.046-28.158,27.046c0.028,0.018,0.056,0.038,0.084,0.056
		c11.952,7.582,22.906,17.042,31.762,28.042c0.039,0.048,0.081,0.094,0.119,0.142C765.041,204.222,772.375,152.852,761.234,148.937z
		"/>
	<path style="fill:#F7DCA5;" d="M623.601,204.222c0,0-7.334-51.37,3.807-55.285c6.718-2.505,28.158,27.046,28.158,27.046
		c-0.028,0.018-0.056,0.038-0.084,0.056c1.863-1.081,3.762-2.108,5.706-3.069c0,0-28.29-41.041-37.531-37.596
		c-15.323,5.385-4.071,74.108-4.071,74.108c1.349-1.846,2.729-3.645,4.136-5.403C623.682,204.128,623.64,204.174,623.601,204.222z"
		/>
	<path style="fill:#F4B59E;" d="M627.408,148.937c-11.141,3.915-3.807,55.285-3.807,55.285c0.039-0.048,0.081-0.094,0.12-0.143
		c8.856-11,19.809-20.459,31.761-28.041c0.028-0.018,0.056-0.038,0.084-0.056C655.566,175.982,634.126,146.431,627.408,148.937z"/>
	
		<ellipse transform="matrix(0.3074 0.9516 -0.9516 0.3074 702.928 -543.7689)" style="fill:#F7DCA5;" cx="725.009" cy="210.996" rx="6.344" ry="8.206"/>
	
		<ellipse transform="matrix(-0.3074 0.9516 -0.9516 -0.3074 1077.8954 -362.5537)" style="fill:#F7DCA5;" cx="670.89" cy="210.996" rx="6.344" ry="8.206"/>
	<path style="fill:#F7DCA5;" d="M672.32,299.302l22.197,0.163l23.015-0.163c0,0-0.031,0.606-0.208,1.649
		c0.616-0.06,1.227-0.122,1.832-0.19c33.164-3.701,49.224-19.036,49.88-19.681c0.662-0.577,16.136-14.381,11.964-36.818
		c-0.101-0.546-0.49-0.993-1.017-1.169c-0.237-0.079-0.476-0.141-0.713-0.216c-23.34-7.324-49.377,8.308-58.396,14.188
		c0.022-0.309,0.034-1.441,0.034-1.749c0-9.838-10.958-17.843-24.427-17.843c-13.469,0-24.427,8.005-24.427,17.843
		c0,0.423,0.022,0.848,0.065,1.274c-9.019-5.588-37.49-21.222-62.925-13.705c-0.235,0.069-0.471,0.126-0.705,0.2
		c-0.533,0.166-0.932,0.611-1.041,1.159c-4.468,22.48,12.084,36.292,12.725,36.813c0.739,0.676,16.817,15.041,49.935,19.316
		c0.777,0.1,1.568,0.192,2.364,0.28C672.343,299.792,672.32,299.302,672.32,299.302z"/>
	<path style="fill:#F7DCA5;" d="M708.731,372.296c0,0,3.541-43.797-1.214-53.338c7.222-7.03,9.249-14.715,9.807-18.007
		c0.177-1.042,0.208-1.649,0.208-1.649l-23.015,0.163l-22.197-0.163c0,0,0.023,0.49,0.153,1.35
		c0.467,3.107,2.323,11.057,9.506,18.306c-4.585,9.542-1.171,53.338-1.171,53.338l0.766,3.098l4.65,0.86l7.777,1.422v0.089
		l0.504-0.044l0.496,0.044v-0.086l0.411-0.092l12.402-2.161l0.125-0.027l0.014-0.005L708.731,372.296z"/>
	<path style="fill:#F7DCA5;" d="M730,357.32v0.014c0-2.364,0.265-5.233,0.265-8.702c-6.934,5.057-19.979,2.29-19.979,2.29
		l-1.005,18.606l-0.822,5.865l0.5,2.737l0.361,1.989l2.093,0.316l1.935,0.169l3.42,0.394h8.588l1.269-1.662l9.291,0.752l1.839-0.619
		l2.977-1.036l1.942-0.678l-0.174-1.511L742,372.709c0,0,0-1.765,0-4.211c0-0.495,0-1.017,0-1.559c0-2.293,0-4.925,0-7.238
		C734,361.895,730,357.32,730,357.32z"/>
	<path style="fill:#F7DCA5;" d="M679.794,369.529l-1.05-18.606c0,0-13.015,2.767-19.95-2.29c0,3.469,0.205,6.338,0.205,8.702v-0.014
		c0,0-4,4.575-12,2.38c0,5.566,0,13.009,0,13.009l-0.446,3.588l-0.171,1.467l6.789,2.387l8.977-0.666l0.338-0.024l0.659,0.798
		l0.618,0.74h0.334h5.802h2.451l7.443-1.003l0.844-4.658l0.001,0.024L679.794,369.529z"/>
</g>
<g id="Line">
	<path style="fill:none;stroke:#000000;stroke-width:1.8482;stroke-linecap:round;stroke-linejoin:round;stroke-miterlimit:10;" d="
		M421.422,166.562c-0.267-0.427-0.609-0.817-1.024-1.15c-0.347-0.281-15.39-12.648-24.428-32.891l0.029-0.174
		c0.601-0.281,1.136-0.907,1.536-1.495c0.295-0.433,7.243-10.746,9.178-22.73c0.337-2.081-1.078-4.04-3.159-4.376
		c-2.087-0.33-4.04,1.079-4.376,3.16c-1.143,7.076-4.424,13.637-6.396,17.097"/>
	<path style="fill:none;stroke:#000000;stroke-width:1.8482;stroke-linecap:round;stroke-linejoin:round;stroke-miterlimit:10;" d="
		M422.112,168.797c-0.033-0.784-0.266-1.557-0.69-2.236"/>
	<path style="fill:none;stroke:#000000;stroke-width:1.8482;stroke-linecap:round;stroke-linejoin:round;stroke-miterlimit:10;" d="
		M392.625,123.7c-1.991-6.368-3.262-13.328-3.333-20.784c-0.024-2.514-2.071-4.536-4.579-4.536c-0.015,0-0.03,0-0.045,0
		c-2.53,0.025-4.561,2.094-4.537,4.624c0.188,19.741,7.465,35.974,15.381,47.868l-0.108-0.044
		c-4.175-0.679-13.622-2.893-24.608-10.206c-1.758-1.167-4.124-0.693-5.293,1.062c-1.167,1.755-0.692,4.124,1.061,5.292
		c15.495,10.313,30.067,11.602,30.717,11.66c1.815,0.142,3.415-0.175,3.415-0.175l-0.043-0.043
		c5.755,7.345,10.963,11.738,13.073,13.411"/>
	<path style="fill:none;stroke:#000000;stroke-width:1.8214;stroke-linecap:round;stroke-linejoin:round;stroke-miterlimit:10;" d="
		M422.349,299.222c0,0-11.599,25.266-11.599,40.151s-2.127,41.602,7.511,41.602c9.638,0,17.051,1.018,13.344-9.414
		c-0.02-10.433-3.367-39.695,1.483-53.434"/>
	<path style="fill:none;stroke:#000000;stroke-width:1.8214;stroke-linecap:round;stroke-linejoin:round;stroke-miterlimit:10;" d="
		M412.452,326.346c0,0-14.764,1.959-13.837,22.283c0.927,20.324,0.693,20.704,0.693,20.704s-0.109,2.246-0.832,5.202
		c-1.622,6.886,15.207,4.341,15.207,4.341"/>
	<path style="fill:none;stroke:#000000;stroke-width:1.8214;stroke-linecap:round;stroke-linejoin:round;stroke-miterlimit:10;" d="
		M470.564,299.222c0,0,11.599,25.266,11.599,40.151s2.127,41.602-7.511,41.602c-9.638,0-17.051,1.018-13.344-9.414
		c0.02-10.433,3.367-39.695-1.483-53.434"/>
	<path style="fill:none;stroke:#000000;stroke-width:1.8214;stroke-linecap:round;stroke-linejoin:round;stroke-miterlimit:10;" d="
		M480.461,326.346c0,0,14.764,1.959,13.837,22.283c-0.927,20.324-0.693,20.704-0.693,20.704s0.109,2.246,0.832,5.202
		c1.622,6.886-15.207,4.341-15.207,4.341"/>
	<path style="fill:none;stroke:#000000;stroke-width:1.8214;stroke-linecap:round;stroke-linejoin:round;stroke-miterlimit:10;" d="
		M432.512,375.15c0,0,6.243,2.371,13.656,2.371c7.413,0,13.656-2.371,13.656-2.371"/>
	<path style="fill:none;stroke:#000000;stroke-width:1.759;stroke-linecap:round;stroke-linejoin:round;stroke-miterlimit:10;" d="
		M461.308,371.561c0,0,13.942,2.389,20.372-2.47"/>
	<path style="fill:none;stroke:#000000;stroke-width:1.759;stroke-linecap:round;stroke-linejoin:round;stroke-miterlimit:10;" d="
		M481.679,371.483c0,0,8.631,0.943,12.047-0.864"/>
	<path style="fill:none;stroke:#000000;stroke-width:1.759;stroke-linecap:round;stroke-linejoin:round;stroke-miterlimit:10;" d="
		M431.625,371.561c0,0-13.942,2.389-20.372-2.47"/>
	<path style="fill:none;stroke:#000000;stroke-width:1.759;stroke-linecap:round;stroke-linejoin:round;stroke-miterlimit:10;" d="
		M411.253,371.483c0,0-8.631,0.943-12.047-0.864"/>
	<path style="fill:none;stroke:#000000;stroke-width:1.6653;stroke-linecap:round;stroke-linejoin:round;stroke-miterlimit:10;" d="
		M494.169,350.875c0,0,7.753-0.239,12.21-7.707c4.058-8.867,7.353-0.235,7.353-0.235s4.148,9.211-2.722,13.029
		c0.904,2.462,3.439,3.285,3.439,3.285s-2.981,4.246-10.14,1.987c-1.186,2.443,4.599,4.216,4.599,4.216s-5.757,4.697-14.381,0"/>
	<path style="fill:none;stroke:#000000;stroke-width:1.8482;stroke-linecap:round;stroke-linejoin:round;stroke-miterlimit:10;" d="
		M145.582,175.419c20.126-9.939,38.917-10.293,38.917-10.293s18.602,0.35,38.613,10.144"/>
	<path style="fill:none;stroke:#000000;stroke-width:1.8482;stroke-linecap:round;stroke-linejoin:round;stroke-miterlimit:10;" d="
		M251.046,285.404c-25.379,16.956-66.547,14.411-66.547,14.411s-39.507,2.864-64.96-13.24"/>
	<path style="fill:none;stroke:#000000;stroke-width:1.8482;stroke-linecap:round;stroke-linejoin:round;stroke-miterlimit:10;" d="
		M99.858,235.005c2.52-12.418,6.826-21.484,12.202-29.942"/>
	<path style="fill:none;stroke:#000000;stroke-width:1.8482;stroke-linecap:round;stroke-linejoin:round;stroke-miterlimit:10;" d="
		M256.938,205.063c5.249,8.257,9.478,18.221,12.02,30.243"/>
	<ellipse cx="149.793" cy="236.164" rx="8.349" ry="11.763"/>
	<path style="fill:#FFFFFF;" d="M148.108,227.595c1.216,1.953-0.84,4.009-2.793,2.793c-0.155-0.096-0.292-0.234-0.389-0.389
		c-1.213-1.952,0.84-4.005,2.792-2.792C147.874,227.302,148.012,227.44,148.108,227.595z"/>
	<path style="fill:#FFFFFF;" d="M149.382,231.248c0.52,0.911-0.414,1.845-1.325,1.325c-0.103-0.059-0.196-0.152-0.255-0.255
		c-0.52-0.911,0.414-1.845,1.325-1.325C149.231,231.053,149.323,231.145,149.382,231.248z"/>
	<ellipse cx="223.607" cy="236.164" rx="8.349" ry="11.763"/>
	<path style="fill:#FFFFFF;" d="M221.924,227.596c1.215,1.952-0.839,4.007-2.792,2.793c-0.155-0.096-0.293-0.234-0.389-0.389
		c-1.214-1.953,0.84-4.007,2.793-2.792C221.69,227.303,221.827,227.441,221.924,227.596z"/>
	<path style="fill:#FFFFFF;" d="M223.197,231.248c0.52,0.911-0.414,1.845-1.325,1.325c-0.103-0.059-0.196-0.152-0.255-0.255
		c-0.52-0.911,0.414-1.845,1.325-1.325C223.046,231.052,223.138,231.145,223.197,231.248z"/>
	<path d="M192.448,246.798c-1.579-1.522-5.177-1.461-5.718-1.445c-0.537-0.02-4.139-0.077-5.717,1.445
		c-0.505,0.485-0.771,1.099-0.771,1.776c0,3.104,5.576,5.363,6.212,5.61c0.089,0.035,0.183,0.052,0.277,0.052
		c0.094,0,0.188-0.017,0.277-0.052c0.636-0.247,6.212-2.506,6.212-5.61C193.219,247.897,192.953,247.283,192.448,246.798z"/>
	<path style="fill:none;stroke:#000000;stroke-width:1.8482;stroke-linecap:round;stroke-linejoin:round;stroke-miterlimit:10;" d="
		M172.863,260.788c0,3.205,3.104,5.208,6.934,5.208c3.829,0,6.934-3.482,6.934-6.687c0,3.205,3.104,6.687,6.934,6.687
		s6.934-2.003,6.934-5.208"/>
	<path style="fill:none;stroke:#000000;stroke-width:1.759;stroke-linecap:round;stroke-linejoin:round;stroke-miterlimit:10;" d="
		M232.878,372.414c4.05,0.91,13.407,2.208,20.965,1.145c2.53-0.356,13.524-1.868,20.896-9.351
		c20.896-24.713-4.819-48.742-1.002-55.867c1.267-3.191,4.612-6.284,3.387-7.299c-1.712-1.419-22.137-0.709-31.083,10.982
		c-2.715,3.347-9.54,13.228-7.402,24.195c1.097,5.626,8.079,11.015,7.188,18.088c-0.237,1.729-0.43,3.961-2.781,6.385
		c-5.696,4.742-10.572,2.309-10.96,2.183"/>
	<path style="fill:none;stroke:#000000;stroke-width:1.8214;stroke-linecap:round;stroke-linejoin:round;stroke-miterlimit:10;" d="
		M160.68,299.083c0,0-11.599,25.266-11.599,40.151s-2.127,41.602,7.511,41.602c9.638,0,17.051,1.018,13.344-9.414
		c-0.02-10.433-3.367-39.695,1.483-53.434"/>
	<path style="fill:none;stroke:#000000;stroke-width:1.8214;stroke-linecap:round;stroke-linejoin:round;stroke-miterlimit:10;" d="
		M150.783,326.207c0,0-14.764,1.959-13.837,22.283c0.927,20.324,0.693,20.704,0.693,20.704s-0.109,2.246-0.832,5.202
		c-1.622,6.886,15.207,4.341,15.207,4.341"/>
	<path style="fill:none;stroke:#000000;stroke-width:1.8214;stroke-linecap:round;stroke-linejoin:round;stroke-miterlimit:10;" d="
		M208.894,299.083c0,0,11.599,25.266,11.599,40.151s2.127,41.602-7.511,41.602c-9.638,0-17.051,1.018-13.344-9.414
		c0.02-10.433,3.367-39.695-1.483-53.434"/>
	<path style="fill:none;stroke:#000000;stroke-width:1.8214;stroke-linecap:round;stroke-linejoin:round;stroke-miterlimit:10;" d="
		M218.791,326.207c0,0,14.764,1.959,13.837,22.283c-0.927,20.324-0.693,20.704-0.693,20.704s0.109,2.246,0.832,5.202
		c1.622,6.886-15.207,4.341-15.207,4.341"/>
	<path style="fill:none;stroke:#000000;stroke-width:1.8214;stroke-linecap:round;stroke-linejoin:round;stroke-miterlimit:10;" d="
		M170.842,375.011c0,0,6.243,2.371,13.657,2.371c7.413,0,13.656-2.371,13.656-2.371"/>
	<path style="fill:none;stroke:#000000;stroke-width:1.8482;stroke-linecap:round;stroke-linejoin:round;stroke-miterlimit:10;" d="
		M212.603,170.87c0,0,18.685-52.43,35.732-52.43c26.709,14.984,30.698,95.073,17.685,105.962"/>
	<path style="fill:none;stroke:#000000;stroke-width:1.8482;stroke-linecap:round;stroke-linejoin:round;stroke-miterlimit:10;" d="
		M154.982,170.87c0,0-18.685-52.43-35.733-52.43c-26.709,14.984-30.698,95.073-17.685,105.962"/>
	<path style="fill:none;stroke:#000000;stroke-width:2.0019;stroke-linecap:round;stroke-linejoin:round;stroke-miterlimit:10;" d="
		M269.042,235.306c0,0,5.65,10.545,14.331,13.486c-1.929,6.132-12.771,4.899-12.771,4.899s10.842,7.365,19.799,6.09
		c-5.374,13.47-26.889,13.547-26.889,13.547"/>
	<path style="fill:none;stroke:#000000;stroke-width:2.0019;stroke-linecap:round;stroke-linejoin:round;stroke-miterlimit:10;" d="
		M100.036,234.391c0,0-5.65,11.46-14.331,14.401c1.929,6.132,12.771,4.899,12.771,4.899s-10.842,7.365-19.799,6.09
		c5.374,13.47,28.745,13.396,28.745,13.396"/>
	<path style="fill:none;stroke:#000000;stroke-width:2.0019;stroke-linecap:round;stroke-linejoin:round;stroke-miterlimit:10;" d="
		M262.948,273.328c0,0,7.099,4.813,14.009,6.849c-12.478,7.633-25.911,5.227-25.911,5.227"/>
	<path style="fill:none;stroke:#000000;stroke-width:2.0019;stroke-linecap:round;stroke-linejoin:round;stroke-miterlimit:10;" d="
		M107.573,273.328c0,0-7.099,4.813-14.009,6.849c12.478,7.633,25.911,6.462,25.911,6.462"/>
	<path style="fill:none;stroke:#000000;stroke-width:1.8482;stroke-linecap:round;stroke-linejoin:round;stroke-miterlimit:10;" d="
		M469.923,166.562c0.267-0.427,0.609-0.817,1.024-1.15c0.347-0.281,15.39-12.648,24.428-32.891l-0.029-0.174
		c-0.601-0.281-1.136-0.907-1.536-1.495c-0.295-0.433-7.243-10.746-9.178-22.73c-0.337-2.081,1.078-4.04,3.159-4.376
		c2.087-0.33,4.04,1.079,4.376,3.16c1.143,7.076,4.424,13.637,6.396,17.097"/>
	<path style="fill:none;stroke:#000000;stroke-width:1.8482;stroke-linecap:round;stroke-linejoin:round;stroke-miterlimit:10;" d="
		M469.233,168.797c0.033-0.784,0.266-1.557,0.69-2.236"/>
	<path style="fill:none;stroke:#000000;stroke-width:1.8482;stroke-linecap:round;stroke-linejoin:round;stroke-miterlimit:10;" d="
		M498.72,123.7c1.991-6.368,3.262-13.328,3.333-20.784c0.024-2.514,2.071-4.536,4.579-4.536c0.015,0,0.03,0,0.045,0
		c2.53,0.025,4.561,2.094,4.537,4.624c-0.188,19.741-7.466,35.974-15.381,47.868l0.108-0.044
		c4.175-0.679,13.622-2.893,24.608-10.206c1.758-1.167,4.124-0.693,5.293,1.062c1.167,1.755,0.692,4.124-1.061,5.292
		c-15.495,10.313-30.067,11.602-30.717,11.66c-1.815,0.142-3.415-0.175-3.415-0.175l0.043-0.043
		c-5.755,7.345-10.963,11.738-13.073,13.411"/>
	<path style="fill:none;stroke:#000000;stroke-width:1.8482;stroke-linecap:round;stroke-linejoin:round;stroke-miterlimit:10;" d="
		M501.24,143.288c10.465-6.475,26.905-11.622,52.672-12.511c21.946,71.754-31.869,77.479-31.869,77.479"/>
	<path style="fill:none;stroke:#000000;stroke-width:1.8482;stroke-linecap:round;stroke-linejoin:round;stroke-miterlimit:10;" d="
		M483.292,174.626c0,0-0.585-3.318,0.516-8.357"/>
	<path style="fill:none;stroke:#000000;stroke-width:1.8482;stroke-linecap:round;stroke-linejoin:round;stroke-miterlimit:10;" d="
		M390.105,143.288c-10.466-6.475-26.905-11.622-52.672-12.511c-21.946,71.754,31.869,77.479,31.869,77.479"/>
	
		<path style="display:none;fill:none;stroke:#000000;stroke-width:1.8482;stroke-linecap:round;stroke-linejoin:round;stroke-miterlimit:10;" d="
		M408.053,174.626c0,0,0.585-3.318-0.516-8.357"/>
	<path d="M454.118,246.936c-1.579-1.522-5.177-1.461-5.718-1.445c-0.537-0.02-4.139-0.077-5.717,1.445
		c-0.505,0.485-0.771,1.099-0.771,1.776c0,3.104,5.576,5.363,6.212,5.61c0.089,0.035,0.183,0.052,0.277,0.052
		c0.094,0,0.188-0.017,0.277-0.052c0.636-0.247,6.212-2.506,6.212-5.61C454.888,248.036,454.622,247.422,454.118,246.936z"/>
	<path style="fill:none;stroke:#000000;stroke-width:1.8482;stroke-linecap:round;stroke-linejoin:round;stroke-miterlimit:10;" d="
		M434.533,260.926c0,3.205,3.104,5.208,6.934,5.208c3.829,0,6.934-3.482,6.934-6.687c0,3.205,3.104,6.687,6.934,6.687
		s6.934-2.003,6.934-5.208"/>
	<ellipse cx="485.277" cy="236.303" rx="8.349" ry="11.762"/>
	<path style="fill:#FFFFFF;" d="M483.593,227.734c1.215,1.952-0.839,4.007-2.792,2.793c-0.155-0.096-0.293-0.234-0.389-0.389
		c-1.214-1.953,0.84-4.007,2.793-2.793C483.359,227.442,483.497,227.579,483.593,227.734z"/>
	<path style="fill:#FFFFFF;" d="M484.866,231.387c0.52,0.911-0.414,1.845-1.325,1.325c-0.103-0.059-0.196-0.152-0.255-0.255
		c-0.52-0.911,0.414-1.846,1.325-1.325C484.715,231.191,484.807,231.284,484.866,231.387z"/>
	<ellipse cx="411.462" cy="236.303" rx="8.349" ry="11.762"/>
	<path style="fill:#FFFFFF;" d="M409.778,227.733c1.216,1.953-0.84,4.009-2.793,2.793c-0.155-0.096-0.292-0.234-0.389-0.389
		c-1.213-1.952,0.84-4.005,2.792-2.792C409.544,227.441,409.681,227.578,409.778,227.733z"/>
	<path style="fill:#FFFFFF;" d="M411.052,231.387c0.52,0.911-0.414,1.845-1.325,1.325c-0.103-0.059-0.196-0.152-0.255-0.255
		c-0.52-0.911,0.414-1.845,1.325-1.325C410.9,231.191,410.993,231.284,411.052,231.387z"/>
	<path style="fill:none;stroke:#000000;stroke-width:1.8482;stroke-linecap:round;stroke-linejoin:round;stroke-miterlimit:10;" d="
		M407.252,175.558c20.126-9.939,38.917-10.293,38.917-10.293s18.602,0.35,38.613,10.144"/>
	<path style="fill:none;stroke:#000000;stroke-width:1.8482;stroke-linecap:round;stroke-linejoin:round;stroke-miterlimit:10;" d="
		M518.607,205.201c5.377,8.458,9.683,18.707,12.202,31.124c14.149,69.734-84.641,63.628-84.641,63.628s-98.79,6.106-84.641-63.628
		c2.519-12.418,6.826-22.666,12.202-31.124"/>
	<path style="fill:none;stroke:#000000;stroke-width:1.759;stroke-linecap:round;stroke-linejoin:round;stroke-miterlimit:10;" d="
		M743.235,367.206c1.901,1.243,4.981,2.865,8.978,3.294c8.423,0.906,16.641-3.94,21.489-10.991
		c0.68-0.989,7.953-11.936,4.098-24.427c-0.637-2.063-3.356-10.876-11.565-13.976c-6.546-2.472-14.831-0.649-19.671,5.78
		c-6.396,8.495-4.257,21.687,1.706,26.949c7.222,5.87,13.519,1.976,13.519,1.976c5.839-5.075,1.439-9.776,1.336-13.813"/>
	<path style="fill:none;stroke:#000000;stroke-width:1.8214;stroke-linecap:round;stroke-linejoin:round;stroke-miterlimit:10;" d="
		M670.431,299.466c0,0-11.6,25.266-11.6,40.151s-2.127,41.602,7.511,41.602s17.051,1.018,13.345-9.414
		c-0.02-10.433-3.367-39.695,1.483-53.434"/>
	<path style="fill:none;stroke:#000000;stroke-width:1.8214;stroke-linecap:round;stroke-linejoin:round;stroke-miterlimit:10;" d="
		M660.534,326.59c0,0-14.764,1.959-13.837,22.283c0.927,20.324,0.693,20.704,0.693,20.704s-0.109,2.246-0.832,5.202
		c-1.622,6.886,15.207,4.341,15.207,4.341"/>
	<path style="fill:none;stroke:#000000;stroke-width:1.8214;stroke-linecap:round;stroke-linejoin:round;stroke-miterlimit:10;" d="
		M718.645,299.466c0,0,11.6,25.266,11.6,40.151s2.127,41.602-7.511,41.602s-17.051,1.018-13.345-9.414
		c0.02-10.433,3.367-39.695-1.483-53.434"/>
	<path style="fill:none;stroke:#000000;stroke-width:1.8214;stroke-linecap:round;stroke-linejoin:round;stroke-miterlimit:10;" d="
		M728.542,326.59c0,0,14.764,1.959,13.837,22.283c-0.927,20.324-0.693,20.704-0.693,20.704s0.109,2.246,0.832,5.202
		c1.622,6.886-15.207,4.341-15.207,4.341"/>
	<path style="fill:none;stroke:#000000;stroke-width:1.8214;stroke-linecap:round;stroke-linejoin:round;stroke-miterlimit:10;" d="
		M680.593,375.394c0,0,6.243,2.371,13.656,2.371s13.656-2.371,13.656-2.371"/>
	<path style="fill:none;stroke:#000000;stroke-width:1.8482;stroke-linecap:round;stroke-linejoin:round;stroke-miterlimit:10;" d="
		M722.335,169.56c0,0,30.554-43.081,44.294-41.363c21.119,16.094,8.966,80.558,4.86,85.914"/>
	<path style="fill:none;stroke:#000000;stroke-width:1.8482;stroke-linecap:round;stroke-linejoin:round;stroke-miterlimit:10;" d="
		M666.074,169.56c0,0-30.554-43.081-44.294-41.363c-21.119,16.094-8.966,80.558-4.86,85.914"/>
	<path d="M702.199,247.181c-1.579-1.522-5.177-1.461-5.718-1.445c-0.537-0.02-4.139-0.077-5.718,1.445
		c-0.505,0.485-0.771,1.099-0.771,1.776c0,3.104,5.576,5.363,6.212,5.61c0.089,0.035,0.182,0.052,0.277,0.052
		c0.094,0,0.188-0.017,0.277-0.052c0.636-0.247,6.212-2.506,6.212-5.61C702.97,248.28,702.704,247.666,702.199,247.181z"/>
	<path style="fill:none;stroke:#000000;stroke-width:1.8482;stroke-linecap:round;stroke-linejoin:round;stroke-miterlimit:10;" d="
		M682.614,261.17c0,3.205,3.104,5.208,6.934,5.208c3.829,0,6.934-3.482,6.934-6.687c0,3.205,3.104,6.687,6.934,6.687
		c3.829,0,6.934-2.003,6.934-5.208"/>
	<ellipse cx="733.358" cy="236.547" rx="8.349" ry="11.762"/>
	<path style="fill:#FFFFFF;" d="M731.674,227.978c1.216,1.953-0.84,4.009-2.793,2.793c-0.155-0.096-0.292-0.234-0.389-0.389
		c-1.213-1.952,0.84-4.005,2.792-2.792C731.44,227.685,731.578,227.823,731.674,227.978z"/>
	<path style="fill:#FFFFFF;" d="M732.948,231.631c0.52,0.911-0.414,1.845-1.325,1.325c-0.103-0.059-0.196-0.152-0.255-0.255
		c-0.52-0.911,0.414-1.845,1.325-1.325C732.796,231.435,732.889,231.528,732.948,231.631z"/>
	<ellipse cx="659.543" cy="236.547" rx="8.349" ry="11.762"/>
	<path style="fill:#FFFFFF;" d="M657.859,227.978c1.215,1.953-0.84,4.008-2.793,2.792c-0.155-0.096-0.292-0.234-0.389-0.389
		c-1.214-1.953,0.841-4.006,2.793-2.792C657.626,227.686,657.763,227.823,657.859,227.978z"/>
	<path style="fill:#FFFFFF;" d="M659.133,231.632c0.52,0.911-0.415,1.845-1.326,1.324c-0.103-0.059-0.196-0.151-0.255-0.255
		c-0.521-0.912,0.415-1.846,1.326-1.325C658.982,231.436,659.075,231.529,659.133,231.632z"/>
	<path style="fill:none;stroke:#000000;stroke-width:1.8482;stroke-linecap:round;stroke-linejoin:round;stroke-miterlimit:10;" d="
		M655.333,175.802c20.126-9.939,38.917-10.293,38.917-10.293s18.602,0.35,38.613,10.144"/>
	<path style="fill:none;stroke:#000000;stroke-width:1.8482;stroke-linecap:round;stroke-linejoin:round;stroke-miterlimit:10;" d="
		M766.689,205.445c5.377,8.458,9.683,18.707,12.202,31.124c14.149,69.734-84.641,63.628-84.641,63.628s-98.79,6.106-84.641-63.628
		c2.52-12.418,6.826-22.666,12.202-31.124"/>
	<path style="fill:#1C1C1C;" d="M230.212,134.038c0,0,17.811-18.447,35.113,8.397c-7.633-21.628-16.99-23.995-16.99-23.995
		S237.464,117.372,230.212,134.038z"/>
	<path style="fill:#1C1C1C;" d="M137.658,134.038c0,0-17.811-18.447-35.114,8.397c7.633-21.628,16.99-23.995,16.99-23.995
		S130.406,117.372,137.658,134.038z"/>
	<path style="fill:#1C1C1C;" d="M230.861,351.572c-0.461-0.262-0.972-0.257-1.476,0.013c-0.195,0.104-0.324,0.288-0.373,0.504
		c-0.347,1.535-1.806,2.417-2.856,2.863c0.124-1.205,0.132-2.901-0.626-3.832c-0.373-0.458-0.886-0.701-1.489-0.701
		c-0.306,0-0.583,0.183-0.702,0.466c-1.127,2.663-3.048,3.968-3.067,3.981c-0.042,0.028-0.065,0.074-0.1,0.109
		c-0.516-2.154-1.233-3.904-2.24-4.461c-0.207-0.113-0.452-0.127-0.671-0.034c-0.216,0.093-0.378,0.281-0.438,0.509
		c-0.609,2.335-1.466,3.178-1.989,3.483c-0.35-0.923-1.202-2.466-3.235-3.89c-0.218-0.152-0.501-0.179-0.746-0.073
		c-0.245,0.108-0.414,0.336-0.449,0.602c-0.282,2.201-1.931,3.431-2.971,3.998c-0.278-0.946-1.019-2.355-2.947-3.921
		c-0.212-0.171-0.5-0.216-0.757-0.119c-0.256,0.098-0.438,0.326-0.479,0.597c-0.469,3.077-2.238,4.638-3.035,5.198
		c-0.374,8.542-0.9,15.049-0.9,15.049l-0.794,3.098l-0.35,0.061c2.037,9.783,19.389,3.665,19.389,3.665s17.168,3.576,15.317-6.323
		c0.07,0.023,0.141,0.041,0.211,0.063c-0.354-2.575-0.453-6.295-0.422-9.327c-0.397-0.158-0.667-0.276-0.667-0.276v-9.546
		C232,352.531,231.382,351.868,230.861,351.572z"/>
	<path style="fill:#1C1C1C;" d="M171.708,373.19l-0.316-1.277c0,0-0.109-1.395-0.261-3.733c-0.514-5.221-0.811-10.358-0.816-10.432
		c-0.015-0.269-0.171-0.511-0.41-0.634c-0.115-0.06-2.83-1.527-3.427-5.448c-0.041-0.271-0.224-0.499-0.479-0.597
		c-0.257-0.097-0.544-0.052-0.757,0.119c-1.928,1.566-2.669,2.975-2.947,3.921c-1.04-0.566-2.689-1.797-2.971-3.998
		c-0.034-0.265-0.204-0.494-0.449-0.602c-0.245-0.106-0.529-0.079-0.746,0.073c-2.034,1.424-2.886,2.967-3.235,3.89
		c-0.523-0.305-1.38-1.148-1.989-3.483c-0.06-0.228-0.221-0.416-0.438-0.509c-0.218-0.093-0.464-0.08-0.671,0.034
		c-1.007,0.557-1.724,2.307-2.24,4.461c-0.035-0.035-0.058-0.081-0.101-0.109c-0.019-0.013-1.94-1.318-3.068-3.981
		c-0.119-0.283-0.396-0.466-0.703-0.466c-0.602,0-1.117,0.242-1.49,0.701c-0.758,0.932-0.754,2.628-0.629,3.832
		c-1.049-0.445-2.514-1.328-2.861-2.863c-0.049-0.215-0.189-0.4-0.384-0.504c-0.504-0.27-1.036-0.275-1.498-0.013
		c-0.888,0.504-1.374,2.069-1.64,3.564c0.151,3.425,0.316,7.421,0.46,11.521c-1.668,11.251,0.333,12.815,6.92,12.56
		c3.468-0.134,5.345,0.783,6.782,0.783h0.821c0.229,0,0.446-0.123,0.59-0.299c0.023-0.028,0.029-0.073,0.047-0.104
		c0.349,0.37,0.726,0.694,1.127,0.978c0.327,0.024,0.671,0.019,1.051-0.021c16.727,2.723,15.86-5.542,15.86-5.542
		s0.415,0.137,1.172,0.336c-0.015-0.152-0.029-0.303-0.054-0.46C171.873,374.354,171.789,373.783,171.708,373.19z"/>
</g>
</svg>
