<?xml version="1.0" encoding="iso-8859-1"?>
<!-- Generator: Adobe Illustrator 18.1.1, SVG Export Plug-In . SVG Version: 6.00 Build 0)  -->
<svg version="1.1" xmlns="http://www.w3.org/2000/svg" xmlns:xlink="http://www.w3.org/1999/xlink" x="0px" y="0px"
	 viewBox="0 0 880 505" style="enable-background:new 0 0 880 505;" xml:space="preserve">
<g id="Background">
	<rect style="fill:#FBFFB3;" width="880" height="505"/>
</g>
<g id="Color">
	<path style="fill:#F4B59E;" d="M617.056,213.65c-6.588,17.492-2.714,35.873-2.714,35.873s6.091,21.343,30.081,33.631
		c16.482,8.443,46.911,9.792,64.343,9.811c7.846,0.004,13.017-0.26,13.017-0.26s42.87-2.988,61.446-18.159
		c18.158-12.658,18.314-36.896,18.314-36.896s-1.561-17.613-3.543-24.605c-11.504-2.711-10.603-17.157-10.531-18.108
		c-0.842,0.248-4.995,1.396-9.663,1.396c-7.594,0.045-16.602-2.915-14.756-17.818c-2.733,0.938-5.193,1.34-7.396,1.348
		c-11.529,0.143-16.124-10.432-16.498-11.341c-0.854,0.406-5.886,2.657-12.115,2.522c-6.037-0.089-13.216-2.406-18.781-10.848
		c-5.689,8.636-13.327,10.972-19.82,11.024c-6.744,0.094-12.273-2.288-13.176-2.7c-0.353,0.918-4.82,11.901-16.399,11.555
		c-2.226-0.045-4.717-0.512-7.495-1.553c2.22,14.75-5.891,18.047-13.354,18.129c-5.25,0.092-10.204-1.428-11.085-1.713
		l-3.841,13.958L617.056,213.65z"/>
	<path style="fill:#F4B59E;" d="M842.57,188.192c-9.95,1.141-16.758,0.175-21.187-1.176c-0.022,0.04-0.039,0.079-0.062,0.119
		c-4.826-1.09-6.828-2.298-7.647-3.025c-0.748,0.698-1.972,1.873-3.157,3.146c-0.311,4.362-1.602,7.312-3.103,9.3l-0.093,0.439
		l-0.512,0.297c-2.416,2.726-5.1,3.239-5.1,3.239c0.771,0.635,1.527,1.238,2.276,1.826l12.542,8.329
		c23.732,12.637,32.949-1.787,32.949-1.787S857.332,190.363,842.57,188.192z"/>
	<path style="fill:#F4B59E;" d="M611.726,200.169c-1.681-0.662-4.784-2.399-6.296-6.507c-0.937-1.843-1.546-4.061-1.389-6.705
		c-0.035-0.031-0.065-0.055-0.099-0.085c-0.35-0.24-0.678-0.516-0.98-0.811c-3.079-2.353-3.975-0.981-3.975-0.981l-3.927,1.349
		c-4.421,2.029-10.789,3.995-16.938,2.477c-10.997-2.714-14.138,4.978-14.138,4.978s-5.865,16.588,9.949,21.72
		c7.581,2.46,16.835-0.903,24.422-5.07c7.456-4.484,14.041-10,14.041-10S612.134,200.406,611.726,200.169z"/>
	<path style="fill:#F4B59E;" d="M689.669,346.881c-1.066,0.697-3.975,2.335-7.572,2.211c-1.908,0.129-3.976-0.158-5.971-1.249
		c-2.601,1.6-7.927,2.759-7.927,2.759l-0.032,7.852c0,0-2.806,3.666-5.862,4.997c-1.84,0.802-4.183,0.248-5.76-0.32
		c-0.439-0.094-0.88-0.215-1.324-0.397c0.132,0.274,0.021,1.126-0.166,2.074l0.639,5.919c0,0,0.504,0.151,1.334,0.322
		c2.86-0.12,8.221-0.399,10.855-0.89c0.356-0.192,0.702-0.404,1.034-0.647c0.778,0.356,1.605,0.659,2.465,0.918
		c4.351,0.678,14.469,0.851,18.596,0.893c0.823-0.097,1.299-0.196,1.299-0.196L691.179,369h-0.003L689.669,346.881z"/>
	<path style="fill:#F4B59E;" d="M758.582,362.772c-1.436,0.621-4.428,1.657-6.671,0.68c-3.055-1.331-5.862-4.996-5.862-4.996
		l-0.032-7.851c0,0-5.841-1.269-8.273-2.988l-0.344-0.073c-5.781,3.398-11.26,0.399-12.837-0.628l-0.959,10.12l-0.665,14.116
		c0,0,0.476,0.074,1.299,0.171c4.127-0.043,14.245-0.215,18.596-0.893c0.859-0.259,1.687-0.562,2.465-0.918
		c0.331,0.243,0.678,0.455,1.034,0.647c2.634,0.491,7.995,0.771,10.855,0.891c0.83-0.171,1.334-0.322,1.334-0.322l0.478-4.431
		l-0.05-3.539L758.582,362.772z"/>
	<path style="fill:#FFFFFF;" d="M801.238,200.532l5.572-3.239l0.512-0.297l0.093-0.439l1.688-8.002l4.022-5.104
		c0,0,0.095,0.257,0.55,0.66c0.819,0.726,2.821,1.935,7.647,3.025c0.023-0.041,0.039-0.079,0.062-0.119
		c8.391-15.183-9.307-21.359-9.307-21.359s0-13.939-13.778-17.503c-6.406-16.864-21.033-11.832-21.033-11.832
		s0-16.757-19.681-11.799c-7.742-12.113-21.687-9.357-21.687-9.357s-2.932-7.226-12.887-7.707
		c-9.954-0.481-15.138,2.623-15.138,2.623s-17.393-10.556-30.031,4.548c-17.316-1.583-21.784,9.893-21.784,9.893
		s-17.036-5.307-19.549,10.939c-19.27-0.371-20.667,12.616-20.667,12.616s-13.405,0.393-14.156,17.52
		c-16.041,7.702-9.038,21.659-9.038,21.659l2.413-0.829l3.927-1.349c0,0,0.897-1.371,3.975,0.981
		c0.306,0.234,0.629,0.498,0.98,0.811c0.034,0.03,0.065,0.054,0.099,0.085c-0.158,2.644,0.451,4.862,1.389,6.705
		c1.833,3.604,4.942,5.722,6.296,6.507c0.408,0.237,0.67,0.364,0.67,0.364s-6.585,5.516-14.041,10
		c-1.746,1.05-3.539,2.044-5.307,2.897c-6.804,17.76,4.373,26.87,4.373,26.87s-8.391,24.213,16.325,28.053
		c4.399,23.18,24.716,17.467,24.716,17.467s5.028,17.373,20.946,10.264c4.747,4.97,10.533,8.029,10.533,8.029
		s-2.245,2.361-1.177,6.83c-5.446,3.421-4.748,8.727-4.748,8.727s-9.356-0.349-9.695,8.728c-8.228,3.351-5.596,13.069-5.596,13.069
		s-6.284,3.827-2.868,13.046c-4.613,17.458,8.395,13.612,8.395,13.612s0.502-1.784,0.804-3.317c0.187-0.948,0.298-1.8,0.166-2.074
		c0.445,0.182,0.886,0.303,1.324,0.397c5.42,1.157,10.22-3.947,10.22-3.947l0.929-8.967c0,0,1.767,0.802,7.841-2.689
		c0.195,0.124,0.393,0.213,0.59,0.321c1.995,1.091,4.063,1.384,5.971,1.255c4.171-0.283,7.551-2.51,7.551-2.51l0.021,0.286
		L691.176,369h0.003l4.885,1.702l3.351-2.047l4.738,4.109l6.782,0.422l3.91-4.139l3.497,1.347l4.125-1.346l1.138-12.014l0.959-10.12
		l0.03-0.321l12.47,0.877l0.336,0.072l0.344,0.073l8.759,1.867l0.591,9.154l7.462,4.298l4.026-0.163l0.368-0.015l0.05,3.539
		l0.019,1.34l4.212,2.061l4.534-3.384l2.426-4.824l-0.672-4.897l-1.602-2.697l1.528-3.993l-1.885-5.383l-1.757-3.344l-1.464-8.605
		l-4.111-4.31l-0.976-3.66l-3.436-3.434l-5.362-1.635l-1.324-5.561l-3.333-2.665l-1.524-7.429l9.959-7.792
		c0,0,16.06,6.655,20.946-10.264c23.258,5.598,24.018-18.223,24.018-18.223s22.893,1.104,16.783-26.967
		c13.16-8.906,5.587-26.598,5.587-26.598l-5.037-3.345l-12.542-8.329L801.238,200.532z M644.255,283.154
		c-23.99-12.288-30.081-33.631-30.081-33.631s-3.874-18.381,2.714-35.873l6.033-4.757l3.855-14.009c0,0,0.063,0.021,0.154,0.05
		c0.882,0.285,5.836,1.805,11.085,1.713c7.427-0.13,15.415-3.496,13.179-18.19c0.06,0.023,0.116,0.039,0.176,0.061
		c2.778,1.04,5.269,1.507,7.495,1.553c11.953,0.244,16.255-11.62,16.255-11.62s0.058,0.027,0.143,0.066
		c0.903,0.412,6.432,2.794,13.176,2.7c6.488-0.091,14.088-2.48,19.736-11.144c0.027,0.042,0.056,0.078,0.084,0.12
		c5.565,8.443,12.744,10.759,18.781,10.848c6.762,0.1,12.088-2.59,12.088-2.59s0.011,0.027,0.028,0.068
		c0.373,0.909,4.969,11.485,16.498,11.341c2.207-0.027,4.667-0.446,7.401-1.403c-0.002,0.019-0.003,0.036-0.005,0.055
		c-1.846,14.903,7.162,17.863,14.756,17.818c5.16-0.031,9.667-1.447,9.667-1.447s-0.002,0.019-0.004,0.051
		c-0.072,0.951-0.973,15.397,10.531,18.108c1.982,6.993,3.543,24.605,3.543,24.605s-0.156,24.238-18.314,36.896
		c-18.577,15.172-61.446,18.159-61.446,18.159s-5.171,0.264-13.017,0.26C691.362,292.955,660.791,291.624,644.255,283.154z"/>
	<path style="fill:#6D413B;" d="M488.58,162.276c0-15.579,14.325-26.334,28.982-26.334c7.529,0,14.32,4.185,19.15,10.362
		l-5.041-8.163l-14.056-7.818L506.531,128H495.12l-12.777,5.613l-8.435,9.72l-3.918,7.789l-18.559-5.565l-11.295-2.259l-10.892,0.92
		l-11.665,1.496l-19.042,5.991l-3.574-6.962l-9.811-12.153l-19.166-4.916l-20.423,4.601l-10.368,7.331l-5.882,9.889l-1.528,4.441
		c4.381-10.112,13.332-17.996,23.671-17.996c14.657,0,28.982,10.755,28.982,26.334c-5.306,4.272-23.041,15.349-28.982,33.293
		c-3.33,0-6.514-0.658-9.451-1.848c2.548,1.32,6.9,3.658,7.127,5.01l-7.494,24.338l-0.761,19.302l4.128,15.4l12.731,14.529
		l24.677,12.55l26.324,5.475l-2.786,6.521l-6.486,18.323l-1.466,5.435l-3.562,0.545l-10.123,10.992l-1.903,11.167
		c0,0,0.924,17.069,0.937,17.487c0.013,0.419-0.919,13.512-0.919,13.512l2.815,2.996l11.949,0.954l2.029-0.504l5.93,2.307
		l11.378-0.651l3.466-3.143v-2.167l4.142,0.851c-7.325-3.037-6.784-15.005-6.784-38.435c0-21.235,7.909-38.45,17.698-38.45
		c9.789,0,17.711,17.215,17.711,38.45c0,39.19-0.007,38.451-17.731,38.45c-2.797,0.587-5.148,0.708-7.134,0.626l2.704,0.409h10.473
		l10.054-2.469l-0.733,4.167l4.927,1.998l9.916,0.348l5.93-2.299l11.276,0.509l5.536-2.691l-0.231-3.052l-0.726-11.086l0.957-20.84
		l-1.751-8.031l-4.729-7.673l-5.968-3.985l-3.263-0.799l-5.06-16.111l-5.553-13.661l15.863-2.844l24.924-8.891l11.835-8.203
		l9.353-11.889l5.366-14.58v-15.081l-3.084-14.81l-6.021-16.734l4.21-2.601c-2.105,0.571-4.29,0.876-6.562,0.876
		C511.601,177.625,493.886,166.548,488.58,162.276z M437.344,270.137c-14.73,0-26.671-10.94-26.671-24.436
		c0-13.495,11.941-24.436,26.671-24.436c14.73,0,26.671,10.94,26.671,24.436C464.015,259.197,452.074,270.137,437.344,270.137z"/>
	<ellipse style="fill:#F1CD7A;" cx="437.344" cy="245.701" rx="26.671" ry="24.436"/>
	<path style="fill:#F1CD7A;" d="M380.44,162.276c0-15.579-14.325-26.334-28.982-26.334c-10.339,0-19.29,7.885-23.671,17.996
		c-0.731,1.688-1.335,3.436-1.796,5.221c-0.693,2.683-1.072,5.445-1.072,8.201c0,3.457,0.588,6.767,1.658,9.828
		c2.658,7.598,8.309,13.645,15.429,16.531c2.937,1.19,6.121,1.848,9.451,1.848C357.4,177.625,375.134,166.548,380.44,162.276z"/>
	<path style="fill:#F1CD7A;" d="M540.691,152.749c-1.1-2.304-2.44-4.474-3.979-6.444c-4.83-6.177-11.621-10.362-19.15-10.362
		c-14.657,0-28.982,10.755-28.982,26.334c5.306,4.272,23.041,15.349,28.982,33.293c2.272,0,4.477-0.305,6.581-0.876
		c11.473-3.112,19.957-14.168,19.957-27.332c0-3.984-0.781-7.983-2.183-11.732C541.551,154.65,541.14,153.689,540.691,152.749z"/>
	<path style="fill:#F1CD7A;" d="M435.029,374.965c17.724,0.001,17.724,0.74,17.724-38.45c0-21.235-7.935-38.45-17.724-38.45
		c-9.789,0-17.724,17.215-17.724,38.45c0,23.43-0.594,35.398,6.731,38.435c1.099,0.456,2.377,0.712,3.863,0.774
		C429.885,375.806,432.233,375.552,435.029,374.965z"/>
	<path style="fill:#D68030;" d="M240.772,125.019c-15.313-7.881-58.565,26.956-58.565,26.956s-1.979-0.751-5.223-1.783
		c-0.003,0.022,0.003,0.043-0.002,0.065c-0.139,0.609-3.48,15.011-9.976,21.864c-0.151,0.16-0.359,0.245-0.569,0.245
		c-0.116,0-0.232-0.026-0.342-0.079c-0.308-0.149-0.484-0.479-0.435-0.818c1.915-13.366,2.902-23.435,2.927-23.693
		c-4.116-1.058-8.84-2.082-13.694-2.761c-0.776,14.402-4.643,29.875-4.682,30.033c-0.085,0.337-0.39,0.574-0.738,0.574
		s-0.653-0.237-0.738-0.574c-0.04-0.16-4.03-16.122-4.718-30.712c-0.001-0.029,0.009-0.056,0.011-0.085
		c-15.434,0.334-30.3,7.432-30.3,7.432L92.19,136.707c0,0-29.367-19.167-38.927-10.873c-9.559,8.294-0.189,49.791-0.189,49.791
		l7.465,27.386l-2.476,7.169l-1.48,4.284l-2.698,7.809c0,0-2.142,12.085,1.272,25.821c0.175-0.124,0.374-0.218,0.594-0.268
		c0.619-0.141,60.978-13.767,81.96-18.014c1.564-15.058,9.282-30.696,10.408-32.913c0.168-0.403,0.483-0.738,0.884-0.913
		c0.345-0.159,0.74-0.201,1.121-0.096c0.592,0.16,1.043,0.612,1.193,1.181c1.299,2.68,8.457,17.994,9.93,32.753
		c20.202,4.256,78.148,17.865,78.742,18.005c0.463,0.109,0.822,0.414,1.046,0.802c1.024-5.044,1.185-10.33,0.843-15.433
		c-0.054-0.807-0.121-1.609-0.198-2.406c-0.495-5.08-1.439-9.901-2.459-14.022c-0.619-2.503-1.265-4.744-1.855-6.632
		c-1.212-3.877-2.184-6.25-2.184-6.25S256.085,132.9,240.772,125.019z"/>
	<path style="fill:#D68030;" d="M161.684,311.758c5.218,10.473,1.332,58.544,1.332,58.544l-0.712,3.4L148,376.211v0.094
		l-0.495-0.048L147,376.305v-0.097l-13.861-2.505l-0.806-3.4c0,0-3.731-48.071,1.302-58.544c-7.9-7.973-9.92-16.718-10.428-20.113
		c-0.286-0.031-0.564-0.064-0.847-0.097c-3.978,2.762-11.432,29.555-11.432,29.555s-3.561,0-8.779,4.354
		c-3.989,2.827-5.9,8.044-6.73,14.12l0.829-3.289c0.028-0.114,0.101-0.216,0.197-0.277c0.095-0.061,0.204-0.075,0.295-0.037
		c0.038,0.016,3.922,1.617,9.238,3.477c0.133,0.047,0.209,0.19,0.188,0.355c-0.008,0.059-0.027,0.115-0.055,0.166
		c-0.052,0.092-0.133,0.166-0.228,0.2c-4.052,1.468-10.046,0.039-10.299-0.022c-0.137-0.034-0.201-0.171-0.197-0.325
		c-1.442,10.978,0.59,24.682,0.366,32.247c-0.005,0.166,0.005,0.315,0.007,0.474c0.027,2.655,0.949,4.344,2.354,5.359
		c2.191,1.583,5.527,1.554,8.38,1.108c3.011-0.471,5.482-1.405,5.482-1.405s0.015,0.491,0.293,1.154
		c0.327,0.779,1.02,1.797,2.5,2.543c8.941,1.233,13.702-0.136,16.239-1.944c0.331-0.236,0.623-0.479,0.882-0.725
		c2.007-1.903,2.01-3.965,2.01-3.965s10.613,4.594,28.778,0.644c0.442,1.123,1.02,2.044,1.692,2.809
		c0.529,0.601,1.117,1.103,1.753,1.514c6.506,4.194,17.854-0.878,17.854-0.878s8.374,0.074,12.696-0.406
		c0.842-0.094,1.533-0.208,1.976-0.348c0.745-0.236,1.22-0.74,1.526-1.34c0.631-1.238,0.524-2.892,0.444-3.564
		c-0.023-0.189-0.043-0.308-0.043-0.308s16.969-2.487,23.959-15.545c4.477-8.989,1.528-19.916-7.147-27.837
		c-6.048-5.522-7.989-11.843-7.019-17.078c0.098-0.529,0.23-1.044,0.387-1.549c0.516-1.666,1.33-3.196,2.426-4.507
		c1.562-1.869,3.076-3.032,4.664-3.607c2.446-0.885,5.078-0.345,8.344,1.291c1.012,0.506,2.077,1.105,3.225,1.812
		c0.921,0.566,1.729,0.94,2.439,1.165c0,0,0,0,0.001,0c2.236,0.705,3.497-0.09,4.207-1.162c0.843-1.273,0.911-2.934,0.911-2.934
		s-5.732-8.732-15.413-9.028c-2.12-0.065-4.432,0.286-6.912,1.211c-0.041,0.015-0.082,0.031-0.122,0.047
		c-1.173,0.446-2.379,1.006-3.625,1.733c-0.506,0.589-0.982,1.166-1.444,1.736c-0.976,1.205-1.852,2.369-2.64,3.495
		c-1.292,1.846-2.343,3.59-3.176,5.239c-0.633,1.254-1.145,2.455-1.541,3.605c-6.736,19.559,18.978,24.816,16.465,37.904
		c-3.029,15.779-18.408,15.624-18.408,15.624s0.295-4.44,0.28-12.621c-1.531-0.171-6.42-0.878-9.315-3.15
		c-0.079-0.062-0.133-0.158-0.154-0.261c-0.011-0.057-0.012-0.116-0.001-0.175c0.031-0.163,0.148-0.275,0.289-0.278
		c4.277-0.08,7.717-0.276,9.145-0.367c-0.031-2.197-0.084-4.591-0.168-7.18c-1.961,0.359-6.135,0.906-9.2-0.204
		c-0.095-0.034-0.176-0.108-0.228-0.2c-0.028-0.051-0.047-0.107-0.055-0.166c-0.022-0.164,0.054-0.308,0.188-0.355
		c4.236-1.482,7.555-2.797,8.751-3.279c-3.983-15-14.362-15.069-14.362-15.069s-0.326-1.216-0.885-3.181
		c-0.05,0.093-0.128,0.166-0.234,0.198c-0.345,0.105-8.515,2.566-14.089,0.999c-0.13-0.036-0.243-0.127-0.315-0.244
		c-0.04-0.065-0.067-0.138-0.079-0.215c-0.033-0.216,0.068-0.414,0.25-0.489c7.234-2.969,12.513-5.459,12.565-5.484
		c0.113-0.054,0.247-0.045,0.37,0.012c-2.004-6.626-4.957-15.618-7.709-21.06c-0.902,0.103-1.816,0.201-2.743,0.293
		C171.86,295.514,169.655,304,161.684,311.758z M112.437,317.553l1.26-4.494c0.041-0.149,0.142-0.278,0.275-0.349
		c0.132-0.073,0.281-0.08,0.404-0.022c0.052,0.024,5.331,2.514,12.565,5.484c0.182,0.075,0.282,0.272,0.25,0.489
		c-0.012,0.077-0.039,0.15-0.079,0.215c-0.072,0.117-0.185,0.208-0.315,0.244c-5.574,1.567-13.745-0.894-14.089-0.999
		C112.483,318.052,112.366,317.806,112.437,317.553z M110.547,328.41l1.068-4.543c0.035-0.151,0.13-0.283,0.26-0.36
		c0.128-0.078,0.277-0.092,0.403-0.039c0.053,0.022,5.434,2.285,12.787,4.943c0.185,0.067,0.294,0.26,0.27,0.477
		c-0.009,0.077-0.033,0.151-0.07,0.218c-0.067,0.12-0.176,0.215-0.305,0.257c-5.502,1.803-13.77-0.307-14.119-0.398
		C110.614,328.906,110.487,328.666,110.547,328.41z M95.681,351.506l-0.252-3.546c-0.009-0.117,0.028-0.237,0.101-0.324
		c0.071-0.088,0.17-0.135,0.268-0.128c0.041,0.003,4.23,0.31,9.861,0.416c0.142,0.003,0.258,0.115,0.289,0.278
		c0.011,0.058,0.01,0.117-0.001,0.175c-0.02,0.103-0.074,0.199-0.154,0.261c-3.39,2.661-9.531,3.177-9.79,3.198
		C95.835,351.848,95.695,351.706,95.681,351.506z M171.851,328.411c7.354-2.658,12.734-4.921,12.787-4.943
		c0.126-0.053,0.275-0.039,0.403,0.039c0.13,0.077,0.225,0.209,0.26,0.36l1.068,4.543c0.06,0.255-0.067,0.496-0.294,0.555
		c-0.349,0.09-8.617,2.2-14.119,0.398c-0.129-0.042-0.238-0.137-0.305-0.257c-0.037-0.067-0.061-0.14-0.07-0.218
		C171.557,328.671,171.666,328.478,171.851,328.411z"/>
	<path style="fill:#FFFFFF;" d="M239.989,247.829c-0.595-0.141-58.54-13.749-78.742-18.005c-1.473-14.759-8.631-30.072-9.93-32.753
		c-0.15-0.569-0.601-1.021-1.193-1.181c-0.381-0.105-0.776-0.062-1.121,0.096c-0.401,0.175-0.716,0.511-0.884,0.913
		c-1.127,2.217-8.845,17.855-10.408,32.913c-20.981,4.247-81.34,17.873-81.96,18.014c-0.22,0.049-0.419,0.144-0.594,0.268
		c-0.468,0.331-0.75,0.888-0.704,1.49c0.121,1.574,3.479,34.593,67.911,41.965c0.283,0.032,0.566,0.065,0.852,0.097
		c-0.139-0.931-0.165-1.462-0.165-1.462l24.363,0.178l25.261-0.178c0,0-0.033,0.643-0.218,1.751c0.927-0.092,1.841-0.19,2.743-0.293
		c62.705-7.186,65.957-40.482,66.073-42.063c0.026-0.345-0.075-0.666-0.238-0.948C240.812,248.243,240.453,247.938,239.989,247.829z
		"/>
	<path style="fill:#FFFFFF;" d="M132.367,370.302l0.771,3.4L147,376.207v0.097l0.505-0.048l0.495,0.048v-0.094l14.304-2.508
		l0.792-3.4c0,0,3.846-48.071-1.372-58.544c7.971-7.758,10.156-16.244,10.754-19.823c0.185-1.108,0.208-1.751,0.208-1.751
		l-25.266,0.178l-24.366-0.178c0,0,0.024,0.531,0.163,1.462c0.508,3.395,2.536,12.14,10.436,20.113
		C128.62,322.231,132.367,370.302,132.367,370.302z"/>
	<path style="fill:#97500F;" d="M148.734,175.048c0.085,0.337,0.39,0.574,0.738,0.574s0.653-0.237,0.738-0.574
		c0.039-0.158,3.906-15.631,4.682-30.033c0.012-0.226,0.026-0.453,0.037-0.679c0.016-0.355-0.214-0.674-0.556-0.769
		c-2.098-0.589-4.192-0.093-4.901,0.108c-0.709-0.201-2.806-0.694-4.9-0.108c-0.313,0.087-0.523,0.365-0.545,0.684
		c-0.002,0.029-0.012,0.055-0.011,0.085C144.704,158.927,148.694,174.888,148.734,175.048z"/>
	<path style="fill:#97500F;" d="M166.094,172.288c0.109,0.052,0.226,0.079,0.342,0.079c0.21,0,0.418-0.085,0.569-0.245
		c6.497-6.853,9.837-21.255,9.976-21.864c0.005-0.022-0.001-0.043,0.002-0.065c0.052-0.374-0.16-0.737-0.524-0.856l-6.848-2.24
		c-0.227-0.075-0.268-0.043-0.467,0.09c-0.2,0.129-0.146,0.344-0.146,0.581c0,0.001,0,0.008,0,0.01
		c0,0.258-1.219,10.328-3.134,23.693C165.818,171.808,165.786,172.139,166.094,172.288z"/>
	<path style="fill:#97500F;" d="M171.955,329.363c5.502,1.803,13.77-0.307,14.119-0.398c0.227-0.059,0.354-0.3,0.294-0.555
		l-1.068-4.543c-0.035-0.151-0.13-0.283-0.26-0.36c-0.128-0.078-0.277-0.092-0.403-0.039c-0.053,0.022-5.434,2.285-12.787,4.943
		c-0.185,0.067-0.294,0.26-0.27,0.477c0.009,0.077,0.033,0.151,0.07,0.218C171.718,329.226,171.827,329.322,171.955,329.363z"/>
	<path style="fill:#97500F;" d="M190.75,339.807c0.008,0.059,0.027,0.115,0.055,0.166c0.052,0.092,0.133,0.166,0.228,0.2
		c3.066,1.111,7.239,0.563,9.2,0.204c0.631-0.115,1.037-0.212,1.098-0.227c0.164-0.04,0.253-0.219,0.204-0.413l-0.869-3.447
		c-0.028-0.114-0.101-0.216-0.197-0.277c-0.095-0.061-0.204-0.075-0.295-0.037c-0.008,0.003-0.182,0.075-0.486,0.198
		c-1.196,0.482-4.515,1.797-8.751,3.279C190.804,339.499,190.728,339.642,190.75,339.807z"/>
	<path style="fill:#97500F;" d="M190.967,348.202c-0.011,0.058-0.01,0.117,0.001,0.175c0.02,0.103,0.074,0.199,0.154,0.261
		c2.895,2.272,7.783,2.978,9.315,3.15c0.262,0.029,0.437,0.045,0.475,0.048c0.169,0.013,0.308-0.129,0.323-0.329l0.252-3.546
		c0.009-0.117-0.028-0.237-0.101-0.324c-0.071-0.088-0.17-0.135-0.268-0.128c-0.01,0.001-0.265,0.019-0.717,0.048
		c-1.427,0.091-4.867,0.287-9.145,0.367C191.115,347.927,190.998,348.039,190.967,348.202z"/>
	<path style="fill:#97500F;" d="M182.539,312.689c-0.052,0.024-5.331,2.514-12.565,5.484c-0.182,0.075-0.283,0.272-0.25,0.489
		c0.012,0.077,0.039,0.15,0.079,0.215c0.072,0.117,0.185,0.208,0.315,0.244c5.574,1.567,13.745-0.894,14.089-0.999
		c0.105-0.032,0.184-0.106,0.234-0.198c0.056-0.105,0.074-0.235,0.037-0.369l-1.26-4.494c-0.041-0.149-0.142-0.278-0.275-0.349
		c-0.011-0.006-0.023-0.005-0.034-0.01C182.787,312.644,182.653,312.636,182.539,312.689z"/>
	<path style="fill:#97500F;" d="M110.841,328.966c0.349,0.09,8.617,2.2,14.119,0.398c0.129-0.042,0.238-0.137,0.305-0.257
		c0.037-0.067,0.061-0.14,0.07-0.218c0.024-0.218-0.085-0.411-0.27-0.477c-7.354-2.658-12.734-4.921-12.787-4.943
		c-0.126-0.053-0.275-0.039-0.403,0.039c-0.13,0.077-0.225,0.209-0.26,0.36l-1.068,4.543
		C110.487,328.666,110.614,328.906,110.841,328.966z"/>
	<path style="fill:#97500F;" d="M95.584,340.15c0.253,0.061,6.247,1.49,10.299,0.022c0.095-0.034,0.176-0.108,0.228-0.2
		c0.028-0.051,0.047-0.107,0.055-0.166c0.022-0.164-0.054-0.308-0.188-0.355c-5.316-1.86-9.199-3.461-9.238-3.477
		c-0.091-0.038-0.199-0.024-0.295,0.037c-0.096,0.06-0.169,0.162-0.197,0.277l-0.829,3.289l-0.04,0.158
		c-0.008,0.032,0.008,0.057,0.007,0.088C95.383,339.979,95.447,340.116,95.584,340.15z"/>
	<path style="fill:#97500F;" d="M96.004,351.835c0.26-0.021,6.4-0.537,9.79-3.198c0.079-0.062,0.134-0.158,0.154-0.261
		c0.011-0.057,0.012-0.116,0.001-0.175c-0.031-0.163-0.148-0.275-0.289-0.278c-5.631-0.106-9.82-0.413-9.861-0.416
		c-0.098-0.007-0.197,0.039-0.268,0.128c-0.073,0.087-0.109,0.207-0.101,0.324l0.252,3.546
		C95.695,351.706,95.835,351.848,96.004,351.835z"/>
	<path style="fill:#97500F;" d="M112.707,318.121c0.345,0.105,8.516,2.566,14.089,0.999c0.13-0.036,0.243-0.127,0.315-0.244
		c0.04-0.065,0.067-0.138,0.079-0.215c0.033-0.216-0.068-0.414-0.25-0.489c-7.234-2.969-12.513-5.459-12.565-5.484
		c-0.124-0.059-0.273-0.051-0.404,0.022c-0.133,0.071-0.234,0.2-0.275,0.349l-1.26,4.494
		C112.366,317.806,112.483,318.052,112.707,318.121z"/>
</g>
<g id="Line">
	<path style="fill:none;stroke:#000000;stroke-width:1.8214;stroke-linecap:round;stroke-linejoin:round;stroke-miterlimit:10;" d="
		M746.987,350.604c0.2,15.417-0.313,30.88-8.431,30.88c-10.578,0-18.716,1.117-14.647-10.333c0.01-5.502,0.864-13.697,1.157-24.557"
		/>
	<path style="fill:none;stroke:#000000;stroke-width:1.8214;stroke-linecap:round;stroke-linejoin:round;stroke-miterlimit:10;" d="
		M759.542,362.935c-0.207,4.085-0.183,5.77-0.183,5.77s0.119,2.466,0.913,5.71c1.78,7.558-16.691,4.765-16.691,4.765"/>
	<path style="fill:none;stroke:#000000;stroke-width:1.759;stroke-linecap:round;stroke-linejoin:round;stroke-miterlimit:10;" d="
		M723.909,371.151c0,0,15.302,2.622,22.36-2.711"/>
	<path style="fill:none;stroke:#000000;stroke-width:1.759;stroke-linecap:round;stroke-linejoin:round;stroke-miterlimit:10;" d="
		M746.269,371.066c0,0,9.473,1.036,13.223-0.948"/>
	<path style="fill:none;stroke:#000000;stroke-width:1.6653;stroke-linecap:round;stroke-linejoin:round;stroke-miterlimit:10;" d="
		M707.895,338.813c0,0,3.329,8.378,14.387,5.167c8.963,9.077,16.224,3.491,16.224,3.491s8.501,6.005,14.375,0.279"/>
	<path style="fill:none;stroke:#000000;stroke-width:1.6653;stroke-linecap:round;stroke-linejoin:round;stroke-miterlimit:10;" d="
		M744.21,304.113c1.362,1.976,2.465,3.69,2.06,7.191c5.718,2.234,4.246,8.518,4.246,8.518s9.981-0.14,9.878,8.239
		c7.996,5.027,5.596,13.405,5.596,13.405s6.031,5.167,2.4,12.428c0,0,5.865,6.703-0.838,13.126c-4.468,3.706-8.216,0-8.216,0"/>
	<path style="fill:none;stroke:#000000;stroke-width:1.6653;stroke-linecap:round;stroke-linejoin:round;stroke-miterlimit:10;" d="
		M763.083,360.877c0,0-10.012,7.55-16.107-3.207"/>
	<path style="fill:none;stroke:#000000;stroke-width:1.8214;stroke-linecap:round;stroke-linejoin:round;stroke-miterlimit:10;" d="
		M668.2,350.604c-0.2,15.417,0.313,30.88,8.431,30.88c10.578,0,18.716,1.117,14.647-10.333c-0.01-5.502-0.864-13.697-1.158-24.557"
		/>
	<path style="fill:none;stroke:#000000;stroke-width:1.8214;stroke-linecap:round;stroke-linejoin:round;stroke-miterlimit:10;" d="
		M655.645,362.935c0.207,4.085,0.183,5.77,0.183,5.77s-0.119,2.466-0.913,5.71c-1.78,7.558,16.691,4.765,16.691,4.765"/>
	<path style="fill:none;stroke:#000000;stroke-width:1.759;stroke-linecap:round;stroke-linejoin:round;stroke-miterlimit:10;" d="
		M691.278,371.151c0,0-15.302,2.622-22.36-2.711"/>
	<path style="fill:none;stroke:#000000;stroke-width:1.759;stroke-linecap:round;stroke-linejoin:round;stroke-miterlimit:10;" d="
		M668.918,371.066c0,0-9.473,1.036-13.223-0.948"/>
	<path style="fill:none;stroke:#000000;stroke-width:1.6653;stroke-linecap:round;stroke-linejoin:round;stroke-miterlimit:10;" d="
		M707.506,338.813c0,0-3.543,8.378-14.601,5.167c-8.963,9.077-16.224,3.491-16.224,3.491s-8.501,6.005-14.374,0.279"/>
	<path style="fill:none;stroke:#000000;stroke-width:1.6653;stroke-linecap:round;stroke-linejoin:round;stroke-miterlimit:10;" d="
		M670.977,304.113c-1.362,1.976-2.465,3.69-2.06,7.191c-5.718,2.234-4.246,8.518-4.246,8.518s-9.981-0.14-9.878,8.239
		c-7.996,5.027-5.596,13.405-5.596,13.405s-6.031,5.167-2.4,12.428c0,0-5.865,6.703,0.838,13.126c4.469,3.706,8.216,0,8.216,0"/>
	<path style="fill:none;stroke:#000000;stroke-width:1.6653;stroke-linecap:round;stroke-linejoin:round;stroke-miterlimit:10;" d="
		M652.104,360.877c0,0,10.011,7.55,16.107-3.207"/>
	<path style="fill:none;stroke:#000000;stroke-width:1.8214;stroke-linecap:round;stroke-linejoin:round;stroke-miterlimit:10;" d="
		M692.303,369.049c0,0,2.13,3.211,7.68,0c1.781,4.395,7.912,4.138,7.912,4.138s5.643,0.257,7.423-4.138c5.551,3.211,7.68,0,7.68,0"
		/>
	<path style="fill:none;stroke:#000000;stroke-width:1.8214;stroke-linecap:round;stroke-linejoin:round;stroke-miterlimit:10;" d="
		M681.148,291.752"/>
	<path style="fill:none;stroke:#000000;stroke-width:1.8482;stroke-linecap:round;stroke-linejoin:round;stroke-miterlimit:10;" d="
		M797.406,212.786c1.074,3.474,2.01,6.089,2.789,9.931c15.53,76.54-92.902,69.838-92.902,69.838s-108.432,6.702-92.902-69.838
		c0.814-4.01,1.797-6.28,2.93-9.889"/>
	<path style="stroke:#000000;stroke-width:1.8482;stroke-linecap:round;stroke-linejoin:round;stroke-miterlimit:10;" d="
		M716.017,234.364c-1.733-1.671-5.682-1.604-6.276-1.586c-0.589-0.022-4.543-0.085-6.276,1.586c-0.554,0.533-0.846,1.207-0.846,1.95
		c0,3.407,6.12,5.886,6.818,6.157c0.097,0.038,0.201,0.057,0.304,0.057c0.103,0,0.206-0.019,0.304-0.057
		c0.698-0.271,6.818-2.75,6.818-6.157C716.863,235.571,716.571,234.896,716.017,234.364z"/>
	<path style="fill:none;stroke:#000000;stroke-width:1.8482;stroke-linecap:round;stroke-linejoin:round;stroke-miterlimit:10;" d="
		M694.521,249.719c0,3.517,3.407,5.716,7.61,5.716c4.203,0,7.61-3.822,7.61-7.34c0,3.517,3.407,7.34,7.61,7.34
		s7.61-2.199,7.61-5.716"/>
	<ellipse cx="669.198" cy="222.692" rx="9.164" ry="12.911"/>
	<path style="fill:#FFFFFF;" d="M667.337,213.266c1.366,2.157-0.916,4.439-3.073,3.073c-0.154-0.098-0.293-0.236-0.39-0.39
		c-1.37-2.158,0.916-4.443,3.074-3.074C667.101,212.973,667.24,213.112,667.337,213.266z"/>
	<path style="fill:#FFFFFF;" d="M668.739,217.282c0.593,1.01-0.451,2.054-1.461,1.461c-0.103-0.06-0.196-0.153-0.256-0.256
		c-0.593-1.01,0.451-2.054,1.461-1.461C668.586,217.086,668.679,217.179,668.739,217.282z"/>
	<ellipse cx="750.218" cy="222.692" rx="9.164" ry="12.911"/>
	<path style="fill:#FFFFFF;" d="M748.357,213.266c1.366,2.157-0.916,4.439-3.073,3.073c-0.154-0.098-0.293-0.236-0.39-0.39
		c-1.369-2.158,0.916-4.443,3.074-3.074C748.121,212.973,748.259,213.112,748.357,213.266z"/>
	<path style="fill:#FFFFFF;" d="M749.759,217.282c0.593,1.01-0.451,2.054-1.461,1.461c-0.103-0.06-0.196-0.154-0.256-0.256
		c-0.593-1.01,0.451-2.054,1.461-1.461C749.605,217.086,749.698,217.179,749.759,217.282z"/>
	<path style="fill:none;stroke:#000000;stroke-width:1.8482;stroke-linecap:round;stroke-linejoin:round;stroke-miterlimit:10;" d="
		M813.353,184.292c7.816,3.622,17.078,6.021,29.217,3.9c8.578,0.415,9.185,10.118,9.185,10.118
		c1.034,5.685-7.961,35.036-49.553,2.936"/>
	<path style="fill:none;stroke:#000000;stroke-width:1.8482;stroke-linecap:round;stroke-linejoin:round;stroke-miterlimit:10;" d="
		M798.167,200.814c0,0,11.834,1.478,11.834-13.557c9.635-7.703,2.723-14.197,2.723-14.197"/>
	<path style="fill:none;stroke:#000000;stroke-width:1.8482;stroke-linecap:round;stroke-linejoin:round;stroke-miterlimit:10;" d="
		M601.232,184.292c-7.816,3.622-17.078,6.021-29.217,3.9c-8.578,0.415-9.185,10.118-9.185,10.118
		c-1.034,5.685,7.961,35.036,49.553,2.936"/>
	<path style="fill:none;stroke:#000000;stroke-width:1.8482;stroke-linecap:round;stroke-linejoin:round;stroke-miterlimit:10;" d="
		M609.216,212.461c0,0,17.729,5.546,17.729-17.576c30.122,7.5,24.419-16.426,24.419-16.426s16.933,7.235,23.926-10.006
		c22.024,9.426,33.055-8.379,33.055-8.379s8.134,15.919,30.952,8.379c6.993,17.241,23.926,10.006,23.926,10.006
		s-5.703,23.926,24.418,16.426c0,23.122,17.729,17.576,17.729,17.576"/>
	<path style="fill:none;stroke:#000000;stroke-width:1.6973;stroke-linecap:round;stroke-linejoin:round;stroke-miterlimit:10;" d="
		M592.853,187.257c0,0-7.541-13.816,9.496-21.749c0.279-16.017,13.964-17.43,13.964-17.43s1.117-13.897,20.667-12.484
		c0-15.31,19.55-11.071,19.55-11.071s3.631-10.835,21.784-9.893c12.576-15.021,30.031-4.548,30.031-4.548s17.595-8.643,27.928,4.548
		c18.153-0.942,21.784,9.893,21.784,9.893s19.55-4.24,19.55,11.071c19.55-1.413,20.667,12.484,20.667,12.484
		s13.685,1.413,13.964,17.43c17.036,7.933,9.495,21.749,9.495,21.749"/>
	<path style="fill:none;stroke:#000000;stroke-width:1.8482;stroke-linecap:round;stroke-linejoin:round;stroke-miterlimit:10;" d="
		M593.691,213.044c0,0-8.378,17.688,4.469,27.463c-6.396,29.604,16.757,27.09,16.757,27.09s0,23.04,24.018,18.223
		c5.027,17.805,20.946,10.264,20.946,10.264s13.126,17.315,27.928,4.468c13.382,9.914,19.484,1.396,19.484,1.396
		s6.102,8.518,19.484-1.396c14.802,12.847,27.928-4.468,27.928-4.468s15.919,7.54,20.946-10.264
		c24.018,4.817,24.018-18.223,24.018-18.223s23.153,2.514,16.757-27.09c12.847-9.775,4.469-27.463,4.469-27.463"/>
	<path style="fill:none;stroke:#000000;stroke-width:1.8482;stroke-linecap:round;stroke-linejoin:round;stroke-miterlimit:10;" d="
		M616.417,200.814c0,0-11.835,1.478-11.835-13.557c-9.635-7.703-2.723-14.197-2.723-14.197"/>
	<path style="fill:none;stroke:#000000;stroke-width:1.8214;stroke-linecap:round;stroke-linejoin:round;stroke-miterlimit:10;" d="
		M408.739,290.325c0,0-12.732,27.732-12.732,44.07s-2.334,45.662,8.244,45.662s18.715,1.117,14.647-10.334
		c-0.022-11.452-3.696-43.569,1.627-58.649"/>
	<path style="fill:none;stroke:#000000;stroke-width:1.8214;stroke-linecap:round;stroke-linejoin:round;stroke-miterlimit:10;" d="
		M397.876,320.097c0,0-16.205,2.15-15.188,24.458c1.017,22.307,0.76,22.725,0.76,22.725s-0.119,2.466-0.913,5.71
		c-1.78,7.558,16.691,4.765,16.691,4.765"/>
	<path style="fill:none;stroke:#000000;stroke-width:1.8214;stroke-linecap:round;stroke-linejoin:round;stroke-miterlimit:10;" d="
		M461.66,290.325c0,0,12.732,27.732,12.732,44.07s2.334,45.662-8.244,45.662c-10.578,0-18.716,1.117-14.647-10.334
		c0.022-11.452,3.696-43.569-1.627-58.649"/>
	<path style="fill:none;stroke:#000000;stroke-width:1.8214;stroke-linecap:round;stroke-linejoin:round;stroke-miterlimit:10;" d="
		M472.522,320.097c0,0,16.205,2.15,15.188,24.458c-1.017,22.307-0.76,22.725-0.76,22.725s0.119,2.466,0.913,5.71
		c1.78,7.558-16.691,4.765-16.691,4.765"/>
	<path style="fill:none;stroke:#000000;stroke-width:1.8214;stroke-linecap:round;stroke-linejoin:round;stroke-miterlimit:10;" d="
		M419.894,373.664c0,0,6.852,2.602,14.989,2.602c8.137,0,14.989-2.602,14.989-2.602"/>
	<path style="fill:none;stroke:#000000;stroke-width:1.8482;stroke-linecap:round;stroke-linejoin:round;stroke-miterlimit:10;" d="
		M392.168,154.592c22.09-10.91,42.715-11.298,42.715-11.298s20.418,0.384,42.382,11.134"/>
	<path style="fill:none;stroke:#000000;stroke-width:1.8482;stroke-linecap:round;stroke-linejoin:round;stroke-miterlimit:10;" d="
		M514.392,187.128c5.901,9.284,10.628,20.532,13.393,34.162c15.53,76.54-92.902,69.838-92.902,69.838s-108.432,6.702-92.902-69.838
		c2.766-13.63,7.492-24.878,13.393-34.162"/>
	<path d="M443.608,232.937c-1.733-1.671-5.683-1.604-6.276-1.586c-0.589-0.022-4.543-0.085-6.276,1.586
		c-0.554,0.533-0.846,1.207-0.846,1.95c0,3.407,6.12,5.886,6.818,6.157c0.097,0.038,0.2,0.057,0.304,0.057
		c0.103,0,0.206-0.019,0.304-0.057c0.698-0.271,6.818-2.75,6.818-6.157C444.454,234.144,444.162,233.469,443.608,232.937z"/>
	<path style="fill:none;stroke:#000000;stroke-width:1.8482;stroke-linecap:round;stroke-linejoin:round;stroke-miterlimit:10;" d="
		M422.112,248.292c0,3.517,3.407,5.716,7.61,5.716s7.61-3.822,7.61-7.34c0,3.517,3.407,7.34,7.61,7.34
		c4.203,0,7.61-2.199,7.61-5.716"/>
	<ellipse cx="396.789" cy="221.265" rx="9.164" ry="12.911"/>
	<path style="fill:#FFFFFF;" d="M394.928,211.839c1.367,2.158-0.918,4.44-3.074,3.073c-0.154-0.098-0.292-0.236-0.39-0.39
		c-1.369-2.158,0.917-4.442,3.074-3.073C394.692,211.546,394.83,211.685,394.928,211.839z"/>
	<path style="fill:#FFFFFF;" d="M396.33,215.855c0.594,1.011-0.452,2.055-1.462,1.46c-0.103-0.06-0.196-0.154-0.256-0.256
		c-0.592-1.01,0.452-2.053,1.461-1.46C396.177,215.659,396.27,215.752,396.33,215.855z"/>
	<ellipse cx="477.808" cy="221.265" rx="9.164" ry="12.911"/>
	<path style="fill:#FFFFFF;" d="M475.947,211.839c1.366,2.158-0.917,4.44-3.074,3.073c-0.154-0.098-0.292-0.236-0.39-0.39
		c-1.369-2.158,0.916-4.442,3.074-3.073C475.711,211.546,475.849,211.684,475.947,211.839z"/>
	<path style="fill:#FFFFFF;" d="M477.35,215.856c0.592,1.01-0.452,2.053-1.461,1.46c-0.103-0.06-0.196-0.153-0.256-0.256
		c-0.594-1.011,0.452-2.055,1.462-1.46C477.197,215.66,477.29,215.753,477.35,215.856z"/>
	<path style="fill:none;stroke:#000000;stroke-width:1.8482;stroke-linecap:round;stroke-linejoin:round;stroke-miterlimit:10;" d="
		M469.99,151.103c11.893-30.443,42.942-25.495,55.952-16.793c14.103,9.434,32.587,44.303-5.389,62.567"/>
	<path style="fill:none;stroke:#000000;stroke-width:1.8482;stroke-linecap:round;stroke-linejoin:round;stroke-miterlimit:10;" d="
		M398.002,151.103c-11.893-30.443-42.942-25.495-55.952-16.793c-14.103,9.434-32.587,44.303,5.389,62.567"/>
	<path style="fill:none;stroke:#000000;stroke-width:1.8214;stroke-linecap:round;stroke-linejoin:round;stroke-miterlimit:10;" d="
		M121.544,291.332c0,0-12.732,27.732-12.732,44.07s-2.334,45.662,8.244,45.662s18.716,1.117,14.647-10.333
		c-0.022-11.452-3.696-43.569,1.627-58.649"/>
	<path style="fill:none;stroke:#000000;stroke-width:1.8214;stroke-linecap:round;stroke-linejoin:round;stroke-miterlimit:10;" d="
		M110.681,321.104c0,0-16.205,2.15-15.188,24.458c1.017,22.307,0.76,22.725,0.76,22.725s-0.119,2.466-0.913,5.71
		c-1.78,7.558,16.691,4.765,16.691,4.765"/>
	<path style="fill:none;stroke:#000000;stroke-width:1.8214;stroke-linecap:round;stroke-linejoin:round;stroke-miterlimit:10;" d="
		M174.464,291.332c0,0,12.732,27.732,12.732,44.07s2.334,45.662-8.244,45.662s-18.716,1.117-14.647-10.333
		c0.022-11.452,3.696-43.569-1.627-58.649"/>
	<path style="fill:none;stroke:#000000;stroke-width:1.8214;stroke-linecap:round;stroke-linejoin:round;stroke-miterlimit:10;" d="
		M185.327,321.104c0,0,16.205,2.15,15.188,24.458c-1.017,22.307-0.76,22.725-0.76,22.725s0.119,2.466,0.913,5.71
		c1.78,7.558-16.691,4.765-16.691,4.765"/>
	<path style="fill:none;stroke:#000000;stroke-width:1.8214;stroke-linecap:round;stroke-linejoin:round;stroke-miterlimit:10;" d="
		M132.699,374.671c0,0,6.852,2.602,14.989,2.602s14.989-2.602,14.989-2.602"/>
	<path style="fill:none;stroke:#000000;stroke-width:1.8482;stroke-linecap:round;stroke-linejoin:round;stroke-miterlimit:10;" d="
		M200.156,364.408c4.747-0.183,9.345-1.666,12.421-4.465c0.902-0.821,5.406-5.241,5.544-11.655
		c0.121-5.574-3.273-9.262-7.202-13.531c-4.365-4.743-9.313-10.119-9.346-18.618c-0.034-8.63,5.069-19.225,14.594-21.858
		c9.481-2.622,17.835,4.32,19.415,5.738c1.721,1.546,1.864,4.195,0.318,5.916c-1.544,1.721-4.195,1.864-5.916,0.318
		c-0.619-0.556-6.205-5.387-11.585-3.897c-5.08,1.405-8.469,8.243-8.447,13.75c0.02,5.25,3.316,8.831,7.132,12.978
		c4.504,4.893,9.608,10.439,9.414,19.386c-0.207,9.587-6.39,15.948-8.28,17.669c-4.483,4.082-11.161,6.303-17.642,6.656"/>
	<path style="fill:none;stroke:#000000;stroke-width:1.8482;stroke-linecap:round;stroke-linejoin:round;stroke-miterlimit:10;" d="
		M104.973,155.599c22.09-10.91,42.715-11.298,42.715-11.298s20.418,0.384,42.382,11.134"/>
	<path style="fill:none;stroke:#000000;stroke-width:1.8482;stroke-linecap:round;stroke-linejoin:round;stroke-miterlimit:10;" d="
		M227.197,188.135c5.901,9.284,10.628,20.532,13.393,34.162c15.53,76.54-92.902,69.838-92.902,69.838s-108.432,6.702-92.902-69.838
		c2.765-13.63,7.492-24.878,13.393-34.162"/>
	<path style="fill:none;stroke:#000000;stroke-width:1.8482;stroke-linecap:round;stroke-linejoin:round;stroke-miterlimit:10;" d="
		M181.449,151.684c0,0,44.242-35.043,59.323-26.665s-5.59,78.87-5.59,78.87"/>
	<path style="fill:none;stroke:#000000;stroke-width:1.8482;stroke-linecap:round;stroke-linejoin:round;stroke-miterlimit:10;" d="
		M113.727,151.684c0,0-44.242-35.043-59.323-26.665s5.59,78.87,5.59,78.87"/>
	<path d="M156.413,233.943c-1.733-1.671-5.682-1.604-6.275-1.586c-0.589-0.022-4.543-0.085-6.276,1.586
		c-0.554,0.533-0.846,1.207-0.846,1.95c0,3.407,6.12,5.886,6.818,6.157c0.097,0.038,0.2,0.057,0.304,0.057
		c0.103,0,0.206-0.019,0.304-0.057c0.698-0.271,6.818-2.75,6.818-6.157C157.259,235.15,156.967,234.476,156.413,233.943z"/>
	<path style="fill:none;stroke:#000000;stroke-width:1.8482;stroke-linecap:round;stroke-linejoin:round;stroke-miterlimit:10;" d="
		M134.917,249.299c0,3.517,3.407,5.716,7.61,5.716c4.203,0,7.61-3.822,7.61-7.34c0,3.517,3.407,7.34,7.61,7.34
		c4.203,0,7.61-2.199,7.61-5.716"/>
	<ellipse cx="109.594" cy="222.272" rx="9.164" ry="12.91"/>
	<path style="fill:#FFFFFF;" d="M107.733,212.846c1.366,2.158-0.917,4.44-3.074,3.073c-0.154-0.098-0.292-0.236-0.39-0.39
		c-1.369-2.158,0.917-4.442,3.074-3.073C107.497,212.553,107.635,212.691,107.733,212.846z"/>
	<path style="fill:#FFFFFF;" d="M109.136,216.862c0.592,1.01-0.452,2.053-1.461,1.46c-0.103-0.06-0.196-0.153-0.256-0.256
		c-0.594-1.011,0.452-2.055,1.462-1.46C108.982,216.667,109.075,216.76,109.136,216.862z"/>
	<ellipse cx="190.613" cy="222.272" rx="9.164" ry="12.91"/>
	<path style="fill:#FFFFFF;" d="M188.752,212.845c1.367,2.158-0.916,4.441-3.074,3.073c-0.154-0.098-0.292-0.236-0.39-0.39
		c-1.368-2.157,0.916-4.441,3.073-3.074C188.515,212.552,188.654,212.691,188.752,212.845z"/>
	<path style="fill:#FFFFFF;" d="M190.154,216.862c0.593,1.01-0.451,2.054-1.461,1.461c-0.103-0.06-0.196-0.153-0.256-0.256
		c-0.593-1.01,0.451-2.054,1.461-1.461C190.001,216.666,190.094,216.759,190.154,216.862z"/>
	<path style="fill:none;stroke:#000000;stroke-width:1.8482;stroke-linecap:round;stroke-linejoin:round;stroke-miterlimit:10;" d="
		M69.944,239.423c0,0-14.243-4.034-35.608-4.24"/>
	<path style="fill:none;stroke:#000000;stroke-width:1.8482;stroke-linecap:round;stroke-linejoin:round;stroke-miterlimit:10;" d="
		M70.962,249.456c0,0-14.803,0.048-35.398,5.739"/>
	<path style="fill:none;stroke:#000000;stroke-width:1.8482;stroke-linecap:round;stroke-linejoin:round;stroke-miterlimit:10;" d="
		M225.835,239.423c0,0,14.243-4.034,35.608-4.24"/>
	<path style="fill:none;stroke:#000000;stroke-width:1.8482;stroke-linecap:round;stroke-linejoin:round;stroke-miterlimit:10;" d="
		M224.817,249.456c0,0,14.803,0.048,35.398,5.739"/>
	<path style="fill:#1C1C1C;" d="M669.341,369.697c-0.195,0.171-0.722,0.324-1.457,0.461c-2.634,0.491-7.995,0.771-10.855,0.891
		c-1.148,0.048-1.896,0.071-1.896,0.071s-1.918,6.711,2.567,7.897c4.485,1.187,13.906,0.164,13.906,0.164s4.533,3.575,13.3,2.334
		s8.837-6.618,6.882-10.178c0,0-0.689-0.002-1.809-0.014c-4.127-0.043-14.245-0.215-18.596-0.893
		C670.113,370.231,669.335,369.99,669.341,369.697z"/>
	<path style="fill:#1C1C1C;" d="M744.876,369.697c0.007,0.293-0.772,0.534-2.042,0.732c-4.351,0.678-14.469,0.851-18.596,0.893
		c-1.121,0.012-1.809,0.014-1.809,0.014c-1.955,3.56-1.885,8.937,6.882,10.178s13.3-2.334,13.3-2.334s9.421,1.023,13.906-0.164
		c4.485-1.187,2.567-7.897,2.567-7.897s-0.748-0.023-1.896-0.071c-2.86-0.12-8.221-0.399-10.855-0.891
		C745.598,370.021,745.071,369.868,744.876,369.697z"/>
</g>
</svg>
