<?xml version="1.0" encoding="iso-8859-1"?>
<!-- Generator: Adobe Illustrator 18.1.1, SVG Export Plug-In . SVG Version: 6.00 Build 0)  -->
<svg version="1.1" xmlns="http://www.w3.org/2000/svg" xmlns:xlink="http://www.w3.org/1999/xlink" x="0px" y="0px"
	 viewBox="0 0 880 505" style="enable-background:new 0 0 880 505;" xml:space="preserve">
<g id="Background">
	<rect style="fill:#FF9999;" width="880" height="505"/>
</g>
<g id="Color">
	<path style="fill:#FFC36C;" d="M312.333,74.667c-0.906,0.309-22.169,7.917-29.667,28.333c-2.9,7.896-2.987,15.657-3,19
		c-0.007,1.739,0.043,7.868,2,16c1.963,8.159,4.568,18.981,13.667,28.667c3.276,3.487,11.23,11.716,24.333,14
		c1.936,0.337,11.251,1.812,22-2.333c10.303-3.973,16.026-10.835,20.333-16c3.601-4.318,13.45-16.461,15.333-35
		c0.611-6.013,1.663-16.372-3.667-27.667c-8.435-17.877-26.157-23.901-31-25.333C338.919,73.225,326.661,69.786,312.333,74.667z"/>
	<path style="fill:#FFC36C;" d="M305,189.333c0.131,1.415,1.262,2.28,1.333,2.333c1.292,0.959,3.016,0.601,5.333,0
		c2.297-0.595,5.244-1.448,8.667-2.667c1.436,1.395,3.655,3.362,6.667,5.333c3.972,2.6,5.133,2.464,5.667,2.333
		c2.597-0.636,4.001-4.488,4-7.333c-0.002-4.663-3.775-7.582-4.333-8c-2.037,0.595-5.763,1.389-10.333,0.667
		c-3.773-0.596-6.619-1.988-8.333-3c-2.146,2.153-3.661,3.663-4.333,4.333C306.033,186.622,304.855,187.77,305,189.333z"/>
	<path style="fill:#D1FF98;" d="M211,176.25c-5.053-0.149-20.032-0.427-33.5,7.25c-12.547,7.152-18.217,18.035-24.25,30
		c-10.195,20.22-12.297,38.001-14.75,60.5c-0.434,3.985-0.873,19.157-1.75,49.5c-0.113,3.895,1.423,22.483,4.5,59.5
		c0.172,2.064,0.624,6.84,3.75,11.5c3.459,5.158,8.333,7.4,9.75,8c4.583,1.94,8.673,1.797,10.25,1.75c18.328-0.552,36.664,1.16,55,1
		c12.299-0.107,15.592,0.006,26.5-0.25c18.245-0.428,14.246-0.865,21-0.75c0,0,22.75,0.387,32.75-3.25c0.482-0.175,1.862-0.695,3-2
		c0.353-0.405,1.598-1.831,1.5-3.5c-0.028-0.481-0.241-2.228-4-4.5c-3.205-1.937-5.973-2.433-8.5-3
		c-2.925-0.656-8.006-1.795-12.75-4c-3.25-1.51-6.995-3.305-9.75-7.25c-1.774-2.541-2.36-4.861-3-7.5
		c-1.585-6.539-0.768-10.669-0.5-20.5c0.102-3.749-0.027-7.5,0-11.25c0,0,0.052-7.106,0.25-42.75c0.113-20.35,0.17-30.525,0-33.25
		c-0.166-2.671-0.852-10.726-2.354-18.887c-2.377-12.917-9.909-53.856-36.396-63.863C221.986,176.572,216.809,176.422,211,176.25z"
		/>
	<path style="fill:#C7FFD2;" d="M265.75,243.5c6.562,1.516,11.059,4.117,13.75,6c2.682,1.876,4.485,3.175,4.5,5
		c0.02,2.516-3.372,4.492-10,8.25c-3.192,1.81-5.906,3.14-7.75,4C266.083,259,265.917,251.25,265.75,243.5z"/>
	<path style="fill:#C7FFD2;" d="M266.75,274.75c4.575,2.395,8.281,4.267,10.75,5.5c5.389,2.692,7.564,3.679,7.75,5.5
		c0.083,0.811-0.185,2.221-4.5,5.5c-2.717,2.065-6.971,4.818-13,7C267.417,290.417,267.083,282.583,266.75,274.75z"/>
	<path style="fill:#C7FFD2;" d="M267,312c2.719,2.261,5.083,3.908,6.75,5c5.085,3.331,7.87,4.241,9.25,7.5
		c0.268,0.633,1.159,2.737,0.25,4.5c-0.831,1.611-2.745,2.121-4.25,2.5c-4.333,1.091-8.441,2.077-12.5,3
		C266.667,327,266.833,319.5,267,312z"/>
	<path style="fill:#C7FFD2;" d="M266,347c5.062,1.903,8.895,4.076,11.5,5.75c5.447,3.5,5.924,5.075,6,6
		c0.246,3.006-3.229,5.486-5,6.75c-4.125,2.944-8.638,3.481-11.5,3.5C266.667,361.667,266.333,354.333,266,347z"/>
	<path style="fill:#D1FF98;" d="M137,326.75c-3.961,2.054-7.281,3.412-9.5,4.25c-5.644,2.132-8.231,2.436-12.25,5
		c-2.833,1.807-5.965,3.805-6,6.75c-0.027,2.23,1.732,4.264,3.5,5.25c2.563,1.429,5.255,0.719,10.5-0.75
		c6.096-1.708,10.925-3.103,14-4C137.167,337.75,137.083,332.25,137,326.75z"/>
	<path style="fill:#BAFFDC;" d="M432.25,250c-29.448,10.124-44.583,34.333-44.583,34.333c-3.94,6.302-13.054,21.336-12,42
		c0.286,5.606,1.379,27.042,17.583,40.917c6.723,5.757,13.268,7.832,22,10.5c10.98,3.355,29.18,7.282,53.25,5
		c1.118,1.724,2.753,4.018,5,6.5c2.673,2.952,4.054,4.439,6.25,5c2.027,0.518,5.707,0.574,7.5-2c0.975-1.4,1.445-3.653,0.5-5.25
		c-1.1-1.859-3.284-1.419-7-3.5c-1.697-0.95-2.945-1.996-3.75-2.75c1.947-0.037,4.723-0.194,8-0.75
		c2.489-0.422,13.205-2.42,24.25-10.5c3.174-2.322,11.096-8.247,16.75-18.75c8.123-15.089,6.313-29.867,5.5-36.5
		c-3.292-26.872-21.221-43.968-27.25-49.25c0.584-4.388-1.065-8.526-4.25-10.5c-0.479-0.297-3.534-2.19-7-1
		c-1.843,0.633-2.98,1.855-3.5,2.5c-2.648-1.335-6.764-3.247-12-5c-6.581-2.204-17.751-5.818-31.5-4.25
		C444.606,246.909,439.352,247.558,432.25,250z"/>
	<path style="fill:#BAFFDC;" d="M402.75,266c-2.763-8.17-2.035-15.089,1.5-17.25c1.43-0.874,3.046-0.803,4.25-0.75
		c6.53,0.287,10.741,5.641,11.75,7C414.417,258.667,408.583,262.333,402.75,266z"/>
	<path style="fill:#BAFFDC;" d="M379,300.75c-0.659-1.421-5.009-10.612-9.75-11.25c-0.374-0.05-1.092-0.137-1.75,0.25
		c-2.105,1.238-1.394,6.018-1,8.5c1.272,8.018,5.428,16.712,8.75,22.75C376.5,314.25,377.75,307.5,379,300.75z"/>
	<path style="fill:#BAFFDC;" d="M433.625,381.875c-2.767,3.367-3.953,6.567-4.5,8.5c-0.834,2.947-1.724,6.093-0.125,9
		c1.091,1.983,3.586,4.302,6,3.75c2.129-0.487,3.137-2.964,3.375-3.625c0.986-2.735-0.324-4.563-0.5-7.375
		c-0.138-2.209,0.398-5.412,3.625-9.5C438.875,382.375,436.25,382.125,433.625,381.875z"/>
	<path style="fill:#FC5961;" d="M592.75,193.75c2.852,4.827,6.071,7.798,8.25,9.5c2.937,2.294,5.369,4.194,8,3.5
		c2.642-0.697,4.547-3.763,4.75-6.5c0.457-6.168-7.712-10.919-10-12.25c-1.943-1.13-3.71-1.823-5-2.25
		C596.75,188.417,594.75,191.083,592.75,193.75z"/>
	<path style="fill:#A1BDFC;" d="M592,194.5c2.083,2.083,4.167,4.167,6.25,6.25c1.417,1.417,2.833,2.833,4.25,4.25
		c-2.147,1.284-5.582,2.902-10,3.25c-11.221,0.883-19.036-7.203-20.25-8.5c1.838,0.34,4.238,0.566,7,0.25
		C585.564,199.278,589.977,196.157,592,194.5z"/>
	<path style="fill:#A1BDFC;" d="M599.375,184.75c-0.435,1.426-1.246,3.496-2.813,5.625c-2.501,3.399-5.5,4.998-7.281,5.938
		c-5.359,2.827-10.5,2.902-13.766,2.969c-2.16,0.044-3.974-0.116-5.258-0.266c-2.242-2.201-6.716-7.233-8.504-15.008
		c-0.316-1.376-2.969-13.775,4.498-23.754c2.694-3.601,6.129-5.652,12.999-9.752c6.905-4.12,12.723-6.582,17.5-8.501
		c13.509-5.427,20.263-8.141,28.25-10c8.776-2.044,23.471-4.159,42.75-0.75c1.748,1.455,4.169,3.808,6.25,7.25
		c0.933,1.543,3.858,6.631,4,12.5c0.257,10.612-8.751,18-10,19c-2.782-0.383-6.996-0.701-12,0c-9.922,1.391-16.768,5.925-24.25,11
		c-4.568,3.099-10.77,7.851-17.25,14.75C609.458,192.083,604.417,188.417,599.375,184.75z"/>
	<path style="fill:#A1BDFC;" d="M690.75,184.25c2.777,0.753,8.255,1.739,13.75-0.75c4.46-2.02,7.007-5.458,10-9.5
		c2.461-3.323,4.037-6.377,5-8.5c2.704,4.113,6.112,10.341,8.25,18.5c2.862,10.921,2.124,20.239,1.25,25.75
		c-2.281,1.467-5.834,3.329-10.5,4.25c-4.631,0.914-8.284,0.493-10.25,0.25c-4.518-0.559-8.101-1.891-10.5-3
		c0.782-2.128,2.324-7.216,1-13.5C697.149,190.153,692.383,185.663,690.75,184.25z"/>
	<path style="fill:#A1BDFC;" d="M686.25,235.5c0.856,2.52,2.401,6.183,5.25,10c1.787,2.395,3.35,4.488,6,6
		c5.191,2.961,10.985,1.653,13.25,1c-8,10.917-16,21.833-24,32.75c-2.468-0.342-6.144-1.233-9.75-3.75
		c-9.42-6.574-9.952-18.364-10-20C673.417,252.833,679.833,244.167,686.25,235.5z"/>
	<path style="fill:#A1BDFC;" d="M643.25,292.5c0.424,2.076,1.384,5.455,3.75,9c2.682,4.019,5.819,6.226,7,7
		c5.373,3.524,10.764,3.961,13.25,4c-2.615,3.302-5.345,7.128-8,11.5c-3.881,6.392-6.693,12.456-8.75,17.75
		c-1.871,1.011-7.311,3.629-14.25,2.5c-10.504-1.709-15.594-10.562-16.25-11.75c2.357-7.127,6.059-15.953,12-25.25
		C635.741,301.396,639.637,296.503,643.25,292.5z"/>
	<path style="fill:#A1BDFC;" d="M631.25,378.5c2.775-0.076,6.456-0.514,10.5-2c9.042-3.322,14.18-9.782,16.25-12.75
		c3.551,1.509,7.225,3.17,11,5c3.41,1.653,6.661,3.327,9.75,5c1.189,3.962,0.841,7.058,0.5,8.75c-1.434,7.12-7.131,11.197-10,13.25
		c-2.978,2.131-5.799,3.324-7.75,4c-4.056-1.246-9.376-3.349-15-7C639.096,387.943,634.198,382.421,631.25,378.5z"/>
	<path style="fill:#A1BDFC;" d="M703.25,370c1.268,1.281,3.097,3.426,4.5,6.5c0.934,2.046,3.048,7.501,1.5,14.25
		c-1.4,6.102-5.012,9.858-6.5,11.25c6.28-0.785,10.858-2.592,13.75-4c6.244-3.039,10.865-7.249,18-13.75
		c1.948-1.775,3.502-3.273,4.5-4.25c-0.027-2.101-0.385-6.542-3.25-11c-2.801-4.358-6.517-6.427-8.5-7.5
		c-2.644-1.431-5.063-2.132-6.75-2.5c-2.441,2.41-5.818,5.245-10.25,7.75C707.753,368.162,705.376,369.212,703.25,370z"/>
	<path style="fill:#A1BDFC;" d="M710,311c-1.296,1.055-3.298,3.035-4,6c-0.512,2.16-0.118,3.93,0.25,5.5
		c1.151,4.914,2.228,9.277,3.25,13.25c1.606,0.158,3.582,0.506,5.75,1.25c3.645,1.251,6.31,3.1,8,4.5c2.49-3.524,5.178-5.726,7-7
		c2.639-1.845,6.153-4.301,11-4.25c2.488,0.026,4.49,0.705,5.75,1.25c-1.056-3.287-3.421-8.815-8.75-13.25
		c-5.353-4.455-11.05-5.603-15.5-6.5C717.471,310.686,712.987,310.759,710,311z"/>
	<path style="fill:#E6EFFC;" d="M665,131c1.681,0.877,7.597,4.22,10.5,11.5c2.396,6.008,1.367,11.254,1,13
		c-1.785,8.486-7.781,13.232-9.5,14.5c3.072,0.823,6.911,2.182,11,4.5c6.554,3.715,10.909,8.282,13.5,11.5
		c2.745-0.003,8.542-0.396,14.5-4c8.984-5.434,11.841-14.241,12.5-16.5c-3.169-3.275-7.784-7.967-13.5-13.5
		c-7.362-7.127-11.112-10.736-14.5-13C685.817,135.871,677.729,131.789,665,131z"/>
	<path style="fill:#E6EFFC;" d="M699.5,211.5c2.159,1.295,5.571,2.936,10,3.5c9.629,1.226,16.935-3.543,19-5
		c-0.646,4.494-1.723,9.567-3.5,15c-4.146,12.678-10.423,22.171-15.5,28.5c-2.104-0.07-9.157-0.566-15.5-6
		c-5.681-4.867-7.465-10.847-8-13C690.5,226.833,695,219.167,699.5,211.5z"/>
	<path style="fill:#E6EFFC;" d="M666.5,263.5c0.961,2.829,2.495,6.348,5,10c4.857,7.081,10.868,11.021,14.5,13
		c-6,8.333-12,16.667-18,25c-2.224,0.126-8.651,0.196-15-4c-8.102-5.354-10.112-13.712-10.5-15.5C650.5,282.5,658.5,273,666.5,263.5
		z"/>
	<path style="fill:#E6EFFC;" d="M621,334.5c1.46-0.23,1.883,2.463,6.5,5.5c4.223,2.778,8.225,3.391,9,3.5
		c6.005,0.847,10.863-1.352,13-2.5c-0.295,2.247-0.83,8.663,3,15c1.931,3.195,4.306,5.269,6,6.5c-0.578,2.47-1.875,6.212-5,9.5
		c-8.652,9.104-22.732,5.698-23.5,5.5c-3.052-2.638-7.243-7.026-10-13.5C614.302,350.62,617.59,335.038,621,334.5z"/>
	<path style="fill:#E6EFFC;" d="M678.5,374c0.268,1.981,0.883,8.42-3,15c-4.491,7.611-11.804,9.995-13.5,10.5
		c5.001,2.036,13.197,4.612,23.5,4.5c6.71-0.073,12.341-1.264,16.5-2.5c1.753-1.292,7.14-5.615,8.5-13
		c1.306-7.089-1.263-16.104-6.5-18c-2.722-0.986-4.536,0.543-10.5,2C687.277,374.02,681.971,374.134,678.5,374z"/>
	<path style="fill:#E6EFFC;" d="M718.5,358.5c1.058-0.017,10.116-0.006,16,7.5c4.828,6.159,4.166,13.085,4,14.5
		c2.525-1.958,6.357-5.489,9-11c2.612-5.447,2.808-10.209,3-16.5c0.147-4.81-0.097-11.74-2-20c-1.813-0.684-7.389-2.521-14-0.5
		c-8.528,2.607-12.31,9.655-13,11c0.466,1.088,1.973,4.976,0.5,9.5C721.091,355.792,719.445,357.605,718.5,358.5z"/>
	<path style="fill:#E6EFFC;" d="M708,310.5c-1.397-0.207-6.612-0.809-11.5,2.5c-1.307,0.885-4.789,3.321-6,8
		c-0.269,1.04-0.98,4.331,0.5,8c2.075,5.144,6.85,7.043,8,7.5c6.021,2.394,11.463-0.016,12.5-0.5c-1.541-1.429-4.104-4.225-5.5-8.5
		C703.263,319.118,707.234,311.844,708,310.5z"/>
</g>
<g id="Line">
	<path style="fill:#FFFFFF;" d="M209.846,196.781c1.176,1.086,2.798,1.505,4.31,2.029c6.368,2.209,11.799,6.999,14.786,13.042
		c1.237,2.501,2.164,5.327,4.359,7.049c1.887,1.481,4.575,1.868,6.803,0.981c2.228-0.887,3.914-3.016,4.267-5.388
		c0.341-2.294-0.488-4.596-1.472-6.697c-4.074-8.694-11.197-15.868-19.66-20.367c-3.426-1.821-6.57-2.191-10.26-0.557
		C209.412,188.453,206.165,193.383,209.846,196.781z"/>
	<ellipse style="fill:#FF85BE;" cx="201.107" cy="303.39" rx="7.116" ry="3.235"/>
	<ellipse style="fill:#FF85BE;" cx="150.437" cy="303.39" rx="7.116" ry="3.235"/>
	<ellipse style="fill:#FF85BE;" cx="340.184" cy="136.812" rx="7.116" ry="3.235"/>
	<ellipse style="fill:#FF85BE;" cx="291.461" cy="136.812" rx="7.116" ry="3.235"/>
	<path style="fill:#FFFFFF;" d="M343.84,89.921c0.989,2.067,3.517,2.757,5.471,3.954c2.424,1.484,4.107,3.92,5.452,6.425
		c0.801,1.492,1.531,3.065,2.73,4.26c1.199,1.196,3.02,1.949,4.612,1.37c2.023-0.736,2.79-3.14,3.293-5.233
		c0.212-0.884,0.426-1.783,0.376-2.69c-0.088-1.584-0.965-3.009-1.912-4.282c-3.315-4.455-7.919-8.09-13.071-10.195
		C346.181,81.645,340.94,83.864,343.84,89.921z"/>
	<path style="fill:#422D0A;" d="M287.258,123.593c-2.229,4.451,2.176,8.855,6.627,6.627c0.764-0.383,1.397-1.016,1.78-1.78
		c2.229-4.451-2.176-8.856-6.627-6.627C288.274,122.196,287.641,122.829,287.258,123.593z"/>
	<path style="fill:#422D0A;" d="M332.317,123.593c-2.229,4.451,2.176,8.855,6.627,6.627c0.764-0.383,1.397-1.016,1.78-1.78
		c2.229-4.451-2.176-8.856-6.627-6.627C333.332,122.196,332.699,122.829,332.317,123.593z"/>
	<path style="fill:#FFFFFF;stroke:#422D0A;stroke-width:3;stroke-linecap:round;stroke-miterlimit:10;" d="M300.206,125.101
		c0,7.232,5.863,13.095,13.095,13.095c7.232,0,13.095-5.863,13.095-13.095c0-7.232-5.863-2.957-13.095-2.957
		C306.069,122.144,300.206,117.869,300.206,125.101z"/>
	<path style="fill:none;stroke:#422D0A;stroke-width:3.3431;stroke-linecap:round;stroke-miterlimit:10;" d="M264.521,242.703
		c0,0,19.761,6.381,19.018,11.736c-0.079,0.572-0.363,0.969-0.642,1.32c-3.965,4.984-12.587,8.49-15.897,9.74
		C266.174,257.901,265.348,250.302,264.521,242.703z"/>
	<path style="fill:none;stroke:#422D0A;stroke-width:3.3431;stroke-linecap:round;stroke-miterlimit:10;" d="M265.972,275.344
		c0,0,23.211,7.495,18.376,13.056c-4.836,5.561-16.683,9.43-16.683,9.43L265.972,275.344z"/>
	<path style="fill:none;stroke:#422D0A;stroke-width:3.3431;stroke-linecap:round;stroke-miterlimit:10;" d="M267.448,312.499
		c0,0,18.263,9.884,16.553,15.014c-0.17,0.511-0.487,0.84-0.873,1.181c-4.764,4.205-13.835,5.083-17.129,5.307
		C266.483,326.833,266.965,319.666,267.448,312.499z"/>
	<path style="fill:none;stroke:#422D0A;stroke-width:3.3431;stroke-linecap:round;stroke-miterlimit:10;" d="M266,348
		c4.075,1.377,18.597,6.5,18.036,11.287c-0.034,0.289-0.041,0.656-0.597,1.341c-4.642,5.723-16.35,9.996-16.35,9.996
		C266.726,363.083,266.363,355.541,266,348z"/>
	<path style="fill:none;stroke:#422D0A;stroke-width:3.3431;stroke-linecap:round;stroke-miterlimit:10;" d="M136,328
		c-5.803,1.793-27.496,8.763-27,15c0.062,0.781,0.513,2.065,1.439,3.065c1.247,1.346,3.623,2.451,10.561,1.435
		c3.814-0.558,9.441-1.822,16-5"/>
	<path style="fill:none;stroke:#422D0A;stroke-width:3.3431;stroke-linecap:round;stroke-miterlimit:10;" d="M161.797,403.93
		c-10.035-0.329-18.334-7.871-19.657-17.823c-6.957-52.346-20.437-206.405,61.218-210.213c98.409-4.589,48.44,188.15,66.796,201.917
		c18.356,13.767,38.242,8.668,34.163,20.396C301.077,407.521,202.304,405.256,161.797,403.93z"/>
	<path style="fill:#422D0A;" d="M193.326,288.255c-2.228,4.451,2.177,8.855,6.627,6.626c0.764-0.383,1.397-1.016,1.78-1.78
		c2.229-4.451-2.176-8.856-6.627-6.627C194.341,286.858,193.708,287.491,193.326,288.255z"/>
	<path style="fill:#422D0A;" d="M148.548,288.255c-2.227,4.451,2.176,8.854,6.626,6.626c0.764-0.382,1.397-1.015,1.78-1.779
		c2.23-4.451-2.176-8.857-6.627-6.627C149.564,286.858,148.931,287.491,148.548,288.255z"/>
	<path style="fill:#422D0A;" d="M186.398,310.833c0-12.551-5.615-22.725-12.541-22.725c-6.926,0-12.542,10.174-12.542,22.725
		c0,12.55,5.615,9.218,12.542,9.218C180.783,320.052,186.398,323.384,186.398,310.833z"/>
	<path style="fill:#FD95B3;" d="M166.461,315.764c0,2.368,3.263,1.929,7.289,1.929c4.026,0,7.289,0.439,7.289-1.929
		s-3.263-4.288-7.289-4.288C169.724,311.476,166.461,313.396,166.461,315.764z"/>
	<path style="fill:none;stroke:#422D0A;stroke-width:3.3431;stroke-linecap:round;stroke-miterlimit:10;" d="M215.383,332.78
		c-0.948-13.262,12.363-22.006,20.554-31.721c26.622-27.203,60.411-47.605,78.842-81.608c5.12-9.715,8.191-19.431,7.477-30.315"/>
	<path style="fill:none;stroke:#422D0A;stroke-width:3.3431;stroke-linecap:round;stroke-miterlimit:10;" d="M227.458,367.277
		c-5.328-4.206-7.111-13.01-8.168-19.209"/>
	<path style="fill:none;stroke:#422D0A;stroke-width:3.3431;stroke-linecap:round;stroke-miterlimit:10;" d="M240.626,323.127
		c0,0-38.279,11.68-32.264,21.487c6.015,9.807,38.084-8.709,38.084-8.709"/>
	<path style="fill:none;stroke:#422D0A;stroke-width:3.3431;stroke-linecap:round;stroke-miterlimit:10;" d="M323.426,181.563
		c-3.149-0.273-6.185-1.006-9.097-2.102c-4.74,3.629-14.511,11.835-6.842,12.472c6.113,0.508,10.113-1.327,12.272-2.797
		c1.081-0.737,2.553-0.437,3.231,0.682c2.326,3.841,7.539,10.404,13.121,3.814c2.027-2.393-0.891-8.617-3.137-12.615
		C329.845,181.63,326.653,181.843,323.426,181.563z"/>
	<path style="fill:none;stroke:#422D0A;stroke-width:3.3431;stroke-linecap:round;stroke-miterlimit:10;" d="M332.922,71.883
		c-27.137-2.349-51.041,17.745-53.391,44.883c-2.077,23.988,12.618,54.345,34.799,62.695c2.574,0.651,5.659,1.24,9.17,1.539
		c3.585,0.305,6.786,0.235,9.474,0.017c26.751-6.587,42.621-30.217,44.831-55.743C380.154,98.136,360.059,74.233,332.922,71.883z"/>
	<circle style="fill:#422D0A;" cx="609.501" cy="172.974" r="4.801"/>
	
		<ellipse transform="matrix(-0.7896 0.6136 -0.6136 -0.7896 1213.1838 -55.533)" style="fill:#FF85BE;" cx="616.112" cy="180.202" rx="7.116" ry="3.235"/>
	<path style="fill:none;stroke:#422D0A;stroke-width:3.3431;stroke-linecap:round;stroke-miterlimit:10;" d="M598.3,187.373
		c0.617-0.821,1.742-1.074,2.647-0.588c4.616,2.48,17.315,10.183,11.402,17.091c-5.971,6.976-15.461-4.207-18.455-8.124
		c-0.568-0.743-0.566-1.768-0.004-2.515L598.3,187.373z"/>
	<path style="fill:#FFFFFF;" d="M664.697,143.616c0.34-2.109-0.76-4.181-2.589-5.284c-2.8-1.69-7.961-4.005-14.383-3.258
		c-9.817,1.141-7.849,10.945-1.593,9.362c6.257-1.583,13.093,2.363,16.47,1.65C663.953,145.801,664.512,144.761,664.697,143.616z"/>
	<path style="fill:none;stroke:#422D0A;stroke-width:3.3431;stroke-linecap:round;stroke-miterlimit:10;" d="M603.371,204.759
		c-12.782,6.742-24.16,3.537-33.08-5.55c-11.795-12.017-11.615-31.32,0.401-43.116c0.506-0.439,0.627-0.495,0.897-0.698l0.659-0.454
		l1.224-0.798c0.781-0.51,1.546-0.995,2.3-1.454c1.509-0.924,2.997-1.784,4.486-2.613c2.95-1.685,5.903-3.24,8.872-4.74
		c2.984-1.475,5.966-2.915,9.024-4.225c3.035-1.345,6.125-2.59,9.267-3.742c3.131-1.174,6.325-2.235,9.58-3.18
		c3.243-0.971,6.553-1.817,9.926-2.512c6.726-1.444,13.722-2.277,20.851-2.354c7.119-0.028,14.374,0.678,21.38,2.459
		c3.493,0.904,6.95,1.924,10.267,3.263c3.322,1.317,6.516,2.866,9.586,4.546c3.051,1.704,5.98,3.552,8.732,5.556
		c2.727,2.026,5.36,4.127,7.804,6.338c2.477,2.193,4.758,4.51,6.947,6.866l1.595,1.791l0.794,0.896l0.854,1.008
		c1.14,1.339,2.236,2.76,3.291,4.228c4.229,5.846,7.635,12.872,9.42,20.327c1.829,7.461,1.853,15.129,0.843,22.092
		c-1.049,6.989-3.093,13.359-5.499,19.23c-2.441,5.872-5.261,11.281-8.253,16.42c-3.017,5.123-6.145,10.014-9.402,14.712
		c-3.223,4.72-6.517,9.286-9.846,13.747c-6.672,8.905-13.362,17.505-19.769,26.001c-6.386,8.483-12.49,16.942-17.466,25.306
		c-2.498,4.161-4.666,8.308-6.261,12.26c-1.577,3.938-2.527,7.665-2.714,10.632c-0.087,1.487,0.002,2.784,0.23,3.954
		c0.235,1.167,0.592,2.241,1.156,3.351c0.585,1.104,1.345,2.259,2.41,3.441l0.41,0.46l0.552,0.573
		c0.371,0.377,0.724,0.78,1.109,1.135l1.13,1.098l1.16,1.046c6.226,5.503,13.461,9.122,21.249,10.498
		c7.754,1.43,16.132,0.564,23.695-2.405c3.773-1.467,7.328-3.444,10.379-5.798c3.031-2.358,5.538-5.108,7.138-7.846
		c1.588-2.757,2.289-5.32,2.173-7.616c0.01-0.11-0.02-0.377-0.04-0.605c-0.023-0.23-0.033-0.471-0.064-0.692
		c-0.054-0.448-0.104-0.897-0.176-1.317c-0.14-0.846-0.284-1.655-0.483-2.365c-0.385-1.44-0.872-2.567-1.399-3.402
		c-0.536-0.838-1.086-1.45-1.886-2.023c-0.793-0.566-1.883-1.082-3.293-1.454c-1.407-0.368-3.102-0.576-4.92-0.607
		c-0.908-0.011-1.847,0.019-2.776,0.101c-0.463,0.04-0.926,0.09-1.364,0.15l-0.626,0.092l-0.265,0.043l-0.097,0.015
		c-0.027,0.003-0.053,0.009,0.074-0.028c-6.806,1.868-13.838-2.135-15.707-8.941c-1.868-6.806,2.135-13.838,8.941-15.706
		l0.963-0.257l0.726-0.178l1.367-0.302c0.895-0.185,1.771-0.341,2.651-0.477c1.757-0.272,3.523-0.453,5.323-0.552
		c3.595-0.195,7.344-0.011,11.24,0.743c3.885,0.76,7.95,2.145,11.784,4.41c3.833,2.24,7.323,5.397,9.964,8.946
		c2.663,3.552,4.487,7.404,5.73,11.126c0.629,1.87,1.098,3.706,1.464,5.52c0.19,0.91,0.336,1.801,0.475,2.694
		c0.074,0.449,0.121,0.883,0.181,1.325c0.056,0.445,0.115,0.85,0.157,1.417c0.217,2.119,0.208,4.242,0.092,6.345
		c-0.168,2.088-0.444,4.165-0.907,6.158c-0.893,4.006-2.359,7.726-4.138,11.125c-3.603,6.79-8.446,12.27-13.77,16.789
		c-5.356,4.489-11.249,8.045-17.48,10.738c-12.458,5.314-26.398,7.251-40.052,5.181c-6.808-1.039-13.484-3.092-19.7-6.001
		c-6.232-2.894-11.95-6.685-17.07-10.978l-1.893-1.636l-1.825-1.691c-0.617-0.559-1.182-1.153-1.771-1.732l-0.874-0.875
		l-0.965-1.036c-2.596-2.813-5.004-6.103-6.99-9.769c-1.976-3.678-3.477-7.747-4.329-11.891c-0.841-4.146-1.059-8.3-0.825-12.222
		c0.482-7.876,2.646-14.688,5.154-20.763c2.552-6.066,5.546-11.486,8.684-16.576c6.333-10.139,13.284-19.034,20.143-27.694
		c6.87-8.635,13.779-16.915,20.209-25.278c3.22-4.173,6.353-8.335,9.294-12.529c2.904-4.216,5.681-8.423,8.082-12.686
		c2.416-4.248,4.546-8.512,6.116-12.711c0.789-2.095,1.48-4.163,1.985-6.185c0.493-2.022,0.849-3.991,1.033-5.872
		c0.376-3.771,0.022-7.139-0.96-10.161c-0.478-1.522-1.124-2.981-1.972-4.397c-0.83-1.42-1.829-2.814-3.014-4.18
		c-0.592-0.683-1.21-1.364-1.891-2.03l-0.503-0.504l-0.614-0.568l-1.222-1.138c-1.653-1.463-3.32-2.868-5.037-4.106
		c-3.398-2.554-7.023-4.43-10.599-5.871c-7.247-2.714-14.562-3.108-21.917-1.342c-7.338,1.708-14.721,5.512-21.468,10.741
		c-2.472,1.916-4.802,4.241-9.535,8.798c-2.66,2.561-4.817,4.73-6.289,6.231"/>
	<path style="fill:none;stroke:#422D0A;stroke-width:3.3431;stroke-linecap:round;stroke-miterlimit:10;" d="M664.092,131.023
		c0,0,29.384,14.424,2.897,38.428"/>
	<path style="fill:none;stroke:#422D0A;stroke-width:3.3431;stroke-linecap:round;stroke-miterlimit:10;" d="M691.184,184.009
		c0,0,22.158,4.127,27.845-17.732"/>
	<path style="fill:none;stroke:#422D0A;stroke-width:3.3431;stroke-linecap:round;stroke-miterlimit:10;" d="M697.988,210.651
		c0,0,15.385,9.501,31.303-1.954"/>
	<path style="fill:none;stroke:#422D0A;stroke-width:3.3431;stroke-linecap:round;stroke-miterlimit:10;" d="M686.854,237.386
		c0,0,4.552,17.382,22.762,15.313"/>
	<path style="fill:none;stroke:#422D0A;stroke-width:3.3431;stroke-linecap:round;stroke-miterlimit:10;" d="M666.989,263.045
		c0,0,6.622,23.176,19.451,21.935"/>
	<path style="fill:none;stroke:#422D0A;stroke-width:3.3431;stroke-linecap:round;stroke-miterlimit:10;" d="M643.399,293.671
		c0,0,5.38,20.693,22.762,17.796"/>
	<path style="fill:none;stroke:#422D0A;stroke-width:3.3431;stroke-linecap:round;stroke-miterlimit:10;" d="M620.506,333.816
		c0,0,11.718,16.968,30.342,7.036"/>
	<path style="fill:none;stroke:#422D0A;stroke-width:3.3431;stroke-linecap:round;stroke-miterlimit:10;" d="M630.464,378.955
		c0,0,24.405-1.065,27.775-16.894"/>
	<path style="fill:none;stroke:#422D0A;stroke-width:3.3431;stroke-linecap:round;stroke-miterlimit:10;" d="M662.85,399.206
		c0,0,18.789-9.011,16.637-26.647"/>
	<path style="fill:none;stroke:#422D0A;stroke-width:3.3431;stroke-linecap:round;stroke-miterlimit:10;" d="M702.167,400.861
		c0,0,17.382-12.002,1.015-30.708"/>
	<path style="fill:none;stroke:#422D0A;stroke-width:3.3431;stroke-linecap:round;stroke-miterlimit:10;" d="M719.135,359.061
		c0,0,18.21-1.242,19.451,19.452"/>
	<path style="fill:none;stroke:#422D0A;stroke-width:3.3431;stroke-linecap:round;stroke-miterlimit:10;" d="M722.109,343.915
		c0,0,3.97-15.479,24.249-12.582"/>
	<path style="fill:none;stroke:#422D0A;stroke-width:3.3431;stroke-linecap:round;stroke-miterlimit:10;" d="M710.611,336.429
		c0,0-8.864-16.36-0.79-26.041"/>
	<path style="fill:none;stroke:#422D0A;stroke-width:3.3431;stroke-linecap:round;stroke-miterlimit:10;" d="M570.292,199.209
		c0,0,19.305,4.654,29.238-14.798"/>
	<path style="fill:#FFFFFF;" d="M478.266,265.188c0.966-1.905,0.549-4.214-0.857-5.822c-2.153-2.462-6.364-6.238-12.709-7.483
		c-9.698-1.902-10.809,8.036-4.368,8.433c6.441,0.397,11.752,6.237,15.186,6.586C476.891,267.042,477.741,266.222,478.266,265.188z"
		/>
	<path style="fill:none;stroke:#422D0A;stroke-width:3.3431;stroke-linecap:round;stroke-miterlimit:10;" d="M433.75,382
		c-5.254,6.781-7.223,13.781-4.543,17.732c1.233,1.817,4.056,3.901,6.146,3.111c2.154-0.814,3.418-3.085,2.911-5.331
		c-0.752-3.332-0.81-4.639-0.486-7.298c0.216-1.777,1.189-4.241,4.722-6.963"/>
	<path style="fill:none;stroke:#422D0A;stroke-width:3.3431;stroke-linecap:round;stroke-miterlimit:10;" d="M478.15,382.281
		c-3.64-2.666-4.586-8.535-4.586-8.535l0,0"/>
	<path style="fill:none;stroke:#422D0A;stroke-width:3.3431;stroke-linecap:round;stroke-miterlimit:10;" d="M468.75,382.75
		c3.828,7.453,9.264,12.154,14.04,11.47c2.149-0.308,5.308-1.858,5.544-4.087c0.243-2.29-1.215-4.441-3.45-4.999
		c-2.164-0.541-4.801-1.435-6.735-2.852"/>
	<path style="fill:none;stroke:#422D0A;stroke-width:3.3431;stroke-linecap:round;stroke-miterlimit:10;" d="M478.15,381.282
		c31.081-5.101,53.502-21.341,53.502-55.881c0-2.066,0.209-11.481-3.511-23.225c-5.731-18.092-16.943-29.991-23.89-36.176"/>
	<path style="fill:none;stroke:#422D0A;stroke-width:3.3431;stroke-linecap:round;stroke-miterlimit:10;" d="M489.606,256.099
		c-10.788-5.625-23.053-8.805-36.061-8.805c-43.137,0-78.106,34.969-78.106,78.106s34.969,57.73,78.106,57.73
		c5.194,0,10.27-0.212,15.18-0.659"/>
	<ellipse style="fill:#FF85BE;" cx="445.815" cy="337.907" rx="7.116" ry="3.235"/>
	<ellipse style="fill:#FF85BE;" cx="403.844" cy="337.907" rx="7.116" ry="3.235"/>
	<path style="fill:#422D0A;" d="M399.641,322.602c-2.228,4.451,2.176,8.855,6.627,6.626c0.764-0.383,1.397-1.016,1.78-1.78
		c2.229-4.451-2.176-8.856-6.627-6.627C400.656,321.205,400.023,321.838,399.641,322.602z"/>
	<path style="fill:#422D0A;" d="M441.611,322.821c-2.229,4.451,2.176,8.856,6.627,6.627c0.764-0.383,1.397-1.016,1.78-1.78
		c2.229-4.451-2.176-8.855-6.627-6.627C442.627,321.424,441.994,322.057,441.611,322.821z"/>
	<path style="fill:#422D0A;" d="M437.182,326.264c0-6.905-5.597-5.656-12.502-5.656s-12.502-1.249-12.502,5.656
		c0,6.905,5.597,1.786,12.502,1.786S437.182,333.169,437.182,326.264z"/>
	<path style="fill:none;stroke:#422D0A;stroke-width:3.3431;stroke-linecap:round;stroke-miterlimit:10;" d="M497.957,322.798
		c0,0-6.8-34.203-13.66-33.803c-6.86,0.4,4.659,36.02,4.659,36.02"/>
	<path style="fill:none;stroke:#422D0A;stroke-width:3.3431;stroke-linecap:round;stroke-miterlimit:10;" d="M379,303
		c-0.593-1.536-5.366-13.687-9.333-14c-1.144-0.09-1.89,0.396-1.89,0.396c-1.588,1.037-1.488,3.739-1.444,4.937
		c0.234,6.323,8.149,27.413,9,29.667"/>
	<path style="fill:none;stroke:#422D0A;stroke-width:3.3431;stroke-linecap:round;stroke-miterlimit:10;" d="M512.586,368.507
		c5.333,2.739,20.741,7.954,20.741,2.358c0-8.335-16.967-8.037-10.716,4.763c6.251,12.799,27.385,2.381,25.897-12.204"/>
	<path style="fill:none;stroke:#422D0A;stroke-width:3.3431;stroke-linecap:round;stroke-miterlimit:10;" d="M402.667,265.5
		c-0.713-4.136-0.935-7.413-1-9.667c-0.031-1.071-0.041-2.432,0.599-3.984c0.27-0.655,1.154-2.801,3.235-3.683
		c0.978-0.415,2.184-0.534,4.371,0.058c1.886,0.511,5.375,1.787,9.118,5.353"/>
	<path style="fill:none;stroke:#422D0A;stroke-width:3.3431;stroke-linecap:round;stroke-miterlimit:10;" d="M480.641,267.874
		c0,0,5.974-10.719,12.928-14.875c2.993-1.789,6.876-0.323,7.866,3.02c1.713,5.782,4.068,15.445,1.829,18.702"/>
	
		<line style="fill:#BBFF92;stroke:#422D0A;stroke-width:3.3431;stroke-linecap:round;stroke-miterlimit:10;" x1="494.631" y1="260.135" x2="491.059" y2="269.957"/>
</g>
</svg>
