<?xml version="1.0" encoding="iso-8859-1"?>
            <!-- Generator: Adobe Illustrator 18.1.1, SVG Export Plug-In . SVG Version: 6.00 Build 0)  -->
            <svg version="1.1" id="Object" xmlns="http://www.w3.org/2000/svg" xmlns:xlink="http://www.w3.org/1999/xlink" x="0px" y="0px"
            viewBox="0 0 880 505" style="enable-background:new 0 0 880 505;" xml:space="preserve">
            <g id="Background">
              <rect style="fill:#FFCCCC;" width="880" height="505"/>
            </g>
            <g id="Color">
              <path style="fill:#ACDAC0;" d="M527.561,255.549c2.097,32.446,6.154,58.886,9.558,77.323
              c12.722,68.903,26.301,80.093,31.154,83.634c13.347,9.738,29.692,11.96,53.021,15.149c7.379,1.009,19.437,1.304,43.553,1.894
              c33.514,0.82,42.149-1.007,46.393-1.894c11.609-2.425,25.036-5.229,36.378-14.783c14.764-12.436,18.72-30.181,21.5-44.5
              c8.49-43.735,12.026-86.543,13.5-119.5c-37.695,2.929-77.652,4.904-119.665,5.518C615.155,259.087,569.921,257.946,527.561,255.549
              z"/>
              <path style="fill:#D8D8D7;" d="M537.37,255.871c-1.06-12.1-2.12-24.201-3.181-36.301c-0.391-22.438,1.725-54.175,13.255-89.947
              c7.146-22.169,16.181-40.533,24.617-54.915c2.997,3.99,5.605,7.264,7.558,9.663c7.839,9.623,12.158,13.74,13.5,15
              c1.857,1.743,3.443,3.111,4.5,4c7.037-2.861,17.025-6.343,29.356-8.78c9.88-1.952,30.281-5.646,55.862-0.947
              c7.932,1.457,19.22,4.307,32.191,10.415c8.837-9.152,17.674-18.305,26.511-27.457c12.754,21.007,19.713,40.147,23.67,53.968
              c8.649,30.204,8.642,54.746,8.521,70.064c-0.173,21.975-2.897,40.364-5.611,53.738c-10.167,0.333-20.333,0.667-30.5,1
              c-6.25,0.25-12.5,0.5-18.75,0.75c-45.417,0.25-90.833,0.5-136.25,0.75c-7.333,0.167-14.667,0.333-22,0.5
              C552.87,256.871,545.12,256.371,537.37,255.871z"/>
              <path style="fill:#ACDAC0;" d="M778.5,309.5c1.546,0.718,3.521-2.603,9.433-5.664c3.289-1.703,10.336-5.446,15.149-2.84
              c6.087,3.295,5.763,13.522,5.681,16.096c-0.336,10.601-6.415,18.124-9.468,21.777c-9.488,11.349-21.945,15.244-27.795,16.633
              c-1.167,5.5-2.333,11-3.5,16.5c5.867-0.729,14.868-2.541,24.667-7.569c5.303-2.721,18.326-9.543,27.457-24.617
              c4.472-7.383,12.113-19.997,8.521-35.032c-0.787-3.292-3.977-16.705-16.096-21.777c-10.32-4.319-23.289-0.988-32.55,8.494
              C776.489,305.149,777.112,308.855,778.5,309.5z"/>
              <path style="fill:#FFE19D;" d="M622.953,356.705c-5.698,9.197-8.052,9.399-10.179,14.354c-2.72,6.336-2.656,14.826,0.846,21.313
              c4.948,9.166,15.255,11.54,24.718,13.719c6.452,1.486,21.267,4.898,35.979-2.84c4.42-2.325,14.789-7.78,16.97-18.212
              c1.482-7.091-1.283-14.262-2-16c-1.313-3.181-1.952-3.144-4.333-7.333c-6.387-11.236-4.6-16.439-10.667-24
              c-1.359-1.694-3.464-4.269-7.071-6.412c-6.952-4.129-16.395-4.815-23.929-1.255c-6.359,3.005-9.649,8.229-14.333,15.667
              C625.967,350.446,626.501,350.979,622.953,356.705z"/>
              <path style="fill:#FFE19D;" d="M605.399,322.389c-3.22-0.223-6.966,1.167-9.261,4.052c-3.179,3.997-2.162,8.933-1.736,10.997
              c1.104,5.357,5.056,11.244,10.997,12.734c0.876,0.22,4.644,1.07,8.221-1.05c3.455-2.047,4.544-5.582,4.75-6.25
              C620.833,334.881,613.859,322.976,605.399,322.389z"/>
              <path style="fill:#FFE19D;" d="M649.226,283.479c-7.925,0.078-11.98,8.302-12.309,8.995c-2.682,5.665-1.027,11.07-0.473,12.782
              c2.208,6.829,7.611,10.104,8.995,10.888c0.873,0.313,6.816,2.341,11.835-0.947c4.376-2.867,5.144-7.871,5.681-11.362
              c0.417-2.715,1.302-8.477-2.367-13.729C659.953,289.198,655.911,283.414,649.226,283.479z"/>
              <path style="fill:#FFE19D;" d="M704.614,318.511c-0.453-0.062-10.97-1.328-15.994,6.61c-3.878,6.127-1.394,12.855-1.048,13.746
              c0.502,1.293,1.568,4.04,4.298,6.004c5.931,4.267,13.98,0.718,15,0.25c5.311-2.436,11.538-8.511,10.526-15.249
              c-0.73-4.861-4.911-7.953-5.681-8.521C711.085,320.886,708.487,319.042,704.614,318.511z"/>
              <path style="fill:#D8D8D7;" d="M557.62,287.371c-3.293-1.822-2.233-9.905-1.5-15.5c0.833-6.353,2.639-11.342,4-14.5
              c9,0.333,18,0.667,27,1c-2.839,6.213-7.314,13.688-14.5,20.5C569.162,282.15,561.43,289.479,557.62,287.371z"/>
              <path style="fill:#D8D8D7;" d="M713.12,256.871c8.833-0.5,17.667-1,26.5-1.5c1.972,3.928,5.252,11.852,4.5,22
              c-0.368,4.969-0.706,9.522-3,10.5C738.105,289.156,731.086,284.535,713.12,256.871z"/>
              <path style="fill:#666666;" d="M625.953,93.371c1.359,6.017,2.365,10.866,3,14c2.073,10.24,2.665,14.485,5.667,20
              c1.853,3.405,4.335,7.966,6.333,7.667c2.504-0.375,4.922-8.486,4-44.333C638.62,91.594,632.286,92.483,625.953,93.371z"/>
              <path style="fill:#666666;" d="M659.953,90.038c-0.022,11.576,0.664,20.993,1.333,27.667c1.15,11.455,2.293,15.223,3.667,15.333
              c0.407,0.033,1.086-0.235,3.333-4.667c2.269-4.475,3.404-6.713,4.667-11.333c2.9-10.608,3.817-23.56,4-26.333
              C671.286,90.483,665.62,90.26,659.953,90.038z"/>
              <path style="fill:#FFCC99;" d="M92.62,169.676c13,1.667,26,3.333,39,5c5.916-9.948,15.304-22.783,29.19-35
              c24.601-21.643,50.19-29.736,65.19-33c0-0.333,0-0.666,0-1c0-12.617,0.881-24.955,2.81-37c20.659,9.129,49.595,24.737,78.905,51
              c27.635,24.762,45.668,50.212,56.952,69c-64,49.667-128.024,99.333-192.024,149c-17.08-17.008-42.109-46.287-60.012-89
              C99.757,217.959,94.67,190.123,92.62,169.676z"/>
              <path style="fill:#FFCC99;" d="M182.62,330.676c14.589,8.276,27.202,12.08,36,14c10.671,2.329,13.15,1.325,14,0
              c1.446-2.253-1.207-6.381-13-23c-3.982-5.611-7.395-10.377-10-14C200.62,315.342,191.62,323.009,182.62,330.676z"/>
              <path style="fill:#D8D8D7;" d="M352.62,170.676c-0.251-5.292-0.161-13.428,2-23c1.373-6.079,5.128-22.714,11-23
              c4.718-0.23,8.962,10.184,15,25c3.405,8.355,5.646,15.392,7,20c-7,5.667-14,11.333-21,17
              C361.953,181.343,357.286,176.009,352.62,170.676z"/>
              <path style="fill:#FFCC99;" d="M160.62,346.676c-6.167-2.503-18.543-6.388-33-3c-11.706,2.743-29.705,11.411-31,24
              c-0.555,5.392,1.977,11.288,4,16c3.452,8.041,6.412,9.325,7,15c0.051,0.496,0.815,9.136-5,15c-7.154,7.214-18.87,4.676-22,4
              c-19.783-4.274-27.638-25.95-28-27c-3.919-11.356-1.851-21.194-1-25c3.93-17.576,16.433-27.556,22-32
              c2.262-1.806,13.471-10.52,30-14c34.234-7.207,62.838,14.031,68,18C167.953,340.676,164.286,343.676,160.62,346.676z"/>
              <path style="fill:#FF3366;" d="M208.62,309.676c59.333-47,118.667-94,178-141c6.71,8.776,15.291,21.815,22,39
              c5.067,12.978,22.544,59.9,2,113c-2.943,7.608-25.114,62.353-82,84c-57.65,21.937-127.995,1.145-174-53c9.333-7,18.667-14,28-21
              c8.242,7.121,22.818,17.187,40,16c2.66-0.184,11.687-0.807,13-5c1.024-3.27-3.215-6.892-13-17
              C216.593,318.45,211.797,313.21,208.62,309.676z"/>
              <path style="fill:#66FF66;" d="M386.62,168.676c6.667-4.667,13.333-9.333,20-14c7.212,8.334,16.802,20.986,25,38
              c6.943,14.41,23.797,54.592,15,105c-12.63,72.37-68.337,109.693-75,114c-61.61,39.829-125.5,24.068-137,21
              c-58.426-15.587-89.633-57.056-98-69c6-4.667,12-9.333,18-14c8.591,9.926,22.298,23.676,42,36c11.889,7.437,31.597,19.495,60,24
              c36.564,5.8,65.267-4.449,72-7c55.587-21.063,77.787-72.258,81-80C441.846,245.017,389.511,172.543,386.62,168.676z"/>
              <path style="fill:#FFCC99;" d="M351.62,166.676c1.817-22.616,6.594-40.379,13-41c6.784-0.658,15.681,17.879,22,45
              c-6.333,6-12.667,12-19,18C362.286,181.343,356.953,174.009,351.62,166.676z"/>
            </g>
            <g id="Line">
              <path style="fill:none;stroke:#231F20;stroke-width:6;stroke-linecap:round;stroke-linejoin:round;stroke-miterlimit:10;" d="
              M539.62,255.871c-3.09-13.099-5.418-28.023-6-44.5c-2.184-61.868,21.504-110.295,37-136c8.667,9,17.333,18,26,27
              c6.174-2.623,14.27-5.601,24-8c16.07-3.962,28.751-4.411,32.5-4.5c9.866-0.235,24.548-0.453,42,5.5c8.507,2.902,15.122,6.4,19.5,9
              c8.667-10,17.333-20,26-30c14.428,26.922,33.652,72.653,33,130.5c-0.198,17.583-2.202,33.526-5,47.5c4.333,0,8.667,0,13,0
              c-2.166,39.636-6.122,73.234-10,99.5c-4.953,33.543-10.073,57.118-29,69c-4.178,2.623-8.452,3.915-17,6.5
              c-8.428,2.549-25.231,6.907-68.5,7c-41.036,0.088-55.355-3.769-62.5-6c-8.849-2.763-14.291-4.463-20.5-8.5
              c-18.633-12.115-25.674-33.254-32-60.5c-5.87-25.282-12.194-60.434-14.5-104C531.62,255.538,535.62,255.705,539.62,255.871z"/>
              <path style="fill:none;stroke:#231F20;stroke-width:6;stroke-linecap:round;stroke-linejoin:round;stroke-miterlimit:10;" d="
              M528.62,255.871c40.836,1.807,83.903,2.596,129,2c42.939-0.568,83.995-2.342,123-5"/>
              <path style="fill:none;stroke:#231F20;stroke-width:5;stroke-linecap:round;stroke-linejoin:round;stroke-miterlimit:10;" d="
              M560.12,257.371c-1.115,3.116-2.347,7.362-3,12.5c-0.685,5.389-1.951,15.354,1.5,17c3.397,1.62,9.986-5.48,16.5-12.5
              c5.976-6.44,10.24-12.343,13-16.5"/>
              <path style="fill:none;stroke:#231F20;stroke-width:5;stroke-linecap:round;stroke-linejoin:round;stroke-miterlimit:10;" d="
              M600.286,322.705c-5.359,1.874-7.383,8.288-7.333,12.667c0.074,6.551,4.845,13.612,12,14.667
              c4.505,0.664,10.018-1.043,12.667-5.333c3.805-6.163-0.465-14.157-4.667-18C611.941,325.779,606.286,320.606,600.286,322.705z"/>
              <path style="fill:none;stroke:#231F20;stroke-width:5;stroke-linecap:round;stroke-linejoin:round;stroke-miterlimit:10;" d="
              M646.286,283.371c-5.895,1.227-9.504,8.338-10,14c-0.687,7.846,4.355,15.765,11.333,18c0.927,0.297,5.666,1.815,10-0.667
              c6.644-3.804,6.046-13.406,6-14C662.919,291.607,654.28,281.708,646.286,283.371z"/>
              <path style="fill:none;stroke:#231F20;stroke-width:5;stroke-linecap:round;stroke-linejoin:round;stroke-miterlimit:10;" d="
              M701.62,318.038c-7.152,0.135-12.738,5.575-14.667,11.333c-0.34,1.016-2.826,8.835,2,14c4.203,4.498,10.784,3.592,12.667,3.333
              c6.063-0.834,15.789-5.364,16-14C717.814,324.747,709.819,317.884,701.62,318.038z"/>
              <path style="fill:none;stroke:#231F20;stroke-width:5;stroke-linecap:round;stroke-linejoin:round;stroke-miterlimit:10;" d="
              M652.953,327.371c-7.876,0.277-13.381,5.087-16.333,7.667c-3.464,3.027-5.976,7.046-11,15.083c-3.925,6.279-3.221,6.074-7,11.917
              c-4.257,6.583-5.738,7.818-7,11.667c-0.27,0.822-2.013,6.337-0.667,12c2.162,9.096,11.16,13.802,16,16.333
              c17.73,9.273,36.179,4.23,42.667,2c7.284-2.503,16.132-5.544,20-14c3.528-7.713,1.182-16.147,0.667-18
              c-1.268-4.559-2.721-5.888-6.667-12.667c-9.373-16.103-7.295-19.575-13.75-25.25C668.261,332.707,661.836,327.059,652.953,327.371z
              "/>
              <path style="fill:none;stroke:#231F20;stroke-width:6;stroke-linecap:round;stroke-linejoin:round;stroke-miterlimit:10;" d="
              M780.37,291.371c1.989-2.204,6.426-6.507,13.5-8.75c2.348-0.744,7.621-2.349,13.75-1c10.303,2.268,15.759,11.286,17.25,13.75
              c9.345,15.446,2.437,33.841,1.25,37c-8.235,21.927-29.574,30.853-36.5,33.75c-7.928,3.316-15.036,4.655-20,5.25"/>
              <path style="fill:none;stroke:#231F20;stroke-width:6;stroke-linecap:round;stroke-linejoin:round;stroke-miterlimit:10;" d="
              M776.87,313.371c0.692-1.187,6.407-10.635,17-11.5c1.804-0.147,7.664-0.625,11.5,3c7.51,7.097,0.666,23.686,0,25.25
              c-7.804,18.339-29.017,24.244-34,25.5"/>
              <path style="fill:#231F20;stroke:#231F20;stroke-width:6;stroke-linecap:round;stroke-linejoin:round;stroke-miterlimit:10;" d="
              M601.62,158.371c-8.697-0.816-16.239,7.219-15.667,15c0.39,5.295,4.478,9.658,9,11.333c7.216,2.673,17.21-0.878,19.333-9
              C616.363,167.761,609.942,159.153,601.62,158.371z"/>
              <path style="fill:#FFFFFF;" d="M604.286,160.564c-3.182-0.443-6.288,1.888-6.667,5c-0.318,2.621,1.381,5.105,3.667,6
              c3.115,1.219,7.219-0.555,8-4C610.007,164.385,607.617,161.027,604.286,160.564z"/>
              <path style="fill:#231F20;stroke:#231F20;stroke-width:6;stroke-linecap:round;stroke-linejoin:round;stroke-miterlimit:10;" d="
              M710.983,158.371c8.697-0.816,16.24,7.219,15.667,15c-0.39,5.295-4.478,9.658-9,11.333c-7.216,2.673-17.21-0.878-19.333-9
              C696.239,167.761,702.66,159.153,710.983,158.371z"/>
              <path style="fill:#FFFFFF;" d="M709.316,160.564c3.182-0.443,6.289,1.888,6.667,5c0.318,2.621-1.381,5.105-3.667,6
              c-3.115,1.219-7.219-0.555-8-4C703.595,164.385,705.985,161.027,709.316,160.564z"/>
              <path style="fill:none;stroke:#231F20;stroke-width:5;stroke-linecap:round;stroke-linejoin:round;stroke-miterlimit:10;" d="
              M712.62,256.871c2.664,4.745,7.104,11.723,14,19c4.717,4.978,11.567,12.206,15,10.5c2.941-1.462,2.227-8.915,1.5-16.5
              c-0.528-5.509-1.559-10.103-2.5-13.5"/>
              <path style="fill:none;stroke:#231F20;stroke-width:5;stroke-linecap:round;stroke-linejoin:round;stroke-miterlimit:10;" d="
              M625.286,208.705c1.213,0.79,7.823,4.93,16.333,3c6.96-1.578,10.887-6.241,12-7.667c1.192,1.498,4.684,5.469,10.667,7
              c9.088,2.326,16.338-2.921,17.333-3.667"/>
              <path style="fill:none;stroke:#231F20;stroke-width:5;stroke-linecap:round;stroke-linejoin:round;stroke-miterlimit:10;" d="
              M544.953,196.371c10.222,3.556,20.444,7.111,30.667,10.667"/>
              <path style="fill:none;stroke:#231F20;stroke-width:5;stroke-linecap:round;stroke-linejoin:round;stroke-miterlimit:10;" d="
              M546.286,222.705c7.333-1.778,14.667-3.556,22-5.333"/>
              <path style="fill:none;stroke:#231F20;stroke-width:5;stroke-linecap:round;stroke-linejoin:round;stroke-miterlimit:10;" d="
              M763.62,196.371c-10.222,3.556-20.444,7.111-30.667,10.667"/>
              <path style="fill:none;stroke:#231F20;stroke-width:5;stroke-linecap:round;stroke-linejoin:round;stroke-miterlimit:10;" d="
              M762.286,222.705c-7.333-1.778-14.667-3.556-22-5.333"/>
              <path style="fill:none;stroke:#231F20;stroke-width:5;stroke-linecap:round;stroke-linejoin:round;stroke-miterlimit:10;" d="
              M627.12,94.371c0.861,4.916,5.937,33.405,11,38.5c0.342,0.344,1.14,1.147,2,1c2.29-0.392,2.916-7.166,3.5-14
              c0.546-6.38,0.589-11.917,0.5-17c-0.091-5.244-0.315-9.562-0.5-12.5"/>
              <path style="fill:none;stroke:#231F20;stroke-width:5;stroke-linecap:round;stroke-linejoin:round;stroke-miterlimit:10;" d="
              M660.62,90.038c-0.356,5.088-0.636,12.665,0,21.833c0.555,7.997,1.471,21.203,4.333,21.5c3.685,0.382,8.668-20.842,9.167-23
              c1.756-7.597,2.49-14.004,2.833-18.333"/>
              <path style="fill:#231F20;stroke:#231F20;stroke-width:6;stroke-linecap:round;stroke-linejoin:round;stroke-miterlimit:10;" d="
              M166.922,215.226c-7.317,4.772-8.222,15.756-2.932,21.491c3.6,3.903,9.515,4.775,14.097,3.272
              c7.313-2.397,12.927-11.395,9.535-19.075C184.307,213.403,173.924,210.659,166.922,215.226z"/>
              <path style="fill:#FFFFFF;" d="M170.374,215.283c-2.767,1.634-3.748,5.391-2.108,8.062c1.381,2.25,4.258,3.137,6.604,2.416
              c3.197-0.984,5.306-4.926,3.774-8.109C177.23,214.714,173.27,213.573,170.374,215.283z"/>
              <path style="fill:#231F20;stroke:#231F20;stroke-width:6;stroke-linecap:round;stroke-linejoin:round;stroke-miterlimit:10;" d="
              M252.538,147.179c6.301-6.05,17.205-4.453,21.598,1.995c2.99,4.388,2.504,10.347,0.006,14.472
              c-3.986,6.583-14.019,10.021-20.735,4.984C246.838,163.703,246.508,152.969,252.538,147.179z"/>
              <path style="fill:#FFFFFF;" d="M252.597,149.933c2.216-2.327,6.098-2.435,8.33-0.234c1.88,1.853,2.095,4.856,0.863,6.979
              c-1.68,2.893-5.996,4.057-8.752,1.846C250.496,156.484,250.278,152.368,252.597,149.933z"/>
              <path style="fill:none;stroke:#231F20;stroke-width:6;stroke-linecap:round;stroke-linejoin:round;stroke-miterlimit:10;" d="
              M136.62,364.676c90-69.667,180-139.333,270-209c64.856,77.87,49.157,194.609-29,251C302.854,460.62,193.013,443.407,136.62,364.676
              z"/>
              <path style="fill:none;stroke:#231F20;stroke-width:6;stroke-linecap:round;stroke-linejoin:round;stroke-miterlimit:10;" d="
              M171.62,334.676c-19.487-19.641-48.403-54.406-65.367-105.242c-7.254-21.738-10.775-41.777-12.388-58.665
              c12.327,2.036,24.655,4.072,36.982,6.108c3.382-5.793,8.094-13.019,14.461-20.758c10.516-12.781,20.415-20.72,23.367-23.032
              c7.77-6.085,19.41-15.035,36.961-20.692c8.555-2.758,15.949-3.906,21.013-4.439c0.657-13.76,1.314-27.52,1.971-41.28
              c14.21,7.208,29.415,16.068,45,27c42.5,29.812,71.701,63.73,91,91"/>
              <path style="fill:none;stroke:#231F20;stroke-width:6;stroke-linecap:round;stroke-linejoin:round;stroke-miterlimit:10;" d="
              M156.62,352.676c11.999,13.009,37.69,37.236,78,50c14.875,4.71,43.673,13.829,78,6c65.237-14.878,93.856-78.061,96-83
              c33.476-77.137-17.354-149.371-20-153"/>
              <path style="fill:none;stroke:#231F20;stroke-width:5;stroke-linecap:round;stroke-linejoin:round;stroke-miterlimit:10;" d="
              M228.934,248.29c1.444-0.102,9.213-0.792,14.833-7.468c4.596-5.46,4.912-11.547,4.939-13.356c1.855,0.474,7.035,1.533,12.73-0.858
              c8.65-3.632,11.262-12.191,11.605-13.387"/>
              <path style="fill:#231F20;stroke:#231F20;stroke-linecap:round;stroke-linejoin:round;stroke-miterlimit:10;" d="M261.814,349.545
              c-3.613,0.048-9.186,12.764-4.411,17.313c2.353,2.242,7.16,2.445,9.408,0.29C271.263,362.881,265.542,349.495,261.814,349.545z"/>
              <path style="fill:#231F20;stroke:#231F20;stroke-linecap:round;stroke-linejoin:round;stroke-miterlimit:10;" d="M307.85,342.215
              c-3.135,1.796-1.831,15.619,4.552,17.277c3.146,0.817,7.446-1.34,8.365-4.316C322.586,349.284,311.085,340.361,307.85,342.215z"/>
              <path style="fill:#231F20;stroke:#231F20;stroke-linecap:round;stroke-linejoin:round;stroke-miterlimit:10;" d="M343.426,312.407
              c-2.426,2.678,3.089,15.419,9.671,15.022c3.244-0.196,6.667-3.577,6.621-6.691C359.626,314.573,345.929,309.645,343.426,312.407z"
              />
              <path style="fill:#231F20;stroke:#231F20;stroke-linecap:round;stroke-linejoin:round;stroke-miterlimit:10;" d="M358.114,276.981
              c-0.201,3.608,12.102,10.041,16.969,5.591c2.399-2.193,2.931-6.975,0.936-9.366C372.069,268.472,358.322,273.259,358.114,276.981z"
              />
              <path style="fill:#231F20;stroke:#231F20;stroke-linecap:round;stroke-linejoin:round;stroke-miterlimit:10;" d="M348.115,229.82
              c-0.257,3.604,11.946,10.227,16.881,5.853c2.432-2.156,3.038-6.929,1.081-9.35C362.199,221.527,348.38,226.101,348.115,229.82z"/>
              <path style="fill:none;stroke:#231F20;stroke-width:6;stroke-linecap:round;stroke-linejoin:round;stroke-miterlimit:10;" d="
              M352.62,166.676c0.086-2.202,1.734-39.67,11-41c6.713-0.964,16.332,17.2,24,44"/>
              <path style="fill:none;stroke:#231F20;stroke-width:6;stroke-linecap:round;stroke-linejoin:round;stroke-miterlimit:10;" d="
              M170.62,335.676c-1.826-1.32-42.739-29.921-82-11c-17.026,8.206-40.088,28.461-38,54c1.678,20.522,19.83,42.614,37,41
              c7.42-0.697,16.28-5.975,19-14c4.608-13.598-12.763-22.248-10-37c2.733-14.594,21.965-25.875,39-27c10.933-0.722,19.589,2.808,24,5
              "/>
              <path style="fill:none;stroke:#231F20;stroke-width:6;stroke-linecap:round;stroke-linejoin:round;stroke-miterlimit:10;" d="
              M181.62,330.676c5.752,3.614,14.904,8.597,27,12c8.365,2.353,22.173,6.238,25,2c1.985-2.975-0.706-11.06-25-35"/>
              <path style="fill:none;stroke:#231F20;stroke-width:5;stroke-linecap:round;stroke-linejoin:round;stroke-miterlimit:10;" d="
              M300.953,178.676c5.778-10,11.556-20,17.333-30"/>
              <path style="fill:none;stroke:#231F20;stroke-width:5;stroke-linecap:round;stroke-linejoin:round;stroke-miterlimit:10;" d="
              M314.953,182.009c5.778-4.667,11.556-9.333,17.333-14"/>
              <path style="fill:none;stroke:#231F20;stroke-width:5;stroke-linecap:round;stroke-linejoin:round;stroke-miterlimit:10;" d="
              M178.953,270.676c-10,5.778-20,11.556-30,17.333"/>
              <path style="fill:none;stroke:#231F20;stroke-width:5;stroke-linecap:round;stroke-linejoin:round;stroke-miterlimit:10;" d="
              M182.286,284.676c-4.667,5.778-9.333,11.556-14,17.333"/>
            </g>
          </svg>