<?xml version="1.0" encoding="iso-8859-1"?>
<!-- Generator: Adobe Illustrator 18.1.1, SVG Export Plug-In . SVG Version: 6.00 Build 0)  -->
<svg version="1.1" xmlns="http://www.w3.org/2000/svg" xmlns:xlink="http://www.w3.org/1999/xlink" x="0px" y="0px"
	 viewBox="0 0 880 505" style="enable-background:new 0 0 880 505;" xml:space="preserve">
<g id="Background">
	<rect style="fill:#9FFFAA;" width="880" height="505"/>
</g>
<g id="Color">
	<path style="fill:#78D6D0;" d="M135.436,374.043c-1.589-8.136-1.789-16.322-0.711-24.365c-0.623-1.148-0.87-2.522-0.523-4.064
		c2.034-9.051,5.753-17.145,11.052-24.309c0.174-1.104,0.698-2.23,1.685-3.304c0.134-0.145,0.267-0.29,0.401-0.435
		c2.445-4.28,5.182-8.278,8.458-11.983c1.777-2.009,3.924-2.636,5.901-2.343c0.034-0.026,0.067-0.055,0.101-0.081
		c0.087-0.066,0.176-0.12,0.264-0.182c5.135-5.196,11.317-9.2,18.53-11.657c2.919-0.994,5.315-0.249,6.882,1.307
		c0.205,0.007,0.41,0.027,0.615,0.057c-7.96-9.276-19.012-15.646-31.492-17.398c1.41,0.763,2.279,2.193,2.512,3.672
		c-1.141,0.365-2.27,0.752-3.376,1.188c-3.082,0.474-6.196,1.66-9.153,3.153c-0.565,0.285-0.818,0.809-0.85,1.351
		c-0.327,0.076-0.678,0.124-1.066,0.124c-0.528,0-1.001-0.097-1.448-0.234c-0.627,0.814-1.629,1.358-3.047,1.358
		c-0.324,0-0.629-0.037-0.923-0.091c-0.038,0.103-0.071,0.208-0.117,0.306c0.374,1.133,0.429,2.323,0.099,3.444
		c-2.814,2.071-5.643,4.108-8.004,6.734c-0.061,0.067-0.107,0.137-0.155,0.206c-2.002,1.506-3.904,3.127-5.676,4.872
		c-0.214,1.086-0.67,2.115-1.387,2.889c-0.329,0.355-0.632,0.721-0.95,1.081c-1.807,3.493-3.28,7.243-4.915,10.6
		c-2.308,4.74-6.151,9.143-7.742,14.187c-1.584,5.023-0.342,10.696,0.498,15.74c0.395,2.367-0.341,4.188-1.639,5.41
		c2.412,2.292,2.204,6.946-1.382,7.584c7.636,10.952,19.207,18.77,32.58,21.254c-0.169-0.228-0.341-0.456-0.481-0.703
		C137.838,378.7,136.002,376.937,135.436,374.043z"/>
	<path style="fill:#F47B53;" d="M197.905,307.954c-1.031-4.43-2.917-8.573-5.592-12.439c-1.204-1.741-2.701-2.609-4.222-2.832
		c-0.205-0.03-0.41-0.05-0.615-0.057c-1.567-1.557-3.963-2.302-6.882-1.307c-7.213,2.457-13.396,6.462-18.53,11.657
		c-0.088,0.061-0.177,0.115-0.264,0.182c-0.034,0.026-0.067,0.055-0.101,0.081c-1.977-0.294-4.124,0.333-5.901,2.343
		c-3.276,3.705-6.013,7.703-8.458,11.983c-0.134,0.145-0.267,0.29-0.401,0.435c-0.987,1.074-1.511,2.2-1.685,3.304
		c-5.299,7.164-9.018,15.258-11.052,24.309c-0.347,1.543-0.1,2.917,0.523,4.064c-1.079,8.043-0.879,16.23,0.711,24.365
		c0.565,2.894,2.402,4.657,4.542,5.37c0.139,0.247,0.311,0.474,0.481,0.703c0.301,0.406,0.63,0.792,1.016,1.13
		c0.278-0.23,0.643-0.375,1.1-0.363c1.31,0.035,2.602,0.022,3.885-0.019c12.078-0.387,22.967-4.07,32.933-9.719
		c4.162-2.359,8.169-5.049,12.028-8c1.196-1.481,2.329-3.029,3.337-4.695C203.559,343.908,203.45,324.38,197.905,307.954z"/>
	<path style="fill:#F47B53;" d="M109.261,351.277c1.298-1.222,2.034-3.042,1.639-5.41c-0.841-5.044-2.082-10.717-0.498-15.74
		c1.59-5.044,5.433-9.447,7.742-14.187c1.635-3.357,3.107-7.108,4.915-10.6c0.318-0.36,0.621-0.726,0.95-1.081
		c0.717-0.775,1.173-1.804,1.387-2.889c1.772-1.745,3.674-3.367,5.676-4.872c0.049-0.069,0.095-0.139,0.155-0.206
		c2.361-2.627,5.189-4.663,8.004-6.734c0.329-1.121,0.274-2.311-0.099-3.444c0.046-0.099,0.079-0.204,0.117-0.306
		c0.294,0.054,0.598,0.091,0.923,0.091c1.418,0,2.42-0.543,3.047-1.358c0.446,0.137,0.92,0.234,1.448,0.234
		c0.389,0,0.739-0.048,1.066-0.124c0.032-0.542,0.285-1.065,0.85-1.351c2.957-1.493,6.071-2.678,9.153-3.153
		c1.106-0.436,2.236-0.824,3.376-1.188c-0.233-1.48-1.102-2.91-2.512-3.672c-0.645-0.349-1.392-0.572-2.263-0.572
		c-0.486,0-0.904,0.084-1.293,0.201c-0.695,0.211-1.255,0.573-1.66,1.057c-0.613-0.577-1.39-1.003-2.324-1.173
		c-0.287-0.052-0.586-0.085-0.904-0.085c-0.406,0-0.768,0.055-1.107,0.138c-0.844,0.206-1.493,0.639-1.94,1.22
		c-0.446-0.137-0.92-0.234-1.448-0.234c-1.418,0-2.42,0.543-3.047,1.358c-0.446-0.137-0.92-0.234-1.448-0.234
		c-1.931,0-3.083,1.008-3.569,2.34c-0.295-0.054-0.6-0.093-0.926-0.093c-1.574,0-2.625,0.676-3.229,1.643
		c-0.452,0.046-0.908,0.136-1.368,0.284c-2.544,0.817-4.783,1.967-6.795,3.358c-0.62-0.418-1.37-0.688-2.231-0.759
		c-0.141-0.012-0.277-0.031-0.424-0.031c-2.363,0-3.566,1.503-3.787,3.273c-0.027,0.213-0.046,0.429-0.044,0.647
		c-0.28,0.023-0.551,0.076-0.822,0.128c-5.645,1.074-9.527,8.115-12.602,13.526c-2.613,4.599-4.787,9.416-6.121,14.421
		c-0.098,0.27-0.189,0.543-0.284,0.814c-0.123,0.348-0.248,0.696-0.365,1.047c-0.103,0.311-0.225,0.614-0.323,0.927
		c0.009,0.003,0.018,0.006,0.028,0.008c-0.184,0.574-0.376,1.143-0.546,1.724c-0.381,1.302-0.277,2.493,0.154,3.531
		c-0.144,2.253-0.1,4.537,0.189,6.855c0.069,0.551,0.189,1.059,0.352,1.527c-0.188,1.988-0.192,3.987-0.082,5.987
		c0.602,2.249,1.074,4.521,1.494,6.807c1.382,2.424,2.613,4.932,3.511,7.523c0.301,0.133,0.608,0.252,0.925,0.341
		c-0.102,0.422-0.135,0.869-0.115,1.32c0.692,1.338,1.406,2.664,2.113,3.994c0.733,0.514,1.643,0.836,2.724,0.836
		c0.307,0,0.59-0.031,0.859-0.079C111.466,358.222,111.673,353.569,109.261,351.277z"/>
	<path style="fill:#F47B53;" d="M476.928,434.593c0.077-0.203,0.154-0.406,0.231-0.609c-0.572-2.208-0.893-4.409-0.962-6.624
		c-0.341-0.289-0.64-0.642-0.864-1.074c-1.637-3.161-2.988-6.397-4.089-9.714c-1.466-3.514-2.808-7.083-4.011-10.719
		c-0.057-0.174-0.079-0.343-0.109-0.513c-1.435-0.512-2.558-1.866-2.2-3.619c0.078-0.379,0.155-0.758,0.233-1.137
		c0.1-0.49,0.285-0.903,0.519-1.255c0.104-0.415,0.293-0.822,0.591-1.201c1.962-2.488,4.153-4.731,6.527-6.828
		c0.033-0.029,0.068-0.046,0.102-0.073c0.516-0.658,1.022-1.325,1.507-2.011c0.177-0.25,0.37-0.452,0.571-0.628
		c-0.018-0.51,0.103-1.06,0.447-1.64c5.023-8.468,10.724-16.405,17.168-23.798c2.796-5.309,5.741-10.537,8.868-15.672
		c0.392-2.061,0.652-4.162,0.767-6.325c0.079-1.476,1.086-2.337,2.292-2.632c0.432-1.482,2.003-2.645,3.613-2.581
		c-0.373-0.544-0.741-1.091-1.126-1.629c-0.905-1.267-2.373-1.521-3.653-1.143c-0.154-0.039-0.308-0.075-0.475-0.092
		c-1.121-0.956-2.44-1.662-4.069-1.951c-1.843-0.326-3.189,0.815-3.647,2.32c-0.242,0.011-0.484,0.029-0.726,0.04
		c-0.382-0.254-0.835-0.428-1.38-0.466c-7.01-0.487-13.98-0.454-20.927,0.123c-4.885,0.035-9.77,0.071-14.654,0.106
		c-0.331,0.003-0.625,0.069-0.9,0.162c-0.338-0.024-0.677-0.036-1.016-0.055c-0.185-0.012-0.371-0.02-0.556-0.03
		c-0.184-0.008-0.367-0.02-0.551-0.027c-3.077-0.15-6.183-0.127-9.163-0.191c-4.786-0.103-9.55-0.023-14.302,0.224
		c-2.019-0.022-4.039-0.023-6.059,0.015c-1.16-0.146-2.32-0.305-3.481-0.478c-1.096-0.163-1.975,0.138-2.611,0.688
		c-0.911,0.044-1.822,0.083-2.734,0.14c-0.452-0.755-1.18-1.329-2.207-1.455c-13.748-1.68-27.653-3.231-41.41-1.873
		c-4.885-1.615-10.188-1.724-15.275,0.282c-6.96-0.729-13.909-1.032-20.821-0.324c-0.601,0.003-1.201-0.006-1.802-0.001
		c-0.552,0.005-1.017,0.159-1.413,0.4c-1.681,0.252-3.358,0.578-5.034,0.97c-1.454-0.051-2.909-0.107-4.363-0.156
		c-4.048-0.135-7.868-0.465-11.5,1.639c-3.683,2.133-6.779,5.887-9.761,8.879c-3.428,3.44-6.764,6.978-9.769,10.798
		c-6.161,7.831-9.947,16.592-13.348,25.885c-3.762,10.279-7.496,20.569-11.242,30.854c-1.497,0.448-2.549,1.985-2.419,3.619
		c0.333,4.206,3.803,5.514,7.519,6.204c0.138,0.026,0.276,0.046,0.414,0.071c0.438,0.397,1.024,0.686,1.788,0.782
		c1.115,0.141,2.23,0.281,3.345,0.421c5.074,1.416,10.22,2.436,15.472,3.045c0.42,0.371,0.952,0.663,1.633,0.804
		c17.842,3.709,35.832,6.549,53.945,8.532c4.462,0.879,8.92,1.781,13.371,2.718c0.445,0.094,0.857,0.095,1.235,0.027
		c11.331,3.405,22.9,5.515,34.649,6.312c4.068,1.016,8.166,1.781,12.283,2.364c0.452,0.671,1.171,1.193,2.183,1.376
		c13.595,2.461,27.351,3.269,41.102,2.478c2.271,1.126,4.757,2.178,6.889,1.592c1.013-0.278,2.197-1.117,3.277-1.805
		c0.273,0.272,0.57,0.51,0.881,0.677c3.084,1.658,6.561,0.98,8.85-1.123c0.911-0.29,1.819-0.671,2.737-1.173
		c1.998-1.093,2.625-3.351,1.525-4.997c0.523-0.763,1.047-1.527,1.57-2.29C478.18,439.449,475.865,437.391,476.928,434.593z
		 M373.146,365.721c-0.468,1.019-1.538,1.899-2.694,1.957c-1.183,0.06-2.365,0.007-3.545-0.119c0.259,0.304,0.481,0.613,0.616,0.93
		c1.194,2.809-2.054,6.025-5.068,6.595c-0.778,0.147-1.546,0.293-2.311,0.438c-0.769,0.464-1.542,0.922-2.288,1.421
		c-0.162,0.088-0.323,0.177-0.485,0.265c-0.571-0.422-1.29-0.691-2.157-0.683c-0.212,0.002-0.423,0.004-0.635,0.006
		c-5.853,0.982-11.897,1.644-19.704,1.315c-3.029-0.019-6.058-0.038-9.087-0.056c-1.632-0.01-2.869-0.748-3.687-1.789
		c-0.644,0.009-1.288,0.018-1.931,0.029c-0.217-0.301-0.451-0.584-0.678-0.874c-0.816,0.215-1.446,0.368-0.962,0.146
		c0.766-0.351-5.515-2.566-4.942-5.171c0.061-0.279,0.153-0.529,0.236-0.788c-0.069-0.086-0.14-0.171-0.209-0.258
		c0.093,0.011,0.188,0.01,0.281,0.018c0.064-0.18,0.134-0.354,0.208-0.524c-1.384,0.635-3.066,0.519-3.963-1.035
		c-1.574-2.728-2.003-5.708-1.217-8.365c0.238-1.392,0.754-2.806,1.478-4.069c-0.11-2.39,1.312-5.222,3.421-6.942
		c2.726-2.222,5.839-3.756,9.128-4.643c0.257-0.192,0.547-0.364,0.894-0.492c5.273-1.952,10.693-2.547,15.946-1.867
		c8.708-0.9,20.232-0.228,26.914,5.107c0.661,0.165,1.32,0.541,1.906,1.202C372.62,352.003,375.879,359.767,373.146,365.721z
		 M446.347,388.206c-8.362,0.708-17.531-0.743-25.323-3.836c-3.643-1.446-8.551-3.963-11.638-7.413
		c-0.604-0.466-1.166-0.965-1.689-1.521c0.058-0.168,0.116-0.336,0.174-0.505c-1.19-1.961-1.743-4.164-1.225-6.592
		c0.271-1.269,0.94-2.165,1.785-2.754c0.504-1.593,1.543-3.153,2.808-4.543c-1.549-1.085-2.423-3.368-0.916-4.995
		c0.437-0.472,0.886-0.905,1.336-1.332c0.027-0.861,0.446-1.734,1.446-2.433c1.333-0.931,2.665-1.862,3.998-2.793
		c1.217-0.85,2.445-0.796,3.414-0.262c6.644-2.382,14.069-1.94,21.714-0.394c1.39,0.281,2.901,0.559,4.474,0.86
		c0.649-0.682,1.565-1.133,2.722-1.075c7.154,0.357,13.422,3.814,17.62,9.228c1.529,1.567,2.694,3.446,3.34,5.718
		c0.006,0.013,0.013,0.026,0.018,0.039c-0.003,0.001-0.005,0.001-0.008,0.002c0.078,0.278,0.155,0.557,0.217,0.847
		c0.446,2.077-1.041,3.342-2.734,3.564c1.398,3.225,1.79,6.68,0.182,9.19C463.932,383.65,453.704,387.583,446.347,388.206z"/>
	<path style="fill:#EA5B33;" d="M366.705,346.274c-6.682-5.335-18.206-6.007-26.914-5.107c-5.252-0.68-10.672-0.085-15.946,1.867
		c-0.347,0.128-0.637,0.3-0.894,0.492c-3.289,0.887-6.403,2.421-9.128,4.643c-2.109,1.719-3.531,4.552-3.421,6.942
		c-0.724,1.263-1.24,2.677-1.478,4.069c-0.786,2.657-0.357,5.638,1.217,8.365c0.897,1.554,2.579,1.67,3.963,1.035
		c0.795-1.834,2.16-3.139,3.852-4.072c3.187-2.753,7.932-3.168,12.08-3.619c4.621-0.503,9.396-1.006,14.001-0.121
		c1.805,0.154,3.545,0.479,5.131,1.073c5.416-0.03,14.94,2.43,17.738,5.719c1.18,0.126,2.362,0.179,3.545,0.119
		c1.156-0.059,2.226-0.938,2.694-1.957c2.733-5.955-0.526-13.719-4.535-18.245C368.025,346.815,367.366,346.439,366.705,346.274z"/>
	<path style="fill:#BDE0ED;" d="M349.169,361.84c-1.586-0.594-3.327-0.919-5.131-1.073c-3.916-0.333-8.141,0.165-11.822,0.65
		c-0.575,0.076-1.136,0.151-1.681,0.222c-0.075,0.01-0.153,0.02-0.227,0.03c-3.81,0.497-8.778,0.867-12.351,2.838
		c-1.692,0.933-3.057,2.238-3.852,4.072c-0.074,0.17-0.144,0.344-0.208,0.524c-0.027,0.077-0.047,0.161-0.072,0.239
		c-0.083,0.259-0.175,0.509-0.236,0.788c-0.573,2.606,5.708,4.82,4.942,5.171c-0.484,0.222,0.146,0.069,0.962-0.146
		c0.654-0.172,1.428-0.385,1.844-0.476c0.187,0.472,0.448,0.917,0.765,1.321c0.818,1.041,2.055,1.779,3.687,1.789
		c3.029,0.019,6.058,0.038,9.087,0.056c7.807,0.328,13.85-0.334,19.704-1.315c1.857-0.311,3.696-0.655,5.564-1.009
		c0.764-0.145,1.532-0.291,2.311-0.438c3.014-0.57,6.262-3.786,5.068-6.595c-0.135-0.317-0.357-0.626-0.616-0.93
		C364.109,364.27,354.585,361.81,349.169,361.84z"/>
	<path style="fill:#EA5B33;" d="M416.486,356.867c6.869-3.79,14.119-4.171,21.621-3.064c3.508,0.518,6.417-0.72,9.825,1.02
		c2.259,1.153,3.97,2.867,6.502,3.56c1.936,0.53,3.992,0.331,5.875,1.135c2.885,1.231,5.925,4.706,7.569,8.499
		c1.694-0.222,3.181-1.487,2.734-3.564c-0.062-0.29-0.139-0.569-0.217-0.847c0.003-0.001,0.005-0.001,0.008-0.002
		c-0.006-0.013-0.013-0.026-0.018-0.039c-0.646-2.273-1.811-4.151-3.34-5.718c-4.198-5.414-10.465-8.872-17.62-9.228
		c-1.158-0.058-2.073,0.393-2.722,1.075c-1.573-0.301-3.084-0.579-4.474-0.86c-7.645-1.546-15.07-1.988-21.714,0.394
		c-0.968-0.534-2.197-0.589-3.414,0.262c-1.333,0.931-2.665,1.862-3.998,2.793c-1,0.699-1.419,1.572-1.446,2.433
		c-0.45,0.427-0.899,0.859-1.336,1.332c-1.506,1.627-0.633,3.91,0.916,4.995C412.834,359.288,414.789,357.804,416.486,356.867z"/>
	<path style="fill:#D17C16;" d="M468.061,377.208c1.609-2.51,1.216-5.965-0.182-9.19c-1.644-3.793-4.684-7.268-7.569-8.499
		c-1.883-0.804-3.939-0.605-5.875-1.135c-2.532-0.694-4.243-2.407-6.502-3.56c-3.408-1.74-6.317-0.503-9.825-1.02
		c-7.503-1.107-14.752-0.726-21.621,3.064c-1.698,0.937-3.653,2.421-5.248,4.175c-1.264,1.39-2.303,2.949-2.808,4.543
		c-0.845,0.589-1.514,1.485-1.785,2.754c-0.518,2.429,0.035,4.631,1.225,6.592c0.429,0.707,0.939,1.383,1.515,2.026
		c3.088,3.45,7.995,5.967,11.638,7.413c7.792,3.092,16.961,4.543,25.323,3.836C453.704,387.583,463.932,383.65,468.061,377.208z"/>
	<path style="fill:#EA5B33;" d="M518.028,352.434c-0.402-0.395-0.817-0.797-1.248-1.21c0.059-0.142,0.103-0.292,0.142-0.445
		c0.146-0.566,0.154-1.195-0.058-1.875c-0.366-1.18-0.802-2.334-1.292-3.462c-0.004-0.336-0.045-0.679-0.16-1.031
		c-1.012-3.09-2.893-5.737-5.426-7.769c-0.58-0.465-1.221-0.676-1.856-0.701c-1.611-0.064-3.182,1.099-3.613,2.581
		c-1.206,0.296-2.214,1.157-2.292,2.632c-0.115,2.163-0.375,4.264-0.767,6.325c-3.127,5.135-6.072,10.363-8.868,15.672
		c-6.444,7.393-12.146,15.33-17.168,23.798c-0.344,0.58-0.466,1.13-0.447,1.64c-0.2,0.175-0.393,0.377-0.571,0.628
		c-0.485,0.686-0.991,1.353-1.507,2.011c-0.033,0.028-0.068,0.044-0.102,0.073c-2.374,2.096-4.565,4.34-6.527,6.828
		c-0.299,0.379-0.487,0.786-0.591,1.201c-0.234,0.353-0.419,0.765-0.519,1.255c-0.078,0.379-0.155,0.758-0.233,1.137
		c-0.359,1.753,0.765,3.107,2.2,3.619c0.03,0.17,0.052,0.339,0.109,0.513c1.203,3.636,2.545,7.205,4.011,10.719
		c1.101,3.317,2.452,6.554,4.089,9.714c0.224,0.432,0.523,0.785,0.864,1.074c0.068,2.215,0.389,4.416,0.962,6.624
		c-0.077,0.203-0.154,0.406-0.231,0.609c-1.063,2.799,1.252,4.856,3.477,4.637c0.754-0.074,1.497-0.407,2.095-1.064
		c0.887-0.474,1.62-1.286,1.882-2.341c0.148-0.596,0.296-1.192,0.444-1.788c0.821-1.578,1.622-3.164,2.403-4.759
		c0.758-1.547,1.499-3.102,2.22-4.665c0.175,0.088,0.356,0.162,0.539,0.223c1.218,0.406,2.576,0.191,3.414-1.09
		c6.405-9.794,12.843-19.621,18.331-29.968c0.708-1.334,1.404-2.674,2.078-4.027c0.672-1.35,1.394-2.783,2.095-4.267
		c0.352-0.267,0.68-0.581,0.996-0.917c3.014-3.199,4.493-9.273,6.082-13.422c0.028-0.072,0.055-0.149,0.083-0.22
		c0.816-2.088,1.268-3.897,1.433-5.533C525.027,360.152,522.441,356.771,518.028,352.434z"/>
	<path style="fill:#D17C16;" d="M443.04,232.009c-0.388-0.025-0.793-0.02-1.233,0.048c-6.78,1.061-13.375,2.674-19.88,4.862
		c-0.874,0.294-1.543,0.783-2.059,1.368c-0.121-0.014-0.229-0.027-0.362-0.043c-1.975-0.245-3.018-0.257-4.91,0.486
		c-0.859-0.222-1.811-0.211-2.815,0.164c-4.115,1.539-2.714,6.539,0.56,7.953c0.324,0.664,0.805,1.254,1.495,1.663
		c0.658,0.39,1.316,0.781,1.974,1.171c-0.13,0.33-0.26,0.66-0.39,0.991c-0.229,0.581-0.289,1.208-0.224,1.829
		c-4.229,2.458-0.294,9.563,4.808,7.655c2.259-0.845,2.842-2.734,2.381-4.502c0.58-0.446,1.055-1.046,1.396-1.765
		c3.323-0.431,6.504-2.399,9.561-3.627c4.143-1.663,8.53-3.665,12.936-4.714c1.22,0.896,2.174,1.75,4.206,1.758
		c3.627,0.015,5.587-3.258,4.316-6.521c-0.875-2.248-2.646-5.267-2.806-7.667C451.628,227.601,443.215,226.817,443.04,232.009z"/>
	<path style="fill:#D17C16;" d="M511.876,232.922c-1.73-0.474-3.207-0.689-5.004-0.575c-1.68,0.107-4.109,1.139-5.739,0.762
		c-2.986-0.692-4.27-3.336-7.859-1.902c-2.543,1.016-4.234,3.831-3.787,6.568c0.05,0.309,0.127,0.595,0.214,0.871
		c-0.012,0.016-0.027,0.027-0.039,0.043c-5.602,7.332-7.434,16.637-12.857,24.057c-2.419,3.31,0.997,7.449,4.645,6.885
		c1.124-0.174,2.249-0.347,3.373-0.521c0.293,1.546,1.239,2.901,3.268,3.85c5.28,2.469,8.911-2.647,9.273-7.247
		c0.302-3.838,2.028-6.022,3.579-9.5c1.446-3.243,2.22-6.598,2.72-10.102c0.076-0.53,0.043-1.006-0.044-1.451
		c2.989-1.055,5.935-2.188,8.844-3.473C515.915,239.662,515.556,233.931,511.876,232.922z"/>
	<path style="fill:#FEF1B5;" d="M362.099,298.76c3.251-1.518,4.182-3.71,3.945-6.132c0.424-0.828,0.579-1.86,0.325-3.067
		c-0.45-2.134-1.414-3.715-3.148-5.052c-0.323-0.249-0.649-0.444-0.978-0.618c-0.424-0.709-0.832-1.392-1.195-2.038
		c3.839-3.014,7.005-7.228,8.182-12.031c2.11-8.607-5.874-18.67-14.947-14.206c-3.11,1.53-4.843,3.407-8.589,3.279
		c-2.511-0.086-5.018-0.296-7.517-0.566c-8.172-2.387-16.392-4.623-24.624-6.814c-0.451-0.467-0.995-0.865-1.657-1.133
		c-6.57-2.655-13.249-4.44-20.186-5.592c-3.344-1.307-6.698-2.592-10.084-3.729c6.927-9.987-5.233-27.735-16.054-22.175
		c-4.108,0.137-6.027,2.719-6.448,5.869c-0.521,0.817-0.984,1.697-1.361,2.647c-1.007,2.534,0.923,4.624,3.091,5.416
		c0.162,0.276,0.331,0.544,0.511,0.797c0.079,0.112,0.172,0.207,0.258,0.31c0.085,0.178,0.184,0.349,0.281,0.521
		c-0.688,1.158-0.777,2.587,0.262,4.006c0.957,1.307,1.909,2.621,2.643,4.04c-0.009,0.221,0.003,0.442,0.035,0.664
		c-1.367,0.575-3.064,1.023-4.726,1.399c-0.515-0.054-1.065-0.035-1.666,0.119c-0.296,0.076-0.609,0.165-0.933,0.266
		c-0.975,0.278-1.949,0.556-2.924,0.834c-1.002,0.293-1.746,0.822-2.274,1.475c-3.914,2.318-7.18,5.891-5.045,10.247
		c1.887,3.85,6.862,3.894,11.615,2.967c1.103,0.512,2.425,0.634,3.815,0.077c5.172-2.074,10.425-2.655,15.651-2.25
		c0.369,0.549,0.902,1.028,1.671,1.362c0.356,0.155,0.715,0.303,1.072,0.458c0,0,0,0.001,0,0.001l0.006,0.002
		c14.3,6.191,28.791,11.886,43.472,17.066c5.963,5.065,13.803,6.489,20.612,10.106c0.236,1.71,0.838,3.419,1.731,4.912
		c-0.077,0.518-0.082,1.074,0.004,1.689c0.779,5.623,8.106,6.798,13.088,5.585c0.5-0.082,0.984-0.232,1.433-0.446
		C361.666,298.94,361.893,298.856,362.099,298.76z"/>
	<polygon style="fill:#D17C16;" points="765.954,313.786 761.242,319.441 764.069,325.724 765.326,335.777 771.692,331.065 
		779,318.184 779,304.361 775.776,301.847 	"/>
	<path style="fill:#D17C16;" d="M815.328,195.235c-0.056-0.095-0.123-0.163-0.182-0.251c-0.01-0.019-0.019-0.039-0.029-0.058
		c-0.039-0.423-0.118-0.849-0.285-1.275c-5.812-14.802-17.581-24.575-30.471-32.833c-3.089-2.485-6.415-4.54-10.039-6.19
		c-5.001-4.077-9.416-8.89-13.769-13.741c-0.094-0.104-0.192-0.198-0.289-0.292c-1.063-1.631-2.025-3.33-2.909-5.081
		c-0.179-0.664-0.371-1.323-0.533-1.993c-0.273-1.131-0.834-2.016-1.553-2.678c-0.242-0.611-0.493-1.216-0.717-1.84
		c-1.421-3.966-5.629-3.85-7.976-1.635c0.487,2.178,0.791,4.409,0.886,6.674c0.063,1.51-0.096,2.893-0.418,4.157
		c0.081,0.221,0.156,0.446,0.239,0.667c-0.215,0.157-0.414,0.334-0.606,0.52c-0.038,0.106-0.067,0.219-0.107,0.323
		c0.967,6.448,1.822,12.911,2.555,19.389c1.437,10.038,2.873,20.076,4.31,30.114c0.255,0.582,0.505,1.166,0.773,1.744
		c0.648,2.035,1.512,3.915,2.65,5.693c0.361,0.754,0.736,1.512,1.12,2.271c0.522,0.742,0.948,1.57,1.277,2.444
		c10.529,19.616,28.642,39.18,51.314,26.165c1.567-0.899,2.174-2.301,2.131-3.736c0.667-0.606,1.301-1.234,1.898-1.888
		c1.887-0.453,3.648-1.803,4.209-3.893C820.96,209.974,819.495,202.326,815.328,195.235z"/>
	<path style="fill:#D17C16;" d="M575.328,182.927c-0.002-0.544-0.002-1.088-0.011-1.634c0.596-2.589,1.193-5.178,1.789-7.767
		c0.804-2.956,1.698-5.947,2.777-8.813c1.739-2.356,3.478-4.712,5.218-7.068c0.487-1.191,1.089-2.491,2.045-4.067
		c0.957-0.838,1.892-1.699,2.838-2.547c0.058-0.079,0.116-0.157,0.174-0.236c0.303-0.41,0.51-0.828,0.677-1.246
		c1.089-1.355,2.195-2.696,3.322-4.02c3.687-3.334,7.058-6.938,10.082-10.933c0.009-0.012,0.013-0.023,0.022-0.035
		c1.347-1.105,2.635-2.262,3.867-3.477c0.072-0.058,0.149-0.095,0.22-0.159c0.32-0.291,0.622-0.589,0.935-0.882l0,0
		c0.272-0.257,0.545-0.514,0.817-0.771c0.192-0.184,0.393-0.363,0.582-0.549c0.064-0.06,0.128-0.12,0.191-0.181
		c-0.189-0.136-0.394-0.251-0.624-0.314c2.991-2.605,6.063-5.288,8.765-8.206c0.399-1.313,1.053-2.598,2.024-3.802
		c1.733-2.149,3.466-4.299,5.199-6.448c1.943-2.409,4.411-3.668,6.974-4.047c0.853-0.63,1.775-1.085,2.733-1.396
		c1.308-1.733,0.828-2.604-2.253-2.604c-2.446,0-12.209,2.724-12.596,4.508c-0.274-0.041-0.55-0.079-0.846-0.079
		c-1.946,0-3.189,0.917-3.815,2.187c-0.706-0.377-1.52-0.616-2.469-0.616c-2.182,0-3.474,1.152-4.006,2.664
		c-0.695-0.037-1.434,0.105-2.199,0.498c-4.176,2.142-8.664,4.155-13.125,6.292c-1.107-0.161-2.334,0.064-3.58,0.889
		c-2.141,1.417-4.26,2.863-6.378,4.311c-3.116,1.826-6.074,3.829-8.745,6.107c-0.301,0.215-0.607,0.424-0.908,0.64
		c-1.157-0.22-2.442,0.008-3.706,0.926c-2.593,1.883-5.114,3.844-7.602,5.841c-0.477,0.176-0.959,0.408-1.446,0.767
		c-4.826,3.562-9.324,7.471-13.503,11.707c-0.367,0.236-0.729,0.508-1.076,0.856c-1.869,1.879-4.085,4.373-6.133,7.19
		c-0.393,0.482-0.793,0.957-1.178,1.447c-0.44,0.559-0.724,1.118-0.92,1.67c-2.192,3.547-3.888,7.4-4.251,11.095
		c-1.804,3.372-2.748,7.184-2.491,11.134c0.021,0.328,0.063,0.649,0.11,0.969c-0.43,3.532,0.026,7.574,1.853,10.495
		c1.09,7.53,13.076,17.757,20.307,13.505c1.527-0.898,2.819-2.273,3.839-3.884c0.494-0.259,0.984-0.536,1.468-0.83
		c2.021-0.37,3.974-1.159,5.785-2.223c4.862-0.185,8.065-3.263,8.806-8.264C574.785,188.658,574.933,185.784,575.328,182.927z"/>
	<path style="fill:#FED181;" d="M755.776,196.769c-0.2-0.127-0.399-0.253-0.599-0.38c-0.251-0.159-0.518-0.292-0.778-0.435
		c-0.322-2.247-0.643-4.495-0.965-6.742c-1.437-10.038-2.873-20.076-4.31-30.114c-0.733-6.478-1.588-12.941-2.555-19.389
		c0.041-0.104,0.069-0.217,0.107-0.323c0.139-0.383,0.263-0.777,0.368-1.187c0.322-1.265,0.481-2.647,0.418-4.157
		c-0.095-2.266-0.399-4.496-0.886-6.674c-1.379-6.169-4.256-11.907-8.251-16.743c0.906-4.04-1.638-8.025-4.323-10.687
		c-2.493-2.471-5.885-3.548-9.257-3.41c-10.605-3.706-21.615-5.703-32.788-5.93c-5.052-1.324-10.13-1.562-15.169-1.029
		c-1.864-0.777-3.951-1.176-6.101-1.176c-2.617,0-4.943,1.213-6.75,3.035c-1.323-0.341-2.717-0.522-4.141-0.522
		c-3.017,0-5.649,1.607-7.54,3.91c-3.341,0.111-6.614,1.471-8.598,4.269c-1.115,1.572-2.267,3.117-3.394,4.68
		c-0.039,0.034-0.083,0.064-0.121,0.098c-1.423-0.12-2.846,0.027-4.197,0.466c-0.958,0.312-1.879,0.766-2.733,1.396
		c-2.564,0.379-5.032,1.637-6.974,4.047c-1.733,2.149-3.466,4.299-5.199,6.448c-0.971,1.204-1.625,2.488-2.024,3.802
		c-2.702,2.918-5.773,5.601-8.765,8.206c0.23,0.063,0.435,0.179,0.624,0.314c0.874,0.627,1.229,1.907,0.213,2.849
		c-7.045,6.537-13.949,13.221-21.102,19.638c-0.946,0.849-1.881,1.71-2.838,2.547c-0.956,1.577-1.559,2.876-2.045,4.067
		c-1.049,2.567-1.556,4.628-3.875,7.856c0.282,0.775-3.039,4.182-2.558,4.933c-1.641,4.08-2.755,8.268-3.34,12.493
		c-0.396,2.857-0.543,5.731-0.442,8.601c0.132,3.736,0.679,7.466,1.674,11.141c0.884,6.627,2.347,14.425,6.865,19.381
		c1.291,2.038,3.47,5.357,5.027,7.226c1.702,2.208,3.067,3.366,5.027,5.341c3.313,4.282,6.497,7.679,10.682,10.996
		c4.282,5.669,11.46,8.733,17.748,11.894c-0.06,0.182-0.117,0.365-0.177,0.547c0.393,0.324,0.668,0.81,0.647,1.491
		c-0.13,4.25-1.033,8.298-2.454,12.255c0.013,0.244-0.027,0.506-0.148,0.785c-0.753,1.733-1.566,3.42-2.416,5.083
		c-0.891,2.171-1.973,4.249-3.156,6.278c-1.678,6.619-3.186,13.281-4.471,19.993c-1.33,3.442-2.573,6.917-3.755,10.418
		c-8.64,10.827-10.779,25.607-5.091,38.319c0.896,9.425,7.45,19.18,15.01,25.522c-0.201,1.082-0.261,2.168-0.145,3.211
		c0.781,6.998,6.728,10.533,13.2,10.533c3.589,0,6.644-2.263,8.538-5.284c-0.015,0.49-0.01,0.977,0.043,1.453
		c0.421,3.774,2.352,6.531,5.05,8.279c2.364,3.721,6.789,5.605,11.501,5.605c1.644,0,3.175-0.479,4.535-1.283
		c1.233,0.295,2.525,0.445,3.842,0.445c5.443,0,9.651-5.198,10.445-10.363c1.747-2.389,2.627-5.481,2.62-8.703
		c-0.005-2.176-0.01-4.351-0.015-6.527c1.873,0.071,3.731-0.043,5.575-0.349c0.048,0.885,0.105,1.771,0.185,2.659
		c0.179,2.002,0.738,3.69,1.557,5.094c-0.121,0.888-0.151,1.774-0.056,2.63c0.289,2.595,1.292,4.711,2.766,6.35
		c2.144,4.447,6.956,6.696,12.11,6.696c1.466,0,2.836-0.392,4.082-1.044c0.856,0.133,1.732,0.206,2.62,0.206
		c1.32,0,2.564-0.316,3.708-0.854c0.161,0.004,0.32,0.016,0.481,0.016c3.026,0,5.664-1.616,7.556-3.929
		c2.454-2.017,4.134-5.133,4.581-8.23c1.215,0.282,2.486,0.43,3.781,0.43c1.501,0,2.902-0.408,4.171-1.088
		c1.808,0.72,3.816,1.088,5.882,1.088c1.343,0,2.605-0.331,3.766-0.885c0.417,0.03,0.837,0.047,1.26,0.047
		c5.895,0,10.344-6.096,10.571-11.643c0.611-0.522,1.159-1.127,1.621-1.824c6.154-9.299,11.333-19.569,11.912-30.915
		c0.655-12.831-4.774-22.798-14.482-30.916c-2.344-1.96-4.521-4.006-6.563-6.12c-4.763-14.877-9.923-29.617-15.475-44.218
		c6.069-2.276,11.758-5.603,16.804-10.096c0.662-0.589,1.238-1.222,1.75-1.881c1.999-2.027,3.846-4.261,5.563-6.663
		c5.587-1.107,9.485-7.642,8.885-13.019c-0.159-1.429-0.544-2.706-1.095-3.845c1.442-3.811,2.115-7.988,2.106-12.341
		c-0.003-1.456-0.389-2.832-1.042-4.088c0.103-1.755-0.175-3.7-0.839-5.467c-0.329-0.875-0.755-1.703-1.277-2.444
		C757.373,198.062,756.644,197.319,755.776,196.769z M638.57,212.597c0.054-0.051,0.097-0.108,0.149-0.16
		c0.09-1.301,0.706-2.587,1.997-3.561c0.286-0.216,0.572-0.432,0.859-0.647c2.915-2.198,6.268-0.537,7.448,2.19
		c0.065,0.075,0.132,0.141,0.196,0.22c0.935,1.161,1.075,3.244,1.908,4.204c0.719,0.828,2.878,1.119,3.957,1.91
		c1.325,0.972,2.338,2.193,2.945,3.741c2.85,7.266-4.195,13.757-9.552,17.496c-3.011,2.102-7.637,0.352-7.951-3.505
		c-0.252-3.094-0.504-6.188-0.756-9.282c-0.106-0.319-0.189-0.661-0.245-1.028c-0.113-0.734-0.164-1.436-0.167-2.124
		c-0.117-0.869-0.198-1.737-0.241-2.606C637.395,217.698,636.781,214.733,638.57,212.597z M698.867,272.354
		c-3.663,3.568-8.035,3.658-12.982,4.314c-5.761,0.765-11.529,1.318-17.346,1.232c-5.263-0.078-10.312-0.716-15.165-2.034
		c-6.786-0.707-12.875-5.034-18.216-10.148c-4.859-4.652-9.216-7.959,6.699-4.435c1.245-0.262,2.609-0.113,3.92,0.705
		c2.928,1.827,6.107,3.141,9.403,4.081c2.854,0.265,5.781,0.305,8.67,0.44c9.797,0.456,19.737,0.419,29.301-2.023
		C697.335,263.418,702.935,268.392,698.867,272.354z"/>
	<path style="fill:#F47B53;" d="M639.357,222.052c0.004,0.687,0.055,1.39,0.167,2.124c0.057,0.367,0.139,0.709,0.245,1.028
		c0.252,3.094,0.504,6.188,0.756,9.282c0.314,3.857,4.94,5.607,7.951,3.505c5.358-3.74,12.402-10.231,9.552-17.496
		c-0.607-1.548-1.62-2.769-2.945-3.741c-1.079-0.791-3.238-1.082-3.957-1.91c-0.833-0.96-0.973-3.043-1.908-4.204
		c-0.064-0.08-0.131-0.146-0.196-0.22c-1.18-2.727-4.533-4.388-7.448-2.19c-0.286,0.216-0.572,0.431-0.859,0.647
		c-1.291,0.973-1.908,2.26-1.997,3.561c-0.051,0.052-0.094,0.11-0.149,0.16c-1.79,2.136-1.175,5.102,0.546,6.85
		C639.159,220.315,639.24,221.183,639.357,222.052z"/>
	<path style="fill:#3EC2B9;" d="M693.15,264.486c-9.564,2.442-19.504,2.478-29.301,2.023c-2.889-0.134-5.816-0.175-8.67-0.44
		c-3.296-0.94-6.475-2.254-9.403-4.081c-1.311-0.818-2.675-0.967-3.92-0.705c-15.915-3.524-11.559-0.217-6.699,4.435
		c5.342,5.114,11.431,9.441,18.216,10.148c4.852,1.317,9.901,1.956,15.165,2.034c5.817,0.086,11.586-0.467,17.346-1.232
		c4.947-0.657,9.319-0.746,12.982-4.314C702.935,268.392,697.335,263.418,693.15,264.486z"/>
</g>
<g id="Line">
	<path style="fill:#704C29;" d="M150.855,274.609c6.812-0.288,13.03,0.638,19.207,1.851c5.072,0.996,9.237,3.534,12.942,7.197
		c4.31,4.26,8.343,8.661,11.245,14.018c0.299,0.552,0.385,1.2,1.545,0.78c1.297-0.47,1.553,1.148,1.99,2
		c4.87,9.474,5.909,19.653,5.581,30.115c-0.24,7.655-2.299,14.885-4.888,21.978c-3.021,8.276-9.003,14.131-16.179,18.912
		c-8.711,5.804-18.546,8.523-28.683,10.333c-3.279,0.585-6.631,0.574-9.907-0.227c-1.88-0.459-3.91,0.476-5.579-0.134
		c-16.703-6.106-31.346-14.827-39.106-31.915c-2.259-4.975-2.865-10.325-3.628-15.669c-0.574-4.02-0.837-8.016-0.638-12.051
		c0.079-1.608,0.087-3.274,0.519-4.803c4.599-16.246,12.847-29.488,29.345-36.191C133.235,277.302,141.727,273.624,150.855,274.609z
		 M135.499,357.577c-0.172,5.993,0.707,11.824,2.153,17.61c0.52,2.079,1.605,2.945,3.671,3.223c4.053,0.545,8.035-0.371,12.063-0.34
		c5.953,0.045,11.405-1.761,16.705-4.527c4.084-2.131,7.948-4.558,11.674-7.187c10.097-7.123,15.807-16.813,16.829-29.259
		c0.444-5.403,0.015-10.763-0.104-16.14c-0.19-8.576-2.866-16.388-7.546-23.544c-1.504-2.3-3.269-3.549-6.36-3.486
		c-8.346,0.171-15.387,3.654-21.781,8.379C144.272,315.999,135.786,334.808,135.499,357.577z M134.87,377.472
		c0.426-0.506,0.326-0.939,0.192-1.371c-2.912-9.372-3.062-18.942-1.84-28.562c2.523-19.856,11.863-35.835,28.018-47.597
		c7.066-5.145,14.779-9.202,24.618-8.225c-4.553-4.77-8.559-9.131-14.122-11.551c-3.238-1.409-6.648-2.428-10.211-1.749
		c-7.089,1.35-13.52,4.428-19.289,8.62c-23.276,16.912-33.493,39.746-30.936,68.46c0.672,7.551,4.291,12.424,10.836,15.703
		C126.381,373.325,130.934,374.799,134.87,377.472z M108.709,357.5c-1.657-16.75,0.201-32.712,8.843-47.408
		c8.502-14.457,20.395-25.152,36.233-31.832c-1.422-0.711-2.333-0.491-3.216-0.501c-11.893-0.138-22.621,3.532-32.344,10.189
		c-10.821,7.409-17.742,17.48-19.486,30.612c-0.689,5.186-0.962,10.393,0.399,15.733c1.233,4.839,1.666,9.897,3.676,14.555
		C104.197,352.056,105.825,355.123,108.709,357.5z"/>
	<path style="fill:#704C29;" d="M292.773,380.84c6.842-0.796,13.515,0.194,20.214,0.742c29.026,2.373,57.874,6.305,86.735,10.088
		c15.139,1.984,30.207,4.5,45.323,6.665c4.708,0.674,9.466,1.013,14.207,1.441c1.296,0.117,2.487,0.104,3.828-0.652
		c1.563-0.882,2.78,1.092,4.15,1.728c1.17,0.544-0.701,0.497-0.615,1.046c0.067,0.425,0.096,0.882,0.278,1.259
		c4.789,9.942,7.208,20.677,10.457,31.135c0.576,1.854,0.522,4.952,2.085,5.183c1.707,0.253,2.361-2.747,3.385-4.363
		c10.335-16.329,20.609-32.696,30.907-49.049c3.453-5.484,6.685-11.083,9.077-17.129c0.536-1.354,1.055-2.736,0.387-4.169
		c-4.481-9.618-8.877-19.288-15.855-27.463c-0.392-0.459-0.751-1.189-1.471-0.988c-0.696,0.195-0.67,1.004-0.795,1.588
		c-2.18,10.176-6.788,19.288-12.308,27.987c-6.411,10.104-13.306,19.865-21.054,28.999c-1.157,1.364-2.489,2.586-3.794,3.815
		c-0.356,0.336-0.929,0.729-1.419,0.175c-0.347-0.392-0.099-0.838,0.171-1.216c0.627-0.877,1.231-1.771,1.885-2.626
		c9.61-12.571,19.213-25.147,26.824-39.089c3.289-6.024,5.769-12.373,7.537-18.999c0.849-3.18,0.673-3.389-2.603-3.388
		c-19.687,0.005-39.36,0.854-59.051,0.786c-20.685-0.071-41.323-1.181-61.974-2.1c-20.842-0.928-41.684-1.291-62.492,0.796
		c-1.21,0.121-2.276,0.487-3.155,1.336c-6.787,6.55-14.106,12.555-20.24,19.776c-3.696,4.351-6.7,9.04-8.483,14.563
		c-1.82,5.637-4.005,11.167-6.247,16.656c-3.782,9.257-7.04,18.659-8.88,28.515c-0.161,0.862,0.087,2.349-1.419,2.067
		c-1.208-0.226-1.095-1.537-0.99-2.497c0.547-5.02,1.584-9.974,3.283-14.703c4.313-12.007,8.686-23.999,13.409-35.848
		c2.456-6.163,6.972-11.089,11.629-15.742c4.004-4.001,8.726-7.4,12.166-11.817c3.598-4.619,8.052-5.353,13.238-5.781
		c17.505-1.444,35.029-1.575,52.537-0.668c37.72,1.954,75.443,2.85,113.206,1.621c4.926-0.16,9.865-0.388,14.802,0.081
		c2.864,0.272,4.946,1.677,6.957,3.638c6.972,6.796,11.256,15.291,15.479,23.848c0.631,1.278,1.067,2.653,2.159,3.696
		c1.253,1.198,0.315,2.51,0,3.771c-2.938,11.736-9.629,21.59-15.839,31.695c-9.226,15.012-18.804,29.796-28.55,44.474
		c-0.249,0.374-0.613,0.722-0.717,1.134c-1.496,5.914-5.779,6.621-11.121,6.871c-25.754,1.201-51.184-1.393-76.402-6.211
		c-24.976-4.772-50.123-8.5-75.166-12.851c-14.966-2.6-29.726-6.173-44.473-9.782c-2.002-0.49-3.95-1.203-5.911-1.852
		c-0.778-0.258-1.691-0.628-1.247-1.674c0.377-0.887,1.234-0.417,1.896-0.27c8.68,1.934,17.359,3.874,26.037,5.82
		c20.176,4.526,40.613,7.552,61.019,10.791c15.877,2.52,31.677,5.522,47.511,8.308c24.183,4.255,48.524,5.696,73.036,4.112
		c1.157-0.075,2.422,0.237,1.564-1.867c-4.013-9.84-6.244-20.249-9.471-30.343c-1.122-3.511-2.161-7.041-3.774-10.375
		c-0.574-1.186-1.348-1.771-2.709-1.766c-15.543,0.06-30.731-3.013-46-5.314c-19.813-2.986-39.705-5.37-59.582-7.857
		c-20.593-2.577-41.212-4.938-61.819-7.402C293.932,381.124,293.355,380.96,292.773,380.84z"/>
	<path style="fill:#704C29;" d="M430.921,345.737c8.504-0.539,15.655,0.915,22.825,2.127c2.845,0.481,5.545,1.494,8.165,2.713
		c7.173,3.336,11.507,8.656,11.051,16.852c-0.441,7.92-4.777,13.336-11.855,16.649c-8.886,4.159-18.093,5.62-27.786,3.404
		c-4.464-1.021-9-1.726-13.474-2.707c-6.085-1.334-10.442-5.232-13.635-10.271c-2.465-3.89-2.074-8.351-0.374-12.476
		c1.329-3.225,3.06-6.31,4.862-9.307c3.047-5.067,8.071-6.599,13.567-6.955C426.863,345.598,429.478,345.737,430.921,345.737z
		 M442.701,384.791c7.528,0.216,14.135-2.703,20.505-6.273c1.198-0.671,2.061-1.968,3.014-3.034
		c0.341-0.381,0.815-1.083,0.676-1.383c-1.087-2.349-0.844-5.074-2.957-7.241c-1.735-1.779-2.53-4.451-5.553-4.697
		c-0.13-0.011-0.299-0.23-0.352-0.386c-0.784-2.321-2.65-2.398-4.608-2.189c-2.553,0.273-4.516-0.512-5.963-2.748
		c-1.071-1.656-2.897-2.633-4.655-1.64c-2.962,1.673-5.399,0.741-8.091-0.534c-3.245-1.538-6.647-1.869-9.629,0.63
		c-1.482,1.242-2.975,1.888-4.891,1.728c-1.194-0.1-2.381,0.005-2.818,1.465c-0.48,1.603-1.817,1.908-3.218,2.445
		c-5.934,2.271-8.262,6.686-5.012,11.964c2.486,4.036,6.157,7.217,10.957,8.184C427.573,382.585,434.991,384.508,442.701,384.791z
		 M468.932,367.095c0.365-4.659-1.24-8.401-5.114-11.056c-3.306-2.266-6.975-3.747-10.891-4.475
		c-9.563-1.778-19.19-2.624-28.935-1.877c-5.025,0.385-8.795,2.801-11.848,6.583c-0.687,0.852-1.436,1.767-1.248,3.224
		c0.878-0.309,1.729-0.355,2.169-0.803c2.685-2.736,6.429-3.434,9.507-5.161c5.097-2.861,9.503-3.207,14.464-0.841
		c1.425,0.679,2.638,0.582,4.092,0.004c2.88-1.145,5.78-1.021,7.851,1.572c1.6,2.003,3.467,2.558,5.877,2.374
		c4.302-0.329,6.53,3.82,10.201,4.92c0.238,0.071,0.466,0.593,0.484,0.917C465.659,364.699,467.383,365.805,468.932,367.095z"/>
	<path style="fill:#704C29;" d="M340.534,378.319c-3.862,0-7.729,0.119-11.585-0.027c-6.372-0.24-11.928-2.75-16.479-7.079
		c-4.717-4.486-6.278-10.136-4.655-16.522c0.442-1.737,1.063-3.43,1.631-5.133c1.255-3.76,3.765-5.866,7.605-7.263
		c10.257-3.732,20.76-5.121,31.529-4.049c6.498,0.647,12.97,1.755,18.797,5.174c13.501,7.922,12.275,22.668-0.491,30.465
		c-5.078,3.101-10.644,4.731-16.648,4.689c-3.234-0.023-6.469-0.004-9.703-0.004C340.534,378.486,340.534,378.403,340.534,378.319z
		 M338.995,359.363c2.869,0.156,5.763,0.124,8.602,0.504c6.88,0.922,13.743,2.155,19.428,6.507c1.789,1.37,2.595,0.846,3.677-0.54
		c3.594-4.606,3.463-11.279-0.563-15.575c-2.604-2.779-5.754-4.858-9.499-5.898c-13.322-3.7-26.486-3.704-39.774,0.64
		c-4.756,1.555-7.769,4.12-9.614,8.483c-1.682,3.979-1.428,7.864,0.563,11.688c0.765,1.47,1.543,1.769,2.874,0.585
		c2.184-1.941,4.849-3.044,7.566-4.024C327.671,359.78,333.322,359.568,338.995,359.363z M340.767,374.874c0,0.025,0,0.051,0,0.076
		c3.236,0,6.473-0.045,9.708,0.011c4.517,0.078,8.719-1.127,12.704-3.112c1.382-0.688,3.577-1.155,3.478-2.896
		c-0.083-1.471-2.179-1.919-3.542-2.544c-10.286-4.718-21.153-5.326-32.212-4.437c-5.258,0.423-10.262,1.751-14.83,4.485
		c-2.347,1.405-2.39,1.905-0.108,3.558c4.096,2.966,8.589,4.862,13.744,4.859C333.396,374.872,337.081,374.874,340.767,374.874z"/>
	<path style="fill:#704C29;" d="M312.01,402.901c-2.888,0.579-4.869,1.548-5.532,3.977c-0.293,1.073-0.811,2.472,0.514,3.143
		c1.173,0.593,1.947-0.555,2.678-1.313c0.701-0.726,1.036-1.661,1.312-2.622c0.221-0.769,0.43-1.768,1.488-1.55
		c1.247,0.257,0.966,1.379,0.777,2.212c-0.342,1.511-0.394,3.025-0.329,4.552c0.03,0.691-0.11,1.615,0.783,1.793
		c0.723,0.144,0.997-0.665,1.261-1.209c1.215-2.5,1.995-5.008,2.08-7.926c0.067-2.281,0.792-4.649,1.014-7.017
		c0.044-0.474,0.394-0.818,0.9-0.839c0.671-0.029,0.966,0.442,1.017,1.013c0.072,0.802,0.164,1.631,0.043,2.417
		c-0.401,2.62,0.395,3.917,3.294,3.519c0.801-0.11,2.372-0.666,2.437,0.649c0.055,1.09-1.524,1.166-2.422,1.042
		c-3.258-0.451-4.037,1.326-4.015,4.063c0.014,1.794-0.132,3.589-0.139,5.383c-0.002,0.589-0.069,1.332,0.707,1.583
		c0.698,0.226,1.228-0.197,1.66-0.655c1.608-1.706,2.856-3.642,3.884-5.763c1.459-3.009,2.971-3.766,6.013-3.287
		c1.78,0.28,3.414,0.796,3.427,3.044c0.013,2.203-1.856,4.117-4.007,4.347c-1.249,0.134-2.409-0.712-3.794-0.244
		c0.656,2.489,2.665,2.546,4.462,2.369c2.574-0.254,4.245-1.877,4.769-4.433c0.212-1.034,0.074-2.144,0.054-3.219
		c-0.011-0.624-0.281-1.427,0.256-1.79c2.399-1.619,4.636,0.194,6.941,0.501c1.614,0.215,1.883,1.494,1.674,2.864
		c-0.242,1.594-0.624,3.167-0.855,4.762c-0.35,2.419,0.24,4.284,3.014,4.793c0.499,0.091,0.95,0.44,1.624,0.767
		c-1.401,1.586-2.969,1.251-4.458,0.807c-1.599-0.476-2.563-1.644-2.729-3.332c-0.221-2.263,0.092-4.473,0.77-6.644
		c0.228-0.73,0.818-1.661-0.094-2.2c-1.151-0.68-2.523-1.17-3.842-0.834c-0.93,0.237-0.611,1.368-0.664,2.136
		c-0.385,5.494-3.339,8.416-8.022,7.887c-1.763-0.199-3.334-0.861-4.381-2.342c-0.775-1.096-1.324-0.943-1.997,0.046
		c-0.656,0.964-1.319,1.969-2.434,2.457c-1.877,0.821-3.377,0.407-4.129-1.603c-0.37-0.987-0.524-1.516-1.833-0.879
		c-2.385,1.162-3.738,0.511-4.32-2.082c-0.381-1.699-0.879-2.073-2.454-1.245c-1.095,0.576-2.29,0.345-3.233-0.571
		c-1.456-1.415-1.294-4.598,0.343-7.014C307.283,401.819,308.709,401.366,312.01,402.901z M329.982,411.388
		c1.57,0.033,2.659-0.659,2.778-2.09c0.131-1.578-1.388-1.397-2.35-1.539c-1.407-0.206-2.69,0.454-2.844,1.854
		C327.386,411.247,329.047,411.044,329.982,411.388z"/>
	<path style="fill:#704C29;" d="M435.856,416.16c0-1.524-0.041-3.049,0.017-4.571c0.029-0.753,0.342-1.472,1.273-1.408
		c0.752,0.051,1.039,0.698,1.08,1.342c0.117,1.879,0.18,3.761,0.235,5.643c0.091,3.136-0.067,6.293,0.662,9.378
		c0.264,1.116,0.496,2.416,1.832,2.755c1.256,0.318,1.833-0.864,2.663-1.501c0.964-0.738,1.686-2.91,2.97-1.836
		c1.218,1.019-0.481,2.387-1.234,3.384c-2.515,3.325-4.036,3.513-7.488,0.898c-0.894-0.677-1.414-0.359-2.111,0.127
		c-1.439,1.004-3.015,1.297-4.533,0.315c-1.545-1-1.235-2.627-1.087-4.158c0.07-0.726,0.699-1.709-0.523-2.015
		c-1.234-0.309-1.387,0.677-1.681,1.574c-1.046,3.192-3.266,4.581-6.297,4.077c-1.71-0.285-2.683-1.258-3.066-2.945
		c-0.359-1.583-1.1-1.419-1.93-0.301c-0.16,0.215-0.269,0.467-0.421,0.688c-1.136,1.659-2.725,2.279-4.673,1.93
		c-1.628-0.291-2.502-1.402-2.684-2.963c-0.235-2.026,0.127-3.953,1.621-5.478c0.597-0.609,1.299-0.374,1.98-0.003
		c1.257,0.685,2.585,1.25,3.793,2.009c1.28,0.804,2.33,0.789,3.289-0.428c1.562-1.981,3.592-1.88,5.598-1.033
		c2.8,1.181,5.554,0.859,8.416,0.354c1.816-0.32,2.433-1.125,2.215-2.877c-0.121-0.971-0.022-1.97-0.022-2.957
		C435.786,416.16,435.821,416.16,435.856,416.16z M423.091,424.115c-1.682-0.178-2.33,0.614-2.414,2.001
		c-0.085,1.406,0.746,1.985,2,1.915c1.522-0.085,3.081-0.63,3.128-2.336C425.856,423.846,423.966,424.509,423.091,424.115z
		 M435.715,425.187c-0.23-0.354,0.244-1.468-0.7-1.222c-1.488,0.387-2.147,1.724-2.385,3.2c-0.106,0.657,0.062,1.474,0.817,1.352
		C435.165,428.24,435.439,426.752,435.715,425.187z M414.414,425.894c-0.573-0.721-1.499-1.014-2.44-1.148
		c-0.909-0.129-0.966,0.593-0.903,1.239c0.108,1.111,0.822,1.528,1.852,1.367C413.631,427.242,414.299,426.971,414.414,425.894z"/>
	<path style="fill:#704C29;" d="M304.25,398.207c1.167,0.636,1.064,1.425,0.968,2.1c-0.505,3.528-1.755,6.762-4.062,9.519
		c-0.86,1.028-2.11,1.89-3.242,0.828c-1.398-1.312-1.976-1.01-3.027,0.38c-1.424,1.882-3.729,1.711-4.896-0.314
		c-2.208-3.83-1.41-8.003-1.03-12.096c0.024-0.258,0.437-0.658,0.696-0.68c0.591-0.05,0.654,0.487,0.656,0.936
		c0.01,1.703-0.012,3.407-0.003,5.11c0.008,1.631,0.261,3.229,0.939,4.717c0.802,1.761,1.772,1.82,2.884,0.189
		c1.208-1.772,1.512-3.794,1.568-5.892c0.022-0.821-0.259-2.109,1.069-2.034c1.24,0.071,0.881,1.32,0.961,2.16
		c0.025,0.267-0.011,0.539,0.005,0.807c0.109,1.72-0.575,4.357,1.32,4.693c1.718,0.304,2.326-2.367,2.997-3.951
		C302.912,402.647,303.488,400.496,304.25,398.207z"/>
	<path style="fill:#704C29;" d="M401.769,416.507c0,0.538,0.003,1.077,0,1.615c-0.018,3.35-0.019,3.348,3.374,3.097
		c0.536-0.04,1.074-0.093,1.609-0.077c0.45,0.013,0.947,0.113,1.104,0.605c0.207,0.648-0.289,0.993-0.76,1.239
		c-0.391,0.205-0.848,0.397-1.276,0.398c-2.936,0.009-5.276,0.739-5.69,4.198c-0.06,0.5-0.572,0.979-1.214,0.726
		c-0.648-0.256-0.541-0.877-0.421-1.392c1.316-5.646,1.419-11.358,1.006-17.107c-0.113-1.575,0.675-2.286,2.153-1.525
		c2.16,1.114,4.355,2.103,6.683,2.809c0.78,0.237,1.641,0.63,1.289,1.677c-0.29,0.862-1.159,0.796-1.848,0.609
		c-1.207-0.328-2.446-0.649-3.551-1.211c-1.953-0.995-2.604-0.385-2.457,1.647c0.064,0.893,0.011,1.794,0.011,2.691
		C401.777,416.507,401.773,416.507,401.769,416.507z"/>
	<path style="fill:#704C29;" d="M433.773,369.836c-1.442-0.149-3.197-0.533-3.377-2.262c-0.173-1.664,1.489-1.998,2.877-2.007
		c1.564-0.01,2.931,0.527,2.992,2.342C436.316,369.374,435.24,369.85,433.773,369.836z"/>
	<path style="fill:#704C29;" d="M446.811,375.319c-0.043,1.511-0.528,2.624-2.302,2.662c-2.025,0.043-3.355-1.402-3.517-3.584
		c-0.148-2.002,1.21-1.909,2.451-1.924C445.336,372.452,446.848,372.996,446.811,375.319z M445.619,375.338
		c-0.069-1.195-0.916-1.566-1.979-1.616c-0.719-0.034-1.567,0-1.501,1.014c0.081,1.254,0.965,1.852,2.135,1.967
		C445.156,376.789,445.528,376.21,445.619,375.338z"/>
	<path style="fill:#704C29;" d="M446.676,362.68c0.877-0.073,1.06,0.332,1.015,0.792c-0.131,1.332-0.933,2.064-2.244,2.127
		c-0.87,0.042-1.664-0.367-1.661-1.315C443.796,361.83,446.721,364.838,446.676,362.68z"/>
	<path style="fill:#704C29;" d="M455.169,232.274c1.473,3.388,1.292,7.149,2.525,10.654c0.909,2.582-1.142,4.753-3.325,6.229
		c-1.988,1.344-4.133,1.899-6.194,0.098c-1.122-0.98-2.255-0.82-3.518-0.406c-5.546,1.82-11.093,3.634-16.662,5.382
		c-1.811,0.568-3.096,1.49-3.979,3.28c-1.462,2.962-4.322,4.392-6.763,3.74c-2.522-0.673-4.481-3.596-4.068-6.838
		c0.295-2.315-0.347-3.482-2.386-4.658c-4.804-2.771-4.931-8.179-0.495-11.528c1.684-1.272,3.683-2.501,5.679-2.12
		c4.613,0.883,8.654-1.105,12.909-1.961c3.164-0.636,6.269-1.575,9.384-2.436c1.817-0.502,3.543-1.114,4.908-2.614
		c4.359-4.791,9.245-3.845,11.608,2.168C454.924,231.598,455.045,231.937,455.169,232.274z M451.655,232.919
		c0.02,0.053-0.172-0.649-0.493-1.285c-1.178-2.334-3.385-2.795-4.887-0.715c-1.974,2.734-4.835,3.617-7.74,4.484
		c-3.349,0.999-6.732,1.931-10.154,2.634c-4.05,0.831-7.841,2.862-12.325,1.809c-2.172-0.51-4.474,1.076-5.11,3.513
		c-0.604,2.312,1.357,3.247,3.071,4.124c0.398,0.204,0.805,0.408,1.161,0.675c1.714,1.285,2.423,2.914,1.362,4.921
		c-1.096,2.072-0.974,4.115,1.137,5.05c2.232,0.988,3.348-0.963,4.154-2.759c0.637-1.421,1.367-2.709,2.919-3.344
		c6.984-2.857,14.302-4.712,21.423-7.157c1.156-0.397,2.39-0.363,3.257,0.613c1.154,1.299,2.283,1.657,3.654,0.386
		c1.402-1.299,1.678-2.746,0.431-4.27c-0.805-0.983-1.137-2.083-0.872-3.258C453.023,236.65,452.562,235.145,451.655,232.919z"/>
	<path style="fill:#704C29;" d="M492.845,228.128c2.989-0.739,6.479-0.345,9.52,1.987c1.141,0.875,2.129,1.054,3.454,0.75
		c1.924-0.441,3.898-0.692,5.878-0.424c3.713,0.502,5.629,3.258,4.866,6.929c-0.979,4.706-3.87,7.394-8.664,7.744
		c-1.542,0.113-2.328,0.704-2.624,2.111c-0.965,4.583-2.139,9.078-4.785,13.056c-0.626,0.941-0.242,2.096-0.189,3.166
		c0.278,5.664-2.903,10.249-7.89,11.275c-2.937,0.604-5.607,0.059-7.375-2.585c-0.854-1.278-1.871-1.349-3.217-1.283
		c-3.368,0.164-6.484-1.501-7.285-4.022c-0.969-3.05,0.409-5.236,2.41-7.683c2.802-3.426,4.797-7.524,7.053-11.383
		c1.131-1.934,2.049-3.991,3.113-5.965c1.139-2.111,1.706-4.12,0.892-6.645C487.034,232.156,488.956,229.427,492.845,228.128z
		 M492.98,271.079c2.501-0.973,4.095-4.159,3.849-7.675c-0.093-1.328-0.694-2.756,0.124-3.96c3.06-4.505,4.066-9.732,5.415-14.847
		c0.616-2.338,2.092-3.339,4.583-3.171c3.136,0.211,4.716-0.929,5.774-3.738c0.908-2.412,0.106-3.691-2.443-3.706
		c-1.983-0.012-3.943,0.226-5.76,1.153c-1.587,0.809-2.87,0.604-3.907-1.029c-1.43-2.253-4.506-3.256-7.027-2.445
		c-1.739,0.56-2.692,1.759-1.912,3.48c1.145,2.528,0.379,4.638-0.684,6.923c-2.473,5.31-5.661,10.211-8.444,15.341
		c-0.977,1.802-1.382,3.826-3.835,4.407c-1.251,0.296-1.572,1.606-1.593,2.854c-0.021,1.236,0.66,2.012,1.681,2.542
		c1.343,0.697,2.756,0.788,4.188,0.333c1.787-0.567,3.061-0.146,4.07,1.559C488.534,271.59,490.343,272.105,492.98,271.079z"/>
	<path style="fill:#704C29;" d="M277.288,217.61c1.563,1.481,3.074,3.02,4.699,4.43c4.298,3.729,5.537,8.287,3.608,13.591
		c-0.792,2.177-0.282,3.136,1.884,4.004c7.685,3.078,15.605,5.451,23.547,7.667c11.175,3.119,22.068,7.054,33.051,10.728
		c2.268,0.759,3.89,0.533,5.541-1.212c1.652-1.746,3.342-3.506,5.762-4.314c8.747-2.92,17.803,4.178,16.985,13.362
		c-0.167,1.878-0.38,3.753-0.611,5.625c-0.446,3.618-2.176,6.481-5.352,8.277c-1.809,1.023-2.019,1.913-0.604,3.472
		c1.835,2.021,3.044,4.429,3.629,7.126c1.003,4.62-0.457,7.818-4.633,10.11c-7.91,4.341-18.885,0.64-21.977-8.027
		c-1.456-4.08-3.862-6.201-7.576-7.496c-16.993-5.93-33.017-14.108-49.478-21.276c-2.136-0.93-4.366-1.646-6.562-2.435
		c-3.176-1.142-6.002-1.251-9.46,0.208c-6.133,2.588-12.763,2.028-18.928-0.454c-5.181-2.085-6.138-6.618-2.998-11.217
		c3.082-4.515,7.4-6.926,12.647-7.951c0.823-0.161,2.062,0.094,2.273-1.011c0.173-0.912-0.782-1.548-1.382-2.187
		c-0.55-0.585-1.218-1.059-1.838-1.578c-5.136-4.301-5.851-11.017-1.736-16.32C262.872,214.169,271.096,212.88,277.288,217.61z
		 M252.379,248.634c-4.734,6.077-3.546,9.242,2.223,10.458c2.827,0.596,5.707,0.691,8.587,0.601
		c2.815-0.089,5.544-0.413,7.767-2.483c1.174-1.093,2.651-0.855,4.098-0.516c4.382,1.029,8.682,2.308,12.81,4.123
		c16.437,7.229,32.54,15.237,49.5,21.252c4.219,1.496,7.174,3.845,8.648,8.641c2.156,7.014,11.437,10.006,17.367,6.343
		c2.282-1.41,3.148-3.313,2.503-5.938c-0.665-2.703-2.156-4.907-3.989-6.93c-3.017-3.329-2.844-4.502,1.127-6.702
		c2.368-1.312,4.404-2.879,4.857-5.733c0.38-2.393,0.76-4.805,0.854-7.22c0.176-4.508-3.193-6.623-6.428-8.556
		c-2.406-1.438-6.22-0.332-8.649,1.981c-1.234,1.175-2.529,2.285-3.78,3.443c-1.404,1.299-3.043,1.546-4.767,0.924
		c-14.37-5.181-28.973-9.633-43.584-14.066c-5.923-1.797-11.906-3.433-17.56-6.051c-3.317-1.536-3.804-2.422-2.516-5.767
		c0.258-0.67,0.492-1.352,0.693-2.041c1.942-6.657-6.647-16.78-13.577-16.01c-4.18,0.465-8.447,3.762-9.484,7.412
		c-1.224,4.308,0.835,7.236,4.109,9.68c1.691,1.262,3.005,2.875,3.398,5.019c0.408,2.223-0.677,3.492-2.738,3.564
		C258.755,244.239,254.461,246.139,252.379,248.634z"/>
	<path style="fill:#704C29;" d="M682.176,84.588c13.055,1.554,26.268,2.408,38.843,6.546c9.583,3.153,16.908,9.765,20.971,18.835
		c3.385,7.557,8.847,13.149,13.992,19.205c4.421,5.204,8.605,10.613,12.804,16.001c3.989,5.119,8.526,9.551,14.102,12.987
		c9.952,6.134,19.359,13.04,27.143,21.843c7.61,8.606,13.177,18.263,13.103,30.215c-0.049,7.958-7.104,17.762-14.513,20.689
		c-4.72,1.865-9.101,4.81-14.602,3.976c-1.9-0.288-3.845-0.406-5.531-1.312c-8.236-4.421-16.6-8.679-22.771-16.043
		c-0.427-0.509-0.823-1.386-1.613-1.11c-0.975,0.34-0.62,1.378-0.626,2.118c-0.026,3.528-0.171,7.046-1.135,10.458
		c-1.357,4.8-3.452,9.195-7.097,12.753c-4.028,3.932-7.978,7.943-11.955,11.927c-2.895,2.9-6.29,5.023-10.174,6.269
		c-2.057,0.66-2.661,1.568-1.901,3.744c3.211,9.198,6.579,18.337,9.514,27.64c1.799,5.703,5.951,10.192,10.381,14.229
		c3.555,3.239,7.593,5.988,10.139,10.233c0.804,1.34,1.371,0.838,2.173-0.198c1.974-2.55,3.777-5.201,5.422-7.97
		c1.078-1.814,2.175-3.618,3.664-5.146c1.382-1.418,2.884-2.668,5.014-2.041c2.229,0.656,3.064,2.599,3.339,4.629
		c0.541,3.991,0.779,8.049-0.031,12.013c-1.256,6.139-4.131,11.513-8.464,16.062c-0.825,0.866-1.73,2.015-2.773,2.249
		c-3.543,0.794-3.518,3.261-3.74,6.129c-0.877,11.312-4.719,21.531-12.069,30.287c-1.02,1.215-2.293,2.262-3.595,3.182
		c-1.249,0.882-1.86,1.918-2.103,3.435c-0.862,5.397-5.314,9.051-10.773,8.923c-3.929-0.092-7.811-0.649-11.648-1.478
		c-1.568-0.339-2.341-0.029-2.642,1.782c-1.054,6.337-8.255,12.824-14.722,13.769c-6.75,0.986-13.238-0.127-19.319-2.799
		c-4.371-1.921-7.892-5.115-8.375-10.493c-0.342-3.801-0.84-7.588-1.315-11.376c-0.118-0.937,0.003-2.263-1.405-2.263
		c-1.69,0.001-1.347,1.45-1.369,2.481c-0.108,5.225-0.197,10.439-1.093,15.619c-0.959,5.55-3.735,8.838-9.564,10.08
		c-5.749,1.226-11.389,1.079-17.072,0.454c-5.476-0.602-8.738-4.696-11.902-8.587c-1.23-1.513-2.204-1.798-4.018-1.434
		c-6.198,1.243-11.742-0.851-16.833-4.098c-2.871-1.831-2.723-5.05-2.168-7.95c0.404-2.112-0.335-3.263-1.797-4.645
		c-9.99-9.445-16.64-20.54-16.596-34.798c0.009-2.915,0.188-5.844-0.026-8.743c-0.516-6.988,2.144-12.967,5.614-18.72
		c3.287-5.448,5.941-11.178,7.692-17.298c1.223-4.273,2.911-8.389,4.912-12.303c3.983-7.793,5.73-16.276,8.246-24.528
		c0.549-1.8,0.098-2.866-1.746-3.426c-3.9-1.184-7.31-3.34-10.58-5.686c-10.042-7.208-18.576-15.99-26.091-25.739
		c-4.872-6.32-7.745-13.641-8.907-21.512c-0.446-3.017-1.6-2.875-3.757-1.875c-4.92,2.281-9.659,5.075-14.935,6.429
		c-6.316,1.622-13.098,1.84-17.107-4.001c-8.922-12.996-12.722-22.005-4.729-37.519c7.993-15.513,19.254-28.18,34.567-36.888
		c11.181-6.359,22.219-12.972,33.676-18.846c10.113-5.185,21.13-7.664,31.887-10.929c2.515-0.763,5.122-1.437,7.213-2.98
		c9.474-6.99,20.615-9.188,31.776-11.407C676.148,85.05,679.127,84.684,682.176,84.588z M682.409,264.137
		c7.667,0.572,14.368,0.097,20.979-1.385c4.808-1.078,9.672-1.769,14.534-2.53c10.436-1.633,20.095-4.908,27.012-13.652
		c1.61-2.035,3.594-3.796,5.523-5.554c5.653-5.152,8.362-11.557,8.892-19.148c0.565-8.09,0.681-15.961-3.563-23.349
		c-4.81-8.373-5.662-17.992-7.473-27.188c-2.7-13.711-3.641-27.672-3.073-41.685c0.087-2.143-0.35-4.187-1.13-6.18
		c-1.832-4.685-3.885-9.27-6.323-13.669c-4.48-8.081-11.302-13.17-20.189-15.533c-6.229-1.656-12.639-2.304-18.983-3.319
		c-9.64-1.543-19.122-2.276-28.987-0.377c-18.456,3.552-33.308,12.28-44.654,27.215c-3.71,4.883-7.964,9.309-12.619,13.336
		c-11.42,9.88-21.114,21.157-28.367,34.501c-1.707,3.14-3.965,5.899-4.877,9.522c-4.593,18.258-3.374,35.509,8.689,50.844
		c5.288,6.722,11.462,12.66,17.683,18.515c9.353,8.802,20.574,14.238,33.158,15.807
		C653.464,262.156,668.274,264.668,682.409,264.137z M657.292,386.706c1.462,1.222,1.209,2.4,1.338,3.464
		c0.291,2.392,0.638,4.78,0.832,7.181c0.135,1.667,0.791,2.379,2.495,1.945c7.421-1.889,8.411-0.842,9.787-9.404
		c0.238-1.483,0.429-2.993,0.436-4.491c0.041-8.745,0.584-17.539-0.163-26.22c-0.556-6.458-0.792-13.176-4.072-19.217
		c-2.008-3.697-3.5-7.677-5.157-11.559c-0.328-0.768-0.87-1.885,0.154-2.407c0.812-0.414,1.353,0.607,1.895,1.159
		c0.278,0.284,0.524,0.62,0.706,0.973c5.755,11.118,10.93,22.414,10.796,35.333c-0.018,1.709-0.081,3.424,0.048,5.124
		c0.08,1.059-0.485,2.791,1.397,2.736c1.484-0.043,1.365-1.525,1.364-2.599c-0.003-2.007,0.051-4.036-0.215-6.016
		c-0.584-4.342-0.491-8.593,0.721-12.837c1.958-6.858,3.792-13.751,5.697-20.623c0.239-0.863,0.317-1.888,1.737-2.425
		c-0.247,6.058-1.464,11.614-2.877,17.162c-1.259,4.944-3.135,9.847-2.488,15.068c0.435,3.505,0.673,6.997,0.648,10.518
		c-0.043,5.945,0.602,11.839,1.484,17.701c0.581,3.859,2.12,7.223,6.257,8.434c2.499,0.731,5.073,1.269,7.65,1.66
		c3.299,0.501,3.503,0.09,3.553-3.285c0.056-3.703-1.428-6.956-3.048-10.502c1.949,0.057,2.511,1.182,3.101,2.156
		c1.602,2.642,2.327,5.557,2.309,8.626c-0.011,1.9,0.116,3.418,2.682,3.214c2.257-0.18,4.306-0.367,4.299-3.372
		c-0.005-2.211,0.108-4.419-0.499-6.589c-0.186-0.663-0.353-1.512,0.581-1.763c0.827-0.222,1.272,0.454,1.581,1.099
		c0.802,1.669,0.896,3.484,1.008,5.291c0.068,1.111,0.146,2.14,1.739,1.299c2.768-1.462,4.654-5.54,3.558-8.504
		c-1.117-3.02-0.899-5.846,0.145-8.808c3.903-11.079,8.298-22.015,10.004-33.75c0.203-1.399,0.072-3.567,2.143-3.303
		c1.933,0.247,1.366,2.348,1.46,3.776c0.039,0.593-0.084,1.202-0.177,1.797c-1.04,6.662-2.414,13.224-4.88,19.549
		c-1.934,4.958-3.612,10.021-5.233,15.092c-0.521,1.63-0.716,3.425,1.937,3.786c2.257,0.306,3.604,0.011,3.032-2.703
		c-0.1-0.473-0.063-1.088,0.539-1.254c0.814-0.225,1.029,0.467,1.185,1.025c0.16,0.573,0.134,1.194,0.253,1.781
		c0.549,2.715,2.895,1.504,4.437,1.914c1.463,0.389,2.257-0.433,2.095-2.036c-0.069-0.679-0.191-1.544,0.849-1.581
		c0.872-0.031,1.181,0.69,1.282,1.416c0.447,3.211,2.153,2.213,3.756,1.069c0.884-0.631,1.647-1.47,2.341-2.317
		c0.501-0.612,0.911-1.415,0.526-2.235c-0.465-0.991-1.392-0.541-2.143-0.484c-3.846,0.291-7.634,0.043-11.322-1.165
		c-0.546-0.179-1.285-0.306-1.066-1.127c0.158-0.592,0.797-0.531,1.275-0.514c2.209,0.075,4.431,0.066,6.623,0.31
		c4.574,0.509,8.224-1.44,11.551-4.198c2.026-1.68,3.469-3.89,4.902-6.082c7.279-11.134,8.65-23.572,8.012-36.439
		c-0.053-1.078-0.495-2.142-0.791-3.203c-1.874-6.733-6.444-11.396-11.707-15.646c-5.955-4.809-10.96-10.61-13.237-17.968
		c-2.736-8.843-6.165-17.432-8.906-26.256c-0.827-2.662-2.033-3.283-4.589-2.445c-1.694,0.556-3.556,0.85-5.339,0.836
		c-4.891-0.04-8.612,2.017-12.36,5.107c-7.519,6.198-15.843,11.103-26.022,11.411c-5.827,0.177-11.668,0.217-17.479-0.325
		c-8.607-0.802-16.367-3.641-23.101-9.314c-3.763-3.171-7.122-6.762-10.989-9.834c-2.447-1.944-2.586-0.537-2.932,1.21
		c-1.964,9.919-5.503,19.29-9.626,28.488c-3.364,7.505-4.632,15.94-9.224,22.861c-5.185,7.815-6.5,16.16-6.682,25.389
		c-0.241,12.237,4.598,22.04,11.768,31.123c2.445,3.097,5.389,5.844,10.024,5.636c2.986-0.134,6.004,0.379,9.005,0.641
		c0.877,0.077,2.07,0.091,1.969,1.319c-0.078,0.947-1.177,0.952-1.962,0.998c-3.025,0.179-6.022,0.018-8.97-0.784
		c-0.798-0.217-1.658-0.825-2.42,0.256c-2.715,3.851-0.825,8.641,3.848,9.867c1.509,0.396,2.039,0.059,1.93-1.509
		c-0.118-1.71-0.513-3.467,0.413-5.918c0.937,2.554,0.618,4.438,0.657,6.265c0.03,1.4,0.466,2.35,1.976,2.513
		c1.66,0.179,1.656-1.013,1.803-2.144c0.092-0.708-0.155-1.695,0.966-1.796c0.639,0.281,0.599,0.828,0.735,1.298
		c0.274,0.947-0.342,2.536,1.388,2.502c1.566-0.031,2.977-0.672,3.464-2.388c0.416-1.467,0.539-2.936,0.007-4.442
		c-1.238-3.504-2.49-7.008-3.585-10.558c-2.124-6.886-5.392-13.434-5.775-20.836c-0.327-6.318-1.005-12.618-1.486-18.929
		c-0.076-0.994-0.506-2.147,0.843-3.144c1.579,3.616,1.883,7.32,2.603,10.92c1.26,6.302,0.806,12.886,2.895,19.032
		c2.424,7.133,5.026,14.208,7.711,21.248c0.894,2.343,1.348,4.612,0.765,7.047c-0.75,3.138-0.027,5.767,2.602,7.764
		c0.69,0.525,1.168,1.716,2.139,1.38c1.067-0.369,0.571-1.575,0.576-2.405c0.011-1.928,0.137-3.825,0.933-5.604
		c0.36-0.806,0.799-2.015,1.753-1.776c1.171,0.293,0.478,1.51,0.405,2.324c-0.08,0.895-0.389,1.77-0.471,2.664
		c-0.719,7.801-0.579,7.875,7.185,8.167c2.51,0.095,2.885-0.667,2.203-2.953C656.124,393.5,655.717,390.249,657.292,386.706z
		 M818.787,206.486c-0.816-6.9-4.459-14.71-10.059-21.409c-6.925-8.285-15.222-15.196-24.456-20.806
		c-7.839-4.762-14.614-10.517-20.118-17.897c-4.194-5.624-9.015-10.777-12.577-16.879c-0.224-0.384-0.755-0.821-1.149-0.826
		c-0.813-0.011-0.782,0.776-0.8,1.352c-0.096,3.01-0.174,6.021-0.234,9.032c-0.225,11.294,1.295,22.394,3.26,33.498
		c1.867,10.548,4.308,20.871,9.297,30.388c1.945,3.711,3.362,7.722,6.068,11.048c6.157,7.569,14.546,11.889,23.061,16.029
		c0.857,0.417,1.965,0.305,2.95,0.474c4.498,0.77,8.121-1.593,11.995-3.213C813.379,224.202,818.731,216.46,818.787,206.486z
		 M630.325,104.877c-0.957,0.116-1.444,0.117-1.898,0.239c-10.015,2.69-19.822,5.948-28.902,11.06
		c-9.626,5.419-19.231,10.878-28.792,16.41c-14.869,8.603-25.71,20.998-33.659,36.073c-1.318,2.499-2.163,5.154-2.872,7.897
		c-1.952,7.55,0.965,13.94,4.334,20.357c4.032,7.68,9.171,9.852,17.374,7.036c4.862-1.669,9.267-4.396,14.086-6.108
		c2.946-1.046,3.773-2.655,3.832-5.768c0.407-21.544,9.803-38.974,25.279-53.399c6.391-5.957,12.841-11.854,18.633-18.39
		C622.03,115.443,625.944,110.271,630.325,104.877z M635.034,263.416c5.525,5.313,11.366,9.859,18.963,11.603
		c8.323,1.91,16.739,1.707,25.182,1.435c7.593-0.245,13.779-3.963,19.94-7.795c0.398-0.248,0.869-0.562,0.597-1.536
		C678.036,269.472,656.503,267.63,635.034,263.416z M777.671,310.606c0-0.803,0.065-1.613-0.014-2.408
		c-0.142-1.43,0.413-3.455-1.311-3.931c-1.493-0.412-2.202,1.454-3.007,2.539c-0.954,1.286-1.755,2.688-2.596,4.056
		c-1.531,2.492-3.223,4.918-5.42,6.806c-1.747,1.502-1.745,2.892-0.927,4.722c1.028,2.299,1.846,4.659,1.795,7.246
		c-0.017,0.858-0.28,2.072,0.719,2.411c1.068,0.361,1.807-0.685,2.477-1.396C774.689,325.026,777.732,318.453,777.671,310.606z"/>
	<path style="fill:#704C29;" d="M665.609,223.839c-2.54-1.094-3.825,0.669-5.233,3.162c-2.984,5.284-7.787,8.951-12.753,12.148
		c-4.851,3.124-10.327-0.074-10.364-5.859c-0.033-5.044-0.635-10.004-1.208-14.991c-0.283-2.463-1.075-3.42-3.815-3.175
		c-6.639,0.593-13.085-3.721-15.102-9.707c-0.253-0.752-0.399-1.55-0.503-2.339c-0.081-0.614,0.029-1.276,0.772-1.418
		c0.538-0.103,0.943,0.274,1.187,0.749c0.183,0.356,0.315,0.738,0.479,1.104c4.232,9.453,14.771,11.17,21.895,3.598
		c1.752-1.862,2.829-4.133,4.118-6.282c0.7-1.168,1.525-2.263,3.087-1.853c1.538,0.404,1.808,1.717,1.821,3.102
		c0.005,0.502,0.013,1.005,0.008,1.507c-0.046,4.03-0.503,8.323,3.403,10.97c4.931,3.341,10.056,6.421,16.489,5.088
		c3.992-0.828,6.883-3.624,10.202-5.654c0.424-0.259,0.752-0.672,1.169-0.947c0.902-0.595,1.922-1.559,2.845-0.239
		c0.774,1.106,0.445,2.323-0.508,3.281c-1.934,1.944-4.374,3.191-6.61,4.715C673.74,223.012,670.163,224.173,665.609,223.839z
		 M644.118,236.427c0.385-0.104,1.075-0.104,1.515-0.437c4.393-3.318,8.904-6.511,11.749-11.443
		c1.175-2.038,0.391-3.122-1.485-3.963c-5.121-2.299-8.979-5.669-9.696-11.649c-0.076-0.631-0.477-1.451-1.079-0.86
		c-2.007,1.973-4.141,3.762-6.421,5.403c-0.256,0.184-0.262,0.954-0.143,1.385c1.654,6.025,2.53,12.143,2.449,18.402
		C640.982,235.122,641.942,236.283,644.118,236.427z"/>
	<path style="fill:#704C29;" d="M647.01,180.356c3.901,0.201,7.852,0.112,11.639,1.199c5.414,1.553,6.353,4.955,2.486,9.002
		c-1.794,1.877-3.739,3.653-5.815,5.208c-3.407,2.551-6.575,2.345-9.853-0.444c-3.095-2.634-4.811-6.181-5.855-9.973
		c-0.965-3.504,0.765-5.359,4.397-5.206C645.011,180.184,646.01,180.283,647.01,180.356z M649.824,184.361
		c-1.936,0.617-5.187-1.548-6.337,0.622c-1.13,2.133,1.342,4.556,2.915,6.442c2.561,3.07,4.576,3.197,7.638,0.634
		c1.526-1.278,2.934-2.706,4.32-4.139c1.185-1.225,0.798-2.093-0.768-2.592C655.173,184.556,652.633,184.864,649.824,184.361z"/>
	<path style="fill:#704C29;" d="M695.074,168.308c5.435,0.617,8.976,3.996,11.808,8.307c1.282,1.951,1.71,4.26,2.177,6.517
		c0.262,1.269-0.013,2.418-1.191,3.149c-1.205,0.748-2.359,0.382-3.318-0.451c-1.206-1.047-2.374-2.156-3.432-3.35
		c-2.986-3.369-6.455-5.965-10.851-7.204c-1.596-0.45-3.096-1.105-3.201-3.084c-0.112-2.107,1.734-2.139,3.035-2.729
		C691.67,168.752,693.301,168.315,695.074,168.308z M702.857,178.211c-1.695-4.098-5.051-6.442-9.238-6.022
		C697.375,173.994,700.142,176.027,702.857,178.211z"/>
	<path style="fill:#704C29;" d="M627.258,154.102c3.717,0.16,7.207,1.621,9.873,4.838c0.813,0.982,1.353,2.05,0.617,3.288
		c-0.653,1.098-1.755,1.277-2.904,1.086c-5.685-0.945-11.152-0.327-16.442,2.031c-1.824,0.813-3.794,0.294-4.948-1.115
		c-1.188-1.45,0.333-2.806,1.232-3.928C617.797,156.42,621.827,154.256,627.258,154.102z M620.943,159.985
		c2.738-0.399,5.476-0.798,8.213-1.198C626.155,157.083,623.437,157.589,620.943,159.985z"/>
	<path style="fill:#704C29;" d="M692.966,192.685c-1.407-2.293-2.765-4.617-4.231-6.872c-3.215-4.944-7.44-8.75-13.111-10.581
		c-12.991-4.195-26.237-6.734-39.988-5.577c-2.001,0.168-3.909,0.73-5.85,1.27c1.784-2.299,4.386-2.906,6.991-3.179
		c13.118-1.372,25.901,0.578,38.231,4.911c9.412,3.307,14.67,10.964,18.584,19.61C693.383,192.407,693.175,192.546,692.966,192.685z
		"/>
	<path style="fill:#704C29;" d="M655.121,182.182c-1.736,0-2.903,0.734-3.583,1.792c-0.447-0.368-0.965-0.663-1.547-0.866
		c-0.914-1.268-2.36-2.183-4.294-2.183c-5.804,0-5.435,8.066-0.632,9.689c0.258,0.354,0.549,0.685,0.89,0.97
		c0.51,2.269,2.328,4.361,5.264,4.361c1.777,0,2.958-0.771,3.629-1.87c0.753-0.457,1.281-1.13,1.586-1.919
		C662.659,191.95,661.473,182.182,655.121,182.182z"/>
	<path style="fill:#704C29;" d="M702.934,175.461c-1.695-0.567-2.657-2.076-4.303-2.77c-1.762-0.742-3.062-2.062-4.721-3.017
		c-2.806-1.616-4.858,2.978-2.078,4.578c0.776,0.447,1.405,1.116,2.125,1.641c0.847,0.619,1.673,0.935,2.596,1.376
		c1.56,0.745,2.551,2.184,4.303,2.77C703.898,181.057,705.999,176.487,702.934,175.461z"/>
	<path style="fill:#704C29;" d="M629.38,157.164c-2.422-0.411-4.869-0.152-7.155,0.743c-3.01,1.179-1.195,5.867,1.827,4.684
		c1.49-0.584,2.966-0.729,4.542-0.462C631.784,162.67,632.573,157.706,629.38,157.164z"/>
</g>
</svg>
