<?xml version="1.0" encoding="iso-8859-1"?>
<!-- Generator: Adobe Illustrator 18.1.1, SVG Export Plug-In . SVG Version: 6.00 Build 0)  -->
<svg version="1.1" xmlns="http://www.w3.org/2000/svg" xmlns:xlink="http://www.w3.org/1999/xlink" x="0px" y="0px"
	 viewBox="0 0 880 505" style="enable-background:new 0 0 880 505;" xml:space="preserve">
<g id="Background">
	<rect style="fill:#FBFFA1;" width="880" height="505"/>
</g>
<g id="Color">
	<path style="fill:#9FE2DE;" d="M256.657,211.703c4.057-4.643,7.639-7.501,8.407-13.281c1.362-1.68,2.143-3.984,1.892-6.899
		c-0.327-3.789-1.123-7.408-2.272-10.887c-0.204-0.91-0.522-1.773-0.914-2.588c0.057-0.588,0.059-1.172-0.004-1.739
		c-0.275-2.461-1.354-4.382-2.916-5.762c-0.974-5.732-3.645-11.01-8.031-15.017c-0.608-2.298-1.986-4.029-3.802-5.185
		c0.581-1.38,0.849-3.021,0.661-4.931c-0.896-9.097-2.731-17.938-5.401-26.514c-0.137-7.426-1.464-14.675-4.236-21.65
		c-0.03-0.081-0.063-0.162-0.093-0.242c-0.254-0.631-0.518-1.259-0.796-1.885c-0.958-2.042-2.347-3.472-3.939-4.38
		c-0.83-2.596-1.678-5.186-2.547-7.77c-0.854-2.54-2.371-4.191-4.178-5.1c-2.8-3.787-5.804-5.366-10.499-1.501
		c-6.843,5.633-15.45,13.321-20,21c-4.679,7.897-7.477,14.94-10.958,23.404c-0.279,0.678-0.475,1.343-0.603,1.994
		c-1.788,0.244-3.555,0.545-5.286,0.935c-11.658,2.057-22.635,6.979-31.801,14.573c-1.096,0.908-1.902,1.922-2.474,2.989
		c-0.528-0.064-1.062-0.108-1.605-0.108c-13.59-0.008-27.141,0.758-40.644,2.297c-0.795,0.091-1.527,0.259-2.201,0.49
		c-0.163-0.006-0.324-0.017-0.488-0.017c-5.135,0-8.905,5.814-8.382,10.504c0.246,2.203,1.142,3.967,2.445,5.304
		c0.147,0.596,0.349,1.206,0.635,1.833c8.618,18.925,20.928,35.636,36.506,49.407c0.135,0.571,0.316,1.152,0.572,1.75
		c1.33,3.095,2.846,6.044,4.506,8.889c0.583,2.726,1.646,5.315,3.305,7.954c0.719,1.144,1.64,2.009,2.677,2.631
		c0.731,1.355,1.524,2.683,2.373,3.995c0.109,0.168,0.227,0.322,0.344,0.479c0.14,0.248,0.272,0.494,0.418,0.744
		c0.643,1.1,1.442,1.935,2.33,2.561c1.662,3.657,5.556,5.501,9.726,5.501c0.2,0,0.393-0.024,0.589-0.041
		c3.57,1.626,7.505,2.49,11.836,2.321c0.401,0.077,0.802,0.141,1.202,0.212c0.237,0.124,0.479,0.241,0.732,0.343
		c1.361,0.552,2.75,1.032,4.156,1.453c-1.873,8.007-3.747,16.013-5.62,24.02c-0.154,0.66-0.209,1.321-0.185,1.974
		c-0.315,1.376-0.63,2.752-0.944,4.128c-1.763,5.301-3.671,10.558-5.516,15.792c-0.357,0.921-0.682,1.85-0.973,2.787
		c-0.205,0.591-0.412,1.182-0.614,1.773c-0.357,1.044-0.541,2.066-0.59,3.052c-0.023,0.121-0.039,0.242-0.061,0.364
		c-1.099,1.187,0.24,1.549-0.072,3.379c-0.059,0.347-0.955,5.652-1,6c-1.649-0.313-2.418-0.737-4,0
		c-1.55,0.722-13.15,2.329-14.7,3.112c-12.37,6.107-16.773,8.909-25.315,19.769c-3.751,3.994-7.105,8.305-9.887,12.965
		c-7.031,11.779-7.913,26.667-1.456,37.877c5.492,16.67,20.759,28.219,38.589,28.049c8.814,2.64,18.27,1.916,26.449-2.777
		c9.422,1.112,19.554-6.149,27.396-10.792c11.269-6.672,20.806-13.108,27.591-24.868c2.363-4.096,3.163-10.3-1.396-11.761
		c-16.37-5.245-24.412,5.074-39.271,10.761c-7.577,2.9-11.866,7.768-19.667,10c-2.02,0.578-14.524-0.453-16.374-0.133
		c-2.705-0.681-5.431-1.278-8.175-1.799c-1.349-1.38-3.091-2.335-5.082-2.497c-0.232-0.019-0.461-0.016-0.692-0.023
		c-0.278-0.143-0.552-0.3-0.829-0.446c-5.678-3.012-11.892-14.23-11.516-20.102c0.47-7.325,7.084-16.247,12.333-21
		c6.548-5.93,13.404-10.176,21.333-14c0.906-0.437,5-3,5.332,2.11c0.037,0.579,1.017-0.544,1.487-0.864
		c3.182,5.705,8.279,10.304,14.698,12.37c0.634,0.204,1.252,0.342,1.857,0.437c1.988,2.252,5.085,3.39,8.354,3.39
		c2.699,0,5.013-1.613,6.533-3.818c1.992,2.093,4.982,3.152,8.134,3.152c4.433,0,7.842-4.333,8.356-8.535
		c1.929-0.203,3.857-0.406,5.786-0.61c-0.03,0.483-0.032,0.963,0.02,1.43c0.621,5.569,5.354,8.382,10.504,8.382
		c0.148,0,0.292-0.021,0.438-0.031c0.297,0.019,0.595,0.031,0.896,0.031c4.2,0,7.47-3.889,8.24-7.871
		c1.187,0.357,2.46,0.538,3.76,0.538c3.844,0,6.922-3.259,8.008-6.865c8.656-10.856,9.348-25.427,3.637-37.405
		c-0.392-2.532-1.649-4.468-3.415-5.791c-0.563-0.786-1.154-1.556-1.78-2.302c-1.076-8.33,0.395-17.265-0.241-25.509
		c-0.786-10.194-3.098-20.287-6.522-29.921c0.465-0.343,0.934-0.681,1.398-1.024C248.294,222.85,252.405,216.57,256.657,211.703z
		 M134.43,162.402c-0.124,6.984-1.023,13.82-2.822,20.604c-0.094,0.355-0.284,0.654-0.528,0.898
		c-0.062,1.117-0.133,2.234-0.244,3.357c-0.157,1.597-2.096,2.072-3.243,1.235c-3.443-2.515-6.36-5.441-8.89-8.87
		c-0.375-0.508-0.444-1.056-0.323-1.554c-3.431-3.247-6.052-7.513-8.167-11.771c-0.353-0.622-0.657-1.24-0.917-1.86
		c-2.104-2.321-4.054-5.353-3.163-8.272c1.312-4.295,7.756-3.798,11.214-3.953c4.394-0.197,12.513-1.154,16.33,1.326
		C136.456,155.346,135.438,159.357,134.43,162.402z M234.621,134.376c-0.878,0.904-2.227,1.047-3.398,0.773
		c-1.058-0.248-1.663-1.105-2.521-1.656c-1.319-0.847-2.617-1.395-4.025-1.816c-0.646-0.166-1.292-0.333-1.938-0.499
		c-0.408-0.105-0.725-0.304-0.973-0.552c-0.584-0.153-1.17-0.298-1.757-0.439c-2.106-0.43-4.212-0.86-6.318-1.29
		c-0.778-0.159-1.257-0.638-1.474-1.212c-4.364-0.459-8.837-0.594-12.962-2.12c-0.772-0.286-1.337-1.339-1.148-2.135
		c0.579-2.447,1.481-4.523,2.878-6.401c1.124-3.073,2.573-5.951,4.408-8.646c0.041-0.32,0.152-0.651,0.371-0.98
		c0.443-0.664,0.897-1.317,1.358-1.961c1.578-4.815,4.386-8.636,8.778-11.355c0.136-0.084,0.282-0.142,0.431-0.189
		c0.494-0.746,0.998-1.484,1.468-2.251c0.328-0.534,0.766-0.879,1.241-1.036c0.551-1.797,2.922-1.813,3.752-0.168
		c0.098,0.193,0.167,0.386,0.234,0.578c0.664,0.526,1.211,1.291,1.666,2.152c0.895,1.181,1.523,2.41,1.968,3.798
		c0.177,0.136,0.339,0.315,0.473,0.551c0.128,0.226,0.255,0.451,0.383,0.677c0.298,0.127,0.565,0.336,0.769,0.638
		c0.976,1.449,1.612,2.732,2.092,4.433c0.113,0.402,0.087,0.802-0.032,1.17c0.607,1.428,1.104,2.862,1.495,4.318l0.959,2.642
		c0.237,0.653,0.151,1.223-0.114,1.669c0.086,0.685,0.151,1.38,0.196,2.084c0.699,3.118,1.154,6.214,1.295,9.451
		c0.011,0.242-0.02,0.457-0.067,0.66c0.424,1.593,0.823,3.19,1.121,4.789C235.504,131.523,235.821,133.14,234.621,134.376z"/>
	<path style="fill:#F47B53;" d="M133.677,153.541c-3.817-2.48-11.935-1.523-16.33-1.326c-3.457,0.155-9.901-0.343-11.214,3.953
		c-0.892,2.92,1.058,5.951,3.163,8.272c0.26,0.62,0.565,1.237,0.917,1.86c2.115,4.258,4.735,8.524,8.167,11.771
		c-0.121,0.498-0.052,1.047,0.323,1.554c2.53,3.429,5.447,6.355,8.89,8.87c1.147,0.838,3.086,0.362,3.243-1.235
		c0.11-1.122,0.182-2.24,0.244-3.357c0.244-0.244,0.434-0.543,0.528-0.898c1.798-6.784,2.698-13.62,2.822-20.604
		C135.438,159.357,136.456,155.346,133.677,153.541z"/>
	<path style="fill:#F47B53;" d="M234.111,125.264c0.047-0.202,0.077-0.418,0.067-0.66c-0.141-3.237-0.596-6.333-1.295-9.451
		c-0.045-0.704-0.11-1.398-0.196-2.084c0.265-0.446,0.351-1.016,0.114-1.669l-0.959-2.642c-0.391-1.456-0.888-2.89-1.495-4.318
		c0.119-0.368,0.145-0.768,0.032-1.17c-0.48-1.701-1.116-2.983-2.092-4.433c-0.203-0.302-0.471-0.511-0.769-0.638
		c-0.128-0.226-0.255-0.451-0.383-0.677c-0.133-0.236-0.295-0.414-0.473-0.551c-0.445-1.388-1.072-2.617-1.968-3.798
		c-0.455-0.861-1.002-1.626-1.666-2.152c-0.068-0.192-0.137-0.385-0.234-0.578c-0.83-1.645-3.201-1.629-3.752,0.168
		c-0.475,0.157-0.914,0.502-1.241,1.036c-0.47,0.767-0.974,1.505-1.468,2.251c-0.149,0.046-0.296,0.105-0.431,0.189
		c-4.392,2.72-7.2,6.54-8.778,11.355c-0.462,0.645-0.916,1.297-1.358,1.961c-0.219,0.329-0.331,0.66-0.371,0.98
		c-1.835,2.695-3.284,5.573-4.408,8.646c-1.397,1.878-2.299,3.954-2.878,6.401c-0.188,0.796,0.376,1.849,1.148,2.135
		c4.125,1.526,8.598,1.662,12.962,2.12c0.217,0.573,0.697,1.053,1.474,1.212c2.106,0.43,4.212,0.86,6.318,1.29
		c0.587,0.141,1.173,0.286,1.757,0.439c0.247,0.248,0.565,0.448,0.973,0.552c0.646,0.166,1.292,0.333,1.938,0.499
		c1.409,0.421,2.706,0.969,4.025,1.816c0.858,0.551,1.463,1.408,2.521,1.656c1.171,0.275,2.52,0.132,3.398-0.773
		c1.2-1.236,0.884-2.853,0.611-4.323C234.934,128.454,234.535,126.857,234.111,125.264z"/>
	<path style="fill:#F47B53;" d="M356.033,188.699c-0.018,0.296-0.169-6.65-1.043-5.407c1.348-1.917,1.051-3.99-0.561-5.63
		c-1.562-1.589-3.079-1.546-4.87-1.433c-1.323-1.028,2.081-2.975,0.266-3.384c-2.858-0.644-10.038,1.611-12.783,1.259
		c-1.553-0.199-3.761,0.616-4.269,2.297c0.101-0.333-2.495,1.641-2.754,2.084c-0.422,0.72-0.512,1.461-0.592,2.185
		c-0.79,0.522-1.358,1.405-1.455,2.692c-0.031,0.295-0.063,0.59-0.094,0.884c-0.314,0.89-0.344,1.719-0.182,2.457
		c-0.121,0.115-0.246,0.212-0.366,0.334c-1.424,1.459-1.299,3.076-0.427,4.321c-0.045,0.169-0.105,0.33-0.144,0.501
		c-0.465,2.044,1.03,3.898,2.884,4.459c0.029,0.453,0.098,0.906,0.204,1.378c0.21,2.293,1.432,4.533,3.517,6.089
		c1.822,1.36,3.903,1.056,5.328-0.343c2.105,0.584,4.969-0.593,5.601-3.081c0.139-0.548,0.263-0.955,0.387-1.256
		c0.816,1.759,2.642,3.003,4.837,2.882c1.414-0.078,2.589-0.667,3.524-1.542c2.202-0.651,3.19-2.999,2.512-5.041
		C355.937,193.217,355.9,190.909,356.033,188.699z"/>
	<path style="fill:#FED181;" d="M456.589,114.988l0.622-9.958c-0.518-0.542-1.025-1.093-1.518-1.656l-5.537-3.357
		c-1.063,0.105-2.165,0.094-3.205-0.052l-83.363,1.022l-3.575,16.939l18.908,1.394l-0.667,184l-14,2.333l-1.333,10.333
		c17.721,2.894,45.328,3.194,75.088,2.929l11.245-6.263l-0.746-8.737l-14.999-1.5l1.745-183.097L456.589,114.988z"/>
	<path style="fill:#D17C16;" d="M454.274,101.676c-0.657-0.316-1.36-0.512-2.089-0.597c-0.18-0.451-0.438-0.872-0.752-1.249
		c-1.932,0.374-4.16,0.357-5.973-0.187c-0.177,0.25-0.319,0.526-0.422,0.82c-1.202-0.08-2.368-0.01-3.514,0.171
		c-0.725-0.688-1.749-1.103-3.048-0.997c-10.072,0.821-20.171,1.234-30.277,1.118c-9.463-0.109-19.321-2.881-28.689-1.143
		c-1.17,0.217-2.034,0.771-2.605,1.49c-3.701-0.125-7.401-0.251-11.102-0.376c-2.352-0.08-3.948,1.008-4.576,3.325
		c-1.008,3.713-1.324,7.301-1.195,11.135c0.098,2.911,3.9,4.505,6.169,2.896c1.193-0.034,2.367-0.567,3.115-1.682
		c6.281-0.782,12.562-1.564,18.843-2.345c2.834-0.228,5.697-0.498,8.567-0.748c0.724,0.678,1.734,1.083,3.008,0.971
		c8.354-0.737,16.771-1.521,25.143-0.603c3.276,0.359,6.451,0.866,9.605,1.032c-0.178,2.481,2.101,5.052,5.347,4.172
		c2.504-0.679,4.96-1.454,7.393-2.318c1.526,0.773,3.5,0.44,4.883-0.892c0.943,0.291,2.004,0.206,2.968-0.199
		c0.703-0.096,1.354-0.374,1.865-0.836c0.016-0.238,0.073-0.445,0.171-0.614c0.161-1.628,0.354-3.251,0.567-4.872v-2.662
		c0-0.31,0.076-0.557,0.194-0.759C456.597,104.437,455.391,103.093,454.274,101.676z"/>
	<path style="fill:#D17C16;" d="M448.33,306.937c-4.518-3.635-9.23-3.757-14.335-1.34c-0.375,0.178-0.75,0.326-1.125,0.49
		c-6.063-2.018-12.098-0.445-18.365,0.052c-5.613,0.445-11.246,0.462-16.874,0.355c-1.763-0.044-3.526-0.088-5.289-0.131
		c-2.889-0.262-5.775-0.632-8.673-1.097c-5.174-0.831-10.29-1.46-15.231,0.089c-2.163-1.365-5.438-0.78-5.979,2.577
		c-0.209,1.298-0.275,2.468-0.2,3.656c-0.009,0.049-0.025,0.092-0.032,0.143c-0.072,0.479-0.143,0.958-0.215,1.437
		c-0.323,2.158,1.174,4.208,3.325,4.577c6.442,1.104,12.954,1.598,19.49,1.387c6.71-0.217,13.339-2.248,20.008-2.259
		c3.149-0.005,6.226,0.885,9.386,0.852c3.523-0.036,6.892-0.654,10.439-0.466c3.723,0.198,7.309,0.577,10.83,0.113
		c1.043,0.748,2.406,1.049,3.716,0.52c0.493-0.199,5.816-3.887,4.937-4.217C448.241,315.213,452.02,309.906,448.33,306.937z"/>
	<path style="fill:#3EC2B9;" d="M820.717,255.686c-0.024-0.626-0.055-1.231-0.091-1.807c-0.119-1.925-0.685-3.491-1.55-4.719
		c-3.24-9.461-10.667-18.228-20.99-18.398c-0.459-0.348-0.951-0.678-1.503-0.975c-6.33-3.407-12.874-6.228-19.697-8.49
		c-1.569-0.52-3.196-0.731-4.76-0.615c-9.318-3.165-18.737-6.029-28.245-8.572c-0.885-1.521-2.214-3.287-4.499-3.72
		c-34.616-6.56-54.94-21.876-84.709-19.906c-0.865,0.057-1.649,0.214-2.372,0.44c-10.245-1.805-25.886,8.088-33.589,12.685
		c-6.75,4.028-13.416,7.856-20.745,10.755c-7.58,2.998-15.397,5.367-22.92,8.513c-7.107,2.972-21.157,8.258-22.667,16.843
		c-0.235,1.337-0.223,2.618-0.018,3.828c-0.448,3.515-0.428,6.991,0.368,10.462c0.756,3.299,2.565,6.125,5.39,7.485
		c0.89,0.899,1.867,1.75,2.95,2.532c1.244,0.899,2.466,1.709,3.652,2.498c0.016,0.962,0.179,1.953,0.532,2.961
		c2.109,6.015,4.553,11.871,7.288,17.591c0.226,0.569,0.461,1.135,0.695,1.701c1.266,6.133,3.56,11.969,6.788,17.349
		c0.755,6.933,7.735,10.902,13.699,13.252c5.753,2.266,11.665,4.158,17.45,6.348c5.995,2.27,11.952,4.641,17.874,7.095
		c0.888,1.068,1.998,1.984,3.288,2.668c6.011,3.182,12.19,5.957,18.562,8.334c1.527,0.57,3.13,0.792,4.679,0.676
		c17.543,7.995,34.846,15.665,53.34,20.789c9.533,3.698,28.058,11.306,36.737,4.48c1.901,0.106,3.927-0.464,5.895-1.994
		c4.992-3.88,9.821-7.96,14.495-12.211c1.585-0.118,3.164-0.735,4.594-2.026c2.818-2.544,5.636-5.089,8.455-7.633
		c0.369-0.305,0.734-0.619,1.094-0.943c0.513-0.433,1.02-0.873,1.537-1.301c0.489-0.335,0.977-0.67,1.466-1.006
		c0.79-0.542,1.436-1.138,1.977-1.767c0.981-0.777,1.954-1.562,2.947-2.323c0.359-0.181,0.719-0.38,1.078-0.612
		c5.273-3.391,9.25-7.614,12.242-12.387c4.287-1.048,7.241-6.114,6.774-10.298c-0.137-1.231-0.485-2.319-0.984-3.28
		c2.56-9.367,3.065-19.607,3.023-29.344c5.129-1.259,7.86-5.609,9.239-10.765c0.496-1.197,0.768-2.464,0.765-3.766
		c0.389-2.623,0.522-5.3,0.518-7.777c0.027-0.418,0.037-0.845,0.015-1.29L820.717,255.686z M789.225,264.697
		c-0.36-0.006-0.225-0.033-1.225-0.043c0,0.006,0,0.012,0,0.018c0-0.008-0.064-0.021-0.173-0.03
		c-0.067,0.055-0.059,0.11-0.126,0.164c-6.486,6.456-13.487,12.156-21.252,17.016c-0.19,0.119-0.366,0.208-0.561,0.291
		l-12.279,9.953c-1.381,1.119-2.837,1.083-3.995,0.423c-0.211,0.037-0.417,0.053-0.622,0.053c-0.372,0.986-1.083,1.837-2.137,2.254
		c-3.619,1.433-7.141,1.79-10.719,1.22c-1.414-0.126-2.833-0.489-4.292-1.101c-0.411-0.172-0.742-0.392-1.038-0.628
		c-1.948-0.277-3.886-0.602-5.812-0.989c-0.341-0.011-0.683-0.049-1.021-0.153c-0.27-0.083-0.542-0.158-0.813-0.24
		c-4.386-0.965-8.715-2.213-12.988-3.73c-0.842-0.23-1.682-0.468-2.525-0.693c-1.002,0.722-2.314,1.043-3.767,0.553l-16.589-5.652
		c-0.287-0.098-0.54-0.224-0.77-0.369c-14.242-5.057-28.385-10.385-42.415-16.011c-0.376-0.151-0.685-0.353-0.963-0.575
		c-2.045-0.866-4.079-1.761-6.101-2.685c-5.482-1.232-10.613-3.204-15.532-5.87c-0.124-0.019-0.248-0.041-0.372-0.06
		c-1.057-0.157-1.826-0.63-2.359-1.259c-1.534-0.151-3.081-0.252-4.642-0.29c-1.633-0.04-2.605-0.867-3.017-1.969
		c-5.02-0.103-5.899-7.943-0.799-7.943c0.224,0,0.429,0.033,0.637,0.063c0.358-0.319,0.802-0.589,1.35-0.784
		c5.461-1.94,9.93-6.054,15.043-8.746c3.95-2.079,8.047-3.892,12.139-5.696c2.42-2.003,4.893-3.943,7.435-5.805
		c1.367-1.001,2.931-0.893,4.178-0.194c0.164-0.107,0.323-0.22,0.488-0.327c1.045-0.678,2.102-0.822,3.046-0.619
		c0.949-0.436,1.899-0.87,2.853-1.29c0.297-1.437,1.368-2.603,3.332-2.603c0.373,0,0.712,0.061,1.037,0.143
		c0.025-0.054,0.056-0.106,0.08-0.16c0.104,0.038,0.209,0.073,0.313,0.111c0.568-0.185,1.151-0.209,1.713-0.082
		c2.897-0.896,5.81-1.07,8.372,0.61c0.088,0.025,0.171,0.034,0.26,0.064c0.27,0.092,0.535,0.194,0.804,0.288
		c6.811,1.036,13.541,2.479,20.173,4.406c7.843,2.279,15.322,6.133,23.533,6.62c3.861,0.229,7.13,0.674,10.643,2.356
		c3.34,1.6,6.327,3.976,9.939,4.986c4.027,1.126,8.504,1.432,10.99,4.667c7.299,1.905,14.315,4.619,20.992,8.188
		c0.588-0.044,1.22,0.031,1.891,0.289c5.833,2.24,11.693,3.482,17.918,3.93C793.971,257.094,793.695,264.773,789.225,264.697z"/>
	<path style="fill:#FEB63F;" d="M789.556,256.77c-6.225-0.448-12.161-1.69-17.994-3.93c-0.671-0.257-1.303-0.332-1.891-0.289
		c-6.678-3.569-13.693-6.283-20.992-8.188c-2.486-3.236-6.963-3.541-10.99-4.667c-3.612-1.01-6.598-3.386-9.939-4.986
		c-3.512-1.682-6.782-2.127-10.643-2.356c-8.211-0.487-15.69-4.341-23.533-6.62c-6.632-1.927-13.362-3.37-20.173-4.406
		c-0.269-0.094-0.534-0.196-0.804-0.288c-0.089-0.03-0.172-0.039-0.26-0.064c-2.562-1.68-5.475-1.505-8.372-0.61
		c-0.562-0.126-1.145-0.103-1.713,0.082c-0.083,0.027-0.166,0.047-0.248,0.081c-0.047-0.013-0.098-0.02-0.145-0.032
		c-0.325-0.082-0.664-0.143-1.037-0.143c-1.964,0-3.035,1.166-3.332,2.603c-0.954,0.42-1.904,0.854-2.853,1.29
		c-0.944-0.204-2-0.059-3.046,0.619c-0.164,0.107-0.324,0.22-0.488,0.327c-1.246-0.699-2.811-0.807-4.178,0.194
		c-2.542,1.862-5.016,3.802-7.435,5.805c-4.092,1.804-8.189,3.617-12.139,5.696c-5.113,2.691-9.582,6.805-15.043,8.746
		c-0.548,0.195-0.992,0.465-1.35,0.784c-0.208-0.029-0.413-0.063-0.637-0.063c-5.1,0-4.221,7.84,0.799,7.943
		c0.413,1.102,1.385,1.929,3.017,1.969c1.561,0.038,3.107,0.138,4.642,0.29c0.533,0.629,1.302,1.102,2.359,1.259
		c0.125,0.019,0.248,0.041,0.372,0.06c4.92,2.666,10.051,4.638,15.532,5.87c2.022,0.924,4.056,1.819,6.101,2.685
		c0.278,0.222,0.587,0.424,0.963,0.575c14.03,5.626,28.173,10.954,42.415,16.011c0.23,0.144,0.483,0.271,0.77,0.369l16.589,5.652
		c1.453,0.489,2.765,0.168,3.767-0.553c0.843,0.226,1.683,0.463,2.525,0.693c4.273,1.517,8.602,2.765,12.988,3.73
		c0.27,0.082,0.543,0.157,0.813,0.24c0.337,0.103,0.679,0.141,1.021,0.153c1.925,0.387,3.864,0.712,5.812,0.989
		c0.296,0.237,0.627,0.456,1.039,0.628c1.46,0.613,2.879,0.975,4.293,1.101c3.578,0.571,7.101,0.214,10.72-1.22
		c1.054-0.417,1.766-1.268,2.138-2.254c0.205,0,0.414-0.016,0.625-0.053c1.159,0.66,2.619,0.695,4-0.423l12.288-9.953
		c0.196-0.083,0.391-0.172,0.581-0.291c7.765-4.86,14.803-10.56,21.29-17.016c0.067-0.055-0.018-0.11,0.05-0.164
		c0.109,0.008,0.173,0.022,0.173,0.03c0-0.006,0-0.012,0-0.018c1,0.01,0.865,0.037,1.225,0.043
		C793.695,264.773,794.048,257.094,789.556,256.77z"/>
	<path style="fill:#FEB63F;" d="M536.853,161.346c-0.145-1.261-0.543-2.464-1.491-3.361c-0.015-0.021-0.028-0.043-0.043-0.064
		c-0.08-0.25-0.164-0.501-0.288-0.754c-0.68-1.386-2.093-2.476-3.732-3.117c0.237-2.254,0.477-9.142-2.5-9.142
		c-2.582,0-5.41,6.202-5.167,8.201c-2.92-0.322-5.775,0.477-7.896,2.598c-1.302,1.302-2.179,3.063-2.172,4.785
		c-0.213,0.949-0.271,1.92-0.15,2.848c-0.122,0.771-0.095,1.579,0.121,2.403c0.08,0.306,0.197,0.59,0.318,0.87
		c-0.459,1.827,0.39,4.106,2.156,4.967c1.928,0.94,3.986,1.286,6.015,1.034c1.121,0.113,2.323,0.106,3.514-0.029
		c0.145,0.041,0.29,0.078,0.435,0.102c1.864,0.308,3.727-0.148,5.343-1.074C535.385,170.607,538.281,165.28,536.853,161.346z"/>
	<path style="fill:#EA5B33;" d="M592.682,125.238c-0.477-0.378-1.068-0.571-1.681-0.585c-0.774-0.684-1.549-1.368-2.323-2.052
		c-1.1-1.063-2.241-2.089-3.464-3.06c-0.588-0.467-1.197-0.669-1.779-0.683c-1.187-0.749-2.425-1.421-3.707-2.019
		c-2.973-1.984-6.21-3.347-9.591-4.324c-5.057-3.846-11.066-5.306-17.313-5.742c-0.037-1.279-0.798-2.46-2.443-2.584
		c-9.035-0.684-14.206-2.039-22.833,0.136c-0.667,0.667-4.55,1.657-5.063,1.603c-1.402-0.147-2.677-0.067-3.852,0.241
		c-5.041,0.786-7.203,2.123-10.585,6.156c-1.235,1.473-2.729,4.977-1.271,5.859c-0.306,0.382-0.522,0.833-0.594,1.329
		c-0.509,3.542-0.607,6.994-0.312,10.56c0.089,1.068,0.778,1.861,1.657,2.284c0.014,0.267-1.075,1.378-0.98,1.634
		c0.071,0.191,0.16,0.366,0.236,0.553c0.051,0.674,0.34,1.358,0.95,1.962c1.545,2.738,4.894,4.015,7.768,5.445
		c0.632,0.598,1.264,1.197,1.895,1.795c0.026,0.141,0.057,0.28,0.098,0.414c0.69,2.244,2.909,3.141,5.123,3.184
		c1.725,0.034,3.195-0.634,4.789-1.185c0.967-0.334,1.598-0.571,2.054-0.653c0.406,0.203,0.819,0.398,1.236,0.589
		c0.243,0.373-0.728,2.944-0.316,3.73c1.672,3.191,4.113,1.56,7.794,2.086c4.668,0.667,6.667,0.316,11.373,0.581
		c9.24,0.52,25.667,1.667,40.127-7.06c1.096-0.249,2.04-1.024,2.172-2.36c0.26-2.626,0.519-5.252,0.779-7.877
		c0.002-0.017-0.002-0.031-0.001-0.048c1.104-0.117-0.384-3.691,0.423-4.821C593.882,129.158,596.019,126.297,592.682,125.238z
		 M558.479,135.878c-0.408-0.56-1.028-0.978-1.86-1.105c-14.216-2.166-29.129-4.617-40.86-13.17
		c0.426-0.298,0.857-0.578,1.287-0.862c0.863-0.351,1.698-0.734,2.518-1.139c0.102-0.035,0.2-0.055,0.304-0.102
		c22.578-10.101,46.007,0.858,65.047,13.493c-7.209,1.979-14.541,3.23-21.957,3.799
		C561.465,136.418,559.974,136.114,558.479,135.878z"/>
	<path style="fill:#C6EEEB;" d="M594.308,402.706c-0.1-0.113-0.288-0.093-0.433-0.138c-0.118-0.123-0.234-0.249-0.353-0.371
		c0.003-0.003,0.005-0.005,0.008-0.008c-0.035-0.031-0.07-0.062-0.105-0.094c-2.386-2.431-4.952-4.628-7.675-6.56
		c-3.12-2.49-6.334-4.782-9.715-6.803c-0.148-0.734-0.297-1.468-0.445-2.201c-0.022-0.362-0.067-0.727-0.158-1.09l-0.113-0.452
		c0.364-0.902,0.386-1.957,0.113-3.048l-1.5-6c-0.172-0.687-0.624-1.247-1.2-1.673c-0.124-1.065-0.116-2.15,0.024-3.232
		c0.66-5.097-7.239-6.369-7.902-1.251c-0.432,3.336-0.078,6.532,0.965,9.569c0.025,0.331,0.076,0.664,0.159,0.995
		c0.212,0.849,0.424,1.698,0.636,2.547c-4.722-2.455-9.547-4.694-14.518-6.613c-5.459-2.108-11.995-5.288-17.675-2.34
		c-0.585-0.044-1.175-0.054-1.778,0.01h-2c-0.199,0.015-0.391,0.051-0.585,0.081c-0.467-0.048-0.938-0.081-1.415-0.081
		c-0.287,0-0.568,0.024-0.846,0.059c-0.086,0.011-0.17,0.026-0.254,0.04c-0.198,0.033-0.392,0.074-0.585,0.124
		c-0.086,0.022-0.173,0.042-0.259,0.067c-0.247,0.074-0.491,0.158-0.728,0.258c-0.093,0.039-0.183,0.087-0.274,0.13
		c-0.148,0.07-0.296,0.142-0.44,0.221c-0.118,0.065-0.234,0.133-0.349,0.204c-0.11,0.068-0.218,0.141-0.326,0.214
		c-0.306,0.209-0.602,0.435-0.883,0.684c-0.019,0-0.038-0.002-0.057-0.002c-1.304,0-2.518,0.378-3.598,1.014
		c-0.134-0.004-0.267-0.014-0.402-0.014c-2.354,0-4.413,1.228-5.911,3.003c-0.03,0-0.059-0.003-0.089-0.003
		c-4.376,0-7.751,4.223-8.332,8.375c-2.133,2.125-3.363,5.324-3.05,8.129c0.002,0.019,0.007,0.037,0.009,0.056
		c-2.71,2.042-4.366,5.743-4.009,8.944c0.494,4.428,3.274,9.358,7.11,10.272c2.256,3.157,5.393,3.163,8.918,4.815
		c0.636,0.298,1.284,0.505,1.934,0.639c0.852,1.79,2.363,3.253,4.627,3.987c6.355,2.058,17.778,4.279,26.845,2.826
		c5.785,1.631,12.576,2.578,18.235,1.289c4.747,1.283,9.592,0.596,14.121-1.697c3.591-1.818,7.849-4.921,11.389-6.785
		C601.706,415.395,602.039,411.395,594.308,402.706z"/>
</g>
<g id="Line">
	<path style="fill:#704C29;" d="M479.107,394.338c6.488-0.006,12.931-0.611,19.359-1.443c1.353-0.175,2.482-0.583,3.091-1.91
		c5.359-11.67,15.373-16.583,27.265-18.746c7.064-1.285,13.975-0.998,20.751,1.701c3.632,1.447,7.44,2.448,11.133,3.748
		c1.423,0.501,1.962,0.298,1.672-1.29c-0.287-1.572-0.552-3.146-0.088-4.751c0.717-2.48,2.155-4.297,4.691-5.004
		c2.417-0.673,4.439,0.228,6.034,2.016c3.549,3.977,4.405,8.908,3.97,13.902c-0.274,3.143,0.449,5.091,2.853,7.142
		c5.832,4.973,11.554,10.11,16.951,15.547c5.859,5.901,5.888,6.156,0.763,12.666c-2.735,3.474-6.226,5.97-10.449,7.76
		c-10.68,4.528-21.537,6.303-33.209,5.477c-12.812-0.906-25.546-1.54-37.645-6.337c-7.41-2.938-13.291-7.866-18.124-14.131
		c-1.146-1.486-1.576-2.947-0.943-4.883c0.766-2.341,1.044-4.836,1.63-7.241c0.642-2.634,0.53-2.803-2.108-2.484
		c-7.629,0.921-15.28,1.596-22.969,1.245c-6.023-0.275-11.92-1.234-17.4-4.001c-3.355-1.694-6.233-3.96-8.349-7.045
		c-5.34-7.786-8.601-16.325-7.888-25.885c0.713-9.562,7.445-19.422,22.302-16.337c2.845,0.591,5.504,1.706,7.96,3.25
		c5.073,3.191,5.693,8.489,1.506,12.73c-1.989,2.014-4.316,3.568-6.923,4.659c-1.006,0.421-2.309,1.017-2.989-0.317
		c-0.744-1.459,0.669-1.88,1.627-2.39c2.265-1.208,4.495-2.471,6.258-4.382c2.341-2.537,2.151-5.474-0.721-7.371
		c-5.11-3.376-10.74-4.565-16.719-2.936c-4.92,1.341-9.023,7.33-9.273,13.405c-0.376,9.165,2.551,17.348,8.014,24.585
		c4.318,5.72,10.75,7.449,17.437,8.497C472.069,394.332,475.584,394.394,479.107,394.338z M562.482,428.311
		c5.028,0.216,9.902-0.647,14.592-2.355c6.064-2.207,12.397-3.899,17.454-8.243c4.148-3.563,4.218-6.201,0.255-9.855
		c-5.811-5.359-11.437-10.945-17.526-15.968c-6.289-5.188-13.173-9.589-20.982-12.292c-2.944-1.019-5.892-2.028-8.842-3.03
		c-12.712-4.316-24.521-1.817-35.334,5.411c-3.864,2.583-7.507,6.066-7.553,11.531c-0.006,0.69-0.576,1.113-1.161,1.425
		c-0.751,0.4-1.188,1.038-1.456,1.824c-1.057,3.099-2.086,6.202-2.814,9.405c-0.38,1.672,0.078,2.867,1.253,4.08
		c7.386,7.625,16.225,12.457,26.601,14.848C538.692,427.794,550.621,427.552,562.482,428.311z M574.364,381.022
		c-0.471-3.095-0.744-6.401-2.513-9.272c-0.95-1.543-2.261-2.874-4.334-2.191c-1.954,0.644-2.503,2.288-2.526,4.193
		c-0.055,4.561,2.964,8.8,7.396,10.484c1.053,0.4,1.506,0.101,1.662-0.915C574.158,382.612,574.245,381.899,574.364,381.022z"/>
	<path style="fill:#704C29;" d="M535.535,390.99c-0.083-3.261,1.064-6.031,4.157-7.171c3.475-1.281,7.081-1.171,10.196,1.316
		c1.581,1.262,2.699,2.915,3.66,4.684c1.059,1.949,1.91,3.986,3.142,5.873c1.93,2.956-0.501,10.51-3.643,12.181
		c-0.968,0.515-1.983,0.549-3.026,0.399c-4.337-0.622-7.876-2.753-10.372-6.252C537.327,398.764,535.619,395.14,535.535,390.99z
		 M538.516,390.961c-0.009,5.508,4.38,11.782,9.49,13.563c3.012,1.05,4.006,0.622,5.237-2.254c1.838-4.295-2.21-14.103-6.534-15.832
		C542.073,384.585,538.523,386.544,538.516,390.961z"/>
	<path style="fill:#704C29;" d="M563.189,406.309c-0.217,1.374-1.159,2.013-2.483,2.04c-1.39,0.028-2.359-0.668-2.273-2.152
		c0.087-1.499,1.247-1.97,2.54-1.948C562.211,404.27,563.106,404.857,563.189,406.309z"/>
	<path style="fill:#704C29;" d="M587.586,411.93c-0.065,1.06-0.626,1.705-1.625,1.744c-1.041,0.041-1.945-0.389-1.929-1.604
		c0.014-1.112,0.719-1.774,1.84-1.75C586.87,410.34,587.445,410.959,587.586,411.93z"/>
	<path style="fill:#704C29;" d="M576.902,393.818c0.93,0.176,1.409,0.766,1.348,1.678c-0.058,0.865-0.708,1.262-1.492,1.223
		c-0.954-0.048-1.431-0.701-1.334-1.625C575.509,394.278,576.078,393.862,576.902,393.818z"/>
	<path style="fill:#704C29;" d="M533.789,152.45c0.654,0.728,0.776,0.951,0.965,1.061c3.879,2.26,5.701,5.644,4.914,10.053
		c-0.783,4.39-3.026,7.843-7.421,9.588c-4.23,1.68-8.639,1.853-12.996,1.196c-6.503-0.98-9.9-7.871-7.82-15.244
		c1.512-5.357,4.825-7.844,10.58-7.829c0.892,0.002,1.547,0.041,1.795-1.021c0.245-1.052-0.094-1.66-1.08-2.056
		c-5.004-2.01-8.971-5.517-12.791-9.159c-1.114-1.062-2.805-1.163-3.603-2.603c-1.059-1.909-1.779-3.77-1.553-6.112
		c0.546-5.644,0.768-11.319,1.115-16.982c0.034-0.558-0.069-1.208,0.442-1.555c3.049-2.069,5.447-4.855,9.364-5.937
		c7.141-1.971,14.209-3.621,21.683-3.24c12.827,0.654,25.165,3.197,36.757,8.913c6.103,3.01,12.02,6.302,17.529,10.337
		c2.635,1.93,3.963,4.007,3.324,7.451c-1.049,5.653-2.147,11.311-2.669,17.053c-0.077,0.844-0.403,1.403-1.351,1.72
		c-11.393,3.804-23.019,5.966-35.092,5.488C548.712,153.289,541.516,153.696,533.789,152.45z M551.95,150.744
		c2.878,0,5.755-0.007,8.633,0.001c9.534,0.026,18.729-1.86,27.717-4.911c1.142-0.388,2.331-0.716,2.518-2.212
		c0.375-3.012,0.749-6.023,1.161-9.03c0.205-1.498-0.548-1.628-1.698-1.302c-1.69,0.478-3.355,1.095-5.076,1.406
		c-14.057,2.545-28.174,2.742-42.202,0.103c-12.381-2.329-23.403-7.859-33.243-15.726c-0.363-0.29-0.651-0.802-1.185-0.671
		c-0.607,0.15-0.5,0.746-0.517,1.197c-0.167,4.392-0.317,8.784-0.472,13.176c-0.03,0.838,0.16,1.606,0.842,2.148
		c4.618,3.673,8.878,7.831,14.316,10.389c1.489,0.701,2.544,0.86,3.601-0.793c0.846-1.324,2.428-2.016,3.998-1.496
		c1.726,0.572,1.498,2.238,1.446,3.682c-0.011,0.318-0.021,0.654-0.126,0.948c-0.726,2.03,0.322,2.391,2.084,2.562
		C539.806,150.804,545.874,150.868,551.95,150.744z M535.421,105.24c-7.775-0.914-14.849,1.997-22.109,3.802
		c-1.36,0.338-2.388,1.25-3.437,2.123c-1.514,1.261-1.602,2.657-0.477,4.202c1.143,1.571,2.661,2.736,4.146,3.958
		c1.604,1.321,2.975,1.405,4.959,0.467c11.165-5.281,22.79-6.412,34.789-3.307c10.83,2.802,20.37,8.321,29.78,14.116
		c1.945,1.197,7.32,0.89,9.037-0.591c0.339-0.292,0.549-0.766,0.739-1.192c1.055-2.356-0.824-3.35-2.214-4.428
		c-5.14-3.986-10.888-6.938-16.681-9.855C561.8,108.414,548.819,105.936,535.421,105.24z M564.08,133.883
		c4.962,0.043,9.904-0.202,14.819-0.883c0.515-0.072,1.253,0.112,1.414-0.597c0.161-0.709-0.571-0.873-1.016-1.144
		c-9.103-5.553-18.456-10.623-28.964-12.955c-10.419-2.313-20.638-1.12-30.59,2.604c-0.564,0.211-1.42,0.301-1.429,1.075
		c-0.007,0.59,0.717,0.792,1.206,1.039c5.351,2.688,10.616,5.577,16.379,7.337C545.087,133.163,554.552,133.795,564.08,133.883z
		 M523.169,171.619c3.544-0.088,6.568-0.673,8.643-1.671c2.868-1.379,5.048-5.16,4.838-8.484c-0.215-3.402-2.588-4.863-5.375-6.045
		c-1.735-0.736-2.686-0.262-3.321,1.426c-0.446,1.184-0.92,2.626-2.587,2.295c-1.624-0.322-1.856-1.836-2.036-3.188
		c-0.384-2.89-0.354-2.895-3.196-2.066c-0.306,0.089-0.609,0.193-0.913,0.289c-3.804,1.196-5.377,3.412-5.605,7.892
		c-0.24,4.724,1.232,7.434,4.835,8.972C519.976,171.691,521.572,171.63,523.169,171.619z M526.436,153.49
		c1.212-1.905,2.067-3.954,2.56-6.156c0.067-0.298-0.002-0.674-0.398-0.713c-0.191-0.019-0.531,0.125-0.587,0.275
		C527.227,149.014,525.584,150.918,526.436,153.49z"/>
	<path style="opacity:0.5;fill:#C6EEEB;" d="M700.5,304.786c-41.144-15.129-80.971-33.615-119.084-55.275
		c-3.361-1.91-5.812,3.572-2.481,5.465c38.113,21.659,77.94,40.146,119.084,55.275C701.628,311.578,704.127,306.119,700.5,304.786z"
		/>
	<path style="opacity:0.5;fill:#C6EEEB;" d="M599.504,217.736c-5.333,3.333-10.667,6.667-16,10c-3.28,2.05,0.264,6.893,3.527,4.854
		c5.333-3.333,10.667-6.667,16-10C606.311,220.54,602.767,215.698,599.504,217.736z"/>
	<path style="opacity:0.5;fill:#C6EEEB;" d="M784.279,272.263c-7.315,7.63-15.303,15.951-24.398,21.467
		c-8.284,5.026-17.854,7.493-27.038,10.305c-3.692,1.13-1.501,6.718,2.181,5.591c9.729-2.978,19.625-5.698,28.384-11.041
		c9.489-5.788,17.857-14.533,25.514-22.52C791.601,273.271,786.936,269.492,784.279,272.263z"/>
	<path style="fill:#704C29;" d="M657.038,187.162c10.317-0.36,19.449,2.077,28.532,4.65c33.481,9.484,66.685,19.839,99.319,31.956
		c6.298,2.339,12.501,4.907,18.545,7.864c11.833,5.79,17.168,15.604,18.175,28.373c0.562,7.122-1.576,13.042-6.66,17.968
		c-0.774,0.75-1.228,1.62-1.421,2.697c-1.979,11.02-3.647,22.079-4.412,33.259c-0.096,1.401-0.66,2.586-1.449,3.742
		c-5.179,7.587-11.55,14.055-18.506,19.997c-8.274,7.068-16.858,13.743-25.415,20.461c-4.993,3.92-10.396,7.159-15.699,10.561
		c-3.06,1.963-6.662,2.402-10.375,2.327c-10.518-0.212-20.461-2.649-30.393-6.106c-37.599-13.088-73.864-29.326-110.039-45.801
		c-4.29-1.954-8.519-4.051-12.713-6.206c-2.828-1.454-4.317-3.835-5.336-6.96c-2.902-8.9-6.903-17.384-10.648-25.958
		c-2.209-5.057-4.288-10.161-6.066-15.395c-0.904-2.661-2.825-4.66-5.638-5.411c-2.255-0.602-3.218-2.052-3.683-4.197
		c-0.742-3.428-2.176-6.672-2.523-10.222c-0.638-6.532,2.14-11.328,7.427-14.765c6.587-4.282,13.782-7.452,20.789-10.955
		c18.888-9.443,38.174-18.04,57.271-27.033C643.202,188.671,650.153,186.979,657.038,187.162z M818.537,261.822
		c0.737-8.895-2.647-15.922-7.529-22.407c-1.466-1.947-3.401-3.381-5.628-4.367c-2.412-1.069-4.839-2.111-7.296-3.07
		c-27.582-10.763-55.617-20.204-83.98-28.674c-15.164-4.528-30.121-9.988-45.762-12.574c-8.7-1.439-17.385-2.555-26.339,1.7
		c-17.543,8.336-35.328,16.192-52.863,24.569c-9.379,4.481-18.925,8.644-27.997,13.729c-4.73,2.651-8.151,6.507-8.012,12.433
		c0.103,4.385,1.703,8.438,2.974,12.557c0.327,1.059,1.17,1.681,2.082,2.225c3.227,1.923,6.378,3.987,9.686,5.759
		c30.385,16.279,60.846,32.401,92.375,46.413c21.357,9.491,42.878,18.509,65.454,24.762c2.113,0.585,4.167,0.728,6.378,0.456
		c8.79-1.081,16.107-5.883,22.69-10.835c19.931-14.995,39.385-30.642,57.26-48.145C816.383,272.091,819.847,267.854,818.537,261.822
		z M565.623,265.247c0.49,2.684,1.488,4.507,2.308,6.379c5.394,12.302,11.246,24.415,15.395,37.231
		c0.432,1.335,1.379,2.077,2.562,2.684c5.269,2.705,10.725,4.998,16.128,7.414c38.705,17.309,77.601,34.136,117.89,47.513
		c5.882,1.953,11.847,3.309,18.107,3.031c3.529-0.157,6.805-1.048,9.672-3.124c6.089-4.409,12.234-8.751,18.178-13.35
		c12.588-9.738,25.214-19.434,36.271-30.987c2.54-2.654,3.717-5.517,3.998-9.135c0.748-9.643,1.66-19.28,4.08-28.695
		c0.183-0.712,0.523-1.485-0.088-2.343c-0.422,0.338-0.75,0.552-1.021,0.823c-6.176,6.169-12.742,11.911-19.495,17.423
		c-11.021,8.995-21.568,18.612-33.581,26.331c-4.099,2.634-8.413,4.934-12.634,7.378c-7.033,4.072-14.344,5.091-22.038,2.018
		c-0.888-0.355-1.816-0.632-2.747-0.856c-10.68-2.576-20.982-6.32-31.156-10.381c-36.904-14.727-72.284-32.653-107.273-51.385
		C575.474,270.696,570.814,268.091,565.623,265.247z"/>
	<path style="fill:#704C29;" d="M660.163,209.327c0.823,2.555,1.711,5.092,2.44,7.674c0.357,1.263,0.992,1.7,2.242,1.462
		c3.156-0.601,6.086-0.45,8.866,1.623c1.804,1.345,4.196,0.616,6.335,0.69c1.282,0.044,2.586-0.038,3.607,0.953
		c0.405,0.393,0.827,0.818,0.608,1.453c-0.222,0.644-0.808,0.797-1.373,0.699c-4.298-0.744-9.1,0.716-12.742-2.966
		c-0.624-0.631-1.653-0.519-2.528-0.583c-5.692-0.415-10.544,1.601-14.812,5.209c-1.435,1.213-2.909,2.226-4.853,2.399
		c-0.539,0.048-1.167,0.213-1.564,0.549c-2.954,2.507-6.755,3.768-9.705,6.014c-3.879,2.952-8.501,3.514-12.575,5.6
		c-0.927,0.475-1.927,0.745-2.565,1.642c-0.092,0.13-0.196,0.345-0.308,0.354c-4.425,0.38-5.848,5.95-10.463,6.044
		c-0.781,0.016-1.472,0.558-2.034,1.175c-1.804,1.982-1.674,2.672,0.823,3.718c17.567,7.354,35.745,13.058,53.538,19.807
		c22.52,8.542,45.449,15.806,68.843,21.612c7.712,1.914,14.531,0.792,21.217-3.474c12.848-8.197,25.169-17.034,36.031-27.777
		c1.022-1.011,3.005-2.023,2.425-3.474c-0.535-1.338-2.955-2.094-4.14-1.859c-4.191,0.83-7.441-2.211-11.341-2.208
		c-0.698,0.001-1.582-0.081-2.067-0.494c-4.454-3.792-10.244-4.353-15.378-6.484c-0.669-0.278-1.421-0.652-1.213-1.539
		c0.216-0.923,1.075-0.786,1.787-0.773c1.138,0.02,2.342,0.158,3.207,0.842c2.121,1.676,4.605,2.019,7.134,2.371
		c0.775,0.108,1.737,0.251,2.235,0.754c3.676,3.715,8.97,2.989,13.356,4.786c2.052,0.841,4.753,0.876,7.076,1.687
		c1.474,0.515,2.193-0.216,2.73-1.509c2.056-4.946,0.231-10.266-4.918-13.36c2.833,0.289,4.732,1.409,5.957,3.542
		c1.9,3.309,1.802,6.791,1.091,10.452c-0.78,4.016-3.763,6.362-6.322,8.953c-10.913,11.045-23.396,20.099-36.579,28.217
		c-2.228,1.372-4.117,3.336-6.783,3.973c-4.923,1.176-9.85,0.657-14.776,0.053c-4.15-0.509-8.086-1.907-12.085-3.021
		c-33.931-9.459-66.787-22.071-99.814-34.172c-8.41-3.081-16.62-6.685-24.506-10.97c-2.676-1.454-5.261-3.075-7.348-5.333
		c-0.594-0.643-2.002-1.764,0.424-1.851c0.364-0.013,0.53-0.271,0.627-0.607c1.312-4.568,5.131-6.807,8.754-9.087
		c5.141-3.237,10.47-6.175,15.686-9.295c8.442-5.05,16.848-10.161,25.3-15.192c0.794-0.473,1.922-1.761,2.634-0.698
		c0.597,0.892-0.861,1.692-1.641,2.309c-7.308,5.78-15.492,10.19-23.479,14.903c-5.578,3.292-11.254,6.417-16.853,9.674
		c-2.631,1.531-5.131,3.265-7.199,5.542c-2.248,2.475-2.027,4.295,0.782,6.058c3.054,1.917,6.304,3.462,9.557,5.007
		c1.26,0.598,2.022,0.542,2.609-0.87c0.93-2.236,2.663-3.522,5.089-3.887c0.533-0.08,1.326-0.259,1.499-0.628
		c1.985-4.226,6.907-4.292,9.97-7.067c1.53-1.386,4.039-1.842,6.193-2.345c2.03-0.474,3.771-1.296,5.243-2.702
		c1.524-1.455,3.419-2.141,5.4-2.348c1.331-0.139,2.24-0.524,2.957-1.63c1.421-2.19,3.334-3.603,6.062-3.786
		c0.67-0.045,1.434-0.389,1.943-0.837c2.84-2.495,6.173-3.975,9.799-4.802c1.58-0.361,1.924-0.902,1.24-2.446
		C660.451,214.653,659.654,212.138,660.163,209.327z"/>
	<path style="fill:#704C29;" d="M660.951,203.199c2.658-0.893,5.302-0.609,7.848-0.04c30.34,6.788,60.814,13.107,89.759,24.916
		c4.591,1.873,9.082,3.975,13.445,6.34c0.553,0.3,1.081,0.645,1.529,1.19c-9.072-3.487-17.958-7.439-27.21-10.433
		c-9.356-3.027-18.77-5.86-28.285-8.339c-9.435-2.459-18.881-4.882-28.367-7.133C680.123,207.435,670.823,204.054,660.951,203.199z"
		/>
	<path style="fill:#704C29;" d="M712.853,229.974c2.29,0.133,4.917,0.341,6.978,2.337c0.576,0.558,1.297,0.579,2.022,0.456
		c3.533-0.6,6.621,0.303,9.358,2.611c0.591,0.499,1.411,0.724,2.122,1.082c0.534,0.27,0.964,0.657,0.802,1.307
		c-0.164,0.657-0.758,0.755-1.333,0.785c-1.268,0.066-2.36-0.415-3.285-1.222c-2.339-2.04-4.959-2.762-8.003-1.965
		c-1.009,0.264-2.201,0.402-2.894-0.562c-1.66-2.311-4.139-2.457-6.595-2.762c-1.14-0.141-3.058,0.167-3.041-1.088
		c0.019-1.349,1.906-0.842,3.028-0.978C712.169,229.957,712.331,229.974,712.853,229.974z"/>
	<path style="fill:#704C29;" d="M705.344,231.913c-0.611-0.199-1.584-0.375-2.423-0.811c-3.766-1.958-7.683-3.509-11.733-4.78
		c-1.275-0.4-3.362-0.985-2.743-2.66c0.602-1.631,2.347-0.286,3.596-0.064c5.186,0.924,9.563,3.985,14.526,5.499
		c0.822,0.251,1.482,0.836,1.204,1.78C707.48,231.866,706.647,232.151,705.344,231.913z"/>
	<path style="fill:#704C29;" d="M743.698,241.823c-2.107-0.038-3.681,0.255-4.899-0.978c-0.471-0.477-0.757-1.063-0.429-1.73
		c0.333-0.68,0.927-0.491,1.454-0.301c1.161,0.42,2.365,0.374,3.552,0.292c2.495-0.172,4.786,0.031,6.298,2.437
		c0.444,0.706,1.325,0.808,2.103,1.015c1.157,0.307,2.295,0.688,3.231,1.491c0.51,0.438,0.942,0.931,0.574,1.641
		c-0.343,0.664-0.976,0.897-1.623,0.568c-2.362-1.198-5.366-1.073-7.08-3.645C745.981,241.268,744.404,241.865,743.698,241.823z"/>
	<path style="fill:#F39C1F;" d="M713.933,269.848c-3.85,0-3.161,5.964,0.67,5.964C718.453,275.812,717.763,269.848,713.933,269.848z
		"/>
	<path style="fill:#F39C1F;" d="M726.933,271.348c-3.85,0-3.161,5.964,0.67,5.964C731.453,277.312,730.763,271.348,726.933,271.348z
		"/>
	<path style="fill:#F39C1F;" d="M733.933,282.848c-3.85,0-3.161,5.964,0.67,5.964C738.453,288.812,737.763,282.848,733.933,282.848z
		"/>
	<path style="fill:#F39C1F;" d="M746.433,271.348c-3.85,0-3.161,5.964,0.67,5.964C750.953,277.312,750.263,271.348,746.433,271.348z
		"/>
	<path style="fill:#F39C1F;" d="M679.933,252.348c-3.85,0-3.161,5.964,0.67,5.964C684.453,258.312,683.763,252.348,679.933,252.348z
		"/>
	<path style="fill:#F39C1F;" d="M695.933,241.348c-3.85,0-3.161,5.964,0.67,5.964C700.453,247.312,699.763,241.348,695.933,241.348z
		"/>
	<path style="fill:#F39C1F;" d="M698.433,255.348c-3.85,0-3.161,5.964,0.67,5.964C702.953,261.312,702.263,255.348,698.433,255.348z
		"/>
	<path style="fill:#F39C1F;" d="M732.433,252.348c-3.85,0-3.161,5.964,0.67,5.964C736.953,258.312,736.263,252.348,732.433,252.348z
		"/>
	<path style="fill:#F39C1F;" d="M756.237,245.867c-1.167-0.167-2.333-0.333-3.5-0.5c-0.877-0.125-1.79,0.177-2.461,0.749
		c-0.499-0.99-1.464-1.768-2.844-1.768c-3.85,0-3.161,5.964,0.67,5.964c0.675,0,1.202-0.191,1.605-0.493
		c0.425,0.76,1.147,1.339,2.09,1.474c1.167,0.167,2.333,0.333,3.5,0.5c1.553,0.222,3.249-0.865,3.432-2.494
		C758.911,247.703,757.902,246.105,756.237,245.867z"/>
	<path style="fill:#F39C1F;" d="M764.933,249.848c-3.85,0-3.161,5.964,0.67,5.964C769.453,255.812,768.763,249.848,764.933,249.848z
		"/>
	<path style="fill:#704C29;" d="M358.82,112.528c-3.117,6.151-5.516,12.147-7.627,18.259c-4.57,13.232-6.847,26.932-8.216,40.812
		c-0.149,1.511-0.272,3.025-0.45,4.533c-0.068,0.579,0.095,1.511-0.856,1.379c-0.74-0.103-0.397-0.912-0.417-1.424
		c-0.354-9.25,0.906-18.339,2.681-27.384c2.841-14.477,7.935-28.128,14.834-41.142c0.904-1.706,1.986-3.319,1.52-5.603
		c-0.263-1.288,1.35-2.691,2.651-2.388c2.93,0.681,5.736-0.045,8.565-0.22c18.223-1.126,36.455-0.753,54.688-0.546
		c6.875,0.078,13.749,0.195,20.622,0.388c1.504,0.042,2.57-1.218,4.433-0.574c3.116,1.077,4.343,4.423,7.405,5.354
		c0.312,0.095,0.515,0.747,0.228,1.064c-1.351,1.493-0.711,3.235-0.511,4.817c0.322,2.541-0.556,4.683-1.625,6.837
		c-0.456,0.92-1.268,1.167-2.18,1.213c-5.19,0.263-10.334,1.288-15.541,1.122c-2.28-0.073-3.047,0.59-3.012,2.944
		c0.129,8.797,0.06,17.597,0.061,26.396c0.001,49.514,0,99.028,0.001,148.542c0,3.645,0.008,3.635,3.651,4.376
		c2.351,0.478,4.699,0.984,6.934,1.887c1.631,0.659,3.557-0.615,5.115,0.879c0.475,0.455,1.41,0.501,1.389,1.396
		c-0.017,0.742-0.601,1.09-1.271,1.233c-1.708,0.366-1.498,1.746-1.357,2.873c0.378,3.036-0.579,4.915-3.706,5.897
		c-2.001,0.628-3.786,2.042-5.666,3.023c-1.568,0.818-3.744,0.563-5.655,0.613c-2.637,0.068-5.28,0.021-7.918-0.055
		c-11.603-0.336-23.18,0.69-34.781,0.614c-8.333-0.055-16.614-0.698-24.887-1.568c-1.178-0.124-2.312-0.663-3.491-0.79
		c-1.434-0.155-1.847-1.052-2.058-2.236c-0.513-2.873-0.244-5.747,0.09-8.603c0.181-1.548,1.226-2.255,2.815-2.411
		c3.819-0.375,7.465-1.796,11.331-1.935c1.327-0.047,1.198-1.053,1.196-1.914c-0.005-3.357-0.056-6.714-0.059-10.071
		c-0.047-49.914-0.002-99.828-0.249-149.741c-0.029-5.862,0.55-11.699,0.275-17.561c-0.089-1.891-0.525-2.654-2.543-2.757
		c-3.988-0.204-7.96-0.723-11.94-1.106c-0.461-0.044-1.074,0.12-1.232-0.458c-0.189-0.692,0.408-0.992,0.935-1.17
		c1.058-0.358,2.128-0.694,3.214-0.955c19.316-4.648,38.864-5.415,58.592-3.653c6.369,0.569,12.77,0.466,19.177,0.292
		c3.415-0.093,6.856,0.762,10.349,0.658c1.548-0.046,2.252-0.349,2.116-1.957c-0.067-0.794-0.148-1.625,0.003-2.394
		c0.903-4.606-2.358-6.522-5.473-8.481c-1.362-0.857-2.299-0.509-2.26,1.31c0.041,1.919,0.168,3.845,0.059,5.756
		c-0.07,1.217,0.716,3.33-1.086,3.353c-1.455,0.018-0.94-2.055-0.985-3.25c-0.062-1.676-0.031-3.362,0.075-5.037
		c0.098-1.542-0.44-1.957-2.041-2.053c-8.554-0.51-17.05,0.694-25.583,0.676c-12.478-0.026-24.957-0.033-37.435,0.048
		c-5.116,0.033-10.229,0.366-15.346,0.459c-1.806,0.033-2.821,0.821-3.346,2.472c-0.907,2.847-1.143,5.787-1.328,8.744
		c-0.049,0.781,0.551,2.03-0.686,2.218c-1.265,0.192-1.361-1.062-1.599-1.985C359.354,113.334,359.189,113.154,358.82,112.528z
		 M432.199,303.904c-0.307-0.95-2.299-1.92-0.544-2.449c2.307-0.696,1.926-2.17,1.926-3.696
		c0.007-41.349,0.001-82.697,0.008-124.046c0.003-17.116-0.004-34.231,0.083-51.347c0.011-2.15-0.736-2.418-2.548-1.883
		c-3.229,0.954-6.372,2.119-9.418,3.544c-13.061,6.11-25.979,12.455-36.599,22.535c-0.322,0.305-0.65,0.736-1.387,0.446
		c0.136-1.195,1.118-1.821,1.847-2.577c7.684-7.965,17.195-13.235,26.953-18.096c6.288-3.133,12.555-6.417,19.715-7.176
		c1.023-0.108,1.362-0.621,1.391-1.559c0.034-1.126-0.51-1.539-1.591-1.599c-3.831-0.212-7.661-0.448-11.487-0.732
		c-12.711-0.945-25.398-1.013-38.06,0.746c-1.818,0.253-2.479,0.988-2.415,2.777c0.13,3.676,0.112,7.357,0.201,11.035
		c0.016,0.679-0.246,1.637,0.503,1.952c0.732,0.308,1.267-0.519,1.807-0.956c5.425-4.39,11.152-8.317,17.422-11.413
		c1.605-0.793,3.23-1.562,5.172-1.937c-0.146,0.414-0.153,0.621-0.253,0.687c-0.598,0.395-1.201,0.789-1.832,1.127
		c-7.281,3.899-14.148,8.421-20.645,13.521c-1.434,1.126-2.141,2.325-2.142,4.227c-0.025,50.787-0.13,101.574-0.134,152.36
		c0,4.82,0.542,9.639-0.4,14.507C397.295,303.904,414.692,303.904,432.199,303.904z M368.91,306.625
		c-1.265,0-2.305,0.008-3.345-0.002c-0.977-0.01-1.512,0.427-1.477,1.437c0.075,2.156,0.13,4.314,0.258,6.467
		c0.051,0.864,0.428,1.509,1.496,1.465c5.394-0.221,10.74-0.222,16.091,0.977c2.592,0.581,5.416,0.191,8.133,0.143
		c12.073-0.214,24.146-0.486,36.219-0.687c3.601-0.06,7.218,0.059,10.708,1.049c1.711,0.485,1.987-0.262,1.83-1.627
		c-0.257-2.223-0.647-4.435-0.805-6.665c-0.129-1.824-0.939-2.447-2.74-2.444c-17.998,0.024-35.996-0.043-53.994,0.005
		c-2.447,0.007-4.869,0.997-7.36,0.338C372.202,306.626,370.449,306.57,368.91,306.625z M448.385,309.737
		c0.5-2.362-0.403-3.255-2.833-2.727c-0.743,0.162-1.581-0.134-2.377-0.193c-3.417-0.255-3.61-0.039-3.053,3.344
		c0.917,5.564,0.882,5.487,6.031,3.188C447.859,312.586,448.835,311.704,448.385,309.737z M442.892,116.789
		c-2.247-0.3-3.857-0.555-5.478-0.711c-0.698-0.067-1.288,0.294-1.209,1.1c0.07,0.72,0.69,0.771,1.267,0.717
		C439.094,117.743,440.737,117.682,442.892,116.789z"/>
	<path style="fill:#704C29;" d="M346.545,171.821c1.303,0.037,2.45,0.22,3.28,1.024c1.558,1.508,2.662,3.423,4.89,4.3
		c1.079,0.425,0.929,1.965,0.658,3.058c-0.268,1.084-0.111,1.782,0.926,2.367c1.995,1.124,2.123,2.981,1.265,4.772
		c-0.779,1.624-1.271,3.202-1.247,5.008c0.01,0.751-0.324,1.563-0.687,2.249c-0.382,0.722-1.065,1.356-1.95,0.827
		c-0.827-0.494-0.423-1.233-0.068-1.885c0.385-0.709,0.789-1.469,0.445-2.268c-0.703-1.635-0.094-2.878,0.905-4.159
		c1.06-1.359,0.911-2.53-0.958-3.038c-2.071-0.563-2.978-1.506-1.37-3.531c0.748-0.942,0.71-1.821-0.727-2.034
		c-1.21-0.179-1.762-0.991-2.127-2.012c-0.57-1.595-1.661-2.413-3.367-2.606c-0.835-0.094-2.366,0.584-2.368-0.755
		C344.041,171.706,345.631,171.937,346.545,171.821z"/>
	<path style="fill:#704C29;" d="M348.825,201.989c-0.268-0.034-1.241-0.056-2.157-0.296c-1.475-0.387-2.65-0.538-2.935,1.49
		c-0.112,0.795-0.821,1.337-1.642,1.595c-2.013,0.632-5.51-0.884-6.386-2.794c-0.307-0.671-0.557-1.451,0.107-1.987
		c0.658-0.531,1.155,0.091,1.626,0.518c0.413,0.374,0.804,0.787,1.267,1.087c1.952,1.263,2.964,0.887,3.439-1.399
		c0.325-1.562,1.093-2.007,2.548-1.483c2.588,0.932,5.128,1.91,7.457-0.708c0.742-0.834,1.239-0.154,1.283,0.773
		C353.538,201.041,352.129,202.211,348.825,201.989z"/>
	<path style="fill:#704C29;" d="M329.504,179.254c0.477-0.025,0.953-0.068,1.43-0.069c0.392-0.001,0.874-0.035,1.031,0.409
		c0.228,0.644-0.361,0.795-0.768,0.975c-1.155,0.51-2.033,1.331-2.422,2.505c-0.328,0.988-1.643,2.548,1.133,2.25
		c1.29-0.138,1.114,0.946,0.389,1.571c-1.872,1.614-2.747,3.465-1.828,5.916c0.155,0.412,0.087,0.817-0.412,0.936
		c-0.622,0.148-1.116-0.173-1.424-0.657c-1.099-1.731-0.862-3.531,0.028-5.217c0.538-1.02,0.842-1.81,0.447-3.066
		c-0.759-2.414,1.122-3.952,2.452-5.609L329.504,179.254z"/>
	<path style="fill:#704C29;" d="M333.552,204.793c-1.905-0.358-3.02-1.571-3.707-3.172c-1.091-2.543-0.672-5.164-0.186-7.762
		c0.088-0.47,0.327-0.966,0.909-0.928c0.585,0.038,0.759,0.573,0.786,1.042c0.079,1.352,0.077,2.709,0.132,4.063
		c0.086,2.124,0.857,3.863,2.797,4.958c0.43,0.243,1.32,0.231,1.046,1.017C335.051,204.81,334.193,204.73,333.552,204.793z"/>
	<path style="fill:#704C29;" d="M329.561,179.199c-1.554-1.699-0.098-2.242,1.132-2.553c1.767-0.447,3.91-0.174,3.378-3.164
		c-0.128-0.721,0.895-0.989,1.683-0.791c1.23,0.31,2.318,0.867,3.429,1.84c-1.277,0.693-2.175-0.424-3.367-0.065
		c1.5,2.264,0.254,2.471-1.71,2.762c-1.6,0.237-3.602,0.149-4.598,2.021C329.504,179.254,329.561,179.199,329.561,179.199z"/>
	<path style="fill:#704C29;" d="M427.343,197.91c-1.214,0.888-2.266,1.689-3.349,2.445c-12.416,8.654-24.44,17.772-34.388,29.317
		c-1.353,1.571-2.555,3.272-3.822,4.917c-0.285,0.37-0.537,0.914-1.098,0.519c-0.379-0.267-0.209-0.759-0.032-1.101
		c0.367-0.707,0.773-1.398,1.215-2.062c3.792-5.703,8.512-10.584,13.635-15.071c7.767-6.802,15.856-13.182,24.93-18.201
		c0.696-0.385,1.438-0.69,2.171-1.003C426.706,197.627,426.881,197.754,427.343,197.91z"/>
	<path style="fill:#704C29;" d="M384.866,211.424c2.202-8.447,31.772-32.734,40.507-33.523
		C410.81,187.792,396.31,197.758,384.866,211.424z"/>
	<path style="fill:#704C29;" d="M426.835,155.54c-7.687,4.831-15.455,9.537-22.651,15.115c-7.131,5.528-13.571,11.761-19.368,18.733
		c-0.114-1.544,0.724-2.605,1.457-3.676c4.57-6.68,10.648-11.845,16.96-16.765c5.682-4.429,11.739-8.28,18.142-11.579
		C423.07,156.495,424.788,155.648,426.835,155.54z"/>
	<path style="fill:#704C29;" d="M414.336,227.758c-3.861,3.645-7.744,7.267-11.578,10.941c-5.144,4.93-9.897,10.206-13.945,16.089
		c-0.587,0.854-1.091,1.765-1.669,2.626c-0.363,0.541-0.276,1.824-1.171,1.472c-1.123-0.441-0.432-1.523-0.091-2.262
		c1.788-3.879,4.331-7.27,7.064-10.51c4.804-5.694,10.165-10.828,15.951-15.518C410.494,229.301,412.236,228.251,414.336,227.758z"
		/>
	<path style="fill:#704C29;" d="M422.604,138.631c-12.223,8.315-24.483,16.582-35.357,27.417
		C387.868,160.953,415.991,139.353,422.604,138.631z"/>
	<path style="fill:#704C29;" d="M425.145,266.883c-2.284,2.442-4.747,4.058-7.034,5.868c-6.336,5.014-12.321,10.374-17.393,16.705
		c-0.686,0.856-1.602,2.472-2.714,1.594c-0.798-0.631,0.55-1.937,1.202-2.769c6.363-8.115,14.069-14.754,22.637-20.43
		C422.687,267.292,423.552,266.694,425.145,266.883z"/>
	<path style="fill:#704C29;" d="M424.102,246.455c-4.548,3.758-9.172,7.428-13.624,11.295c-5.926,5.147-11.346,10.794-16.013,17.132
		c-0.283,0.385-0.576,0.766-0.901,1.116c-0.223,0.241-0.538,0.397-0.856,0.188c-0.403-0.265-0.41-0.644-0.175-1.034
		c0.165-0.273,0.334-0.546,0.523-0.802c8.023-10.838,17.64-19.985,28.981-27.301c0.584-0.377,1.239-0.644,1.862-0.963
		C423.967,246.209,424.035,246.332,424.102,246.455z"/>
	<path style="fill:#704C29;" d="M125.971,244.446c0.094-1.714,1.219-2.49,2.061-3.38c3.192-3.373,6.597-6.529,10.194-9.464
		c1.249-1.02,1.57-1.91,0.846-3.46c-2.338-5.004-4.353-10.154-5.691-15.518c-0.378-1.517-1.504-1.977-2.46-2.725
		c-6.323-4.95-11.117-11.247-15.512-17.841c-5.634-8.453-11.276-16.897-17.208-25.145c-3.254-4.525-5.41-9.406-4.967-15.169
		c0.345-4.483,1.689-6.415,6.02-7.515c13.431-3.411,27.105-4.49,40.925-3.997c0.159,0.006,0.344-0.015,0.473,0.056
		c3.118,1.727,4.837-0.1,6.912-2.231c9.665-9.926,21.744-14.971,35.329-16.576c2.512-0.297,3.606-1.195,4.371-3.648
		c3.599-11.547,9.629-21.732,17.936-30.55c3.512-3.728,7.031-7.448,11.195-10.477c5.346-3.89,7.495-3.795,12.474,0.452
		c3.726,3.179,6.54,7.044,8.385,11.545c7.346,17.919,11.619,36.534,12.418,55.912c0.03,0.718,0.203,1.535-0.062,2.143
		c-1.305,2.995,0.662,4.714,2.355,6.609c1.491,1.669,2.99,3.349,4.301,5.158c1.032,1.423,1.837,1.62,3.251,0.44
		c2.259-1.885,4.655-3.617,7.34-4.924c-1.896,2.328-4.252,4.159-6.561,6.02c-1.279,1.031-1.548,1.85-0.683,3.391
		c2.729,4.862,2.641,4.876,7.587,2.554c2.202-1.033,4.331-2.332,7.242-2.537c-0.911,1.321-2.098,1.617-3.079,2.169
		c-1.044,0.587-2.144,1.077-3.21,1.627c-5.045,2.602-4.975,2.575-2.793,7.813c0.671,1.609,1.517,1.74,2.956,1.268
		c3.116-1.021,6.275-1.908,9.512-2.469c1.215-0.21,2.454-0.507,3.738,0.008c-0.428,1.221-1.434,1.152-2.21,1.381
		c-3.374,0.995-6.746,2.001-10.154,2.867c-1.795,0.456-2.364,1.097-1.976,3.152c1.094,5.782,0.828,11.534-0.581,17.334
		c-1.412,5.813-5.008,10.127-8.825,14.269c-3.894,4.226-7.842,8.444-12.29,12.123c-0.955,0.79-0.962,1.7-0.9,2.786
		c0.352,6.153,1.241,12.239,2.351,18.286c1.854,10.099,2.806,20.267,2.647,30.53c-0.034,2.169,0.572,3.962,1.724,5.823
		c3.906,6.315,5.671,13.346,6.295,20.688c0.135,1.592-0.012,3.216,0.205,4.793c1.126,8.188-2.254,14.799-7.152,20.911
		c-0.341,0.426-0.758,0.89-0.862,1.393c-0.908,4.406-2.743,6.037-7.134,6.299c-0.87,0.052-1.736,0.227-2.596,0.383
		c-0.921,0.167-1.654,0.516-1.74,1.641c-0.102,1.326-1.02,2.268-2.045,2.816c-4.893,2.62-9.982,4.013-15.331,1.371
		c-2.088-1.031-2.146-3.236-2.359-5.212c-0.328-3.043-0.824-3.437-3.698-2.798c-0.887,0.197-1.41,0.577-1.557,1.527
		c-0.277,1.789-1.521,3.152-2.221,4.76c-0.508,1.167-1.593,1.521-2.727,1.696c-2.203,0.339-4.363,1.079-6.644,0.746
		c-0.233-0.034-0.608-0.088-0.696,0.03c-2.088,2.838-3.221,0.055-4.339-0.918c-1.525-1.327-2.622-1.787-4.509-0.484
		c-3.704,2.556-7.598,2.001-11.304-0.192c-1.667-0.987-3.279-1.798-5.302-1.977c-2.243-0.199-3.921-1.827-5.331-3.441
		c-2.77-3.171-5.729-6.222-7.744-9.976c-0.518-0.965-1.196-1.244-2.15-0.981c-0.766,0.211-1.546,0.447-2.243,0.816
		c-8.95,4.731-17.349,10.25-24.581,17.405c-5.644,5.584-8.027,12.378-7.414,20.257c0.372,4.784,2.978,8.382,6.35,11.473
		c6.101,5.59,13.378,8.367,21.563,9.543c8.553,1.229,15.959-1.366,23.046-5.529c9.036-5.309,17.983-10.764,27.783-14.618
		c4.797-1.887,9.681-3.182,14.898-3.301c8.95-0.205,11.222,7.016,8.688,13.11c-2.105,5.061-5.475,8.978-9.472,12.482
		c-15.315,13.427-31.95,24.444-52.528,27.921c-12.494,2.111-24.964,2.15-36.746-3.191c-13.496-6.118-23.66-15.69-27.392-30.503
		c-2.641-10.483-1.024-20.805,4.456-30.132c8.907-15.161,20.104-28.092,36.805-35.194c2.063-0.878,4.09-1.887,6.289-2.317
		c3.365-0.657,6.247-2.9,9.811-2.877c0.977,0.006,1.299-0.74,1.399-1.632c0.232-2.065,0.518-4.124,0.761-6.188
		c0.348-2.953,0.853-5.913,2.082-8.602c4.996-10.932,7.472-22.586,10.06-34.213c0.608-2.729,1.135-5.477,1.665-8.223
		c0.305-1.579-0.244-2.35-2.006-2.39c-6.823-0.152-13.594-0.646-19.786-3.987c-1.383-0.746-1.622,0.427-1.972,1.293
		c-1.771,4.375-3.481,8.771-4.542,13.387c-0.125,0.544-0.27,1.087-0.452,1.614c-0.15,0.434-0.271,1.004-0.916,0.866
		c-0.484-0.104-0.461-0.608-0.501-0.986c-0.122-1.131,0.103-2.228,0.376-3.319c1.01-4.049,2.413-7.974,4.205-11.723
		c0.961-2.01,0.747-3.274-0.96-4.73c-3.176-2.71-2.586-3.641-5.333,0.669c-3.095,4.855-6.079,9.781-9.154,14.65
		c-0.423,0.671-0.697,2.131-1.685,1.589c-1.098-0.602-0.118-1.736,0.306-2.501c3.072-5.531,6.491-10.852,10.268-15.919
		c1.336-1.792,1.327-3.056,0.014-4.842c-2.924-3.979-2.862-4.087-6.607-0.747c-2.984,2.661-5.872,5.431-8.807,8.147
		C127.576,243.69,127.109,244.386,125.971,244.446z M155.067,224.967c-1.256,3.241-3.344,5.956-5.229,8.789
		c-2.306,3.466-2.288,3.412,0.74,6.228c1.222,1.137,1.937,1.174,2.56-0.49c0.587-1.57,1.29-3.098,1.973-4.631
		c0.159-0.358,0.434-0.728,0.92-0.546c0.485,0.181,0.453,0.638,0.332,1.013c-0.44,1.369-0.898,2.734-1.394,4.084
		c-1.25,3.405-1.348,3.647,2.096,4.881c10.816,3.875,21.952,4.556,33.238,2.629c2.986-0.51,5.943-1.293,8.842-2.182
		c12.924-3.966,25.828-7.95,36.925-16.168c2.688-1.991,5.119-4.267,7.815-6.256c6.921-5.107,13.781-10.235,17.955-18.288
		c3.706-7.151,4.407-14.388,3.136-22.076c-0.269-1.629-1.021-2.081-2.669-1.504c-5.591,1.957-11.044,4.236-16.459,6.625
		c-0.904,0.399-1.833,1.137-3.404,0.489c1.024-0.632,1.67-1.065,2.346-1.442c4.688-2.614,9.553-4.844,14.588-6.703
		c4.24-1.566,4.175-1.546,2.565-5.896c-0.653-1.766-1.3-2.231-3.085-1.159c-5.626,3.381-11.116,6.957-16.462,10.759
		c-1.035,0.736-2.1,1.43-3.152,2.144c1.192-2.105,2.812-3.626,4.59-4.986c4.072-3.115,8.378-5.878,12.783-8.49
		c4.059-2.407,4.001-2.364,1.721-6.673c-0.924-1.746-1.648-1.874-3.186-0.595c-7.278,6.052-13.975,12.671-20.057,19.92
		c-0.268,0.32-0.482,0.926-1.291,0.317c0.889-1.212,1.769-2.425,2.663-3.628c5.1-6.86,11.409-12.519,17.966-17.909
		c1.471-1.209,1.518-2.094,0.32-3.487c-2.658-3.09-5.242-6.247-7.766-9.448c-1.511-1.916-3.313-3.627-4.714-6.239
		c2.145,1.405,3.078,3.651,5.446,4.24c-0.282-2.301-0.621-4.342-0.772-6.398c-1.28-17.511-5.165-34.431-11.452-50.81
		c-2.076-5.41-5.279-10.008-9.801-13.687c-1.556-1.266-2.862-1.526-4.706-0.343c-5.314,3.412-9.641,7.877-13.927,12.416
		c-8.096,8.574-13.555,18.728-17.812,29.611c-0.447,1.143-0.524,2,0.971,2.317c0.695,0.148,1.558,0.377,1.49,1.279
		c-0.084,1.122-1.112,0.931-1.869,1.007c-0.635,0.064-1.278,0.048-1.917,0.076c-12.39,0.549-23.73,4.229-33.703,11.665
		c-3.756,2.8-7.647,5.605-9.48,10.247c-0.147,0.372-0.377,0.75-0.864,0.688c-0.59-0.075-0.845-0.59-0.761-1.042
		c0.469-2.514-1.222-2.505-2.885-2.545c-13.569-0.324-26.987,0.964-40.254,3.813c-3.117,0.669-3.868,1.7-4.112,4.949
		c-0.418,5.561,2.002,10.075,5.133,14.347c5.485,7.483,10.764,15.11,15.759,22.927c4.06,6.354,8.877,12.123,13.664,17.917
		c0.41,0.497,0.759,1.401,1.668,0.986c1.525-0.695,1.579-0.759,2.084,0.918c1.827,6.06,4.177,11.914,6.738,17.695
		c0.747,1.686,1.496,1.938,3.02,0.792c3.963-2.978,8.017-5.836,12.057-8.71c0.762-0.542,1.472-1.317,3.112-1.27
		c-4.415,3.869-8.583,7.188-12.84,10.406c-3.691,2.79-3.768,1.952-1.004,6.249c1.069,1.662,1.812,1.923,3.034,0.077
		C150.345,230.76,152.338,227.591,155.067,224.967z M218.759,288.561c2.418,1.77,3.051,3.962,3.342,6.195
		c0.871,6.684,0.9,13.405,0.281,20.107c-0.676,7.33-1.28,14.657-1.128,22.025c0.023,1.109-0.112,2.285,0.675,3.216
		c0.476,0.563,1.169,0.987,1.899,0.803c0.893-0.226,0.407-1.047,0.457-1.625c0.076-0.871,0.089-1.753,0.238-2.611
		c0.08-0.461,0.4-0.978,0.942-0.942c0.655,0.044,0.548,0.66,0.566,1.12c0.019,0.479-0.043,0.967,0.027,1.438
		c0.235,1.58,0.258,3.375,2.64,3.166c2.681-0.235,3.509-1.297,3.314-3.889c-0.068-0.906-1.267-2.414,0.133-2.636
		c1.259-0.2,1.094,1.62,1.312,2.664c0.032,0.155,0.003,0.321,0.029,0.478c0.085,0.52-0.089,1.215,0.691,1.33
		c0.601,0.088,1.136-0.233,1.447-0.699c0.347-0.52,0.58-1.133,0.78-1.733c9.673-29.072,12.936-58.765,8.542-89.179
		c-0.902-6.245-1.707-12.522-3.774-18.538c-0.295-0.857-0.415-1.944-1.65-0.836c-4.377,3.926-9.588,6.594-14.598,9.532
		c-7.618,4.467-15.832,7.616-24.236,10.271c-1.99,0.629-3.501,2.226-5.938,2.077c-4.78-0.292-9.593,0.086-14.382-0.304
		c-1.389-0.113-2.077,0.121-2.335,1.806c-1.9,12.401-3.744,24.875-8.726,36.49c-3.93,9.16-5.603,18.635-5.698,28.477
		c-0.103,10.686,6.656,19.178,17.029,21.559c0.852,0.195,1.965,0.177,2.323,1.038c1.119,2.691,3.149,1.9,5.156,1.599
		c-1.293-0.756-0.674-2.999-2.601-3.121c-0.774-0.049-2.043,0.855-2.168-0.469c-0.103-1.088,1.321-1.133,2.208-1.393
		c0.535-0.157,1.09-0.337,1.638-0.346c2.26-0.034,1.918-0.925,0.86-2.263c-7.914-10.009-11.677-21.726-13.89-34.059
		c-0.284-1.582-0.371-3.227,0.246-5.259c0.642,2.893,1.128,5.318,1.72,7.717c3.472,14.063,9.304,26.86,19.883,37.131
		c1.427,1.385,2.925,2.455,4.915,2.749c0.803,0.119,1.552,0.006,1.581-0.95c0.043-1.409,0.251-2.929-1.126-3.942
		c-0.364-0.268-1.01-0.384-0.573-1.003c0.294-0.417,0.858-0.469,1.324-0.315c1.867,0.615,2.057,2.218,2.251,3.847
		c0.107,0.901-0.43,2.35,1.402,2.085c1.434-0.207,2.306-0.861,2.185-2.545c-0.147-2.052-0.976-3.773-2.559-5.598
		c2.677,0.049,3.185,2.032,4.264,3.672c0.558-1.657,0.395-2.915-0.289-4.146c-1.99-3.584-3.398-7.408-4.5-11.339
		c-2.663-9.495-3.942-19.253-5.371-28.979c-0.113-0.765-0.466-1.755,0.961-2.502c0.698,3.382,1.371,6.619,2.035,9.857
		c2.005,9.781,3.473,19.704,7.385,28.992c2.387,5.668,0.955,4.237,6.647,3.691c1.388-0.133,1.916-0.815,1.938-2.18
		c0.041-2.557,0.111-5.12,0.322-7.668C219.732,311.45,221.833,300.288,218.759,288.561z M158.524,387.498
		c-1.447,0-2.647,0.026-3.845-0.004c-10.48-0.265-19.184-4.448-26.265-12.069c-3.586-3.859-5.21-8.443-5.137-13.783
		c0.108-7.995,3.144-14.583,8.832-20.051c7.148-6.872,15.401-12.176,24.025-16.975c1.618-0.9,4.215-0.537,4.811-2.506
		c0.524-1.732-0.123-3.795-0.102-5.71c0.019-1.677-0.723-2.162-2.32-2.231c-4.569-0.196-8.591,1.486-12.631,3.286
		c-16.178,7.204-27.584,19.507-36.131,34.551c-6.719,11.827-7.938,24.376-1.323,36.684c6.647,12.369,17.309,20.041,30.945,23.073
		c15.341,3.411,30.217,0.897,44.591-4.977c14.422-5.894,26.491-15.353,38.107-25.478c2.701-2.355,4.238-5.264,5.279-8.649
		c1.356-4.41-0.592-6.526-4.678-7.789c-0.968-0.299-2.053-0.311-3.083-0.309c-6.41,0.012-12.162,2.45-17.904,4.919
		c-7.814,3.359-14.962,7.939-22.341,12.102C172.836,385.257,166.161,388.607,158.524,387.498z M250.181,285.008
		c-0.526,0.251-0.407,0.696-0.45,1.068c-0.611,5.312-1.127,10.637-1.845,15.935c-1.118,8.249-2.907,16.362-5.263,24.35
		c-0.188,0.639-0.728,1.37,0.075,1.955c0.683,0.498,5.547-0.096,6.19-0.793c2.856-3.094,5.419-6.447,5.917-10.751
		c1.16-10.04,0.753-19.959-3.196-29.46C251.266,286.488,251.149,285.45,250.181,285.008z M244.443,329.834
		c-2.535-0.168-4.507,1.748-4.43,4.124c0.02,0.624,0.499,1.07,0.834,0.741c1.097-1.078,3.705,0.973,3.883-1.942
		c0.029-0.465,0.593-0.226,0.914,0.086c1.354,1.315,1.678-0.057,1.809-0.872C247.901,329.188,245.675,330.087,244.443,329.834z
		 M189.782,337.623c-0.499,0.089-1.492-0.192-1.439,0.654c0.063,0.999,0.665,2.029,1.796,2.214c0.677,0.111,1.579-0.267,1.558-1.121
		C191.671,338.34,191.068,337.583,189.782,337.623z"/>
	<path style="fill:#704C29;" d="M237.064,128.716c-0.46,2.319-0.563,4.709-0.531,7.108c0.01,0.767-0.333,1.305-1.142,1.14
		c-1.559-0.317-3.18-0.092-4.71-0.716c-9.693-3.951-19.41-7.812-29.664-10.154c-4.247-0.97-4.973-3.341-2.318-6.679
		c0.868-1.091,1.19-2.425,1.714-3.672c3.827-9.119,8.46-17.738,15.524-24.829c0.842-0.845,1.767-1.621,2.724-2.334
		c2.743-2.045,3.193-1.884,5.461,0.709c7.602,8.694,10.309,19.3,11.948,30.322C236.516,122.609,236.735,125.642,237.064,128.716z
		 M234.158,129.602c-0.229-2.467-0.378-4.945-0.699-7.4c-1.426-10.925-3.437-21.635-10.231-30.822
		c-1.349-1.824-2.152-1.868-3.673-0.462c-2.771,2.562-5.307,5.304-7.487,8.394c-4.726,6.7-8.043,14.17-11.774,21.412
		c-0.957,1.857-0.184,3.655,1.657,3.871c9.809,1.15,18.865,4.822,27.977,8.291C234.567,134.651,234.54,134.723,234.158,129.602z"/>
	<path style="fill:#704C29;" d="M122.006,150.157c4.916-0.463,9.765,0.717,14.527,2.517c1.507,0.569,1.97,1.086,1.507,2.906
		c-2.208,8.677-3.111,17.583-4.176,26.453c-0.495,4.126-0.8,8.267-0.091,12.415c0.115,0.671,0.268,1.607-0.645,1.834
		c-1.075,0.267-1.408-0.692-1.484-1.461c-0.213-2.137-1.617-3.294-3.161-4.52c-6.041-4.795-10.925-10.645-15.75-16.65
		c-3.976-4.949-6.194-10.485-8.034-16.329c-1.062-3.371-0.806-3.424,2.344-4.644C111.813,150.832,116.67,149.811,122.006,150.157z
		 M121.914,152.676c-4.829-0.174-9.291,0.537-13.669,1.956c-1.532,0.497-2.083,1.267-1.584,2.822
		c1.322,4.12,3.025,8.183,5.326,11.73c4.488,6.919,10.287,12.812,16.648,18.098c0.569,0.473,1.096,1.458,1.968,0.999
		c0.78-0.41,0.527-1.434,0.581-2.203c0.686-9.812,2.29-19.492,4.228-29.119c0.303-1.505-0.298-1.959-1.496-2.425
		C129.969,152.999,125.869,152.571,121.914,152.676z"/>
	<path style="fill:#704C29;" d="M167.462,185.563c5.274,0.003,9.712,2.25,13.866,5.22c0.506,0.362,0.938,0.881,1.275,1.41
		c0.425,0.666,0.888,1.457,0.136,2.17c-0.721,0.684-1.487,0.329-2.168-0.166c-1.68-1.22-3.345-2.47-5.265-3.299
		c-1.317-0.568-2.643-1.132-4.006-1.573c-9.608-3.107-16.219,5.936-14.794,12.949c0.301,1.483,0.517,2.991,0.642,4.498
		c0.059,0.71-0.207,1.523-1.072,1.636c-0.737,0.096-1.066-0.564-1.355-1.151c-3.338-6.779-0.619-16.084,5.859-20.043
		C162.642,185.955,164.26,185.569,167.462,185.563z"/>
	<path style="fill:#704C29;" d="M206.619,166.949c-0.01-7.125,4.929-12.359,12.242-12.735c5.131-0.264,9.777,1.346,13.951,4.304
		c0.575,0.408,1.063,0.971,1.497,1.535c0.459,0.597,0.699,1.31,0.075,1.958c-0.661,0.687-1.35,0.314-1.939-0.117
		c-2.474-1.813-5.097-3.352-8.111-4.03c-4.257-0.958-8.387-1.202-11.928,2.162c-3.069,2.915-3.051,6.542-2.542,10.254
		c0.281,2.048,0.912,4.051,1.421,6.065c0.229,0.906,0.4,1.917-0.607,2.285c-1.079,0.395-1.516-0.662-1.868-1.439
		C207.341,173.939,206.634,170.515,206.619,166.949z"/>
	<path style="fill:#704C29;" d="M213.625,198.67c3.014,3.205,0.768,7.162-2.15,7.782c-1.937,0.412-2.922,1.129-3.379,3.217
		c-0.438,1.999-2.468,2.568-4.4,2.661c-2.25,0.109-4.545,0.231-6.06-1.959c-0.325-0.47-0.58-1.016-0.129-1.538
		c0.54-0.625,1.125-0.417,1.692,0.009c0.319,0.239,0.631,0.504,0.986,0.676c1.751,0.854,4.873,0.455,5.58-0.689
		c0.71-1.149-0.467-4.982-1.806-5.881c-0.75-0.504-1.559-0.094-2.338-0.143c-2.003-0.125-2.963-1.305-2.533-3.158
		c0.542-2.331,2.602-4.24,4.958-4.606c1.144-0.178,2.297-0.245,3.058,0.813c0.688,0.956,0.491,2.076-0.101,2.945
		c-0.973,1.426-0.712,2.609,0.162,3.949c0.681,1.045,1.194,2.097,2.726,1.803c1.52-0.292,2.739-0.942,3.13-2.557
		C213.273,200.95,213.41,199.877,213.625,198.67z"/>
	<path style="fill:#704C29;" d="M223.083,331.174c4.131,0,7.658-0.01,11.184,0.022c0.253,0.002,0.641,0.268,0.726,0.5
		c0.163,0.443-0.229,0.691-0.577,0.9C232.473,333.759,225.458,333.175,223.083,331.174z"/>
	<path style="fill:#704C29;" d="M197.414,333.779c1.259-0.995,2.484-0.987,3.594-1.244c0.754-0.175,1.939-1.002,2.206,0.172
		c0.201,0.882-1.183,1.079-1.987,1.312C200.054,334.359,198.845,334.586,197.414,333.779z"/>
</g>
</svg>
