<?xml version="1.0" encoding="iso-8859-1"?>
<!-- Generator: Adobe Illustrator 18.1.1, SVG Export Plug-In . SVG Version: 6.00 Build 0)  -->
<svg version="1.1" id="Object" xmlns="http://www.w3.org/2000/svg" xmlns:xlink="http://www.w3.org/1999/xlink" x="0px" y="0px"
	 viewBox="0 0 880 505" style="enable-background:new 0 0 880 505;" xml:space="preserve">
<g id="Background">
	<rect y="1.25" style="fill-rule:evenodd;clip-rule:evenodd;fill:#FFDBC2;" width="880" height="505"/>
</g>
<g id="Color">
	<path style="fill-rule:evenodd;clip-rule:evenodd;fill:#FFFFFF;" d="M191.075,277.214c-0.342,28.058,4.179,63.23,16.942,107.154
		c1.545,2.073,8.955,10.493,27.53,10.493c21.158,0,27.833-10.922,27.854-10.952c1.13-1.79,3.3-2.491,5.189-1.811
		c28.999,10.506,48.853-9.131,48.914-9.185c1.306-1.267,3.185-1.556,4.748-0.89c20.336,7.887,30.003-13.306,30.031-13.362
		c0.617-1.324,1.785-2.196,3.093-2.474c35.54-8.504,23.516-49.784,23.48-49.901c-0.372-1.334-0.112-2.7,0.599-3.764
		c1.219-2.083,11.643-20.739-4.812-22.009c-2.435-0.186-4.261-2.343-4.08-4.822c0.013-0.163,0.033-0.326,0.061-0.484
		c0.253-1.948,2.083-17.483-3.466-21.4C336.441,280.629,284.581,300.307,191.075,277.214z"/>
	<path style="fill-rule:evenodd;clip-rule:evenodd;fill:#EE792B;" d="M234.907,174.01c-3.198,1.686-39.783,22.462-43.544,94.002
		c146.5,36.823,186.694-34.456,205.765-68.307c5.804-10.297,9.886-17.544,15.545-18.934c8.713-2.138,18.327-10.057,24.518-20.749
		c5.238-9.048,7.913-20.021,5.329-31.053c-4.748-20.276-37.827-5.566-41.073-4.069c-0.625,0.345-1.341,0.542-2.106,0.542
		c-2.446,0-4.429-2.016-4.429-4.503c0-2.433-2.624-5.735-5.985-8.142c-1.543-1.104-3.193-1.954-4.774-2.38
		c-1.29-0.351-2.494-0.41-3.455-0.062c-1.104,0.4-2.091,1.536-2.769,3.695c-4.531,14.403,8.035,49.116,8.068,49.215
		c0.375,1.058,0.365,2.256-0.12,3.361c-4.85,11.011-14.976,17.539-30.177,18.785c-13.462,1.106-31.131-2.036-52.834-10.034
		c-41.3-15.225-67.675-1.505-67.749-1.466C235.047,173.945,234.979,173.978,234.907,174.01z"/>
	<path style="fill-rule:evenodd;clip-rule:evenodd;fill:#DF4C31;" d="M406.586,184.89c1.923-2.15,3.889-3.578,6.087-4.118
		c8.713-2.138,18.327-10.057,24.518-20.749c5.238-9.048,7.913-20.021,5.329-31.053c-4.748-20.276-37.827-5.566-41.073-4.069
		c-0.625,0.345-1.341,0.542-2.106,0.542c-2.446,0-4.429-2.016-4.429-4.503c0-2.433-2.624-5.735-5.985-8.142
		c-1.543-1.104-3.193-1.954-4.774-2.38c-1.29-0.351-2.494-0.41-3.455-0.062c-1.104,0.4-2.091,1.536-2.769,3.695
		c-4.531,14.403,8.035,49.116,8.068,49.215c0.204,0.574,0.293,1.188,0.257,1.807C393.178,164.675,403.6,167.197,406.586,184.89z"/>
	<path style="fill-rule:evenodd;clip-rule:evenodd;fill:#FFFFFF;" d="M132.162,272.469c-21.775,14.226-41.282,14.907-49.292,14.433
		c-1.935,9.211,5.697,13.433,6.826,14.005c2.037,0.867,3.165,3.165,2.545,5.38c-0.036,0.117-12.062,41.397,23.48,49.901
		c1.308,0.278,2.473,1.15,3.09,2.474c0.028,0.054,8.456,18.528,26.13,14.558C140.781,359.85,129.22,317.859,132.162,272.469z"/>
	<path style="fill-rule:evenodd;clip-rule:evenodd;fill:#ACD190;" d="M141.822,262.915c0.028,0.509-0.033,1.024-0.171,1.515
		c-5.607,51.555,10.075,101.313,12.699,109.172c3.674,3.216,20.517,16.348,44.184,9.767
		c-12.926-45.592-17.037-82.103-16.024-111.211c-0.069-0.507-0.053-1.038,0.056-1.566c2.517-60.741,27.492-88.722,40.619-99.314
		c-12.041-2.591-27.063-1.3-31.212-0.866C159.21,194.155,145.802,228.841,141.822,262.915z"/>
	<path style="fill-rule:evenodd;clip-rule:evenodd;fill:#EE792B;" d="M79.54,277.574c0.316-0.015,0.635,0.003,0.961,0.056
		c0.071,0.013,24.776,4.6,52.747-16.861c4.139-33.974,17.284-68.632,48.386-93.674c-48.381-20.465-83.681-11.674-105.807,8.031
		c-12.125,10.798-20.349,24.865-24.628,39.167c-4.248,14.183-4.595,28.534-1.002,40.062
		C54.385,267.774,64.143,277.263,79.54,277.574z"/>
	<path style="fill-rule:evenodd;clip-rule:evenodd;fill:#FFFFFF;" d="M516.322,292.733c-0.789,3.162-9.772,41.787,21.416,49.855
		c1.403,0.362,2.477,1.352,3.005,2.586l0.004-0.003c0.026,0.061,8.756,20.951,26.839,13.201c1.818-0.773,3.859-0.26,5.107,1.132
		c1.391,1.443,18.899,18.888,43.941,8.984c2.197-0.87,4.668,0.112,5.691,2.198c1.029,1.594,7.552,10.514,24.883,10.514
		c17.332,0,23.855-8.92,24.884-10.514c1.023-2.086,3.495-3.068,5.692-2.198c25.04,9.904,42.551-7.54,43.94-8.984
		c1.248-1.392,3.29-1.905,5.106-1.132c18.083,7.75,26.815-13.14,26.839-13.201l0.005,0.003c0.528-1.234,1.603-2.223,3.005-2.586
		c29.427-7.614,23.09-42.437,21.616-48.999c-25.982,2.512-56.363-10.052-88.46-23.327c-28.925-11.965-59.299-24.528-88.242-26.579
		C534.413,238.93,516.921,290.894,516.322,292.733z"/>
	<path style="fill-rule:evenodd;clip-rule:evenodd;fill:#F08400;" d="M511.973,280.488c8.943-16.843,33.8-49.774,90.257-45.778
		c30.344,2.147,61.423,15.004,91.021,27.247c40.543,16.771,78.197,32.344,104.614,16.009c21.262-13.15,30.642-27.668,33.366-39.68
		c0.943-4.162,1.08-7.992,0.637-11.325c-0.421-3.165-1.36-5.834-2.61-7.854c-1.206-1.953-2.61-3.19-3.96-3.496
		c-30.571-6.934-63.873-25.388-96.902-43.692c-60.672-33.624-120.4-66.726-155.382-22.72c-0.819,1.03-2.003,1.606-3.223,1.686
		C565.291,151.358,460.844,163.591,511.973,280.488z"/>
	<path style="fill-rule:evenodd;clip-rule:evenodd;fill:#F39756;" d="M803.488,209.024c-24.289-8.95-49.77-23.072-75.091-37.105
		c-60.672-33.624-120.4-66.726-155.382-22.72c-0.108,0.135-0.225,0.265-0.347,0.39c10.252,0.018,53.272,1.629,97.09,25.834
		C700.75,192.543,760.788,205.329,803.488,209.024z"/>
</g>
<g id="Line">
	<path style="fill-rule:evenodd;clip-rule:evenodd;fill:#5B0030;" d="M345.417,329.117c10.343,0,18.773-8.581,18.773-19.099
		c0-10.519-8.43-19.1-18.773-19.1c-10.34,0-18.773,8.581-18.773,19.1C326.644,320.536,335.076,329.117,345.417,329.117z"/>
	<path style="fill-rule:evenodd;clip-rule:evenodd;fill:#5B0030;" d="M300.692,308.89c0.252-1.048,1.29-1.688,2.32-1.43
		c1.03,0.257,1.658,1.316,1.405,2.364c-0.005,0.023-2.229,8.782,7.048,10.975c1.033,0.24,1.678,1.288,1.438,2.338
		c-0.232,1.05-1.262,1.708-2.298,1.466C297.492,321.505,300.682,308.923,300.692,308.89z"/>
	<path style="fill-rule:evenodd;clip-rule:evenodd;fill:#5B0030;" d="M301.217,315.913c0.309-1.03,1.377-1.612,2.392-1.301
		c1.012,0.311,1.583,1.402,1.275,2.43c-0.01,0.033-3.417,12.141-20.137,12.141c-1.061,0-1.923-0.875-1.923-1.956
		c0-1.081,0.862-1.956,1.923-1.956C298.599,325.272,301.21,315.939,301.217,315.913z"/>
	<path style="fill-rule:evenodd;clip-rule:evenodd;fill:#FFFFFF;" d="M341.485,309.76c3.667,0,6.656-3.039,6.656-6.77
		c0-3.728-2.989-6.773-6.656-6.773c-3.662,0-6.653,3.045-6.653,6.773C334.832,306.72,337.823,309.76,341.485,309.76z"/>
	<path style="fill-rule:evenodd;clip-rule:evenodd;fill:#5B0030;" d="M224.077,329.117c10.34,0,18.773-8.581,18.773-19.099
		c0-10.519-8.433-19.1-18.773-19.1c-10.34,0-18.773,8.581-18.773,19.1C205.304,320.536,213.737,329.117,224.077,329.117z"/>
	<path style="fill-rule:evenodd;clip-rule:evenodd;fill:#5B0030;" d="M265.076,309.824c-0.253-1.048,0.38-2.106,1.405-2.364
		c1.03-0.258,2.071,0.382,2.321,1.43c0.008,0.033,3.2,12.615-9.914,15.713c-1.033,0.242-2.061-0.416-2.3-1.466
		c-0.234-1.051,0.408-2.099,1.443-2.338C267.305,318.606,265.084,309.847,265.076,309.824z"/>
	<path style="fill-rule:evenodd;clip-rule:evenodd;fill:#5B0030;" d="M264.61,317.043c-0.309-1.028,0.265-2.119,1.278-2.43
		c1.012-0.311,2.083,0.27,2.389,1.301c0.008,0.025,2.624,9.359,16.47,9.359c1.063,0,1.925,0.874,1.925,1.956
		c0,1.081-0.862,1.956-1.925,1.956C268.029,329.183,264.62,317.076,264.61,317.043z"/>
	<path style="fill-rule:evenodd;clip-rule:evenodd;fill:#FFFFFF;" d="M228.007,309.76c3.667,0,6.656-3.039,6.656-6.77
		c0-3.728-2.989-6.773-6.656-6.773c-3.667,0-6.655,3.045-6.655,6.773C221.351,306.72,224.34,309.76,228.007,309.76z"/>
	<path style="fill-rule:evenodd;clip-rule:evenodd;fill:#5B0030;" d="M235.547,403.87c-18.895,0-28.943-7.943-33.038-12.311
		c-26.75,8.257-46.622-5.199-52.903-10.302c-22.078,7.038-34.318-10.728-37.766-16.787c-35.721-9.779-31.235-46.007-28.912-57.278
		c-4.253-3.05-11.001-9.805-8.961-21.063c-16.685-2.292-27.4-13.632-32.209-29.065c-4.118-13.197-3.766-29.45,1-45.375
		c4.73-15.806,13.834-31.361,27.257-43.321c25.334-22.564,65.862-32.364,121.044-6.908c5.434-0.56,27.68-2.39,42.057,3.511
		c7.275-3.034,34.491-12.148,72.762,1.957c20.446,7.536,36.863,10.514,49.134,9.509c10.919-0.896,18.304-5.027,22.05-11.933
		c-2.621-7.722-12.294-38.087-7.54-53.202c1.627-5.17,4.608-8.119,8.239-9.43c2.739-0.991,5.712-0.941,8.642-0.149
		c2.637,0.713,5.258,2.036,7.609,3.718c3.478,2.489,6.47,5.898,8.193,9.43c11.942-4.614,42.886-13.801,48.927,12.021
		c3.16,13.497-0.033,26.79-6.329,37.669c-7.377,12.746-19.176,22.267-30.052,24.936c-1.943,0.477-5.248,6.343-9.942,14.677
		c-6.76,11.994-16.032,28.445-31.146,43.554c6.066,6.093,6.411,17.939,6.079,24.416c21.882,4.409,11.528,27.112,8.099,33.545
		c2.101,9.06,8.935,48.506-28.586,58.78c-3.443,6.059-15.685,23.825-37.766,16.787c-6.278,5.103-26.153,18.559-52.9,10.302
		C264.495,395.927,254.448,403.87,235.547,403.87L235.547,403.87z M79.54,277.574c0.316-0.015,0.635,0.003,0.961,0.056
		c0.071,0.013,24.776,4.6,52.747-16.861c4.139-33.974,17.284-68.632,48.386-93.674c-48.381-20.465-83.681-11.674-105.807,8.031
		c-12.125,10.798-20.349,24.865-24.628,39.167c-4.248,14.183-4.595,28.534-1.002,40.062
		C54.385,267.774,64.143,277.263,79.54,277.574L79.54,277.574z M141.822,262.915c0.028,0.509-0.033,1.024-0.171,1.515
		c-5.607,51.555,10.075,101.313,12.699,109.172c3.674,3.216,20.517,16.348,44.184,9.767
		c-12.926-45.592-17.037-82.103-16.024-111.211c-0.069-0.507-0.053-1.038,0.056-1.566c2.517-60.741,27.492-88.722,40.619-99.314
		c-12.041-2.591-27.063-1.3-31.212-0.866C159.21,194.155,145.802,228.841,141.822,262.915L141.822,262.915z M132.162,272.469
		c-21.775,14.226-41.282,14.907-49.292,14.433c-1.935,9.211,5.697,13.433,6.826,14.005c2.037,0.867,3.165,3.165,2.545,5.38
		c-0.036,0.117-12.062,41.397,23.48,49.901c1.308,0.278,2.473,1.15,3.09,2.474c0.028,0.054,8.456,18.528,26.13,14.558
		C140.781,359.85,129.22,317.859,132.162,272.469L132.162,272.469z M234.907,174.01c-3.198,1.686-39.783,22.462-43.544,94.002
		c146.5,36.823,186.694-34.456,205.765-68.307c5.804-10.297,9.886-17.544,15.545-18.934c8.713-2.138,18.327-10.057,24.518-20.749
		c5.238-9.048,7.913-20.021,5.329-31.053c-4.748-20.276-37.827-5.566-41.073-4.069c-0.625,0.345-1.341,0.542-2.106,0.542
		c-2.446,0-4.429-2.016-4.429-4.503c0-2.433-2.624-5.735-5.985-8.142c-1.543-1.104-3.193-1.954-4.774-2.38
		c-1.29-0.351-2.494-0.41-3.455-0.062c-1.104,0.4-2.091,1.536-2.769,3.695c-4.531,14.403,8.035,49.116,8.068,49.215
		c0.375,1.058,0.365,2.256-0.12,3.361c-4.85,11.011-14.976,17.539-30.177,18.785c-13.462,1.106-31.131-2.036-52.834-10.034
		c-41.3-15.225-67.675-1.505-67.749-1.466C235.047,173.945,234.979,173.978,234.907,174.01L234.907,174.01z M191.075,277.214
		c-0.342,28.058,4.179,63.23,16.942,107.154c1.545,2.073,8.955,10.493,27.53,10.493c21.158,0,27.833-10.922,27.854-10.952
		c1.13-1.79,3.3-2.491,5.189-1.811c28.999,10.506,48.853-9.131,48.914-9.185c1.306-1.267,3.185-1.556,4.748-0.89
		c20.336,7.887,30.003-13.306,30.031-13.362c0.617-1.324,1.785-2.196,3.093-2.474c35.54-8.504,23.516-49.784,23.48-49.901
		c-0.372-1.334-0.112-2.7,0.599-3.764c1.219-2.083,11.643-20.739-4.812-22.009c-2.435-0.186-4.261-2.343-4.08-4.822
		c0.013-0.163,0.033-0.326,0.061-0.484c0.253-1.948,2.083-17.483-3.466-21.4C336.441,280.629,284.581,300.307,191.075,277.214z"/>
	<path style="fill-rule:evenodd;clip-rule:evenodd;fill:#5B0030;" d="M434.856,153.717v-1.387c-0.729-0.579-0.342-0.31-1.517-0.391
		c-6.135,6.083-6.148,5.769-14.724,10.71l-11.126,7.719c-1.398,1.242-1.918,2.305-3.017,3.462c-2.331-2.354-1.956-4.104-0.27-7.315
		c4.911-9.36,17.279-17.366,24.003-27.565c1.568-2.388,6.696-11.939,4.118-15.781c-3.31,1.574-1.117,7.714-10.187,17.338
		c-1.653,1.753-2.423,3.074-4.259,4.927c-5.75,5.802-12.434,11.155-16.743,19.724c-5.189-9.862,1.367-13.539,5.885-19.965
		c3.807-5.423,8.127-14.673,6.301-23.289c-3.631,0.931-1.232,5.209-5.59,14.239c-1.566,3.246-5.809,10.229-7.877,11.612
		c0.415-6.897,6.571-27.735,0.122-31.497c-2.249-0.555,0.079,0.139-1.686,0.237c-1.816,0.101,0.347-0.407-2.111-0.325
		c-0.841,3.027,0.449,6.944,0.576,10.047c0.184,4.497,0.015,6.666-0.418,10.701c-2.456-2.911-3.947-12.054-4.529-16.356
		c-0.696-5.152-0.709-4.494-1.964-5.085c-2.67,3.232-0.089,15.142,0.931,18.49c1.543,5.061,6.095,11.058,3.116,16.384
		c-1.94-5.562-4.995-10.727-7-16.525c-2.267-6.57-2.31-8.331-3.366-14.626c-0.571-3.422-0.441-3.416-1.775-4.334
		c-3.185,4.524,1.194,19.477,2.846,23.858c1.517,4.028,8.52,17.27,8.616,20.182c-4.121-3.873-5.99-13.195-10.144-12.865
		c-1.334,3.898,6.903,15.148,8.308,17.822c-4.093-0.527-9.846,0.929-10.807,4.636c3.432-0.117,15.152-6.251,21.318,9.766
		c5.498,14.285-4.067,21.557-4.432,26.539c2.874-0.202,3.664-1.984,5.039-4.02c7.607-11.252,3.94-16.517,3.442-23.677
		c2.428-2.583,3.578-3.727,6.786-6.03c2.756-1.975,5.276-3.25,8.142-5.118c3.519-2.296,8.726-5.289,11.585-8.271
		C434.172,155.887,433.678,155.65,434.856,153.717L434.856,153.717z M155.64,240.382c0,2.254,1.311,1.756,2.93,1.39
		c0.543-1.617,0.485-1.346,0.145-3.366C156.563,238.34,155.64,237.98,155.64,240.382L155.64,240.382z M161.34,362.3
		c0,1.359,3.904,2.247,3.904-0.513C165.244,358.919,161.34,358.248,161.34,362.3L161.34,362.3z M170.647,336.341
		c0.115,3.022,2.106,3.593,4.491,3.06l0.288-2.943C173.044,335.311,173.235,335.676,170.647,336.341L170.647,336.341z
		 M114.091,247.436c-0.046,1.965,0.199,3.582,2.463,3.046c1.772-0.417,1.782-1.803,2.048-4.127
		C116.559,246.295,115.136,246.484,114.091,247.436L114.091,247.436z M383.31,204.86c-1.13-1.687,0.003-4.869,2.915-4.473
		c0.928,0.127,0.696,0.21,1.153,0.413l0.655,0.484C387.867,203.824,385.559,206.291,383.31,204.86L383.31,204.86z M261.891,392.434
		c7.053,0,8.979-13.655,7.599-18.819c-3.95,0.043-2.667,3.715-4.304,10.032c-0.492,1.91-1.323,3.886-2.295,4.876
		c-1.576,1.609-2.662,0.75-2.874,3.506L261.891,392.434L261.891,392.434z M133.154,277.194c1.793,1.02,7.382-0.127,10.386-0.112
		c3.534,0.018,8.889,0.446,11.692-0.622c-0.41-2.417-1.249-2.254-3.588-2.678C147.429,273.019,133.756,271.851,133.154,277.194
		L133.154,277.194z M179.378,213.254c1.925,0.741,24.363,3.523,21.938-0.771c-1.272-2.253-14.492-1.887-17.85-1.919
		C180.493,210.538,179.587,210.163,179.378,213.254L179.378,213.254z M387.084,296.683c-2.813-0.446-4.763,3.172-9.812,6.01
		c-7.772,4.371-13.612,1.211-9.97,4.725c3.136,3.03,10.294-0.201,12.885-1.757l4.536-3.613c0.388-0.365,1.581-1.92,1.826-2.3
		C387.586,298.124,387.642,298.639,387.084,296.683L387.084,296.683z M126.868,244.596c3.81,0.598,11.62-3.781,17.174-3.819
		c2.522-0.018,4.993,0.625,6.204-1.424c-0.75-2.606-2.331-2.067-6.133-2.258c-4.901-0.244-2.751-0.092-6.875,1.01
		C132.899,239.265,127.333,240.356,126.868,244.596L126.868,244.596z M138.848,337.609c0.492,0.436,0.066,0.38,1.331,0.836
		c1.816,0.655,9.835,0.056,11.771-0.095c3.055-0.237,10.215,0.479,12.056-2.287c-2.058-2.468-9.897-1.744-13.39-1.578
		c-2.366,0.115-4.774,0.438-6.834,0.757C138.275,336.091,139.259,336.096,138.848,337.609L138.848,337.609z M103.243,305.879
		c2.065-0.398,1.882-0.309,2.619-1.709c-1.887-2.173-11.551-1.555-14.627-2.318c-2.764-0.683-10.871-6.311-10.014-2.723
		c1.201,5.006,11.123,7.722,18.347,7.112C100.851,306.131,102.33,306.052,103.243,305.879L103.243,305.879z M359.911,286.165
		c0.727,0.732,0.125,0.689,1.601,0.877c1.41,0.181,4.281-1.247,5.439-2.065c7.556-5.319,12.497-16.861,7.719-18.856
		c-2.649,1.434-0.331,5.191-5.745,11.629c-1.635,1.948-2.208,2.703-4.292,4.383C361.184,284.92,360.714,283.885,359.911,286.165
		L359.911,286.165z M195.831,365.174c-0.882-0.184-2.491-0.278-3.72-0.398c-5.75-0.556-16.833-2.382-20.869-0.627
		c0.841,1.775-0.806,1.359,2.2,2.211c5.501,1.556,21.277,3.307,24.865,0.571C197.725,365.613,197.84,365.585,195.831,365.174
		L195.831,365.174z M103.76,358.098c6.199,5.108,29.677-4.271,27.79-11.888c-4.037-0.36-5.113,6.987-20.423,9.351
		C108.121,356.025,104.872,355.696,103.76,358.098L103.76,358.098z M168.834,306.394c-1.647,0-5.398,0.306-7.352,0.487
		c-3.203,0.298-4.792-0.125-5.243,2.598c3.274,2.086,12.793,0.612,17.608,0.938c2.598,0.176,6.151,0.4,8.706,0.903
		c2.869,0.566,4.725,2.165,6.788,1.879C189.986,306.861,174.362,306.394,168.834,306.394L168.834,306.394z M364.198,355.221
		c-12.776,2.407-19.763-5.281-26.173-5.485c0.972,5.934,22.124,14.609,33.895,6.179c1.971-1.413,0.775,0.125,1.421-1.846
		L364.198,355.221L364.198,355.221z M101.861,253.034c-2.739,1.09-5.335,2.41-7.943,3.202c-10.463,3.184-28.892,3.822-39.127-0.16
		c-2.78-1.081-5.205-2.939-6.574-4.633c-0.92-1.145-1.359-2.165-1.596-4.026l-0.923-4.424c-0.036-0.212-0.166-0.237-0.26-0.347
		c-1.918,2.155-1.795,7.054-0.564,9.622c3.72,7.779,15.104,9.593,23.187,10.32c12.975,1.168,25.368-1.053,36.134-7.724
		C108.86,251.969,106.379,251.233,101.861,253.034L101.861,253.034z M208.609,248.259c6.9,1.093,12.176,2.544,18.783,4.081
		c3.868,0.9,35.646,7.659,39.181,2.772c-4.511-1.599-14.734-1.93-19.972-2.727c-12.984-1.97-23.858-6.051-38.059-7.723
		c-3.284-0.387-17.847-1.647-19.791,0.71C191.751,247.115,203.955,247.523,208.609,248.259L208.609,248.259z M291.329,254.268
		c12.276,0.041,15.897-0.728,27.989-4.366c15.068-4.533,33.14-13.25,45.594-22.042c4.305-3.04,15.42-12.187,16.262-17.457
		c-3.295,0.292-10.445,9.448-18.878,14.813c-16.399,10.428-38.877,20.848-58.265,25.064c-2.224,0.482-4.702,0.865-6.831,1.288
		C293.787,252.243,292.221,252.071,291.329,254.268L291.329,254.268z M70.812,201.708c5.74-1.401,15.293-12.417,25.161-15.879
		c11.605-4.074,33.979-4.823,47.07-4.823c15.16,0,13.306,9.825,38.416,6.613c-0.214-2.134-0.332-2.235-2.522-2.73l-8.614-0.514
		c-3.302,0.378-1.573,2.937-9.359-1.331c-14.553-7.978-27.928-6.438-44.536-4.686c-10.58,1.117-19.304,1.731-27.594,6.872
		c-2.152,1.335-3.228,2.143-5.082,3.583C80.925,191.01,71.238,199.119,70.812,201.708L70.812,201.708z M207.525,198.396
		c14.923-1.025,17.238-17.571,74.702-6.012c12.587,2.531,24.036,5.198,36.618,7.588c6.533,1.241,12.212,2.092,19.413,2.087
		c4.61-0.004,11.187-0.02,15.499-0.964c2.191-0.479,2.884-0.552,3.198-2.383c-3.792-1.394-15.876-0.01-20.719,0
		c-24.266,0.06-78.548-24.024-114.671-9.157C216.784,191.524,208.247,194.266,207.525,198.396z"/>
	<path style="fill-rule:evenodd;clip-rule:evenodd;fill:#FFF7BD;" d="M179.643,166.266c-4.518-1.85-8.92-3.444-13.204-4.794
		c-9.932,5.049-16.078,12.723-19.51,18.323c3.144,0.624,6.158,1.562,8.856,2.585C159.866,176.516,167.304,168.992,179.643,166.266
		L179.643,166.266z M146.269,156.702c-3.904-0.601-7.691-0.984-11.365-1.167c-5.781,6.371-10.687,14.313-12.411,23.79
		c3.142-0.196,6.212-0.307,9.091-0.355C133.845,169.76,139.92,162.292,146.269,156.702L146.269,156.702z M118.489,156.098
		c-4.96,0.613-9.659,1.624-14.099,2.985c-6.51,9.359-10.131,19.363-12,25.963c2.94-1.293,6.449-2.333,10.256-3.162
		C105.426,174.075,110.294,163.954,118.489,156.098L118.489,156.098z M86.568,167.125c-3.871,2.387-7.454,5.072-10.741,8.001
		c-1.425,1.272-2.802,2.591-4.123,3.951c-2.66,7.955-4.167,16.55-3.139,24.979c2.925-2.829,5.793-5.498,8.497-7.894
		C77.605,185.851,81.945,175.455,86.568,167.125L86.568,167.125z M65.518,186.23c-5.161,6.712-9.208,14.085-12.128,21.656
		c0.089,4.436,0.584,8.064,1.073,10.626c2.532-2.745,5.161-5.509,7.816-8.21C61.879,204.294,62.295,195.886,65.518,186.23z"/>
	<path style="fill-rule:evenodd;clip-rule:evenodd;fill:#FFF7BD;" d="M90.625,277.91c3.223-0.219,7.097-0.735,11.45-1.795
		c-9.698-7.421-9.206-18.364-8.611-31.401c0.372-8.232,0.778-17.195-0.829-26.813c-3.057-18.25-8.867-25.61-13.719-28.48
		c3.139-4.209,8.688-9.193,15.961-5.791c6.663,3.12,10.577,6.737,13.028,13.681c2.749,7.784,3.942,19.765,5.013,39.055
		c0.755,13.625,3.894,24.313,7.785,32.538c2.471-1.325,5-2.839,7.574-4.563c-3.249-7.15-5.873-16.486-6.538-28.467
		c-1.117-20.117-2.42-32.77-5.531-41.589c-3.407-9.662-8.708-14.626-17.661-18.817c-19.632-9.186-30.48,14.807-30.508,14.877
		c-1.043,2.244-0.099,4.922,2.109,5.981c0.987,0.474,2.06,0.543,3.039,0.274l0.003,0.008c0.018-0.004,6.561-2.134,10.73,22.772
		c1.459,8.734,1.076,17.187,0.724,24.949C84.041,257.544,83.524,269.001,90.625,277.91L90.625,277.91z M142.495,221.948
		c-1.637-5.78-3.18-12.851-4.825-21.532c-4.434-23.387-18.373-25.994-18.413-26.001c-2.387-0.496-3.93-2.867-3.44-5.295
		c0.484-2.43,2.815-3.999,5.207-3.504c0.054,0.011,19.76,3.743,25.324,33.112c0.676,3.561,1.331,6.833,1.976,9.833
		C146.129,212.943,144.196,217.415,142.495,221.948L142.495,221.948z M52.735,209.639c3.55,1.516,6.905,3.814,9.677,7.153
		c4.468,5.382,7.298,13.33,6.714,24.842c-0.122,2.466-0.405,5.105-0.862,7.919c-1.637,10.12-0.854,18.996,0.773,26.141
		c-3.858-1.402-7.186-3.544-9.986-6.276c-0.737-6.364-0.762-13.527,0.497-21.309c0.403-2.486,0.65-4.795,0.76-6.934
		c0.461-9.167-1.42-18.624-10.203-22.885c0.329-1.334,0.694-2.666,1.094-3.998C51.664,212.737,52.176,211.184,52.735,209.639z"/>
	<path style="fill-rule:evenodd;clip-rule:evenodd;fill:#FFF7BD;" d="M234.907,174.01c-0.421,0.221-1.42,0.778-2.848,1.733
		c5.256-0.974,11.23-1.951,14.775-2.53c1.566-0.256,2.739-0.447,3.376-0.579c0.12-0.019,0.232-0.043,0.347-0.072
		c0.456-0.117,2.07-0.108,4.761,0.901c1.879,0.706,4.067,1.896,6.39,3.846c3.029,2.541,6.288,6.358,9.432,12.044
		c2.731,4.93,5.335,11.177,7.591,19.079c5.806,20.344,17.638,36.521,32.201,47.03c6.317,4.553,13.143,8.046,20.222,10.36
		c4.366-1.934,8.456-4.046,12.294-6.292c-9.596-1.413-18.998-5.332-27.395-11.388c-13.025-9.4-23.628-23.917-28.848-42.208
		c-2.476-8.678-5.345-15.547-8.351-20.98c-3.728-6.737-7.737-11.386-11.541-14.578c-0.395-0.33-0.788-0.648-1.181-0.947
		c22.241,4.214,25.375,9.343,31.38,19.202c4.488,7.364,10.376,17.026,24.324,30.125c17.228,16.179,33.278,21.345,45.829,22.07
		c3.009-2.995,5.776-6.046,8.323-9.103c-11.261,1.256-28.603-1.207-48.167-19.583c-13.099-12.299-18.605-21.336-22.805-28.222
		c-2.433-3.992-4.478-7.351-7.048-10.233c-38.475-12.448-62.781,0.19-62.85,0.226C235.047,173.945,234.979,173.978,234.907,174.01
		L234.907,174.01z M229.063,177.914c14.777,4.909,23.085,10.437,36.567,55.3c7.24,24.076,21.596,36.182,33.586,42.256
		c-4.417,0.798-9.042,1.438-13.867,1.91c-10.957-8.017-21.948-20.895-28.157-41.563c-13.14-43.722-20.181-45.964-34.264-50.448
		c-0.38-0.12-0.76-0.243-1.51-0.484C224.261,181.89,226.885,179.606,229.063,177.914L229.063,177.914z M213.003,195.32
		c7.043,4.365,14.844,14.781,20.816,37.735l0.074,0.278c5.807,22.323,9.328,35.862,14.196,44.274
		c-3.468-0.26-7.025-0.599-10.662-1.012c-3.846-9.324-7.245-22.397-12.077-40.975l-0.077-0.278
		c-5.557-21.373-11.965-29.593-16.97-32.477C209.848,200.122,211.424,197.612,213.003,195.32L213.003,195.32z M395.713,202.211
		c-7.196,0.908-15.359,3.231-24.268,6.088c-30.832,9.885-42.779-15.328-44.026-18.193c-0.604-1.007-2.545-4.255-5.159-8.576
		c4.162,1.082,8.129,1.947,11.901,2.596l0.819,1.37c0.194,0.273,0.36,0.571,0.49,0.896c0.028,0.059,8.476,21.295,33.344,13.32
		c11.939-3.828,22.733-6.75,32.273-6.904c-1.249,2.095-2.555,4.406-3.958,6.898L395.713,202.211z"/>
	<path style="fill-rule:evenodd;clip-rule:evenodd;fill:#FFF7BD;" d="M227.339,189.546c3.034-0.555,6.227-1.043,9.563-1.438
		c3.338-7.31,12.768-14.352,21.639-19.687c-9.231,0.651-16.001,2.596-19.826,3.986C233.173,177.573,228.782,183.388,227.339,189.546
		L227.339,189.546z M260.297,187.144c2.864,0.102,5.786,0.287,8.775,0.566c0.255,0.023,0.507,0.051,0.762,0.078
		c2.884-5.868,8.367-12.008,18.49-16.796c-4.914-1.146-9.542-1.887-13.864-2.314C266.764,174.37,262.534,180.948,260.297,187.144
		L260.297,187.144z M286.517,190.394c0.591-7.069,6.737-12.318,13.563-16.007c0.923,0.316,1.849,0.643,2.787,0.989
		c3.279,1.207,6.467,2.304,9.56,3.293c-7.38,2.591-16.649,7.162-16.509,13.738C292.782,191.704,289.646,191.02,286.517,190.394
		L286.517,190.394z M325.899,198.677c2.932,0.458,5.852,0.836,8.754,1.104c1.012-4.178,2.848-9.388,6.163-14.707
		c-2.976-0.33-6.092-0.808-9.343-1.441C328.554,189.128,326.868,194.391,325.899,198.677L325.899,198.677z M356.328,199.176
		c4.077-0.718,8.086-1.835,12.016-3.449c1.583-4.73,1.657-9.31,1.017-13.361c-2.637,1.063-5.539,1.873-8.696,2.419
		C361.053,189.137,360.189,194.204,356.328,199.176z"/>
	<path style="fill-rule:evenodd;clip-rule:evenodd;fill:#5B0030;" d="M680.934,307.503c0,2.486-2.016,4.503-4.505,4.503
		c-2.486,0-4.505-2.017-4.505-4.503c0-6.518,2.643-12.421,6.914-16.69c4.271-4.271,10.172-6.913,16.69-6.913
		c6.515,0,12.417,2.642,16.688,6.913c4.271,4.269,6.913,10.172,6.913,16.69c0,2.486-2.017,4.503-4.503,4.503
		c-2.488,0-4.505-2.017-4.505-4.503c0-4.032-1.635-7.681-4.274-10.323c-2.642-2.639-6.29-4.271-10.32-4.271
		c-4.031,0-7.681,1.635-10.32,4.271C682.567,299.822,680.934,303.471,680.934,307.503z"/>
	<path style="fill-rule:evenodd;clip-rule:evenodd;fill:#5B0030;" d="M650.026,300.98c0.259-1.043,1.316-1.686,2.363-1.425
		c1.048,0.255,1.687,1.313,1.431,2.359c-0.008,0.026-2.268,8.788,7.169,10.978c1.049,0.242,1.707,1.29,1.466,2.338
		c-0.24,1.051-1.288,1.709-2.338,1.466C646.772,313.595,650.018,301.018,650.026,300.98z"/>
	<path style="fill-rule:evenodd;clip-rule:evenodd;fill:#5B0030;" d="M650.563,308.005c0.314-1.03,1.401-1.611,2.433-1.3
		c1.029,0.314,1.612,1.402,1.298,2.43c-0.01,0.036-3.477,12.143-20.487,12.143c-1.08,0-1.956-0.877-1.956-1.956
		c0-1.084,0.876-1.958,1.956-1.958C647.896,317.363,650.555,308.03,650.563,308.005z"/>
	<path style="fill-rule:evenodd;clip-rule:evenodd;fill:#5B0030;" d="M557.494,307.503c0,2.486-2.017,4.503-4.505,4.503
		c-2.487,0-4.505-2.017-4.505-4.503c0-6.518,2.643-12.421,6.913-16.69c4.271-4.271,10.173-6.913,16.69-6.913
		s12.418,2.642,16.69,6.913c4.27,4.269,6.913,10.172,6.913,16.69c0,2.486-2.017,4.503-4.505,4.503c-2.487,0-4.505-2.017-4.505-4.503
		c0-4.032-1.633-7.681-4.274-10.323c-2.64-2.639-6.291-4.271-10.32-4.271c-4.03,0-7.679,1.635-10.32,4.271
		C559.127,299.822,557.494,303.471,557.494,307.503z"/>
	<path style="fill-rule:evenodd;clip-rule:evenodd;fill:#5B0030;" d="M613.796,301.913c-0.256-1.046,0.384-2.104,1.431-2.359
		c1.048-0.26,2.105,0.383,2.363,1.425c0.009,0.038,3.254,12.615-10.089,15.716c-1.05,0.242-2.099-0.416-2.34-1.466
		c-0.24-1.048,0.418-2.096,1.467-2.338C616.064,310.7,613.802,301.939,613.796,301.913z"/>
	<path style="fill-rule:evenodd;clip-rule:evenodd;fill:#5B0030;" d="M613.323,309.135c-0.314-1.028,0.269-2.117,1.298-2.43
		c1.03-0.311,2.118,0.27,2.431,1.3c0.008,0.026,2.669,9.359,16.755,9.359c1.083,0,1.958,0.875,1.958,1.958
		c0,1.079-0.876,1.956-1.958,1.956C616.799,321.278,613.333,309.17,613.323,309.135z"/>
	<path style="fill-rule:evenodd;clip-rule:evenodd;fill:#5B0030;" d="M511.973,280.488c8.943-16.843,33.8-49.774,90.257-45.778
		c30.344,2.147,61.423,15.004,91.021,27.247c40.543,16.771,78.197,32.344,104.614,16.009c21.262-13.15,30.642-27.668,33.366-39.68
		c0.943-4.162,1.08-7.992,0.637-11.325c-0.421-3.165-1.36-5.834-2.61-7.854c-1.206-1.953-2.61-3.19-3.96-3.496
		c-30.571-6.934-63.873-25.388-96.902-43.692c-60.672-33.624-120.4-66.726-155.382-22.72c-0.819,1.03-2.003,1.606-3.223,1.686
		C565.291,151.358,460.844,163.591,511.973,280.488L511.973,280.488z M516.322,292.733c0.599-1.839,18.091-53.803,85.274-49.049
		c28.943,2.05,59.317,14.614,88.242,26.579c32.097,13.275,62.478,25.839,88.46,23.327c1.474,6.561,7.811,41.384-21.616,48.999
		c-1.402,0.362-2.478,1.352-3.005,2.586l-0.005-0.003c-0.024,0.061-8.755,20.951-26.839,13.201c-1.817-0.773-3.858-0.26-5.106,1.132
		c-1.39,1.443-18.9,18.888-43.94,8.984c-2.197-0.87-4.669,0.112-5.692,2.198c-1.029,1.594-7.552,10.514-24.884,10.514
		c-17.331,0-23.854-8.92-24.883-10.514c-1.024-2.086-3.495-3.068-5.691-2.198c-25.041,9.904-42.55-7.54-43.941-8.984
		c-1.248-1.392-3.29-1.905-5.107-1.132c-18.083,7.75-26.813-13.14-26.839-13.201l-0.004,0.003c-0.528-1.234-1.603-2.223-3.005-2.586
		C506.55,334.52,515.532,295.895,516.322,292.733L516.322,292.733z M787.154,292.078c1.898,8.915,8.164,48.195-26.184,58.625
		c-3.212,6.141-14.474,23.822-34.866,17.001c-6.077,5.299-24.147,18.25-48.417,10.315c-3.949,4.475-13.256,12.189-30.479,12.189
		c-17.221,0-26.53-7.714-30.477-12.189c-24.27,7.936-42.342-5.016-48.417-10.315c-20.392,6.821-31.656-10.861-34.866-17.001
		c-34.584-10.504-27.993-50.258-26.145-58.808c-61.141-128.257,44.391-147.615,59.864-149.736
		c39.773-47.805,102.192-13.224,165.594,21.912c32.465,17.993,65.195,36.131,94.508,42.781c3.723,0.841,7.136,3.511,9.628,7.538
		c1.883,3.047,3.28,6.936,3.876,11.411c0.574,4.314,0.41,9.211-0.778,14.454c-3.177,14.01-13.741,30.707-37.412,45.347
		C797.674,288.635,792.524,290.744,787.154,292.078z"/>
	<path style="fill-rule:evenodd;clip-rule:evenodd;fill:#5B0030;" d="M664.617,230.436c0.75,1.805,4.326,2.578,7.078,3.636
		c19.7,7.571,31.879,13.834,50.663,21.846c15.773,6.732,48.541,15.835,67.664,15.835c9.899,0,15.856-0.612,24.976-3.988
		c4.206-1.556,14.511-4.878,15.848-9.379c-4.139,0.219-12.459,4.184-16.389,5.768c-11.002,4.437-13.966,3.932-25.464,3.932
		c-17.602,0-50.439-9.764-65.529-15.871C713.463,248.166,674.131,229.32,664.617,230.436L664.617,230.436z M655.358,230.1
		c0.091-0.574,0.571-0.225,0.616-1.224c0.048-1.099-1.2-1.828-2.345-1.969c-2.682-0.337-3.156,0.495-2.871,2.871
		C652.891,230.918,652.924,230.765,655.358,230.1L655.358,230.1z M586.21,213.479c0.864,1.119,0.078,1.354,2.278,1.905
		c1.601,0.403,1.761,0.291,3.265-0.071C593.787,211.413,587.995,210.745,586.21,213.479L586.21,213.479z M542.617,331.853
		c-6.449,0.678-6.38,17.072-3.422,19.854c3.83,3.608,1.8-7.104,1.911-9.004C541.303,339.327,543.177,333.99,542.617,331.853
		L542.617,331.853z M665.316,380.67h2.349c4.375-2.002,5.791-1.066,9.254-7.66c1.568-2.984,3.828-9.517,2.921-13.349
		c-2.682,0.081-2.697,2.07-3.698,4.87c-5.046,14.122-7.614,10.983-11.39,14.331C664.746,380.119,664.722,379.767,665.316,380.67
		L665.316,380.67z M609.851,376.154c8.122,1.657,18.958-12.493,16.205-22.318c-2.048,0.347-2.018,0.564-2.604,2.787
		C618.86,374.093,610.409,370.824,609.851,376.154L609.851,376.154z M752.783,333.536c-1.876-2.41-5.609-6.505-9.082-6.434
		c0.333,3.476,5.239,7.061,8.175,11.465c3.773,5.658,2.123,12.444,3.677,14.283c2.564-0.984,2.958-5.243,2.666-8.193
		C757.667,339.1,755.474,336.993,752.783,333.536L752.783,333.536z M501.395,264.78v7.127c0.884,1.67-0.196,1.278,1.544,2.683
		l0.738-1.721c0.196-0.903,0.122-0.865,0.155-1.785c0.332-8.856,3.717-13.898,9.101-21.374c4.355-6.044,11.363-12.431,17.377-17.088
		c7.233-5.602,12.397-8.364,22.34-12.118c4.265-1.609,8.076-3.833,12.906-4.603c2.827-0.449,12.695-1.196,14.389-2.422
		c-1.965-2.333-12.037-0.938-15.303-0.594c-9.633,1.005-27.63,10.072-34.512,14.92c-7.18,5.057-11.247,9.489-17.071,15.843
		C503.46,254.128,503.538,260.646,501.395,264.78L501.395,264.78z M543.191,153.819c9.55,0.094,15.061-4.126,35.38-2.938
		c15.991,0.938,34.912,2.92,49.594,8.374c4.862,1.805,9.348,3.091,14.27,4.789c5.424,1.869,8.9,3.068,14.019,5.516
		c3.006,1.436,10.423,5.294,13.305,5.862c-0.324-1.872-0.321-1.637-2.302-2.968c-14.063-9.466-38.672-18.077-54.23-21.377
		c-14.357-3.045-40.326-5.495-55.463-2.657C554.652,149.004,544.201,150.218,543.191,153.819L543.191,153.819z M688.721,178.455
		c0.536,2.244,0.765,2.193,2.67,3.496c16.386,11.195,46.247,15.846,64.771,20.612c6.222,1.601,11.722,3.682,18.16,5.003
		c12.728,2.609,30.642,2.774,40.253,5.539c4.693,1.352,13.126,4.343,18.003,4.343c-0.235-6.645-31.231-10.147-35.019-10.542
		c-22.658-2.359-17.951-2.104-38.171-7.576c-15.42-4.169-41.323-8.252-54.682-14.239L688.721,178.455z"/>
	<path style="fill-rule:evenodd;clip-rule:evenodd;fill:#FFF7BD;" d="M522.572,264.882c3.704-4.363,8.225-8.815,13.687-12.923
		c-5.66-12.883-8.508-28.713-7.484-45.179c1.047-16.843,6.203-34.244,16.618-49.679c-9.383,3.626-19.922,9.279-28.686,18.034
		c-3.348,10.111-5.248,20.438-5.878,30.59C509.479,227.43,513.995,248.455,522.572,264.882L522.572,264.882z M563.696,238.334
		c5.479-1.594,11.458-2.769,17.964-3.409c-16.935-51.39,47.459-87.547,52.307-90.186c0.45-0.225,0.89-0.485,1.312-0.791
		c4.023-2.915,4.919-8.543,2.006-12.561l-0.742-1.025c-8.303-1.831-16.273-2.655-23.822-2.185l4.243,5.842
		C596.246,147.467,547.242,185.742,563.696,238.334L563.696,238.334z M614.524,236.136c1.945-30.825,14.185-81.549,74.293-76.577
		c7.187,0.594,13.597,0.987,19.313,1.214c6.722,3.639,13.488,7.387,20.267,11.146c3.942,2.186,7.888,4.371,11.833,6.541
		c-22.38,15.27-51.587,41.435-60.366,77.997c-5.592-2.272-11.224-4.503-16.881-6.625c8.042-30.434,28.006-54.208,47.789-71.267
		c-6.999-0.018-14.773-0.344-23.432-1.058c-45.422-3.756-53.934,37.878-55.048,62.389
		C626.365,238.351,620.436,237.074,614.524,236.136L614.524,236.136z M714.472,270.581c5.866,2.3,11.637,4.45,17.279,6.35
		c2.568-23.776,14.175-54.438,52.353-75.947c-6.321-2.879-12.699-6.005-19.106-9.29C730.386,215.011,718.03,245.466,714.472,270.581
		L714.472,270.581z M758.715,283.851c21.56-20.726,42.195-52.375,53.851-71.716c4.29,1.354,8.536,2.525,12.732,3.476
		c1.35,0.306,2.754,1.543,3.96,3.496l0.057,0.092c-9.769,16.315-26.66,42.687-45.759,64.457
		C775.875,285.305,767.547,285.198,758.715,283.851z"/>
</g>
</svg>
