<?xml version="1.0" encoding="iso-8859-1"?>
<!-- Generator: Adobe Illustrator 18.1.1, SVG Export Plug-In . SVG Version: 6.00 Build 0)  -->
<svg version="1.1" id="Object" xmlns="http://www.w3.org/2000/svg" xmlns:xlink="http://www.w3.org/1999/xlink" x="0px" y="0px"
	 viewBox="0 0 880 505" style="enable-background:new 0 0 880 505;" xml:space="preserve">
<g id="Background">
	<rect style="fill-rule:evenodd;clip-rule:evenodd;fill:#FFD2DE;" width="880" height="505"/>
</g>
<g id="Color">
	<path style="fill-rule:evenodd;clip-rule:evenodd;fill:#FFFFFF;" d="M151.46,151.526c-14.394,0-19.766,6.622-19.781,6.641
		c-1.237,1.478-3.44,1.674-4.919,0.437l-0.065-0.056c-12.63-10.133-21.849,5.088-21.875,5.133c-0.817,1.324-2.377,1.909-3.811,1.551
		l-0.001,0.008c-14.532-3.635-17.037,5.001-17.044,5.026c-0.455,1.505-1.839,2.473-3.334,2.472v0.014
		c-15.011,0-16.256,16.964-16.259,17.013c-0.127,1.627-1.35,2.905-2.888,3.171c-5.274,1.335-8.81,3.766-10.997,6.696
		c-1.99,2.664-2.902,5.78-3.016,8.861c-0.117,3.181,0.591,6.315,1.837,8.906c1.265,2.638,3.028,4.629,4.927,5.352
		c1.584,0.603,2.474,2.233,2.203,3.843c-0.138,0.997-1.41,12.078,10.279,10.046c1.743-0.297,3.404,0.751,3.919,2.393
		c0.02,0.054,5.932,19.712,29.783,12.991c1.551-0.436,3.149,0.249,3.938,1.565c0.857,1.171,6.61,8.283,16.521,2.697
		c1.474-0.828,3.291-0.468,4.353,0.764c0.823,0.855,8.574,8.409,26.232,8.409c17.66,0,25.411-7.553,26.234-8.409
		c1.062-1.233,2.878-1.592,4.352-0.764c9.912,5.586,15.666-1.526,16.522-2.697c0.789-1.317,2.388-2.001,3.937-1.565
		c23.852,6.721,29.764-12.937,29.781-12.992c0.519-1.641,2.179-2.689,3.922-2.392c11.69,2.033,10.416-9.049,10.279-10.046
		c-0.272-1.61,0.619-3.24,2.203-3.843c1.899-0.723,3.661-2.714,4.928-5.352c1.244-2.591,1.953-5.725,1.835-8.906
		c-0.114-3.081-1.026-6.197-3.016-8.861c-2.187-2.93-5.723-5.361-10.997-6.696c-1.538-0.266-2.76-1.545-2.888-3.171
		c-0.004-0.048-1.248-17.013-16.26-17.013v-0.014c-1.495,0.001-2.878-0.967-3.334-2.472c-0.007-0.025-2.512-8.66-17.043-5.026
		l-0.002-0.008c-1.434,0.358-2.993-0.227-3.811-1.551c-0.026-0.044-9.245-15.265-21.875-5.133l-0.066,0.056
		c-1.478,1.238-3.681,1.042-4.918-0.437C171.227,158.148,165.856,151.526,151.46,151.526z"/>
	<path style="fill-rule:evenodd;clip-rule:evenodd;fill:#CD5B5A;" d="M151.46,361.459c15.603,0,37.52-0.97,56.271-5.689
		c17.941-4.517,32.926-12.414,35.963-26.117c5.458-24.61,1.936-70.384,0.477-86.192c-1.765,0.451-3.854,0.625-6.324,0.427
		c-2.944,6.287-12.358,20.758-35.021,15.423c-3.137,3.345-10.739,9.292-21.949,4.213c-3.854,3.068-13.319,8.93-29.418,8.93
		c-16.098,0-25.563-5.861-29.416-8.93c-11.211,5.079-18.812-0.868-21.949-4.213c-22.663,5.335-32.075-9.136-35.021-15.423
		c-2.47,0.198-4.558,0.025-6.324-0.426c-1.459,15.807-4.982,61.582,0.477,86.192c3.038,13.703,18.022,21.6,35.963,26.117
		C113.941,360.489,135.858,361.459,151.46,361.459z"/>
	<path style="fill-rule:evenodd;clip-rule:evenodd;fill:#A53C4A;" d="M153.043,239.604v-9.406
		c-2.488,2.915-5.951,5.731-10.675,8.165C146.324,239.121,149.885,239.49,153.043,239.604z"/>
	<path style="fill-rule:evenodd;clip-rule:evenodd;fill:#ACD190;" d="M173.051,185.227c-10.921-4.778-39.992-17.271-42.499-15.934
		c-2.376,1.266-5.186,7.835-6.599,11.484c3.006,1.345,5.94,2.959,8.747,4.736c7.925,5.013,14.914,11.453,19.56,16.814
		C156.194,198.994,165.028,191.568,173.051,185.227z"/>
	<path style="fill-rule:evenodd;clip-rule:evenodd;fill:#E94F4D;" d="M180.664,185.949c-0.343,0.562-0.866,0.967-1.46,1.174
		c-8.109,6.552-19.106,15.864-23.489,19.591c1.221,1.749,2.026,3.223,2.334,4.278l0.102,0.353c0.434,1.64,0.648,3.624,0.489,5.804
		v0.028v22.362c5.443-0.335,9.114-1.406,10.906-2.059c2.261-5.662,7.708-12.68,20.735-10.544c2.169-6.19,8.274-19.061,21.732-19.822
		c0.977-5.679,2.88-17.369,2.112-17.999c-1.187-0.79-7.524-3.239-13.715-5.413c-5.488-1.927-10.687-3.591-11.732-3.591
		C188.141,180.112,184.934,182.53,180.664,185.949z"/>
	<path style="fill-rule:evenodd;clip-rule:evenodd;fill:#FBBE00;" d="M119.502,184.95l-0.009-0.002
		c-0.071-0.026-0.142-0.055-0.211-0.083c-4.856-1.889-9.797-2.898-14.492-2.477c-15.404,1.383-16.353,19.105-16.071,26.499
		c5.209,0.566,10.546,3.66,12.998,12.904c4.582-1.079,11.77-1.026,15.798,7.898c3.525,0.055,9.526,1.03,13.68,6.413
		c0.647-0.204,1.359-0.222,2.057-0.01l0.12,0.035c9.077-3.117,14.28-7.433,17.047-11.729c1.626-2.529,2.399-5.03,2.625-7.24
		c0.001-0.152,0.015-0.301,0.039-0.448c0.105-1.491-0.039-2.836-0.331-3.944l-0.058-0.222c-0.281-0.964-1.124-2.393-2.425-4.112
		c-0.147-0.114-0.284-0.245-0.409-0.39c-0.179-0.209-0.322-0.438-0.43-0.677c-4.003-4.942-11.223-11.766-19.702-17.132
		C126.446,188.16,122.998,186.33,119.502,184.95z"/>
	<path style="fill-rule:evenodd;clip-rule:evenodd;fill:#CD5B5A;" d="M493.773,354.36c0.026-0.067,0.054-0.135,0.087-0.2
		c2.705-6.204,4.083-22.325,2.113-37.373c-1.406-10.737-4.497-20.697-9.996-25.503l-0.101-0.085
		c-6.873-5.84-29.026-9.133-50.579-9.844c-21.259-0.703-41.45,0.952-45.08,5.032l-0.028,0.034
		c-7.094,8.345,0.759,64.109,1.36,68.299c3.024,10.652,21.278,11.594,43.931,12.763c2.088,0.107,4.22,0.216,6.038,0.317
		c13.412,0.739,25.961-0.34,35.632-3.052C485.64,362.37,491.708,358.849,493.773,354.36z"/>
	<path style="fill-rule:evenodd;clip-rule:evenodd;fill:#FFFFFF;" d="M443.061,136.992l-0.031,0.002h-0.041h-0.046h-0.047h-0.043
		l-0.029-0.002l-0.073-0.004l-0.035-0.002c-0.899-0.049-21.849-0.974-30.28,20.81c-0.42,1.089-1.328,1.845-2.377,2.117l-0.022,0.008
		c-0.497,0.127-10.533,2.852-12.105,12.283c-0.27,1.624-1.623,2.8-3.197,2.911c-0.062,0.006-22.23,1.372-20.208,21.592
		c0.184,1.861-1.133,3.525-2.965,3.792l0.001,0.006c-0.05,0.008-17.582,2.358-16.879,26.632c0.044,1.596-0.994,2.972-2.447,3.426
		l0.001,0.006c-0.041,0.01-14.168,4.279-11.495,20.317c0.243,1.453-0.453,2.848-1.643,3.564c-1.86,1.283-21.724,15.693-7.615,37.194
		c0.519,0.792,0.673,1.719,0.504,2.582c-0.008,0.046-3.482,16.828,6.553,19.374c1.636,0.41,2.711,1.911,2.644,3.531
		c0.106,2.715,2.022,30.596,36.048,24.812c1.682-0.281,3.284,0.691,3.85,2.236c0.251,0.541,1.106,2.251,2.557,3.988
		c-2.115-17.194-6.16-57.576,1.218-66.256c0.065-0.077,0.134-0.152,0.204-0.224c5.245-5.6,27.575-8.057,50.449-7.301
		c22.859,0.755,46.741,4.572,54.871,11.483l0.22,0.196c6.927,6.087,10.685,17.626,12.281,29.82
		c1.465,11.186,1.123,23.131-0.253,31.792c1.269-1.636,2.004-3.157,2.196-3.572c0.59-1.501,2.166-2.44,3.822-2.163
		c34.03,5.784,35.943-22.099,36.05-24.814c-0.067-1.618,1.006-3.119,2.644-3.529c10.036-2.547,6.56-19.329,6.551-19.374
		c-0.166-0.863-0.012-1.79,0.507-2.582c14.107-21.499-5.753-35.909-7.616-37.194c-1.19-0.715-1.885-2.111-1.644-3.564
		c2.673-16.038-11.453-20.307-11.493-20.317l0.002-0.006c-1.456-0.453-2.491-1.83-2.45-3.426
		c0.703-24.273-16.826-26.624-16.877-26.632V200.5c-1.834-0.267-3.148-1.931-2.966-3.792c2.022-20.22-20.143-21.586-20.206-21.59
		c-1.574-0.113-2.929-1.289-3.2-2.913c-1.572-9.432-11.608-12.157-12.105-12.283l-0.02-0.008c-1.05-0.271-1.957-1.028-2.378-2.117
		c-8.432-21.784-29.38-20.859-30.279-20.81l-0.035,0.002L443.061,136.992z"/>
	<path style="fill-rule:evenodd;clip-rule:evenodd;fill:#FBBE00;" d="M677.276,248.402c8.459,1.126,18.152,2.019,28.715,2.617
		c-0.047-3.932-1.659-7.485-4.244-10.069c-2.622-2.622-6.246-4.245-10.25-4.245c-4.002,0-7.624,1.623-10.246,4.245
		C679.256,242.946,677.84,245.521,677.276,248.402z"/>
	<path style="fill-rule:evenodd;clip-rule:evenodd;fill:#FBBE00;" d="M681.917,231.96c-0.82-3.839-2.82-7.243-5.6-9.812
		c-3.337-3.081-7.798-4.964-12.705-4.964c-5.168,0-9.848,2.095-13.232,5.481c-3.386,3.386-5.483,8.064-5.483,13.234
		c0,0.755,0.038,1.464,0.113,2.125c0.038,0.333,0.083,0.661,0.138,0.985c0.032,0.135,0.056,0.27,0.073,0.411
		c0.042,0.228,0.089,0.451,0.141,0.675c0.02,0.092,0.037,0.183,0.052,0.274c1.339,2.192,10.604,4.685,24.905,7.01l0.03,0.005
		c0.79-4.404,2.921-8.345,5.955-11.379C677.937,234.373,679.83,233.001,681.917,231.96z"/>
	<path style="fill-rule:evenodd;clip-rule:evenodd;fill:#FBBE00;" d="M670.266,211.06c4.081,1.092,7.763,3.164,10.778,5.951
		c3.677,3.399,6.362,7.857,7.568,12.892c0.943-0.126,1.907-0.193,2.885-0.193c0.414,0,0.824,0.013,1.232,0.036
		c1.16-6.216,4.285-11.748,8.703-15.927c3.432-3.246,7.638-5.674,12.305-6.975c-1.319-3.964-3.711-7.434-6.832-10.06
		c-3.885-3.27-8.913-5.24-14.42-5.24c-6.184,0-11.78,2.5-15.83,6.541C673.236,201.501,670.911,206.019,670.266,211.06z"/>
	<path style="fill-rule:evenodd;clip-rule:evenodd;fill:#FBBE00;" d="M743.834,232.338c-0.648-5.151-3.046-9.757-6.576-13.208
		c-4.036-3.937-9.558-6.363-15.65-6.363c-5.976,0-11.392,2.321-15.394,6.106c-3.424,3.237-5.822,7.546-6.671,12.394
		c2.699,1.092,5.125,2.714,7.151,4.738c3.889,3.889,6.293,9.261,6.293,15.194v0.168c6.208,0.265,12.669,0.432,19.319,0.489
		c-0.004-0.157-0.006-0.315-0.006-0.469c0-5.932,2.406-11.305,6.293-15.194C740.129,234.658,741.894,233.354,743.834,232.338z"/>
	<path style="fill-rule:evenodd;clip-rule:evenodd;fill:#CD5B5A;" d="M792.573,256.039c-0.113,0.019-0.226,0.031-0.339,0.039
		c-15.606,1.762-34.511,2.795-54.852,2.795c-9.859,0-19.378-0.243-28.353-0.693l-0.107-0.005
		c-15.157-0.765-28.739-2.125-39.727-3.909c-10.84-1.762-19.335-4.152-24.659-7.034c-1.525,17.029-4.683,60.826,0.612,84.701
		c3.04,13.7,18.024,21.597,35.963,26.113c18.75,4.722,40.669,5.692,56.271,5.692c15.602,0,37.519-0.97,56.27-5.692
		c17.941-4.516,32.925-12.413,35.963-26.113c5.297-23.875,2.139-67.673,0.612-84.701c-5.323,2.881-13.818,5.271-24.66,7.034
		C801.563,254.915,797.217,255.509,792.573,256.039z"/>
	<path style="fill-rule:evenodd;clip-rule:evenodd;fill:#FBBE00;" d="M798.522,248.262c2.053-0.28,4.028-0.575,5.925-0.883
		c15.493-2.518,25.073-5.235,25.073-7.551v-0.014c-0.004-6.167-2.505-11.752-6.547-15.793c-4.045-4.045-9.634-6.547-15.808-6.547
		c-3.35,0-6.517,0.728-9.35,2.035c-1.84,0.848-3.547,1.939-5.073,3.231c0.155,0.147,0.309,0.297,0.462,0.45
		c4.257,4.257,6.893,10.14,6.893,16.639c0,2.766-0.493,5.447-1.396,7.957C798.643,247.945,798.583,248.104,798.522,248.262z"/>
	<path style="fill-rule:evenodd;clip-rule:evenodd;fill:#FBBE00;" d="M764.589,251.238c9.186-0.443,17.776-1.107,25.547-1.95
		c0.836-1.19,1.515-2.483,2.006-3.852c0.62-1.725,0.958-3.612,0.958-5.607c0-4.566-1.852-8.701-4.844-11.693
		c-2.99-2.992-7.125-4.843-11.693-4.843c-4.566,0-8.701,1.851-11.691,4.843c-2.994,2.992-4.846,7.127-4.846,11.693
		c0,2.432,0.515,4.724,1.436,6.776C762.23,248.318,763.294,249.883,764.589,251.238z"/>
	<path style="fill-rule:evenodd;clip-rule:evenodd;fill:#FBBE00;" d="M753.213,236.904c-3.774,0.148-7.178,1.739-9.673,4.235
		c-2.624,2.623-4.244,6.246-4.244,10.248c0,0.167,0.002,0.329,0.006,0.487c5.77-0.018,11.412-0.12,16.881-0.297
		c-0.396-0.688-0.76-1.399-1.087-2.131c-1.327-2.953-2.063-6.208-2.063-9.618C753.032,238.839,753.094,237.864,753.213,236.904z"/>
	<path style="fill-rule:evenodd;clip-rule:evenodd;fill:#FBBE00;" d="M771.135,216.925c1.743-0.412,3.56-0.63,5.428-0.63
		c3.689,0,7.178,0.849,10.287,2.362c2.343-2.25,5.058-4.112,8.042-5.489c3.744-1.727,7.905-2.69,12.273-2.69
		c5.448,0,10.549,1.483,14.919,4.069l0.071-0.353c0.301-1.581,0.459-3.244,0.459-4.968c0-7.265-2.947-13.842-7.705-18.602
		c-4.762-4.76-11.339-7.706-18.604-7.706c-7.263,0-13.842,2.946-18.602,7.706c-4.758,4.761-7.703,11.337-7.703,18.602
		c0,1.895,0.19,3.718,0.554,5.45C770.714,215.436,770.91,216.187,771.135,216.925z"/>
	<path style="fill-rule:evenodd;clip-rule:evenodd;fill:#FBBE00;" d="M725.999,206.098c6.226,0.936,11.814,3.828,16.121,8.031
		c4.333,4.228,7.362,9.785,8.434,16.012c1.053-0.159,2.135-0.243,3.234-0.243c0.448,0,0.919,0.018,1.412,0.051
		c1.172-2.528,2.78-4.815,4.727-6.76c1.406-1.407,2.99-2.636,4.713-3.652c-0.36-1.118-0.667-2.266-0.915-3.442
		c-0.471-2.242-0.719-4.543-0.719-6.87c0-9.196,3.727-17.522,9.753-23.548l0.166-0.164c-2.164-2.874-4.905-5.292-8.048-7.078
		c-3.82-2.173-8.253-3.415-12.992-3.415c-7.265,0-13.842,2.944-18.602,7.706c-4.76,4.76-7.705,11.337-7.705,18.602
		c0,1.259,0.079,2.454,0.232,3.574C725.862,205.304,725.925,205.703,725.999,206.098z"/>
	<path style="fill-rule:evenodd;clip-rule:evenodd;fill:#FBBE00;" d="M763.508,161.443c-0.053,0.035-0.109,0.066-0.162,0.097
		c-0.634,0.382-1.244,0.803-1.82,1.262c-1.905,1.514-3.477,3.425-4.594,5.606c4.081,0.624,7.923,1.991,11.386,3.961
		c3.917,2.227,7.339,5.227,10.056,8.789c3.251-2.081,6.889-3.613,10.778-4.464c0.006-0.177,0.008-0.357,0.008-0.539
		c0-4.705-1.905-8.965-4.988-12.05c-3.085-3.082-7.343-4.99-12.052-4.99C768.975,159.116,766.032,159.964,763.508,161.443z"/>
	<path style="fill-rule:evenodd;clip-rule:evenodd;fill:#FBBE00;" d="M711.62,178.955c-0.115,0.062-0.232,0.119-0.353,0.168
		c-0.899,0.442-1.748,0.96-2.546,1.546c-0.066,0.057-0.131,0.11-0.198,0.162c-2.063,1.562-3.756,3.579-4.933,5.898
		c2.85,1.168,5.475,2.769,7.798,4.724c2.954,2.488,5.414,5.545,7.204,9.001c0.208-8.068,3.289-15.424,8.254-21.081
		c-0.667-0.357-1.36-0.671-2.071-0.938c-1.834-0.682-3.84-1.055-5.963-1.055C716.238,177.379,713.801,177.944,711.62,178.955z"/>
	<path style="fill-rule:evenodd;clip-rule:evenodd;fill:#FBBE00;" d="M713.553,170.965c1.695-0.381,3.455-0.582,5.259-0.582
		c2.927,0,5.757,0.538,8.392,1.52c1.774,0.662,3.45,1.526,4.992,2.561c4.911-3.602,10.84-5.892,17.279-6.352
		c1.45-4.084,3.97-7.657,7.222-10.381c-1.946-2.238-4.285-4.121-6.909-5.537c-3.479-1.88-7.473-2.949-11.727-2.949
		c-6.816,0-12.988,2.763-17.456,7.232C716.799,160.287,714.228,165.335,713.553,170.965z"/>
	<path style="fill-rule:evenodd;clip-rule:evenodd;fill:#FBBE00;" d="M675.846,189.719c4.733-3.262,10.465-5.172,16.64-5.172
		c1.456,0,2.885,0.106,4.281,0.313c1.659-3.822,4.277-7.125,7.546-9.605c0.079-0.057,0.16-0.114,0.242-0.166
		c0.59-0.435,1.198-0.843,1.826-1.225c0.01-4.31,0.881-8.418,2.45-12.162c-0.863-0.324-1.754-0.605-2.669-0.838
		c-1.945-0.495-3.99-0.757-6.103-0.757c-6.82,0-12.99,2.762-17.458,7.23c-4.465,4.468-7.23,10.64-7.23,17.457
		c0,1.729,0.162,3.37,0.471,4.91L675.846,189.719z"/>
	<path style="fill-rule:evenodd;clip-rule:evenodd;fill:#FBBE00;" d="M652.567,212.675c3.271-1.558,6.927-2.446,10.784-2.485
		c0.735-5.764,3.137-11.006,6.705-15.227c-0.426-1.262-0.776-2.562-1.045-3.894c-0.392-1.951-0.61-3.927-0.632-5.902
		c-4.531,0.529-8.594,2.59-11.656,5.65c-3.572,3.574-5.784,8.512-5.784,13.967c0,1.977,0.281,3.869,0.806,5.639
		C651.974,211.194,652.25,211.947,652.567,212.675z"/>
</g>
<g id="Line">
	<path style="fill-rule:evenodd;clip-rule:evenodd;fill:#5B0030;" d="M105.22,312.756c8.169,0,14.831-6.664,14.831-14.83
		c0-8.17-6.661-14.832-14.831-14.832c-8.168,0-14.831,6.661-14.831,14.832C90.389,306.092,97.051,312.756,105.22,312.756z"/>
	<path style="fill-rule:evenodd;clip-rule:evenodd;fill:#5B0030;" d="M88.558,284.573c0.37,0.576,0.768,1.067,1.233,1.57
		c0.94,0.954,1.922,1.737,3.17,2.248c0.017,0.006,0.034,0.012,0.052,0.014c0.016,0.01,0.032,0.02,0.05,0.028
		c0.05,0.018,0.214,0.065,0.241,0.083c1.432,0.457,2.616,0.471,4.074,0.093c0.57-0.176,1.05-0.374,1.563-0.677
		c0.379-0.228,2.424-1.685,1.81-2.337c-0.447-0.422-1.999,0.568-2.581,0.818c-0.432,0.172-0.8,0.297-1.256,0.398
		c-1.078,0.212-1.918,0.162-2.95-0.204c-0.014-0.002-0.147-0.056-0.177-0.069c-0.013-0.004-0.027-0.006-0.041-0.008
		c-0.011-0.008-0.023-0.016-0.036-0.02c-1.024-0.394-1.785-0.956-2.594-1.693c-0.189-0.109-0.986-1.024-1.191-1.256
		c-0.382-0.443-1.46-2.039-2.084-1.764C87.096,282.181,88.318,284.195,88.558,284.573z"/>
	<path style="fill-rule:evenodd;clip-rule:evenodd;fill:#5B0030;" d="M86.369,289.482c0.649,0.543,1.269,0.921,2.033,1.283
		c1.401,0.592,2.662,0.877,4.182,0.824c0.021,0,0.041-0.004,0.061-0.006c0.021,0.002,0.043,0.002,0.063,0.002
		c0.108-0.008,0.485-0.058,0.536-0.05c1.674-0.222,2.985-0.713,4.445-1.558c0.2-0.071,1.005-0.673,1.217-0.844
		c0.343-0.281,2.354-2.04,1.668-2.646c-0.525-0.412-2.136,0.929-2.659,1.257c-0.372,0.228-0.732,0.436-1.119,0.64
		c-1.263,0.63-2.36,1.002-3.768,1.147c-0.062,0.018-0.338,0.024-0.432,0.03c-0.017,0-0.034,0.004-0.05,0.01
		c-0.016-0.004-0.034-0.004-0.049-0.004c-1.241,0.061-2.182-0.103-3.353-0.537c-0.658-0.263-1.162-0.539-1.757-0.915
		c-0.533-0.352-2.206-1.84-2.715-1.495C83.941,287.197,86.036,289.201,86.369,289.482z"/>
	<path style="fill-rule:evenodd;clip-rule:evenodd;fill:#5B0030;" d="M164.056,302.575c0.199-0.814,1.021-1.311,1.835-1.111
		c0.813,0.198,1.31,1.022,1.109,1.834c-0.004,0.018-1.76,6.822,5.567,8.523c0.816,0.188,1.327,1.002,1.141,1.818
		c-0.187,0.816-1.001,1.325-1.818,1.139C161.529,312.371,164.049,302.603,164.056,302.575z"/>
	<path style="fill-rule:evenodd;clip-rule:evenodd;fill:#5B0030;" d="M164.472,308.027c0.243-0.8,1.087-1.251,1.887-1.006
		c0.8,0.24,1.253,1.085,1.009,1.885c-0.008,0.026-2.701,9.43-15.909,9.43c-0.839,0-1.519-0.681-1.519-1.519
		c0-0.84,0.68-1.521,1.519-1.521C162.4,315.296,164.466,308.047,164.472,308.027z"/>
	<path style="fill-rule:evenodd;clip-rule:evenodd;fill:#5B0030;" d="M86.33,293.488c0.78,0.323,1.483,0.503,2.321,0.624
		c1.514,0.157,2.803,0.058,4.24-0.441c0.02-0.006,0.038-0.014,0.056-0.024c0.021-0.004,0.042-0.01,0.061-0.018
		c0.102-0.038,0.447-0.196,0.497-0.204c1.535-0.707,2.644-1.559,3.789-2.798c0.17-0.127,0.762-0.937,0.915-1.164
		c0.245-0.368,1.648-2.644,0.815-3.018c-0.622-0.24-1.767,1.513-2.17,1.982c-0.288,0.329-0.569,0.634-0.881,0.941
		c-1.022,0.974-1.96,1.655-3.264,2.206c-0.053,0.038-0.315,0.123-0.402,0.155c-0.017,0.006-0.032,0.016-0.045,0.024
		c-0.018,0.002-0.034,0.006-0.05,0.012c-1.167,0.424-2.115,0.545-3.362,0.475c-0.706-0.059-1.27-0.172-1.948-0.356
		c-0.613-0.18-2.649-1.111-3.035-0.63C83.338,292.017,85.929,293.314,86.33,293.488z"/>
	<path style="fill-rule:evenodd;clip-rule:evenodd;fill:#5B0030;" d="M135.921,303.298c-0.2-0.812,0.297-1.636,1.111-1.834
		c0.812-0.2,1.634,0.297,1.833,1.111c0.008,0.028,2.529,9.796-7.834,12.202c-0.816,0.186-1.629-0.323-1.816-1.139
		c-0.187-0.816,0.324-1.63,1.14-1.818C137.682,310.12,135.925,303.316,135.921,303.298z"/>
	<path style="fill-rule:evenodd;clip-rule:evenodd;fill:#5B0030;" d="M135.552,308.906c-0.243-0.8,0.21-1.645,1.009-1.885
		c0.799-0.246,1.646,0.206,1.887,1.006c0.006,0.016,1.598,5.602,9.395,6.972c0.538,0.093,1.107,0.168,1.707,0.22
		c0.601,0.049,1.236,0.077,1.91,0.077c0.84,0,1.521,0.681,1.521,1.521c0,0.838-0.68,1.519-1.521,1.519
		c-0.749,0-1.469-0.032-2.16-0.091c-0.691-0.057-1.351-0.145-1.979-0.255C137.668,316.296,135.558,308.928,135.552,308.906z"/>
	<path style="fill-rule:evenodd;clip-rule:evenodd;fill:#FFFFFF;" d="M103.974,297.28c2.895,0,5.258-2.36,5.258-5.255
		c0-2.897-2.362-5.259-5.258-5.259c-2.896,0-5.258,2.362-5.258,5.259C98.717,294.92,101.078,297.28,103.974,297.28z"/>
	<path style="fill-rule:evenodd;clip-rule:evenodd;fill:#5B0030;" d="M197.7,312.756c8.169,0,14.831-6.664,14.831-14.83
		c0-8.17-6.661-14.832-14.831-14.832c-8.169,0-14.831,6.661-14.831,14.832C182.869,306.092,189.531,312.756,197.7,312.756z"/>
	<path style="fill-rule:evenodd;clip-rule:evenodd;fill:#5B0030;" d="M214.363,284.573c-0.37,0.576-0.768,1.067-1.233,1.57
		c-0.941,0.954-1.922,1.737-3.171,2.248c-0.016,0.006-0.034,0.012-0.052,0.014c-0.016,0.01-0.033,0.02-0.049,0.028
		c-0.054,0.018-0.215,0.065-0.243,0.083c-1.432,0.457-2.615,0.471-4.073,0.093c-0.57-0.176-1.051-0.374-1.563-0.677
		c-0.38-0.228-2.424-1.685-1.811-2.337c0.447-0.422,1.999,0.568,2.582,0.818c0.431,0.172,0.799,0.297,1.256,0.398
		c1.079,0.212,1.917,0.162,2.952-0.204c0.012-0.002,0.145-0.056,0.176-0.069c0.013-0.004,0.026-0.006,0.041-0.008
		c0.01-0.008,0.023-0.016,0.036-0.02c1.024-0.394,1.785-0.956,2.594-1.693c0.189-0.109,0.987-1.024,1.19-1.256
		c0.382-0.443,1.462-2.039,2.085-1.764C215.824,282.181,214.604,284.195,214.363,284.573z"/>
	<path style="fill-rule:evenodd;clip-rule:evenodd;fill:#5B0030;" d="M216.553,289.482c-0.649,0.543-1.27,0.921-2.035,1.283
		c-1.401,0.592-2.661,0.877-4.181,0.824c-0.021,0-0.042-0.004-0.061-0.006c-0.022,0.002-0.043,0.002-0.064,0.002
		c-0.109-0.008-0.485-0.058-0.535-0.05c-1.674-0.222-2.985-0.713-4.445-1.558c-0.2-0.071-1.004-0.673-1.218-0.844
		c-0.343-0.281-2.353-2.04-1.667-2.646c0.525-0.412,2.136,0.929,2.659,1.257c0.371,0.228,0.73,0.436,1.118,0.64
		c1.263,0.63,2.36,1.002,3.769,1.147c0.06,0.018,0.338,0.024,0.43,0.03c0.018,0,0.035,0.004,0.051,0.01
		c0.016-0.004,0.033-0.004,0.05-0.004c1.24,0.061,2.181-0.103,3.352-0.537c0.656-0.263,1.162-0.539,1.757-0.915
		c0.533-0.352,2.205-1.84,2.715-1.495C218.978,287.197,216.885,289.201,216.553,289.482z"/>
	<path style="fill-rule:evenodd;clip-rule:evenodd;fill:#5B0030;" d="M216.59,293.488c-0.78,0.323-1.484,0.503-2.321,0.624
		c-1.513,0.157-2.802,0.058-4.241-0.441c-0.019-0.006-0.039-0.014-0.056-0.024c-0.022-0.004-0.042-0.01-0.062-0.018
		c-0.101-0.038-0.447-0.196-0.496-0.204c-1.536-0.707-2.644-1.559-3.789-2.798c-0.171-0.127-0.762-0.937-0.915-1.164
		c-0.246-0.368-1.649-2.644-0.816-3.018c0.623-0.24,1.767,1.513,2.17,1.982c0.289,0.329,0.57,0.634,0.881,0.941
		c1.023,0.974,1.961,1.655,3.264,2.206c0.054,0.038,0.316,0.123,0.403,0.155c0.016,0.006,0.032,0.016,0.047,0.024
		c0.017,0.002,0.033,0.006,0.048,0.012c1.166,0.424,2.116,0.545,3.362,0.475c0.706-0.059,1.27-0.172,1.949-0.356
		c0.613-0.18,2.65-1.111,3.033-0.63C219.581,292.017,216.991,293.314,216.59,293.488z"/>
	<path style="fill-rule:evenodd;clip-rule:evenodd;fill:#FFFFFF;" d="M198.948,297.28c2.895,0,5.258-2.36,5.258-5.255
		c0-2.897-2.362-5.259-5.258-5.259c-2.896,0-5.258,2.362-5.258,5.259C193.689,294.92,196.052,297.28,198.948,297.28z"/>
	<path style="fill-rule:evenodd;clip-rule:evenodd;fill:#5B0030;" d="M151.46,151.526c-14.394,0-19.766,6.622-19.781,6.641
		c-1.237,1.478-3.44,1.674-4.919,0.437l-0.065-0.056c-12.63-10.133-21.849,5.088-21.875,5.133c-0.817,1.324-2.377,1.909-3.811,1.551
		l-0.001,0.008c-14.532-3.635-17.037,5.001-17.044,5.026c-0.455,1.505-1.839,2.473-3.334,2.472v0.014
		c-15.011,0-16.256,16.964-16.259,17.013c-0.127,1.627-1.35,2.905-2.888,3.171c-5.274,1.335-8.81,3.766-10.997,6.696
		c-1.99,2.664-2.902,5.78-3.016,8.861c-0.117,3.181,0.591,6.315,1.837,8.906c1.265,2.638,3.028,4.629,4.927,5.352
		c1.584,0.603,2.474,2.233,2.203,3.843c-0.138,0.997-1.41,12.078,10.279,10.046c1.743-0.297,3.404,0.751,3.919,2.393
		c0.02,0.054,5.932,19.712,29.783,12.991c1.551-0.436,3.149,0.249,3.938,1.565c0.857,1.171,6.61,8.283,16.521,2.697
		c1.474-0.828,3.291-0.468,4.353,0.764c0.823,0.855,8.574,8.409,26.232,8.409c17.66,0,25.411-7.553,26.234-8.409
		c1.062-1.233,2.878-1.592,4.352-0.764c9.912,5.586,15.666-1.526,16.522-2.697c0.789-1.317,2.388-2.001,3.937-1.565
		c23.852,6.721,29.764-12.937,29.781-12.992c0.519-1.641,2.179-2.689,3.922-2.392c11.69,2.033,10.416-9.049,10.279-10.046
		c-0.272-1.61,0.619-3.24,2.203-3.843c1.899-0.723,3.661-2.714,4.928-5.352c1.244-2.591,1.953-5.725,1.835-8.906
		c-0.114-3.081-1.026-6.197-3.016-8.861c-2.187-2.93-5.723-5.361-10.997-6.696c-1.538-0.266-2.76-1.545-2.888-3.171
		c-0.004-0.048-1.248-17.013-16.26-17.013v-0.014c-1.495,0.001-2.878-0.967-3.334-2.472c-0.007-0.025-2.512-8.66-17.043-5.026
		l-0.002-0.008c-1.434,0.358-2.993-0.227-3.811-1.551c-0.026-0.044-9.245-15.265-21.875-5.133l-0.066,0.056
		c-1.478,1.238-3.681,1.042-4.918-0.437C171.227,158.148,165.856,151.526,151.46,151.526L151.46,151.526z M119.502,184.95
		c3.496,1.38,6.945,3.21,10.225,5.284c8.479,5.366,15.699,12.19,19.702,17.132c0.108,0.239,0.251,0.468,0.43,0.677
		c0.125,0.146,0.262,0.276,0.409,0.39c1.301,1.719,2.144,3.148,2.425,4.112l0.058,0.222c0.292,1.108,0.436,2.453,0.331,3.944
		c-0.024,0.146-0.038,0.295-0.039,0.448c-0.226,2.21-0.999,4.711-2.625,7.24c-2.766,4.296-7.969,8.612-17.047,11.729l-0.12-0.035
		c-0.697-0.212-1.41-0.194-2.057,0.01c-4.154-5.383-10.155-6.358-13.68-6.413c-4.028-8.924-11.216-8.977-15.798-7.898
		c-2.452-9.244-7.789-12.338-12.998-12.904c-0.281-7.394,0.667-25.116,16.071-26.499c4.695-0.421,9.636,0.588,14.492,2.477
		c0.069,0.029,0.14,0.057,0.211,0.083L119.502,184.95L119.502,184.95z M118.765,178.759c1.685-4.242,5.305-12.328,9.163-14.385
		c4.965-2.647,42.482,13.61,50.123,16.971c5.203-3.954,9.402-6.828,10.625-6.828c1.674,0,7.578,1.816,13.567,3.919
		c6.555,2.3,13.431,5.004,14.962,6.025l-0.001,0.003l0.012,0.009c3.108,2.07,1.386,16.171,0.35,22.992
		c1.572,0.272,3.225,0.692,4.962,1.286c1.826,0.619,2.804,2.601,2.186,4.427c-0.619,1.826-2.601,2.804-4.428,2.186
		c-19.006-6.497-24.174,16.371-24.189,16.436l-0.01-0.002l-0.018,0.07c-0.474,1.865-2.371,2.99-4.235,2.515
		c-16.019-4.119-16.901,10.051-16.903,10.091c-0.143,1.924-1.82,3.368-3.743,3.226c-1.515-0.114-2.733-1.177-3.111-2.564
		c-6.346,1.506-17.748,2.752-33.324-1.371c0.07,0.278,0.138,0.559,0.201,0.847c0.415,1.886-0.778,3.754-2.664,4.167
		c-1.887,0.415-3.753-0.778-4.168-2.664c-2.274-10.334-11.034-9.549-12.259-9.388c-1.716,0.348-3.456-0.639-4.012-2.343
		c-3.011-9.235-11.122-4.881-11.146-4.868c-0.338,0.174-0.71,0.298-1.106,0.355c-1.91,0.279-3.684-1.043-3.963-2.952
		c-2.445-16.662-16.739-9.183-16.779-9.162c-1.72,0.875-3.825,0.189-4.701-1.532c-0.874-1.719-0.189-3.825,1.531-4.7
		c0.026-0.012,3.236-1.688,7.452-2.414c-0.307-8.784,1-30.465,21.17-32.276C109.072,176.407,113.966,177.183,118.765,178.759
		L118.765,178.759z M180.664,185.949c4.27-3.419,7.477-5.837,8.013-5.837c1.044,0,6.244,1.664,11.732,3.591
		c6.191,2.174,12.528,4.623,13.715,5.413c0.768,0.63-1.135,12.32-2.112,17.999c-13.457,0.76-19.563,13.632-21.732,19.822
		c-13.027-2.137-18.474,4.881-20.735,10.544c-1.792,0.653-5.463,1.724-10.906,2.059v-22.362v-0.028
		c0.159-2.18-0.055-4.165-0.489-5.804l-0.102-0.353c-0.308-1.055-1.113-2.53-2.334-4.278c4.383-3.728,15.38-13.04,23.489-19.591
		C179.797,186.916,180.32,186.511,180.664,185.949L180.664,185.949z M173.051,185.227c-8.023,6.341-16.857,13.766-20.791,17.1
		c-4.646-5.361-11.635-11.801-19.56-16.814c-2.807-1.776-5.742-3.39-8.747-4.736c1.413-3.65,4.223-10.218,6.599-11.484
		C133.058,167.956,162.13,180.449,173.051,185.227L173.051,185.227z M153.043,239.604c-3.157-0.114-6.719-0.483-10.675-1.241
		c4.724-2.435,8.187-5.251,10.675-8.165V239.604L153.043,239.604z M250.762,239.076c1.069,10.683,5.949,64.066-0.264,92.082
		c-3.748,16.901-20.79,26.281-41.074,31.388c-19.471,4.903-41.98,5.909-57.965,5.909c-15.983,0-38.491-1.006-57.964-5.909
		c-20.283-5.107-37.325-14.487-41.073-31.388c-6.214-28.016-1.333-81.397-0.263-92.081c-2.553-3.552-2.898-8.214-2.826-11.045
		c-2.563-1.696-4.758-4.389-6.314-7.627c-1.706-3.554-2.678-7.833-2.518-12.159c0.163-4.427,1.487-8.921,4.381-12.795
		c2.771-3.714,6.948-6.823,12.872-8.702c1.078-5.75,5.264-19.657,20.623-20.901c2.162-3.803,8.057-10.54,21.968-7.903
		c3.738-4.848,14.362-15.839,28.415-6.52c3.456-2.711,10.728-6.894,22.698-6.894c11.972,0,19.245,4.183,22.701,6.894
		c14.051-9.319,24.677,1.672,28.413,6.52c13.913-2.637,19.808,4.1,21.968,7.903c15.36,1.244,19.546,15.151,20.623,20.901
		c5.926,1.879,10.102,4.988,12.873,8.702c2.894,3.874,4.219,8.368,4.381,12.795c0.16,4.327-0.812,8.605-2.518,12.159
		c-1.555,3.238-3.75,5.931-6.315,7.627C253.659,230.863,253.314,235.525,250.762,239.076L250.762,239.076z M151.46,361.459
		c-15.601,0-37.518-0.97-56.27-5.689c-17.941-4.517-32.925-12.414-35.963-26.117c-5.459-24.61-1.936-70.384-0.477-86.192
		c1.765,0.451,3.854,0.624,6.324,0.426c2.946,6.287,12.358,20.758,35.021,15.423c3.137,3.345,10.738,9.292,21.949,4.213
		c3.853,3.068,13.318,8.93,29.416,8.93c16.099,0,25.564-5.861,29.418-8.93c11.21,5.079,18.812-0.868,21.949-4.213
		c22.663,5.335,32.077-9.136,35.021-15.423c2.47,0.198,4.559,0.025,6.324-0.427c1.458,15.808,4.981,61.582-0.477,86.192
		c-3.038,13.703-18.023,21.6-35.963,26.117C188.979,360.489,167.063,361.459,151.46,361.459z"/>
	<path style="fill-rule:evenodd;clip-rule:evenodd;fill:#5B0030;" d="M237.606,259.283c-1.697,2.733-0.587,13.504-0.597,17.437
		c-0.016,5.956-1.302,39.466-1.978,44.622c-0.292,2.228-1.538,5.614-0.234,7.241c0.802-0.645,0.523-0.323,1.093-1.626
		c1.672-3.816,2.409-10.335,2.539-14.269C238.735,303.373,241.865,263.326,237.606,259.283L237.606,259.283z M128.735,223.201
		c0-0.468-0.104-0.738-0.216-1.201c-1.322-0.425-4.281-0.928-3.543,1.501C125.458,225.088,128.735,224.835,128.735,223.201
		L128.735,223.201z M235.309,333.857c0.926-2.867-1.893-2.772-2.724-0.964C231.606,335.023,234.177,337.368,235.309,333.857
		L235.309,333.857z M198.385,247.968c0,2.698,1.276,4.18,2.596,5.448c0.687,0.659,1.352,1.241,2.315,1.705
		c2.738,1.32,4.739-0.136,1.776-2.191c-1.122-0.779-1.493-0.918-2.395-2.013c-2.095-2.544-1.175-5.103-2.397-6.346
		C198.684,244.999,198.385,245.951,198.385,247.968L198.385,247.968z M227.53,170.136c-0.786-5.415-10.54,0.363-11.057,5.297
		c-0.2,1.893,0.675,2.348,1.957,1.109c0.955-0.922,1.224-1.909,2.268-2.987C223.619,170.542,224.035,171.594,227.53,170.136
		L227.53,170.136z M54.21,231.544c2.475-1.112-0.105-4.615,6.719-8.404c1.529-0.85,2.305-0.543,2.414-2.679
		c-2.39-0.652-6.66,1.361-7.974,2.701C54.324,224.229,51.221,230.105,54.21,231.544L54.21,231.544z M168.075,217.145
		c0.81-2.424-3.619-3.466-5.586-4.316c-1.042-0.45-7.105-3.2-8.327-1.924C151.951,213.214,166.376,217.993,168.075,217.145
		L168.075,217.145z M71.206,173.019c4.81-0.187,4.725-1.731,10.035,0.401c2.3,0.925,5.93,3.601,8.137,3.514
		c-0.044-2.166-1.301-2.995-2.793-4.08c-1.163-0.846-3.116-1.855-4.687-2.5C79.009,169.169,71.659,168.21,71.206,173.019
		L71.206,173.019z M236.87,222.403c0.171,1.686,0.901,1.619,4.597,2.506c2.042,0.492,4.56,0.867,6.623,0.488
		c3.186-0.586,8.773-3.592,8.475-6.283c-0.213-0.071-0.298-0.162-0.891-0.11c-1.239,0.111-2.144,0.907-3.22,1.476
		c-1.307,0.693-2.814,1.454-4.2,1.778C244.604,223.108,238.895,221.146,236.87,222.403L236.87,222.403z M228.044,199.657
		c2.445,0.071,4.234-3.047,8.823-5.543c6.063-3.297,8.401-1.894,11.376-1.805C249.507,184.769,227.979,191.702,228.044,199.657
		L228.044,199.657z M50.813,195.43c1.949,0.067,9.984-4.446,17.49-1.08c1.534,0.687,5.242,3.294,4.485,0.328
		c-0.265-1.04-2.389-2.449-3.472-2.952C60.981,187.859,49.832,191.534,50.813,195.43L50.813,195.43z M169.538,235.588
		c-0.057,2.484-0.428,4.099,0.935,5.397c2.335-0.91,2.353-9.811,2.505-12.186c0.133-2.066,0.299-4.744,0.161-6.577
		c-0.214-2.826,0.381-5.293-2.533-5.608L169.538,235.588L169.538,235.588z M171.85,164.966c-2.852,0.545-6.032,1.453-5.803,4.689
		c3.115-0.181,3.432-2.078,10.019-2.078c3.527,0,4.644,2.014,7.137,1.704c-0.105-3.648-4.881-4.788-8.742-4.788
		c0.568-2.148,1.625-6.294,3.241-7.962c1.47-1.515,1.568-0.368,1.562-2.439C174.68,151.73,171.858,160.695,171.85,164.966
		L171.85,164.966z M61.21,325.071c0,4.41,2.509,22.66,7.584,24.222c-0.038-3.491-3.002-10.263-3.913-17.265
		c-0.667-5.125-0.563-16.909-2.28-18.475C60.573,315.298,61.21,322.518,61.21,325.071L61.21,325.071z M121.02,221.121
		c-0.032-1.556-0.449-1.578-1.411-2.198l-11.511-8.045c-5.021-3.414-14.279-7.747-16.719-14.858
		c-0.921-2.687,0.167-5.245-0.311-6.86c-2.244-0.34-4.294,5.772-0.355,11.539c4.607,6.743,12.068,10.439,18.828,14.715
		C112.437,217.246,116.886,220.963,121.02,221.121L121.02,221.121z M173.808,215.899c3.722,0.854,18.761-10.995,22.155-13.54
		l15.624-11.15c1.808-1.179,4.65-1.968,4.716-4.274c-5.227-0.751-31.034,19.335-37.847,24.652
		C176.759,212.913,174.115,214.083,173.808,215.899z"/>
	<path style="fill-rule:evenodd;clip-rule:evenodd;fill:#5B0030;" d="M396.703,246.258c8.169,0,14.83-6.662,14.83-14.832
		c0-8.166-6.661-14.83-14.83-14.83c-8.168,0-14.832,6.664-14.832,14.83C381.872,239.597,388.535,246.258,396.703,246.258z"/>
	<path style="fill-rule:evenodd;clip-rule:evenodd;fill:#5B0030;" d="M380.041,218.078c0.37,0.574,0.768,1.067,1.233,1.57
		c0.94,0.952,1.922,1.739,3.17,2.245c0.017,0.006,0.035,0.012,0.051,0.016c0.017,0.012,0.033,0.018,0.052,0.026
		c0.052,0.02,0.213,0.067,0.241,0.083c1.432,0.457,2.617,0.473,4.073,0.093c0.571-0.172,1.051-0.374,1.564-0.677
		c0.38-0.228,2.423-1.683,1.811-2.337c-0.447-0.42-1.999,0.57-2.583,0.818c-0.431,0.172-0.799,0.297-1.255,0.398
		c-1.079,0.21-1.917,0.162-2.95-0.204c-0.014,0-0.147-0.056-0.177-0.067c-0.013-0.004-0.027-0.008-0.04-0.01
		c-0.012-0.008-0.024-0.016-0.035-0.02c-1.025-0.392-1.786-0.954-2.595-1.691c-0.189-0.109-0.986-1.026-1.19-1.257
		c-0.383-0.443-1.462-2.04-2.085-1.762C378.579,215.686,379.799,217.698,380.041,218.078z"/>
	<path style="fill-rule:evenodd;clip-rule:evenodd;fill:#5B0030;" d="M377.852,222.987c0.65,0.539,1.268,0.919,2.034,1.279
		c1.4,0.596,2.66,0.883,4.181,0.828c0.02,0,0.042-0.002,0.061-0.008c0.022,0.002,0.044,0.004,0.064,0.002
		c0.108-0.006,0.484-0.057,0.535-0.049c1.674-0.222,2.986-0.711,4.446-1.558c0.2-0.069,1.003-0.671,1.216-0.846
		c0.343-0.277,2.353-2.04,1.668-2.642c-0.526-0.41-2.136,0.927-2.658,1.258c-0.372,0.228-0.732,0.436-1.118,0.635
		c-1.264,0.634-2.361,1.006-3.769,1.149c-0.061,0.022-0.338,0.026-0.431,0.032c-0.018,0-0.035,0.004-0.051,0.008
		c-0.017-0.004-0.033-0.004-0.051-0.004c-1.241,0.063-2.181-0.101-3.354-0.535c-0.656-0.265-1.162-0.539-1.756-0.915
		c-0.534-0.352-2.206-1.844-2.715-1.495C375.425,220.702,377.519,222.704,377.852,222.987z"/>
	<path style="fill-rule:evenodd;clip-rule:evenodd;fill:#5B0030;" d="M436.165,237.967c-1.688-0.945-3.141-2.002-4.808-2.248
		c-4.377-0.644-4.084,5.4-2.548,8.145c3.034,5.42,8.604,8.083,14.134,7.992c5.531,0.091,11.101-2.572,14.135-7.992
		c1.535-2.745,1.83-8.788-2.549-8.145c-1.667,0.246-3.117,1.303-4.808,2.248c-2.145,1.2-4.465,1.741-6.778,1.675
		C440.631,239.708,438.308,239.167,436.165,237.967z"/>
	<path style="fill-rule:evenodd;clip-rule:evenodd;fill:#5B0030;" d="M377.814,226.991c0.778,0.325,1.483,0.505,2.32,0.624
		c1.513,0.157,2.803,0.059,4.24-0.438c0.019-0.01,0.039-0.018,0.055-0.028c0.022-0.004,0.043-0.01,0.062-0.018
		c0.102-0.038,0.447-0.198,0.497-0.204c1.535-0.705,2.645-1.556,3.789-2.798c0.171-0.127,0.761-0.937,0.914-1.164
		c0.246-0.368,1.649-2.644,0.817-3.016c-0.624-0.242-1.768,1.513-2.171,1.982c-0.288,0.327-0.57,0.632-0.88,0.939
		c-1.022,0.976-1.96,1.653-3.264,2.208c-0.053,0.035-0.315,0.121-0.404,0.154c-0.015,0.006-0.031,0.014-0.046,0.022
		c-0.016,0.002-0.033,0.008-0.048,0.012c-1.167,0.426-2.115,0.545-3.363,0.477c-0.704-0.059-1.268-0.174-1.946-0.359
		c-0.615-0.18-2.651-1.111-3.036-0.63C374.822,225.521,377.412,226.82,377.814,226.991z"/>
	<path style="fill-rule:evenodd;clip-rule:evenodd;fill:#FFFFFF;" d="M395.457,230.787c2.896,0,5.257-2.364,5.257-5.26
		c0-2.897-2.36-5.257-5.257-5.257c-2.896,0-5.258,2.36-5.258,5.257C390.199,228.423,392.561,230.787,395.457,230.787z"/>
	<path style="fill-rule:evenodd;clip-rule:evenodd;fill:#5B0030;" d="M489.185,246.258c8.166,0,14.83-6.662,14.83-14.832
		c0-8.166-6.663-14.83-14.83-14.83c-8.17,0-14.834,6.664-14.834,14.83C474.351,239.597,481.014,246.258,489.185,246.258z"/>
	<path style="fill-rule:evenodd;clip-rule:evenodd;fill:#5B0030;" d="M505.846,218.078c-0.372,0.574-0.77,1.067-1.234,1.57
		c-0.94,0.952-1.923,1.739-3.17,2.245c-0.018,0.006-0.034,0.012-0.051,0.016c-0.016,0.012-0.036,0.018-0.052,0.026
		c-0.052,0.02-0.214,0.067-0.242,0.083c-1.43,0.457-2.616,0.473-4.073,0.093c-0.57-0.172-1.05-0.374-1.564-0.677
		c-0.378-0.228-2.422-1.683-1.81-2.337c0.448-0.42,2,0.57,2.582,0.818c0.432,0.172,0.8,0.297,1.256,0.398
		c1.079,0.21,1.919,0.162,2.951-0.204c0.012,0,0.146-0.056,0.176-0.067c0.014-0.004,0.028-0.008,0.04-0.01
		c0.012-0.008,0.024-0.016,0.038-0.02c1.024-0.392,1.784-0.954,2.592-1.691c0.192-0.109,0.988-1.026,1.192-1.257
		c0.382-0.443,1.461-2.04,2.085-1.762C507.308,215.686,506.086,217.698,505.846,218.078z"/>
	<path style="fill-rule:evenodd;clip-rule:evenodd;fill:#5B0030;" d="M508.034,222.987c-0.649,0.539-1.269,0.919-2.034,1.279
		c-1.398,0.596-2.661,0.883-4.18,0.828c-0.022,0-0.044-0.002-0.061-0.008c-0.022,0.002-0.044,0.004-0.065,0.002
		c-0.107-0.006-0.487-0.057-0.535-0.049c-1.673-0.222-2.986-0.711-4.444-1.558c-0.202-0.069-1.006-0.671-1.218-0.846
		c-0.342-0.277-2.354-2.04-1.669-2.642c0.525-0.41,2.137,0.927,2.661,1.258c0.37,0.228,0.729,0.436,1.117,0.635
		c1.263,0.634,2.36,1.006,3.768,1.149c0.063,0.022,0.337,0.026,0.43,0.032c0.02,0,0.036,0.004,0.052,0.008
		c0.018-0.004,0.035-0.004,0.051-0.004c1.24,0.063,2.182-0.101,3.352-0.535c0.657-0.265,1.162-0.539,1.758-0.915
		c0.533-0.352,2.204-1.844,2.715-1.495C510.46,220.702,508.369,222.704,508.034,222.987z"/>
	<path style="fill-rule:evenodd;clip-rule:evenodd;fill:#5B0030;" d="M508.072,226.991c-0.78,0.325-1.483,0.505-2.319,0.624
		c-1.513,0.157-2.802,0.059-4.24-0.438c-0.022-0.01-0.04-0.018-0.057-0.028c-0.02-0.004-0.042-0.01-0.063-0.018
		c-0.099-0.038-0.446-0.198-0.495-0.204c-1.535-0.705-2.646-1.556-3.79-2.798c-0.168-0.127-0.762-0.937-0.913-1.164
		c-0.246-0.368-1.65-2.644-0.816-3.016c0.622-0.242,1.768,1.513,2.17,1.982c0.289,0.327,0.568,0.632,0.881,0.939
		c1.022,0.976,1.96,1.653,3.263,2.208c0.054,0.035,0.315,0.121,0.402,0.154c0.018,0.006,0.034,0.014,0.048,0.022
		c0.016,0.002,0.032,0.008,0.049,0.012c1.164,0.426,2.115,0.545,3.36,0.477c0.707-0.059,1.269-0.174,1.948-0.359
		c0.614-0.18,2.65-1.111,3.034-0.63C511.062,225.521,508.474,226.82,508.072,226.991z"/>
	<path style="fill-rule:evenodd;clip-rule:evenodd;fill:#FFFFFF;" d="M490.428,230.787c2.897,0,5.26-2.364,5.26-5.26
		c0-2.897-2.363-5.257-5.26-5.257c-2.893,0-5.257,2.36-5.257,5.257C485.171,228.423,487.535,230.787,490.428,230.787z"/>
	<path style="fill-rule:evenodd;clip-rule:evenodd;fill:#5B0030;" d="M443.061,136.992l-0.031,0.002h-0.041h-0.046h-0.047h-0.043
		l-0.029-0.002l-0.073-0.004l-0.035-0.002c-0.899-0.049-21.849-0.974-30.28,20.81c-0.42,1.089-1.328,1.845-2.377,2.117l-0.022,0.008
		c-0.497,0.127-10.533,2.852-12.105,12.283c-0.27,1.624-1.623,2.8-3.197,2.911c-0.062,0.006-22.23,1.372-20.208,21.592
		c0.184,1.861-1.133,3.525-2.965,3.792l0.001,0.006c-0.05,0.008-17.582,2.358-16.879,26.632c0.044,1.596-0.994,2.972-2.447,3.426
		l0.001,0.006c-0.041,0.01-14.168,4.279-11.495,20.317c0.243,1.453-0.453,2.848-1.643,3.564c-1.86,1.283-21.724,15.693-7.615,37.194
		c0.519,0.792,0.673,1.719,0.504,2.582c-0.008,0.046-3.482,16.828,6.553,19.374c1.636,0.41,2.711,1.911,2.644,3.531
		c0.106,2.715,2.022,30.596,36.048,24.812c1.682-0.281,3.284,0.691,3.85,2.236c0.251,0.541,1.106,2.251,2.557,3.988
		c-2.115-17.194-6.16-57.576,1.218-66.256c0.065-0.077,0.134-0.152,0.204-0.224c5.245-5.6,27.575-8.057,50.449-7.301
		c22.859,0.755,46.741,4.572,54.871,11.483l0.22,0.196c6.927,6.087,10.685,17.626,12.281,29.82
		c1.465,11.186,1.123,23.131-0.253,31.792c1.269-1.636,2.004-3.157,2.196-3.572c0.59-1.501,2.166-2.44,3.822-2.163
		c34.03,5.784,35.943-22.099,36.05-24.814c-0.067-1.618,1.006-3.119,2.644-3.529c10.036-2.547,6.56-19.329,6.551-19.374
		c-0.166-0.863-0.012-1.79,0.507-2.582c14.107-21.499-5.753-35.909-7.616-37.194c-1.19-0.715-1.885-2.111-1.644-3.564
		c2.673-16.038-11.453-20.307-11.493-20.317l0.002-0.006c-1.456-0.453-2.491-1.83-2.45-3.426
		c0.703-24.273-16.826-26.624-16.877-26.632V200.5c-1.834-0.267-3.148-1.931-2.966-3.792c2.022-20.22-20.143-21.586-20.206-21.59
		c-1.574-0.113-2.929-1.289-3.2-2.913c-1.572-9.432-11.608-12.157-12.105-12.283l-0.02-0.008c-1.05-0.271-1.957-1.028-2.378-2.117
		c-8.432-21.784-29.38-20.859-30.279-20.81l-0.035,0.002L443.061,136.992L443.061,136.992z M385.318,358.128
		c-4.705-2.137-7.809-6.277-9.41-8.925c-34.805,4.691-40.56-21.327-41.508-29.65c-11.499-4.873-10.199-20.473-9.505-25.256
		c-14.382-23.313,2.847-39.775,8.673-44.408c-1.616-15.709,9.131-22.648,14.133-25c0.312-21.663,13.527-28.499,19.715-30.513
		c-0.309-19.891,17.435-24.766,24.228-25.901c2.789-9.341,11.249-13.394,14.927-14.749c10.33-24.147,34.015-23.81,36.372-23.715
		c2.355-0.095,26.042-0.432,36.37,23.715c3.679,1.354,12.139,5.408,14.929,14.749c6.794,1.135,24.537,6.01,24.228,25.901
		c6.188,2.014,19.402,8.85,19.715,30.513c5,2.352,15.747,9.291,14.133,25c5.826,4.634,23.056,21.095,8.673,44.408
		c0.693,4.782,1.994,20.382-9.505,25.256c-0.949,8.323-6.701,34.337-41.501,29.65c-1.725,2.848-5.196,7.432-10.559,9.382
		c-3.374,5.832-10.683,10.164-20.392,12.887c-10.386,2.909-23.735,4.075-37.899,3.293c-2.254-0.123-4.143-0.22-6.012-0.317
		C410.539,373.184,390.563,372.152,385.318,358.128L385.318,358.128z M493.773,354.36c-2.065,4.489-8.133,8.01-16.624,10.388
		c-9.671,2.711-22.22,3.79-35.632,3.052c-1.818-0.101-3.949-0.21-6.038-0.317c-22.653-1.168-40.907-2.111-43.931-12.763
		c-0.601-4.19-8.454-59.955-1.36-68.299l0.028-0.034c3.63-4.079,23.821-5.735,45.08-5.032c21.554,0.711,43.706,4.004,50.579,9.844
		l0.101,0.085c5.499,4.806,8.59,14.767,9.996,25.503c1.97,15.048,0.592,31.168-2.113,37.373
		C493.827,354.225,493.799,354.292,493.773,354.36z"/>
	<path style="fill-rule:evenodd;clip-rule:evenodd;fill:#5B0030;" d="M489.143,344.435c2.058-9.974,2.315-21.764,0.4-31.814
		c-0.477-2.515-1.214-6.909-3.556-7.632l-0.121,1.939l1.8,13.996c0.41,6.37-0.107,16.731-1.303,23.135
		c-0.471,2.525-2.386,8.238-2.079,10.212C487.234,353.304,488.613,347.005,489.143,344.435L489.143,344.435z M481.686,298.552
		c1.489,5.65,7.683,3.705,2.495-1.384C482.957,295.965,481.031,296.072,481.686,298.552L481.686,298.552z M370.562,197.9
		c-1.131,0-3.927,0.582-4.669,1.386c-2.089,2.26,1.349,1.697,2.671,1.697c6.247,0,9.289,1.64,11.036,1.147
		C380.081,198.541,373.431,197.9,370.562,197.9L370.562,197.9z M532.746,221.591c-2.234,0.588-2.499,5.374-3.63,7.412
		c-0.933,1.685-5.792,5.063-3.451,5.772C530.029,236.092,535.924,224.644,532.746,221.591L532.746,221.591z M476.094,159.533
		c0.022-2.236-1.046-6.22-2.259-8.194c-0.574-0.935-0.485-1.002-1.741-1.297c-1.083,2.836,1.39,6.491,1.044,9.78
		c-0.253,2.424-3.495,6.745-1.095,9.133C473.262,168.549,476.076,161.254,476.094,159.533L476.094,159.533z M338.498,324.486
		c2.867-0.366,1.09-3.295,3.79-9.054c0.816-1.739,1.521-2.64,2.665-3.743c1.155-1.113,2.392-1.685,2.363-3.495
		C340.858,307.603,335.733,319.767,338.498,324.486L338.498,324.486z M536.726,313.629c0.81,1.853,8.596,4.358,11.166,3.689
		c1.675-0.438,7.707-3.653,8.014-6.366c-3.608-0.267-6.224,3.043-9.252,3.511C543.625,314.93,541.078,311.825,536.726,313.629
		L536.726,313.629z M396.932,169.123c0-3.305,1.457-1.331,1.865-3.598c-2.534-2.018-4.712,0.665-4.712,3.598
		c0,6.145,7.241,12.224,10.088,10.784c-0.137-1.713-0.88-1.78-2.011-2.842C400.21,175.23,396.932,172.038,396.932,169.123
		L396.932,169.123z M513.193,189.844c-0.725,0.556-0.929,0.426-1.281,2.424c-0.188,1.059-0.212,1.697-0.388,2.737
		c-1.562,9.244-8.935,12.784-4.513,12.319C511.781,206.822,517.589,192.151,513.193,189.844L513.193,189.844z M338.796,253.817
		c3.025-0.634,2.815-0.495,5.851-0.119c7.427,0.917-0.673-5.867-9.457-2.093c-4.29,1.847-6.471,7.396-4.128,7.658
		C332.665,259.439,332.164,255.203,338.796,253.817L338.796,253.817z M357.306,235.415c-0.04-1.945-1.142-2.774-1.932-4.382
		c-0.727-1.479-1.238-3.077-1.659-4.758c-0.449-1.792-0.735-3.404-0.962-5.432c-0.28-2.511,0.568-3.202-0.665-4.446
		C347.199,217.199,350.992,235.803,357.306,235.415L357.306,235.415z M542.278,294.959c2.525,2.495,10.311,0.428,12.705-1.358
		c2.267-1.697,6.04-6.311,4.954-10.168c-2.109,0.21-1.473,0.885-3.446,4.073c-1,1.618-1.984,2.78-3.483,3.723
		C547.924,294.419,543.688,292.403,542.278,294.959L542.278,294.959z M394.445,340.544c-2.659,3.729,0.637,20.329,3.552,26.048
		c0.687,1.349,0.759,1.816,2.489,1.85c0.238-1.568-2.406-11.168-2.926-14.192l-1.542-11.275
		C395.724,341.182,395.753,340.974,394.445,340.544z"/>
	<path style="fill-rule:evenodd;clip-rule:evenodd;fill:#5B0030;" d="M691.143,308.301c8.169,0,14.83-6.663,14.83-14.832
		c0-8.167-6.661-14.83-14.83-14.83c-8.17,0-14.832,6.662-14.832,14.83C676.311,301.637,682.973,308.301,691.143,308.301z"/>
	<path style="fill-rule:evenodd;clip-rule:evenodd;fill:#5B0030;" d="M674.48,280.12c0.37,0.575,0.768,1.067,1.232,1.569
		c0.94,0.954,1.923,1.738,3.172,2.247c0.016,0.008,0.034,0.013,0.051,0.015c0.018,0.011,0.034,0.02,0.052,0.026
		c0.052,0.02,0.214,0.068,0.24,0.084c1.432,0.457,2.618,0.473,4.073,0.092c0.572-0.172,1.051-0.372,1.564-0.676
		c0.38-0.23,2.424-1.682,1.81-2.337c-0.448-0.42-1.998,0.568-2.58,0.818c-0.432,0.173-0.8,0.297-1.257,0.399
		c-1.077,0.21-1.917,0.162-2.951-0.205c-0.012-0.001-0.147-0.056-0.174-0.067c-0.016-0.005-0.03-0.008-0.042-0.01
		c-0.012-0.008-0.022-0.015-0.036-0.019c-1.024-0.394-1.786-0.956-2.594-1.692c-0.188-0.109-0.986-1.026-1.192-1.259
		c-0.382-0.443-1.46-2.04-2.083-1.761C673.018,277.728,674.24,279.74,674.48,280.12z"/>
	<path style="fill-rule:evenodd;clip-rule:evenodd;fill:#5B0030;" d="M672.289,285.029c0.651,0.54,1.271,0.919,2.034,1.28
		c1.402,0.594,2.661,0.879,4.184,0.828c0.02-0.002,0.04-0.004,0.059-0.008c0.022,0.002,0.044,0.002,0.063,0.001
		c0.109-0.007,0.487-0.058,0.535-0.049c1.677-0.222,2.986-0.712,4.446-1.557c0.202-0.072,1.006-0.672,1.218-0.846
		c0.342-0.279,2.352-2.04,1.667-2.644c-0.525-0.411-2.137,0.929-2.659,1.258c-0.37,0.228-0.729,0.435-1.117,0.637
		c-1.263,0.632-2.36,1.004-3.768,1.148c-0.061,0.02-0.339,0.025-0.432,0.03c-0.016,0.001-0.036,0.003-0.051,0.009
		c-0.016-0.004-0.034-0.005-0.05-0.004c-1.242,0.063-2.182-0.103-3.354-0.534c-0.657-0.264-1.162-0.541-1.756-0.917
		c-0.533-0.352-2.206-1.842-2.715-1.493C669.864,282.743,671.959,284.747,672.289,285.029z"/>
	<path style="fill-rule:evenodd;clip-rule:evenodd;fill:#5B0030;" d="M749.977,298.121c0.2-0.814,1.022-1.311,1.834-1.111
		c0.814,0.201,1.309,1.021,1.111,1.835c-0.004,0.02-1.762,6.821,5.568,8.524c0.816,0.187,1.325,1,1.139,1.816
		c-0.188,0.817-1,1.327-1.816,1.14C747.45,307.917,749.971,298.147,749.977,298.121z"/>
	<path style="fill-rule:evenodd;clip-rule:evenodd;fill:#5B0030;" d="M750.395,303.574c0.242-0.801,1.089-1.252,1.887-1.01
		c0.8,0.242,1.252,1.088,1.01,1.887c-0.008,0.027-2.701,9.43-15.909,9.43c-0.839,0-1.521-0.68-1.521-1.52
		c0-0.838,0.681-1.519,1.521-1.519C748.323,310.842,750.387,303.594,750.395,303.574z"/>
	<path style="fill-rule:evenodd;clip-rule:evenodd;fill:#5B0030;" d="M672.252,289.033c0.78,0.325,1.483,0.504,2.321,0.626
		c1.513,0.155,2.804,0.057,4.24-0.441c0.02-0.006,0.038-0.016,0.055-0.026c0.024-0.004,0.044-0.01,0.064-0.017
		c0.101-0.038,0.445-0.197,0.497-0.206c1.533-0.704,2.644-1.556,3.788-2.796c0.17-0.128,0.762-0.939,0.915-1.165
		c0.246-0.368,1.648-2.643,0.816-3.019c-0.622-0.237-1.766,1.515-2.172,1.985c-0.285,0.327-0.568,0.632-0.879,0.94
		c-1.022,0.974-1.96,1.654-3.265,2.206c-0.052,0.037-0.315,0.123-0.402,0.153c-0.016,0.008-0.03,0.016-0.047,0.024
		c-0.016,0.002-0.032,0.007-0.046,0.011c-1.168,0.427-2.115,0.546-3.364,0.477c-0.705-0.058-1.269-0.173-1.948-0.356
		c-0.612-0.18-2.65-1.112-3.034-0.629C669.262,287.563,671.852,288.862,672.252,289.033z"/>
	<path style="fill-rule:evenodd;clip-rule:evenodd;fill:#5B0030;" d="M721.844,298.844c-0.202-0.814,0.295-1.634,1.109-1.835
		c0.812-0.2,1.634,0.297,1.834,1.111c0.008,0.027,2.527,9.796-7.834,12.203c-0.816,0.187-1.63-0.323-1.816-1.14
		c-0.188-0.816,0.323-1.629,1.141-1.816C723.604,305.665,721.848,298.864,721.844,298.844z"/>
	<path style="fill-rule:evenodd;clip-rule:evenodd;fill:#5B0030;" d="M721.474,304.451c-0.242-0.799,0.21-1.646,1.008-1.887
		c0.802-0.243,1.646,0.209,1.887,1.01c0.004,0.015,1.598,5.603,9.396,6.97c0.536,0.095,1.105,0.169,1.707,0.219
		c0.6,0.051,1.236,0.079,1.911,0.079c0.838,0,1.519,0.68,1.519,1.519c0,0.84-0.681,1.52-1.519,1.52c-0.75,0-1.469-0.031-2.162-0.09
		c-0.691-0.058-1.35-0.144-1.978-0.254C723.589,311.841,721.48,304.473,721.474,304.451z"/>
	<path style="fill-rule:evenodd;clip-rule:evenodd;fill:#FFFFFF;" d="M689.895,292.827c2.895,0,5.258-2.362,5.258-5.257
		c0-2.897-2.363-5.259-5.258-5.259c-2.897,0-5.258,2.362-5.258,5.259C684.638,290.465,686.998,292.827,689.895,292.827z"/>
	<path style="fill-rule:evenodd;clip-rule:evenodd;fill:#5B0030;" d="M783.623,308.301c8.166,0,14.832-6.663,14.832-14.832
		c0-8.167-6.665-14.83-14.832-14.83c-8.169,0-14.83,6.662-14.83,14.83C768.793,301.637,775.454,308.301,783.623,308.301z"/>
	<path style="fill-rule:evenodd;clip-rule:evenodd;fill:#5B0030;" d="M800.284,280.12c-0.372,0.575-0.768,1.067-1.232,1.569
		c-0.942,0.954-1.923,1.738-3.17,2.247c-0.016,0.008-0.036,0.013-0.054,0.015c-0.016,0.011-0.032,0.02-0.049,0.026
		c-0.052,0.02-0.212,0.068-0.244,0.084c-1.43,0.457-2.614,0.473-4.071,0.092c-0.572-0.172-1.051-0.372-1.564-0.676
		c-0.38-0.23-2.422-1.682-1.81-2.337c0.445-0.42,1.998,0.568,2.582,0.818c0.43,0.173,0.798,0.297,1.256,0.399
		c1.079,0.21,1.917,0.162,2.949-0.205c0.016-0.001,0.146-0.056,0.178-0.067c0.014-0.005,0.028-0.008,0.04-0.01
		c0.01-0.008,0.026-0.015,0.036-0.019c1.026-0.394,1.788-0.956,2.594-1.692c0.19-0.109,0.988-1.026,1.192-1.259
		c0.382-0.443,1.463-2.04,2.085-1.761C801.747,277.728,800.524,279.74,800.284,280.12z"/>
	<path style="fill-rule:evenodd;clip-rule:evenodd;fill:#5B0030;" d="M802.472,285.029c-0.648,0.54-1.266,0.919-2.034,1.28
		c-1.398,0.594-2.659,0.879-4.18,0.828c-0.02-0.002-0.042-0.004-0.061-0.008c-0.02,0.002-0.044,0.002-0.065,0.001
		c-0.107-0.007-0.483-0.058-0.533-0.049c-1.675-0.222-2.986-0.712-4.446-1.557c-0.2-0.072-1.002-0.672-1.216-0.846
		c-0.344-0.279-2.352-2.04-1.667-2.644c0.525-0.411,2.135,0.929,2.658,1.258c0.372,0.228,0.731,0.435,1.117,0.637
		c1.265,0.632,2.36,1.004,3.77,1.148c0.061,0.02,0.337,0.025,0.432,0.03c0.016,0.001,0.032,0.003,0.05,0.009
		c0.014-0.004,0.034-0.005,0.049-0.004c1.24,0.063,2.182-0.103,3.354-0.534c0.655-0.264,1.162-0.541,1.756-0.917
		c0.533-0.352,2.206-1.842,2.715-1.493C804.9,282.743,802.807,284.747,802.472,285.029z"/>
	<path style="fill-rule:evenodd;clip-rule:evenodd;fill:#5B0030;" d="M802.512,289.033c-0.78,0.325-1.485,0.504-2.321,0.626
		c-1.513,0.155-2.802,0.057-4.24-0.441c-0.02-0.006-0.04-0.016-0.055-0.026c-0.022-0.004-0.044-0.01-0.063-0.017
		c-0.101-0.038-0.448-0.197-0.495-0.206c-1.537-0.704-2.646-1.556-3.79-2.796c-0.17-0.128-0.762-0.939-0.915-1.165
		c-0.244-0.368-1.648-2.643-0.816-3.019c0.624-0.237,1.768,1.515,2.171,1.985c0.289,0.327,0.572,0.632,0.881,0.94
		c1.022,0.974,1.96,1.654,3.263,2.206c0.055,0.037,0.317,0.123,0.402,0.153c0.02,0.008,0.036,0.016,0.048,0.024
		c0.018,0.002,0.036,0.007,0.049,0.011c1.166,0.427,2.117,0.546,3.362,0.477c0.707-0.058,1.269-0.173,1.948-0.356
		c0.614-0.18,2.651-1.112,3.036-0.629C805.504,287.563,802.912,288.862,802.512,289.033z"/>
	<path style="fill-rule:evenodd;clip-rule:evenodd;fill:#FFFFFF;" d="M784.868,292.827c2.897,0,5.258-2.362,5.258-5.257
		c0-2.897-2.36-5.259-5.258-5.259c-2.895,0-5.255,2.362-5.255,5.259C779.613,290.465,781.973,292.827,784.868,292.827z"/>
	<path style="fill-rule:evenodd;clip-rule:evenodd;fill:#5B0030;" d="M836.516,239.709c0.452,4.261,6.578,63.632-0.097,93.727
		c-3.747,16.902-20.79,26.279-41.072,31.387c-19.473,4.903-41.98,5.91-57.965,5.91c-15.984,0-38.491-1.007-57.965-5.91
		c-20.283-5.108-37.325-14.485-41.074-31.387c-6.576-29.643-0.729-87.688-0.119-93.499c-0.061-0.382-0.113-0.764-0.157-1.15
		c-0.109-0.984-0.166-1.949-0.166-2.89c0-7.1,2.877-13.527,7.529-18.179c0.402-0.402,0.818-0.791,1.245-1.165
		c-0.653-1.329-1.198-2.721-1.628-4.162c-0.721-2.429-1.107-4.983-1.107-7.607c0-7.386,2.994-14.074,7.834-18.913
		c4.487-4.488,10.564-7.389,17.309-7.787c1.307-6.056,4.345-11.468,8.568-15.694c5.733-5.733,13.656-9.279,22.404-9.279
		c2.695,0,5.317,0.339,7.826,0.977c1.495,0.379,2.954,0.871,4.37,1.465c1.024-1.433,2.164-2.779,3.406-4.022
		c5.735-5.734,13.655-9.28,22.402-9.28c5.432,0,10.553,1.374,15.032,3.795c3.717,2.008,6.988,4.735,9.62,7.99
		c2.891-1.233,6.071-1.916,9.406-1.916c6.638,0,12.648,2.691,16.996,7.04c4.299,4.299,6.978,10.219,7.04,16.762h0.151
		c9.198,0,17.521,3.729,23.549,9.755c6.028,6.026,9.755,14.352,9.755,23.548c0,2.11-0.204,4.2-0.596,6.252
		c-0.239,1.272-0.556,2.522-0.943,3.748C833.267,224.499,836.482,231.728,836.516,239.709L836.516,239.709z M652.567,212.675
		c3.271-1.558,6.927-2.446,10.784-2.485c0.735-5.764,3.137-11.006,6.705-15.227c-0.426-1.262-0.776-2.562-1.045-3.894
		c-0.392-1.951-0.61-3.927-0.632-5.902c-4.531,0.529-8.594,2.59-11.656,5.65c-3.572,3.574-5.784,8.512-5.784,13.967
		c0,1.977,0.281,3.869,0.806,5.639C651.974,211.194,652.25,211.947,652.567,212.675L652.567,212.675z M675.846,189.719
		c4.733-3.262,10.465-5.172,16.64-5.172c1.456,0,2.885,0.106,4.281,0.313c1.659-3.822,4.277-7.125,7.546-9.605
		c0.079-0.057,0.16-0.114,0.242-0.166c0.59-0.435,1.198-0.843,1.826-1.225c0.01-4.31,0.881-8.418,2.45-12.162
		c-0.863-0.324-1.754-0.605-2.669-0.838c-1.945-0.495-3.99-0.757-6.103-0.757c-6.82,0-12.99,2.762-17.458,7.23
		c-4.465,4.468-7.23,10.64-7.23,17.457c0,1.729,0.162,3.37,0.471,4.91L675.846,189.719L675.846,189.719z M713.553,170.965
		c1.695-0.381,3.455-0.582,5.259-0.582c2.927,0,5.757,0.538,8.392,1.52c1.774,0.662,3.45,1.526,4.992,2.561
		c4.911-3.602,10.84-5.892,17.279-6.352c1.45-4.084,3.97-7.657,7.222-10.381c-1.946-2.238-4.285-4.121-6.909-5.537
		c-3.479-1.88-7.473-2.949-11.727-2.949c-6.816,0-12.988,2.763-17.456,7.232C716.799,160.287,714.228,165.335,713.553,170.965
		L713.553,170.965z M711.62,178.955c-0.115,0.062-0.232,0.119-0.353,0.168c-0.899,0.442-1.748,0.96-2.546,1.546
		c-0.066,0.057-0.131,0.11-0.198,0.162c-2.063,1.562-3.756,3.579-4.933,5.898c2.85,1.168,5.475,2.769,7.798,4.724
		c2.954,2.488,5.414,5.545,7.204,9.001c0.208-8.068,3.289-15.424,8.254-21.081c-0.667-0.357-1.36-0.671-2.071-0.938
		c-1.834-0.682-3.84-1.055-5.963-1.055C716.238,177.379,713.801,177.944,711.62,178.955L711.62,178.955z M763.508,161.443
		c-0.053,0.035-0.109,0.066-0.162,0.097c-0.634,0.382-1.244,0.803-1.82,1.262c-1.905,1.514-3.477,3.425-4.594,5.606
		c4.081,0.624,7.923,1.991,11.386,3.961c3.917,2.227,7.339,5.227,10.056,8.789c3.251-2.081,6.889-3.613,10.778-4.464
		c0.006-0.177,0.008-0.357,0.008-0.539c0-4.705-1.905-8.965-4.988-12.05c-3.085-3.082-7.343-4.99-12.052-4.99
		C768.975,159.116,766.032,159.964,763.508,161.443L763.508,161.443z M725.999,206.098c6.226,0.936,11.814,3.828,16.121,8.031
		c4.333,4.228,7.362,9.785,8.434,16.012c1.053-0.159,2.135-0.243,3.234-0.243c0.448,0,0.919,0.018,1.412,0.051
		c1.172-2.528,2.78-4.815,4.727-6.76c1.406-1.407,2.99-2.636,4.713-3.652c-0.36-1.118-0.667-2.266-0.915-3.442
		c-0.471-2.242-0.719-4.543-0.719-6.87c0-9.196,3.727-17.522,9.753-23.548l0.166-0.164c-2.164-2.874-4.905-5.292-8.048-7.078
		c-3.82-2.173-8.253-3.415-12.992-3.415c-7.265,0-13.842,2.944-18.602,7.706c-4.76,4.76-7.705,11.337-7.705,18.602
		c0,1.259,0.079,2.454,0.232,3.574C725.862,205.304,725.925,205.703,725.999,206.098L725.999,206.098z M771.135,216.925
		c1.743-0.412,3.56-0.63,5.428-0.63c3.689,0,7.178,0.849,10.287,2.362c2.343-2.25,5.058-4.112,8.042-5.489
		c3.744-1.727,7.905-2.69,12.273-2.69c5.448,0,10.549,1.483,14.919,4.069l0.071-0.353c0.301-1.581,0.459-3.244,0.459-4.968
		c0-7.265-2.947-13.842-7.705-18.602c-4.762-4.76-11.339-7.706-18.604-7.706c-7.263,0-13.842,2.946-18.602,7.706
		c-4.758,4.761-7.703,11.337-7.703,18.602c0,1.895,0.19,3.718,0.554,5.45C770.714,215.436,770.91,216.187,771.135,216.925
		L771.135,216.925z M753.213,236.904c-3.774,0.148-7.178,1.739-9.673,4.235c-2.624,2.623-4.244,6.246-4.244,10.248
		c0,0.167,0.002,0.329,0.006,0.487c5.77-0.018,11.412-0.12,16.881-0.297c-0.396-0.688-0.76-1.399-1.087-2.131
		c-1.327-2.953-2.063-6.208-2.063-9.618C753.032,238.839,753.094,237.864,753.213,236.904L753.213,236.904z M764.589,251.238
		c9.186-0.443,17.776-1.107,25.547-1.95c0.836-1.19,1.515-2.483,2.006-3.852c0.62-1.725,0.958-3.612,0.958-5.607
		c0-4.566-1.852-8.701-4.844-11.693c-2.99-2.992-7.125-4.843-11.693-4.843c-4.566,0-8.701,1.851-11.691,4.843
		c-2.994,2.992-4.846,7.127-4.846,11.693c0,2.432,0.515,4.724,1.436,6.776C762.23,248.318,763.294,249.883,764.589,251.238
		L764.589,251.238z M798.522,248.262c2.053-0.28,4.028-0.575,5.925-0.883c15.493-2.518,25.073-5.235,25.073-7.551v-0.014
		c-0.004-6.167-2.505-11.752-6.547-15.793c-4.045-4.045-9.634-6.547-15.808-6.547c-3.35,0-6.517,0.728-9.35,2.035
		c-1.84,0.848-3.547,1.939-5.073,3.231c0.155,0.147,0.309,0.297,0.462,0.45c4.257,4.257,6.893,10.14,6.893,16.639
		c0,2.766-0.493,5.447-1.396,7.957C798.643,247.945,798.583,248.104,798.522,248.262L798.522,248.262z M792.573,256.039
		c-0.113,0.019-0.226,0.031-0.339,0.039c-15.606,1.762-34.511,2.795-54.852,2.795c-9.859,0-19.378-0.243-28.353-0.693l-0.107-0.005
		c-15.157-0.765-28.739-2.125-39.727-3.909c-10.84-1.762-19.335-4.152-24.659-7.034c-1.525,17.029-4.683,60.826,0.612,84.701
		c3.04,13.7,18.024,21.597,35.963,26.113c18.75,4.722,40.669,5.692,56.271,5.692c15.602,0,37.519-0.97,56.27-5.692
		c17.941-4.516,32.925-12.413,35.963-26.113c5.297-23.875,2.139-67.673,0.612-84.701c-5.323,2.881-13.818,5.271-24.66,7.034
		C801.563,254.915,797.217,255.509,792.573,256.039L792.573,256.039z M743.834,232.338c-0.648-5.151-3.046-9.757-6.576-13.208
		c-4.036-3.937-9.558-6.363-15.65-6.363c-5.976,0-11.392,2.321-15.394,6.106c-3.424,3.237-5.822,7.546-6.671,12.394
		c2.699,1.092,5.125,2.714,7.151,4.738c3.889,3.889,6.293,9.261,6.293,15.194v0.168c6.208,0.265,12.669,0.432,19.319,0.489
		c-0.004-0.157-0.006-0.315-0.006-0.469c0-5.932,2.406-11.305,6.293-15.194C740.129,234.658,741.894,233.354,743.834,232.338
		L743.834,232.338z M670.266,211.06c4.081,1.092,7.763,3.164,10.778,5.951c3.677,3.399,6.362,7.857,7.568,12.892
		c0.943-0.126,1.907-0.193,2.885-0.193c0.414,0,0.824,0.013,1.232,0.036c1.16-6.216,4.285-11.748,8.703-15.927
		c3.432-3.246,7.638-5.674,12.305-6.975c-1.319-3.964-3.711-7.434-6.832-10.06c-3.885-3.27-8.913-5.24-14.42-5.24
		c-6.184,0-11.78,2.5-15.83,6.541C673.236,201.501,670.911,206.019,670.266,211.06L670.266,211.06z M681.917,231.96
		c-0.82-3.839-2.82-7.243-5.6-9.812c-3.337-3.081-7.798-4.964-12.705-4.964c-5.168,0-9.848,2.095-13.232,5.481
		c-3.386,3.386-5.483,8.064-5.483,13.234c0,0.755,0.038,1.464,0.113,2.125c0.038,0.333,0.083,0.661,0.138,0.985
		c0.032,0.135,0.056,0.27,0.073,0.411c0.042,0.228,0.089,0.451,0.141,0.675c0.02,0.092,0.037,0.183,0.052,0.274
		c1.339,2.192,10.604,4.685,24.905,7.01l0.03,0.005c0.79-4.404,2.921-8.345,5.955-11.379
		C677.937,234.373,679.83,233.001,681.917,231.96L681.917,231.96z M677.276,248.402c8.459,1.126,18.152,2.019,28.715,2.617
		c-0.047-3.932-1.659-7.485-4.244-10.069c-2.622-2.622-6.246-4.245-10.25-4.245c-4.002,0-7.624,1.623-10.246,4.245
		C679.256,242.946,677.84,245.521,677.276,248.402z"/>
	<path style="fill-rule:evenodd;clip-rule:evenodd;fill:#5B0030;" d="M819.664,325.468c1.01-0.477,1.172-0.906,1.606-2.3
		c0.352-1.133,0.604-2.529,0.81-3.629c1.867-9.977,2.012-31.18,1.289-41.544c-0.285-4.085,0.285-14.12-1.661-15.929
		c-2.356,2.192-0.996,27.302-0.994,31.954c0,5.262-0.063,10.948-0.42,16.057C820.092,312.997,818.934,324.032,819.664,325.468
		L819.664,325.468z M738.702,154.542c1.596-0.56,2.939,0.582,2.418-2.134l-2.097-0.298L738.702,154.542L738.702,154.542z
		 M783.385,172.145c2.426,0.143,3.523-1.426,1.877-2.331C783.452,168.816,782.894,170.647,783.385,172.145L783.385,172.145z
		 M809.341,223.312c0,2.049,2.562,1.537,3.533,0c-1.297-1.917-0.841-1.551-1.554-1.553
		C809.87,221.755,809.341,221.808,809.341,223.312L809.341,223.312z M648.779,316.289c2.455-0.143,2.065-0.699,2.059-3.283
		C647.675,311.921,647.165,314.188,648.779,316.289L648.779,316.289z M677.878,206.834c1.719,0,2.551-1.339,2.335-3.033
		C676.527,202.264,675.8,206.834,677.878,206.834L677.878,206.834z M709.129,226.578c1.677,0.485,2.947-0.704,3.313-2.067
		l-0.798-0.994c-1.077-0.105-2.659-0.094-2.968,1.489C708.3,226.946,709.034,226.451,709.129,226.578L709.129,226.578z
		 M680.693,245.752c1.691,0.856,1.691,0.923,3.137-0.375l-0.02-2.752C681.396,242.177,680.796,243.711,680.693,245.752
		L680.693,245.752z M730.072,198.592c0.255,0.144-0.669,0.598,1.343,0.43c0.731-0.059,0.75-0.084,1.093-0.604
		C734.884,194.839,727.921,193.557,730.072,198.592L730.072,198.592z M764.577,237.619l1.594,0.154
		c0.717-0.917,0.764-0.872,0.764-2.078v-0.398C766.936,231.154,762.357,234.181,764.577,237.619L764.577,237.619z M778.846,197.936
		c5.188,0.935,4.313-6.17,0.653-2.853c-0.119,0.106-0.764,0.823-0.855,1.178c-0.307,1.17,0.202,1.673,0.202,1.673V197.936z
		 M649.541,232.1c1.44,0.663,1.764,0.279,2.509-0.657c0.62-0.783,1.663-1.919,0.658-2.923
		C651.058,226.879,648.592,230.038,649.541,232.1L649.541,232.1z M681.076,178.961c2.755,0.29,3.364-2.053,2.875-4.06
		C680.917,174.175,679.854,177.019,681.076,178.961L681.076,178.961z M818.72,334.503c3.42,1.447,3.236-4.187,2.559-4.937
		C819.163,327.222,817.928,332.598,818.72,334.503L818.72,334.503z M659.46,223.177c1.339-0.293,6.01-0.425,3.43,1.874
		c-0.396,0.354-4.265,1.482-5.053,1.811C652.369,229.133,653.887,224.405,659.46,223.177L659.46,223.177z M685.503,242.487
		c1.105,0.481,4.463-0.057,7.59-0.077c4.527-0.032,2.675-3.121-1.631-3.121C689.226,239.289,685.592,239.361,685.503,242.487
		L685.503,242.487z M777.676,226.508c0.265,1.997,0.489,1.823-1.61,2.329c-5.02,1.212-6.988,3.049-7.695,1.854
		C766.686,227.827,774.464,225.085,777.676,226.508L777.676,226.508z M682.139,201.475c1.465,0.183,3.083-0.933,4.976-1.311
		c2.291-0.46,4.406-0.095,5.192-2.018c-1.016-2.025-4.346-1.373-6.483-0.818C683.961,197.813,680.884,198.981,682.139,201.475
		L682.139,201.475z M714.515,221.933c1.554,0.428,2.661-0.484,4.919-0.326c1.804,0.126,3.287,0.626,5.19,0.626
		c2.97,0,3.666-2.551-3.392-3.456C718.315,218.405,713.256,218.622,714.515,221.933L714.515,221.933z M770.577,163.717
		c2.839,0.6,5.79,0.069,9.156,2.883c1.814,1.517,0.527,1.219,3.285,1.437C782.7,161.441,770.597,158.791,770.577,163.717
		L770.577,163.717z M685.131,172.878c2.485,0.139,4.713-2.018,6.953-3.262c1.206-0.669,2.149-1.146,3.43-1.782
		c1.598-0.795,2.461-0.969,2.291-2.846c-2.117-1.058-6.014,1.151-7.735,2.199C688.212,168.32,684.86,170.454,685.131,172.878
		L685.131,172.878z M806.116,222.513c-5.881-3.13-16.861,6.826-13.059,7.839c1.651,0.44,3.244-3.702,9.828-5.48
		C805.169,224.255,806.247,224.724,806.116,222.513L806.116,222.513z M785.177,192.323c2.047,0.722,1.285-0.995,8.546-1.397
		c1.139-0.064,6.469,0.274,7.315-0.69c0.533-0.606,0.452-1.225-0.35-1.744C798.28,186.941,784.278,187.318,785.177,192.323
		L785.177,192.323z M722.474,162.29c2.01-0.272,2.044-1.188,3.182-2.266c2.97-2.817,9.149-4.039,10.889-5.822l-0.285-1.638
		C733.898,151.988,720.874,156.047,722.474,162.29L722.474,162.29z M733.864,192.506c2.651,0.096,2.444-2.339,7.269-5.415
		c1.279-0.814,2.636-1.521,4.152-2.24c1.8-0.852,3.501-0.664,3.644-3.062c-3.236-0.996-6.941,1.151-9.527,2.769
		C737.213,185.929,733.575,188.793,733.864,192.506L733.864,192.506z M647.998,327.975c0,5.615-0.178,9.759,1.713,15.383
		c0.994,2.958,2.139,6.641,5.16,7.047c-0.136-4.803-4.014-4.556-4.014-26.033l-0.412-3.822c-1.701,0.285-1.689,0.922-1.966,2.745
		C648.27,324.688,647.998,326.696,647.998,327.975z"/>
</g>
</svg>
