<?xml version="1.0" encoding="iso-8859-1"?>
<!-- Generator: Adobe Illustrator 18.1.1, SVG Export Plug-In . SVG Version: 6.00 Build 0)  -->
<svg version="1.1" id="Object" xmlns="http://www.w3.org/2000/svg" xmlns:xlink="http://www.w3.org/1999/xlink" x="0px" y="0px"
	 viewBox="0 0 880 505" style="enable-background:new 0 0 880 505;" xml:space="preserve">
<g id="Background">
	<rect style="fill-rule:evenodd;clip-rule:evenodd;fill:#FFF8B6;" width="880" height="505"/>
</g>
<g id="Color">
	<path style="fill-rule:evenodd;clip-rule:evenodd;fill:#F08780;" d="M673.396,317.189c-0.102,0.116-0.214,0.221-0.33,0.317
		c-6.19,6.051-9.102,14.516-9.077,21.642c0.015,3.469,0.733,6.557,2.122,8.785c1.193,1.918,2.927,3.162,5.157,3.331
		c4.591,0.346,11.26-3.198,19.97-13.048c4.573-5.169,6.038-11.278,5.244-16.448c-0.373-2.426-1.237-4.62-2.499-6.375
		c-1.208-1.683-2.789-2.972-4.653-3.674c-2.905-1.095-6.607-0.781-10.821,1.652C676.613,314.466,674.912,315.757,673.396,317.189z"
		/>
	<path style="fill-rule:evenodd;clip-rule:evenodd;fill:#FCEAE8;" d="M745.156,329.963c-3.046,0.627-6.15,1.126-9.298,1.489
		c-4.102,0.473-8.261,0.716-12.457,0.716c-4.196,0-8.352-0.243-12.453-0.716c-3.151-0.363-6.252-0.861-9.298-1.489
		c-0.936,4.092-2.945,8.225-6.237,11.945c-1.987,2.245-3.906,4.203-5.755,5.898c-0.395,3.282-0.359,6.76,0.359,10.301
		c0.838,4.116,2.611,8.341,5.726,12.478c3.108,4.125,7.249,7.525,12.072,9.873c4.66,2.265,9.958,3.545,15.586,3.545
		c5.628,0,10.926-1.28,15.586-3.545c4.827-2.348,8.968-5.748,12.072-9.873c3.119-4.138,4.888-8.364,5.726-12.478
		c0.722-3.541,0.754-7.021,0.359-10.303c-1.849-1.694-3.768-3.652-5.752-5.896C748.1,338.186,746.088,334.056,745.156,329.963z"/>
	<path style="fill-rule:evenodd;clip-rule:evenodd;fill:#FCEAE8;" d="M775.501,311.621c6.198-4.491,11.231-9.775,14.756-15.606
		c3.681-6.094,5.722-12.798,5.722-19.827c0-13.924-8.014-26.582-20.968-35.791c-13.175-9.365-31.419-15.158-51.611-15.158
		s-38.433,5.793-51.607,15.158c-12.957,9.209-20.972,21.867-20.972,35.791c0,7.03,2.042,13.733,5.723,19.827
		c3.529,5.831,8.562,11.115,14.759,15.606c1.364-1.124,2.839-2.158,4.431-3.077c5.82-3.356,11.173-3.697,15.564-2.044
		c2.919,1.101,5.364,3.077,7.206,5.639c1.788,2.488,2.995,5.514,3.503,8.8c0.17,1.121,0.261,2.274,0.265,3.449
		c3.05,0.646,6.158,1.153,9.309,1.516c3.848,0.444,7.793,0.673,11.819,0.673c4.025,0,7.971-0.228,11.822-0.673
		c3.151-0.363,6.255-0.87,9.305-1.516c0.004-1.175,0.094-2.328,0.268-3.449c0.504-3.284,1.715-6.312,3.503-8.8
		c1.839-2.56,4.286-4.538,7.206-5.639c4.388-1.654,9.744-1.313,15.561,2.044C772.658,309.463,774.138,310.497,775.501,311.621z"/>
	<path style="fill-rule:evenodd;clip-rule:evenodd;fill:#F08780;" d="M773.739,317.507c-0.12-0.096-0.228-0.203-0.334-0.319
		c-1.512-1.431-3.217-2.722-5.113-3.815c-4.214-2.433-7.913-2.747-10.821-1.652c-1.86,0.702-3.441,1.991-4.649,3.674
		c-1.262,1.755-2.125,3.949-2.499,6.375c-0.794,5.169,0.667,11.278,5.24,16.448c8.714,9.849,15.383,13.394,19.971,13.048
		c2.234-0.169,3.967-1.412,5.16-3.331c1.385-2.228,2.107-5.316,2.121-8.785C782.841,332.023,779.925,323.557,773.739,317.507z"/>
	<path style="fill-rule:evenodd;clip-rule:evenodd;fill:#FCEAE8;" d="M789.594,188.557c0.138,0.002,0.283,0.016,0.424,0.045
		c0.413,0.085,0.841,0.152,1.28,0.198c0.446,0.047,0.881,0.073,1.295,0.073h0.062v-0.007c3.586,0,6.825-1.456,9.168-3.804
		c2.357-2.359,3.819-5.615,3.837-9.198v-0.063h-0.007c0-3.606-1.465-6.874-3.83-9.238c-2.361-2.364-5.628-3.826-9.236-3.826
		c-3.608,0-6.876,1.461-9.24,3.826c-2.364,2.364-3.826,5.632-3.826,9.238c0,1.044,0.112,2.049,0.33,2.995
		c0.196,0.836,0.464,1.632,0.809,2.377c1.476,0.983,2.876,2.009,4.163,3.041c0.051,0.038,0.094,0.082,0.138,0.125
		c0.051,0.031,0.102,0.067,0.149,0.103c0.33,0.272,0.653,0.548,0.979,0.825C787.313,186.338,788.48,187.424,789.594,188.557z"/>
	<path style="fill-rule:evenodd;clip-rule:evenodd;fill:#F08780;" d="M775.175,177.953c-0.083-0.711-0.131-1.429-0.131-2.154
		c0-4.841,1.966-9.227,5.139-12.4c3.173-3.173,7.557-5.137,12.402-5.137c4.841,0,9.225,1.964,12.402,5.137
		c3.173,3.173,5.135,7.559,5.135,12.4h-0.007v0.082c-0.022,4.809-1.98,9.169-5.131,12.326c-2.937,2.943-6.905,4.847-11.311,5.102
		c0.486,0.655,0.958,1.333,1.418,2.035c0.221-0.054,0.45-0.085,0.689-0.085c6.582,0,12.54-2.667,16.852-6.983
		c4.315-4.312,6.984-10.272,6.984-16.854c0-6.582-2.669-12.542-6.984-16.854c-4.312-4.314-10.27-6.983-16.852-6.983
		c-6.582,0-12.544,2.669-16.855,6.983c-4.315,4.312-6.981,10.272-6.981,16.854c0,0.834,0.033,1.59,0.098,2.272
		c0.065,0.723,0.174,1.471,0.323,2.238c0.043,0.241,0.058,0.481,0.043,0.714C773.336,177.049,774.265,177.486,775.175,177.953z"/>
	<path style="fill-rule:evenodd;clip-rule:evenodd;fill:#F08780;" d="M642.184,199.5c-3.71,5.969-6.654,12.41-8.714,19.206
		c-2.19,7.233-3.362,14.857-3.362,22.734c0,14.711,4.076,28.538,11.249,40.587c2.749,4.615,5.951,8.974,9.556,13.026
		c-2.956-5.889-4.562-12.239-4.562-18.864c0-15.452,8.733-29.387,22.857-39.426c13.9-9.884,33.066-15.996,54.193-15.996
		s40.293,6.112,54.196,15.996c14.121,10.04,22.854,23.974,22.854,39.426c0,6.625-1.606,12.975-4.562,18.863
		c3.605-4.051,6.81-8.41,9.559-13.024c7.169-12.049,11.246-25.876,11.246-40.587c0-7.877-1.171-15.501-3.362-22.734
		c-2.06-6.796-5.004-13.236-8.711-19.207c-2.19,0.691-4.493,1.13-6.872,1.287c0.841,2.569,1.82,6.571,0.113,7.374
		c-0.838,0.243-3.166-6.152-3.724-7.169c-0.453-0.772-0.921-1.512-1.422-2.245c-2.792-3.918-5.846-7.022-9.458-10.04
		c-0.316-0.265-0.638-0.522-0.961-0.781c-0.044-0.038-0.087-0.074-0.127-0.118c-0.051-0.033-0.102-0.067-0.149-0.105
		c-4.812-3.853-9.791-6.943-15.619-9.362c-0.881-0.354-6.814-1.965-6.386-3.289c0.569-1.442,4.272-0.865,6.524-0.363
		c-0.018-0.156-0.033-0.312-0.047-0.472c-0.094-0.986-0.141-1.92-0.141-2.794c0-1.828,0.167-3.616,0.486-5.351
		c-6.27-3.017-12.95-5.398-19.945-7.053c-7.499-1.773-15.369-2.718-23.492-2.718c-8.12,0-15.992,0.945-23.492,2.718
		c-6.995,1.655-13.675,4.036-19.945,7.053c0.319,1.735,0.49,3.523,0.49,5.351c0,0.874-0.051,1.808-0.141,2.794
		c-0.018,0.16-0.033,0.316-0.051,0.472c2.252-0.502,5.955-1.079,6.524,0.363c0.428,1.324-5.501,2.935-6.386,3.289
		c-5.828,2.419-10.807,5.509-15.619,9.362c-0.047,0.038-0.098,0.073-0.149,0.105c-0.04,0.042-0.083,0.081-0.127,0.118
		c-0.323,0.259-0.642,0.517-0.961,0.781c-3.612,3.017-6.665,6.121-9.458,10.04c-0.5,0.732-0.968,1.472-1.422,2.245
		c-0.559,1.017-2.887,7.412-3.724,7.169c-1.708-0.803-0.729-4.805,0.112-7.374C646.673,200.628,644.374,200.189,642.184,199.5z"/>
	<path style="fill-rule:evenodd;clip-rule:evenodd;fill:#F08780;" d="M653.132,193.309c-4.406-0.255-8.377-2.159-11.315-5.102
		c-3.151-3.157-5.109-7.517-5.131-12.326v-0.082h-0.007c0-4.841,1.962-9.227,5.139-12.4c3.173-3.173,7.557-5.137,12.399-5.137
		c4.845,0,9.229,1.964,12.402,5.137c3.173,3.173,5.139,7.559,5.139,12.4c0,0.725-0.047,1.443-0.13,2.154
		c0.914-0.468,1.839-0.905,2.767-1.307c-0.014-0.234,0-0.473,0.044-0.714c0.149-0.767,0.258-1.514,0.326-2.238
		c0.062-0.682,0.094-1.438,0.094-2.272c0-6.582-2.665-12.542-6.981-16.854c-4.312-4.314-10.27-6.983-16.852-6.983
		c-6.586,0-12.544,2.669-16.855,6.983c-4.315,4.312-6.981,10.272-6.981,16.854c0,6.582,2.666,12.542,6.981,16.854
		c4.312,4.315,10.27,6.983,16.855,6.983c0.236,0,0.464,0.031,0.685,0.085C652.171,194.642,652.642,193.964,653.132,193.309z"/>
	<path style="fill-rule:evenodd;clip-rule:evenodd;fill:#FCEAE8;" d="M666.143,181.172c0.344-0.743,0.613-1.541,0.809-2.377
		c0.218-0.947,0.33-1.951,0.33-2.995c0-3.606-1.461-6.874-3.826-9.238c-2.364-2.364-5.632-3.826-9.24-3.826
		c-3.608,0-6.872,1.461-9.237,3.826c-2.364,2.364-3.826,5.632-3.826,9.238h-0.011v0.063c0.018,3.583,1.48,6.839,3.837,9.198
		c2.343,2.348,5.581,3.804,9.168,3.804v0.007h0.062c0.417,0,0.849-0.025,1.295-0.073c0.439-0.045,0.867-0.112,1.28-0.198
		c0.141-0.029,0.286-0.043,0.424-0.045c1.113-1.133,2.281-2.219,3.507-3.291c0.326-0.277,0.653-0.553,0.983-0.825
		c0.043-0.036,0.094-0.073,0.145-0.103c0.043-0.043,0.091-0.087,0.138-0.125C663.268,183.181,664.668,182.155,666.143,181.172z"/>
	<path style="fill-rule:evenodd;clip-rule:evenodd;fill:#F08780;" d="M672.501,364.412c0,0.042,0,0.082-0.004,0.121l-0.004,0.069
		c-0.174,5.452,0.134,10.99,0.852,16.404c1.251,9.454,3.742,18.507,7.053,26.079c3.742,8.553,7.909,13.276,11.851,15.042
		c1.908,0.854,3.753,0.968,5.443,0.459c1.759-0.531,3.412-1.752,4.845-3.529c3.402-4.223,5.436-11.338,4.863-19.94
		c-0.105-1.538,1.059-2.869,2.596-2.972c1.538-0.102,2.868,1.062,2.97,2.6c0.044,0.631,0.073,1.253,0.091,1.871
		c5.265,2.602,9.534,2.299,10.023,2.254c0.083-0.011,0.17-0.016,0.258-0.018h0.014h0.047h0.047h0.018
		c0.084,0.002,0.167,0.007,0.25,0.018c0.468,0.044,4.747,0.355,10.031-2.254c0.015-0.618,0.044-1.24,0.087-1.871
		c0.102-1.538,1.432-2.702,2.97-2.6c1.538,0.103,2.702,1.434,2.6,2.972c-0.573,8.602,1.458,15.717,4.859,19.94
		c1.432,1.777,3.086,2.997,4.848,3.529c1.686,0.509,3.536,0.395,5.443-0.459c3.938-1.766,8.105-6.489,11.847-15.042
		c3.311-7.572,5.802-16.625,7.053-26.079c1.062-8.02,1.233-16.306,0.254-24.197c-3.42-0.314-7.391-1.898-11.855-5.13
		c0.018,2.379-0.196,4.83-0.7,7.318c-0.961,4.72-2.981,9.55-6.531,14.263c-3.536,4.696-8.236,8.56-13.697,11.216
		c-5.255,2.555-11.216,4-17.526,4c-6.31,0-12.268-1.445-17.523-4c-5.465-2.656-10.165-6.52-13.701-11.216
		c-3.547-4.713-5.567-9.543-6.528-14.263c-0.508-2.488-0.718-4.937-0.704-7.318c-4.464,3.231-8.435,4.814-11.855,5.13
		C672.784,359.312,672.588,361.854,672.501,364.412z"/>
	<path style="fill-rule:evenodd;clip-rule:evenodd;fill:#F08780;" d="M671.844,400.053c-1.802-5.744-3.18-11.953-4.025-18.326
		c-0.627-4.751-0.957-9.599-0.943-14.422c-3.793,0.446-7.191,2.174-9.755,4.736c-2.995,2.999-4.848,7.14-4.848,11.715
		c0,4.573,1.853,8.714,4.848,11.713c2.999,2.997,7.14,4.85,11.717,4.85c0.99,0,1.951-0.083,2.872-0.243L671.844,400.053z"/>
	<path style="fill-rule:evenodd;clip-rule:evenodd;fill:#B2D59D;" d="M200.321,317.093c-13.898,6.839-29.78,10.72-46.643,10.72
		c-16.865,0-32.746-3.88-46.644-10.72c-1.966,2.912-3.162,5.519-3.715,7.853c-0.977,4.123,0.185,7.439,2.673,10.105
		c0.076,0.071,0.147,0.147,0.214,0.225c0.14,0.143,0.283,0.285,0.432,0.424c3.276,3.106,8.361,5.407,14.009,7.108
		c12.72,3.826,28.021,4.49,33.033,4.49s20.312-0.664,33.031-4.49c5.648-1.701,10.732-4.002,14.011-7.108
		c2.925-2.771,4.373-6.29,3.316-10.754C203.483,322.613,202.287,320.005,200.321,317.093z"/>
	<path style="fill-rule:evenodd;clip-rule:evenodd;fill:#E15E9B;" d="M97.226,359.243c0.305-7.467,1.472-14.796,3.684-21.528
		c-0.511-0.635-0.974-1.291-1.383-1.975c-12.564,4.961-19.8,12.497-22.065,18.801c-0.767,2.132-0.917,4.047-0.464,5.552
		c0.377,1.253,1.255,2.241,2.616,2.814C82.982,364.32,88.844,363.565,97.226,359.243z"/>
	<path style="fill-rule:evenodd;clip-rule:evenodd;fill:#E15E9B;" d="M186.452,370.322c-2.515,4.23-5.8,7.935-9.661,10.908
		c-6.428,4.954-14.437,7.893-23.113,7.893c-21.129,0-38.257-17.38-38.257-38.819c0-0.629,0.02-1.329,0.06-2.096
		c0.022-0.403,0.047-0.803,0.082-1.198c-3.759-1.358-7.224-3.028-10.096-5.077c-2.402,8.51-3.124,17.953-2.558,27.307
		c0.731,12.074,3.599,23.96,7.768,33.49c3.741,8.553,7.909,13.276,11.849,15.042c1.906,0.854,3.755,0.968,5.441,0.459
		c1.762-0.531,3.416-1.751,4.847-3.529c3.402-4.223,5.434-11.336,4.861-19.94c-0.102-1.538,1.063-2.869,2.6-2.97
		c1.538-0.103,2.868,1.061,2.97,2.598c0.042,0.631,0.072,1.255,0.089,1.871c5.282,2.609,9.561,2.297,10.027,2.254
		c0.085-0.009,0.169-0.015,0.254-0.018h0.016h0.047h0.047h0.014c0.087,0.004,0.172,0.009,0.258,0.018
		c0.49,0.045,4.76,0.348,10.023-2.254c0.018-0.616,0.047-1.24,0.089-1.871c0.103-1.538,1.432-2.702,2.97-2.598
		c1.539,0.101,2.702,1.432,2.6,2.97c-0.573,8.604,1.46,15.717,4.861,19.94c1.431,1.777,3.084,2.997,4.847,3.529
		c1.686,0.509,3.536,0.395,5.443-0.459c3.938-1.766,8.107-6.489,11.849-15.042c0.863-1.977,1.688-4.109,2.464-6.372
		c0.346-1.008,0.675-2.022,0.986-3.039c-6.674,0.138-12.585-1.831-13.323-2.087c-1.353-0.424-2.189-1.813-1.893-3.228
		C186.211,381.835,186.602,375.85,186.452,370.322z"/>
	<path style="fill-rule:evenodd;clip-rule:evenodd;fill:#FCEAE8;" d="M183.348,349.481c-12.157,2.868-25.071,3.409-29.669,3.409
		c-5.119,0-20.529-0.669-33.74-4.47v0.016c-0.029,0.546-0.044,1.17-0.044,1.867c0,18.968,15.126,34.346,33.784,34.346
		c7.665,0,14.729-2.589,20.388-6.95c5.36-4.129,9.469-9.84,11.652-16.444C185.114,356.733,184.231,352.739,183.348,349.481z"/>
	<path style="fill-rule:evenodd;clip-rule:evenodd;fill:#E15E9B;" d="M218.293,362.596c5.104,1.478,8.609,1.146,10.542-0.332
		c0.881-0.673,1.427-1.643,1.63-2.814c0.245-1.405,0.038-3.088-0.627-4.932c-1.986-5.494-7.735-11.913-17.485-16.75
		C215.545,345.292,217.574,354.271,218.293,362.596z"/>
	<path style="fill-rule:evenodd;clip-rule:evenodd;fill:#B2D59D;" d="M212.87,364.982c-0.009-0.082-0.013-0.163-0.014-0.245
		l-0.033-0.468c-0.631-8.941-2.874-18.763-6.513-26.389c-0.533,0.646-1.117,1.266-1.746,1.862
		c-3.907,3.702-9.603,6.372-15.838,8.288c1.146,4.228,2.292,9.612,2.896,15.739c0.675,6.867,0.675,14.676-0.762,22.855
		c2.776,0.722,7.654,1.654,12.275,0.887c0.187-0.054,0.379-0.091,0.575-0.105c1.797-0.357,3.541-0.985,5.09-2.002
		C212.232,383.152,213.479,374.802,212.87,364.982z"/>
	<path style="fill-rule:evenodd;clip-rule:evenodd;fill:#F7AB3B;" d="M153.678,234.609c3.57-0.673,29.882-5.793,28.38-10.381
		c-1.882-5.755-23.211-18.732-28.38-21.811c-5.171,3.079-26.498,16.056-28.382,21.811
		C123.795,228.816,150.106,233.936,153.678,234.609z"/>
	<path style="fill-rule:evenodd;clip-rule:evenodd;fill:#FCEAE8;" d="M185.942,226.186c-4.208,7.735-30.589,12.649-31.814,12.875
		c-0.125,0.025-0.254,0.04-0.384,0.044h-0.005l-0.038,0.002h-0.022h-0.024l-0.038-0.002h-0.005
		c-0.131-0.004-0.258-0.018-0.381-0.044c-1.193-0.219-27.606-5.135-31.818-12.875c-11.818,4.136-21.809,10.473-28.902,18.248
		c-7.218,7.913-11.41,17.323-11.41,27.396c0,13.922,8.014,26.58,20.97,35.791c1.592,1.133,3.26,2.212,4.997,3.236l0.234,0.123
		c0.096,0.044,0.19,0.091,0.281,0.145c13.594,7.061,29.325,11.093,46.097,11.093c16.77,0,32.5-4.031,46.093-11.091
		c0.092-0.056,0.187-0.105,0.285-0.149l0.23-0.12c1.737-1.026,3.405-2.105,5.001-3.238c12.955-9.211,20.968-21.869,20.968-35.791
		c0-10.072-4.192-19.483-11.41-27.396C207.753,236.659,197.761,230.322,185.942,226.186z"/>
	<path style="fill-rule:evenodd;clip-rule:evenodd;fill:#E15E9B;" d="M152.525,197.904c0.071-0.042,0.145-0.082,0.219-0.116
		c0.301-0.138,0.618-0.203,0.934-0.203c0.314,0,0.631,0.065,0.932,0.203c0.072,0.032,0.143,0.071,0.21,0.11
		c0.631,0.368,25.678,15.001,30.779,23.47c13.32,4.355,24.607,11.354,32.547,20.059c7.96,8.727,12.582,19.164,12.582,30.402
		c0,6.627-1.608,12.977-4.558,18.859c13.004-14.632,20.801-33.29,20.801-53.607c0-23.474-10.406-44.732-27.227-60.126
		c-16.886-15.454-40.244-25.013-66.066-25.013c-25.824,0-49.181,9.559-66.068,25.013c-16.821,15.394-27.227,36.652-27.227,60.126
		c0,20.317,7.797,38.973,20.801,53.606c-2.95-5.882-4.558-12.23-4.558-18.857c0-11.238,4.622-21.675,12.582-30.402
		c7.942-8.705,19.227-15.704,32.547-20.059C126.828,212.948,151.624,198.43,152.525,197.904z"/>
	<path style="fill-rule:evenodd;clip-rule:evenodd;fill:#ED718A;" d="M391.895,317.612c-1.966,2.912-3.162,5.519-3.715,7.853
		c-1.057,4.464,0.393,7.984,3.318,10.754c3.278,3.106,8.362,5.409,14.011,7.108c12.719,3.826,28.019,4.49,33.031,4.49
		c5.012,0,20.313-0.664,33.031-4.49c5.648-1.699,10.732-4.002,14.011-7.108c0.147-0.14,0.29-0.281,0.432-0.424
		c0.065-0.078,0.136-0.152,0.212-0.225c2.488-2.665,3.65-5.982,2.674-10.105c-0.553-2.333-1.75-4.941-3.715-7.853
		c-13.898,6.839-29.782,10.72-46.645,10.72C421.677,328.331,405.793,324.451,391.895,317.612z"/>
	<path style="fill-rule:evenodd;clip-rule:evenodd;fill:#FCEAE8;" d="M387,311.5c5.199,3.005,12.372,6.556,21.333,9.333
		c12.863,3.986,23.755,4.626,30,4.667c15.74,0.103,27.505-3.43,31.333-4.667c5.669-1.831,15.184-4.993,25.333-12.667
		c6.166-4.662,12.396-9.372,16-16.667c7.705-15.593-0.137-35.814-8.667-47.333c-17.635-23.816-48.933-24.92-60.667-25.333
		c-9.824-0.346-32.154-0.817-52.667,14c-7.513,5.427-25.759,18.606-26,39.333c-0.207,17.783,12.958,30.984,14,32
		C380.686,307.761,384.357,310.073,387,311.5z"/>
	<path style="fill-rule:evenodd;clip-rule:evenodd;fill:#FCEAE8;" d="M408.868,349.999c-0.881,3.258-1.766,7.253-2.37,11.775
		c2.183,6.604,6.294,12.315,11.653,16.446c5.659,4.359,12.723,6.948,20.388,6.948c18.658,0,33.784-15.378,33.784-34.346
		c0-0.698-0.014-1.322-0.043-1.867v-0.016c-13.213,3.801-28.623,4.47-33.74,4.47C433.941,353.408,421.028,352.868,408.868,349.999z"
		/>
	<path style="fill-rule:evenodd;clip-rule:evenodd;fill:#FFFFFF;" d="M372.822,188.336c-26.244-29.698-37.116-52.9-38.716-65.846
		c-0.798-6.462,0.684-10.799,3.773-12.616c3.113-1.833,7.548-0.945,12.622,3.063c9.8,7.742,23.303,28.115,34.757,64.298
		c1.989-1.322,4.13-2.558,6.506-3.75c-0.789-4.19-1.617-8.219-2.484-12.085c-0.024-0.085-0.042-0.169-0.058-0.254
		c-9.619-42.783-23.744-65.932-36.531-74.874c-6.839-4.783-13.131-5.235-17.827-2.303c-4.905,3.064-8.313,9.779-9.117,19.146
		c-1.648,19.238,7.73,48.761,37.096,80.771c0.042,0.042,0.082,0.085,0.122,0.131c2.268,2.468,4.653,4.95,7.162,7.445
		C371.043,190.369,371.937,189.329,372.822,188.336z"/>
	<path style="fill-rule:evenodd;clip-rule:evenodd;fill:#F8CDD6;" d="M381.449,180.008c-11.251-36.128-24.337-56.171-33.709-63.576
		c-3.478-2.747-6.121-3.588-7.606-2.714c-1.509,0.888-2.149,3.697-1.588,8.23c1.509,12.217,11.982,34.355,37.332,63.116
		C377.689,183.221,379.513,181.551,381.449,180.008z"/>
	<path style="fill-rule:evenodd;clip-rule:evenodd;fill:#FFFFFF;" d="M494.727,330.48c-0.384,2.914-1.59,5.485-3.422,7.753
		c1.543,4.694,2.578,9.677,3.166,14.796c11.936-4.959,18.845-12.255,21.049-18.389c0.765-2.132,0.914-4.047,0.461-5.552
		c-0.377-1.253-1.251-2.241-2.615-2.814C509.864,324.805,503.662,325.679,494.727,330.48z"/>
	<path style="fill-rule:evenodd;clip-rule:evenodd;fill:#ED718A;" d="M380.883,353.974c-0.014,0.092-0.035,0.187-0.058,0.279
		c-0.707,3.525-1.189,7.095-1.432,10.535c-0.716,10.125,0.509,18.83,4.024,21.135c1.548,1.017,3.293,1.645,5.09,2.002
		c0.198,0.014,0.39,0.051,0.575,0.105c4.622,0.767,9.499-0.165,12.277-0.887c-1.436-8.179-1.438-15.989-0.761-22.855
		c0.602-6.125,1.748-11.51,2.894-15.739c-6.234-1.917-11.929-4.586-15.836-8.288c-0.631-0.597-1.215-1.217-1.748-1.862
		C383.705,343.013,382.015,348.432,380.883,353.974z"/>
	<path style="fill-rule:evenodd;clip-rule:evenodd;fill:#FFFFFF;" d="M376.229,349.314c1.536-6.154,3.728-12.049,6.522-16.854
		c-0.223-0.814-0.379-1.657-0.462-2.531c-8.373-4.315-14.228-5.066-17.592-3.655c-1.193,0.502-2.009,1.309-2.442,2.326
		c-0.491,1.155-0.56,2.636-0.2,4.324C363.134,337.965,367.787,344.204,376.229,349.314z"/>
	<path style="fill-rule:evenodd;clip-rule:evenodd;fill:#FFFFFF;" d="M483.041,399.568c0.04-0.136,0.089-0.266,0.147-0.39
		c3.271-8.741,5.49-19.012,6.12-29.421c0.034-0.548,0.064-1.097,0.087-1.645c0-0.092,0.004-0.185,0.011-0.276
		c0.363-8.722-0.417-17.459-2.655-25.387c-2.872,2.049-6.339,3.719-10.096,5.077c0.033,0.395,0.06,0.796,0.082,1.199
		c0.04,0.767,0.06,1.467,0.06,2.096c0,21.439-17.128,38.819-38.257,38.819c-8.678,0-16.687-2.939-23.115-7.893
		c-3.86-2.974-7.146-6.676-9.659-10.908c-0.152,5.528,0.239,11.516,1.538,17.682c0.294,1.414-0.542,2.803-1.893,3.228
		c-0.74,0.256-6.649,2.225-13.325,2.089c0.312,1.015,0.642,2.029,0.988,3.039c0.774,2.261,1.599,4.393,2.464,6.37
		c3.741,8.553,7.909,13.276,11.849,15.042c1.907,0.856,3.755,0.968,5.441,0.459c1.763-0.531,3.416-1.751,4.847-3.529
		c3.403-4.223,5.434-11.336,4.863-19.94c-0.103-1.538,1.061-2.869,2.598-2.97c1.538-0.103,2.868,1.061,2.97,2.6
		c0.043,0.629,0.072,1.253,0.089,1.87c5.265,2.602,9.534,2.299,10.023,2.254c0.085-0.009,0.17-0.015,0.258-0.016l0.016-0.002h0.047
		h0.047l0.014,0.002c0.087,0.002,0.17,0.007,0.254,0.016c0.466,0.043,4.747,0.355,10.029-2.254c0.016-0.616,0.045-1.24,0.087-1.87
		c0.103-1.539,1.434-2.703,2.972-2.6c1.538,0.101,2.702,1.432,2.6,2.97c-0.575,8.604,1.458,15.717,4.859,19.94
		c1.432,1.777,3.086,2.997,4.847,3.529c1.688,0.509,3.536,0.397,5.443-0.459c3.94-1.766,8.109-6.489,11.849-15.042
		C482.062,402.056,482.564,400.829,483.041,399.568z"/>
	<path style="fill-rule:evenodd;clip-rule:evenodd;fill:#FFFFFF;" d="M494.836,370.742c-0.626,9.389-2.479,18.665-5.2,26.908
		c7.18-0.343,11.909-3.719,14.313-8.005c1.258-2.239,1.9-4.713,1.944-7.117c0.043-2.375-0.493-4.678-1.592-6.609
		C502.604,372.929,499.434,370.813,494.836,370.742z"/>
	<path style="fill-rule:evenodd;clip-rule:evenodd;fill:#FFFFFF;" d="M481.919,162.2c-6.256-3.003-12.932-5.378-19.929-7.03
		c-7.485-1.768-15.343-2.709-23.45-2.709c-8.107,0-15.965,0.941-23.448,2.709c-6.999,1.652-13.675,4.027-19.929,7.028
		c0.629,2.883,1.237,5.849,1.822,8.897l0.403-0.169c0.843-0.348,10.114-4.033,10.64-1.837c0.223,1.474-7.842,4.649-9.073,5.258
		c-0.789,0.399-1.548,0.791-2.285,1.179c-0.395,0.426-0.925,0.731-1.538,0.843l-0.045,0.007
		c-10.865,5.947-16.018,11.128-25.205,21.61c-0.825,0.974-1.616,1.949-2.392,2.961c-0.974,1.322-5.576,9.387-6.598,9.278
		c-2.879-0.838,3.028-10.654,3.539-11.47c0.691-1.024,1.409-1.996,2.165-2.966c-0.074-0.06-0.147-0.125-0.218-0.194
		c-1.835-1.821-3.605-3.635-5.315-5.445c-4.772,6.477-8.595,13.583-11.285,21.147c-2.941,8.276-4.531,17.115-4.531,26.302
		c0,20.317,7.795,38.973,20.799,53.606c-2.95-5.882-4.558-12.23-4.558-18.857c0-15.45,8.734-29.387,22.857-39.426
		c13.902-9.884,33.066-15.996,54.195-15.996c21.129,0,40.293,6.112,54.195,15.996c14.123,10.04,22.855,23.976,22.855,39.426
		c0,6.627-1.606,12.975-4.558,18.857c13.004-14.632,20.801-33.289,20.801-53.606c0-9.187-1.592-18.027-4.533-26.3
		c-2.691-7.566-6.513-14.672-11.285-21.149c-1.708,1.81-3.478,3.625-5.313,5.445c-0.072,0.069-0.145,0.134-0.218,0.194
		c0.758,0.97,1.472,1.942,2.165,2.966c0.511,0.816,6.419,10.633,3.539,11.47c-1.023,0.109-5.625-7.956-6.596-9.278
		c-0.78-1.012-1.57-1.987-2.393-2.961c-9.189-10.482-14.341-15.663-25.205-21.61l-0.045-0.007c-0.613-0.112-1.142-0.417-1.536-0.843
		c-0.736-0.388-1.496-0.78-2.287-1.179c-1.231-0.609-9.296-3.784-9.073-5.258c0.526-2.196,9.797,1.489,10.64,1.837l0.403,0.169
		C480.68,168.048,481.289,165.083,481.919,162.2z"/>
	<path style="fill-rule:evenodd;clip-rule:evenodd;fill:#F8CDD6;" d="M495.632,180.008c1.935,1.543,3.759,3.213,5.568,5.055
		c25.352-28.761,35.825-50.898,37.334-63.116c0.559-4.533-0.08-7.342-1.588-8.23c-1.487-0.874-4.13-0.033-7.608,2.714
		C519.967,123.837,506.879,143.88,495.632,180.008z"/>
	<path style="fill-rule:evenodd;clip-rule:evenodd;fill:#FFFFFF;" d="M487.857,161.145c-0.014,0.085-0.034,0.17-0.058,0.254
		c-0.865,3.868-1.695,7.895-2.484,12.085c2.377,1.191,4.519,2.428,6.508,3.75c11.452-36.182,24.953-56.555,34.755-64.298
		c5.073-4.007,9.508-4.896,12.62-3.063c3.09,1.817,4.573,6.154,3.775,12.616c-1.599,12.946-12.471,36.15-38.716,65.848
		c0.885,0.992,1.777,2.031,2.694,3.122c2.51-2.495,4.896-4.977,7.162-7.445c0.04-0.043,0.08-0.089,0.12-0.131
		c29.367-32.01,38.748-61.533,37.098-80.771c-0.801-9.367-4.214-16.081-9.117-19.146c-4.696-2.932-10.988-2.48-17.827,2.303
		C511.601,95.213,497.476,118.363,487.857,161.145z"/>
</g>
<g id="Line">
	<path style="fill-rule:evenodd;clip-rule:evenodd;fill:#5B0030;" d="M733.468,290.037c0.159-0.651,0.82-1.048,1.469-0.889
		c0.649,0.16,1.044,0.816,0.885,1.467c-0.004,0.014-1.407,5.452,4.453,6.814c0.649,0.149,1.059,0.8,0.91,1.45
		c-0.149,0.653-0.801,1.061-1.454,0.912c-2.223-0.517-3.703-1.458-4.678-2.559c-1.483,2.228-4.794,5.402-11.652,5.402
		c-0.598,0-1.175-0.025-1.726-0.073c-0.555-0.047-1.081-0.116-1.581-0.203c-4.66-0.82-7.122-3.293-8.341-5.126
		c-0.979,1.101-2.459,2.042-4.682,2.559c-0.653,0.149-1.302-0.259-1.451-0.912c-0.152-0.651,0.258-1.302,0.91-1.45
		c5.857-1.362,4.453-6.799,4.45-6.814c-0.159-0.651,0.236-1.307,0.888-1.467c0.649-0.16,1.306,0.238,1.465,0.889
		c0.004,0.011,0.598,2.328-0.189,4.747c0.471,1.111,2.245,4.285,7.365,5.184c0.428,0.076,0.885,0.134,1.364,0.174
		c0.479,0.042,0.987,0.064,1.527,0.064c7.376,0,9.704-4.121,10.259-5.421C732.869,292.365,733.468,290.047,733.468,290.037z"/>
	<path style="fill-rule:evenodd;clip-rule:evenodd;fill:#5B0030;" d="M686.44,280.896c6.528,0,11.855-5.325,11.855-11.856
		c0-6.529-5.327-11.855-11.855-11.855c-6.531,0-11.855,5.325-11.855,11.855C674.586,275.571,679.909,280.896,686.44,280.896z"/>
	<path style="fill-rule:evenodd;clip-rule:evenodd;fill:#5B0030;" d="M673.121,258.369c0.297,0.46,0.613,0.854,0.986,1.255
		c0.751,0.763,1.534,1.391,2.535,1.797c0.011,0.006,0.025,0.009,0.04,0.011c0.011,0.009,0.025,0.016,0.04,0.022
		c0.043,0.014,0.17,0.054,0.192,0.067c1.146,0.364,2.092,0.377,3.257,0.074c0.457-0.14,0.841-0.299,1.251-0.542
		c0.305-0.183,1.937-1.345,1.447-1.868c-0.355-0.335-1.599,0.455-2.063,0.653c-0.345,0.138-0.642,0.237-1.004,0.319
		c-0.863,0.169-1.534,0.131-2.357-0.163c-0.011,0-0.12-0.044-0.141-0.053c-0.011-0.006-0.022-0.007-0.033-0.009
		c-0.011-0.007-0.018-0.013-0.029-0.016c-0.82-0.314-1.429-0.763-2.074-1.353c-0.152-0.087-0.787-0.818-0.95-1.004
		c-0.308-0.354-1.171-1.63-1.668-1.409C671.953,256.458,672.929,258.066,673.121,258.369z"/>
	<path style="fill-rule:evenodd;clip-rule:evenodd;fill:#5B0030;" d="M671.369,262.293c0.519,0.432,1.015,0.734,1.625,1.024
		c1.121,0.475,2.129,0.704,3.344,0.66c0.018,0,0.036-0.002,0.051-0.005c0.014,0.002,0.033,0.002,0.051,0.002
		c0.087-0.005,0.388-0.047,0.428-0.04c1.338-0.178,2.386-0.568,3.554-1.246c0.16-0.056,0.802-0.537,0.972-0.675
		c0.272-0.223,1.878-1.632,1.331-2.114c-0.417-0.328-1.704,0.742-2.125,1.006c-0.294,0.181-0.584,0.348-0.892,0.509
		c-1.012,0.504-1.886,0.802-3.014,0.918c-0.047,0.014-0.268,0.02-0.344,0.023c-0.014,0-0.025,0.004-0.04,0.007
		c-0.011-0.004-0.025-0.004-0.04-0.004c-0.99,0.051-1.744-0.082-2.68-0.426c-0.526-0.212-0.928-0.432-1.404-0.732
		c-0.428-0.281-1.766-1.472-2.172-1.195C669.429,260.467,671.104,262.068,671.369,262.293z"/>
	<path style="fill-rule:evenodd;clip-rule:evenodd;fill:#5B0030;" d="M671.34,265.495c0.624,0.259,1.186,0.403,1.853,0.499
		c1.211,0.125,2.241,0.045,3.391-0.352c0.014-0.006,0.033-0.013,0.044-0.02c0.018-0.004,0.036-0.009,0.051-0.014
		c0.08-0.031,0.359-0.158,0.395-0.165c1.229-0.562,2.114-1.244,3.032-2.236c0.134-0.1,0.609-0.749,0.729-0.93
		c0.196-0.294,1.32-2.112,0.653-2.413c-0.497-0.191-1.414,1.213-1.733,1.587c-0.232,0.261-0.457,0.506-0.703,0.751
		c-0.82,0.78-1.57,1.324-2.611,1.764c-0.043,0.029-0.254,0.098-0.323,0.123c-0.011,0.005-0.025,0.011-0.036,0.018
		c-0.014,0.002-0.025,0.006-0.04,0.011c-0.932,0.339-1.69,0.435-2.687,0.379c-0.566-0.045-1.015-0.138-1.556-0.285
		c-0.493-0.145-2.121-0.888-2.426-0.502C668.95,264.318,671.021,265.357,671.34,265.495z"/>
	<path style="fill-rule:evenodd;clip-rule:evenodd;fill:#FFFFFF;" d="M685.443,268.527c2.314,0,4.203-1.888,4.203-4.203
		c0-2.314-1.889-4.203-4.203-4.203s-4.203,1.889-4.203,4.203C681.24,266.639,683.13,268.527,685.443,268.527z"/>
	<path style="fill-rule:evenodd;clip-rule:evenodd;fill:#5B0030;" d="M760.365,280.896c6.527,0,11.855-5.325,11.855-11.856
		c0-6.529-5.327-11.855-11.855-11.855c-6.531,0-11.855,5.325-11.855,11.855C748.51,275.571,753.834,280.896,760.365,280.896z"/>
	<path style="fill-rule:evenodd;clip-rule:evenodd;fill:#5B0030;" d="M773.681,258.369c-0.294,0.46-0.613,0.854-0.983,1.255
		c-0.754,0.763-1.538,1.391-2.535,1.797c-0.014,0.006-0.029,0.009-0.043,0.011c-0.011,0.009-0.025,0.016-0.04,0.022
		c-0.04,0.014-0.17,0.054-0.192,0.067c-1.146,0.364-2.089,0.377-3.257,0.074c-0.457-0.14-0.838-0.299-1.248-0.542
		c-0.305-0.183-1.94-1.345-1.447-1.868c0.355-0.335,1.596,0.455,2.063,0.653c0.345,0.138,0.638,0.237,1.001,0.319
		c0.863,0.169,1.534,0.131,2.361-0.163c0.007,0,0.116-0.044,0.142-0.053c0.011-0.006,0.022-0.007,0.032-0.009
		c0.007-0.007,0.018-0.013,0.025-0.016c0.82-0.314,1.429-0.763,2.074-1.353c0.152-0.087,0.791-0.818,0.954-1.004
		c0.305-0.354,1.168-1.63,1.664-1.409C774.852,256.458,773.877,258.066,773.681,258.369z"/>
	<path style="fill-rule:evenodd;clip-rule:evenodd;fill:#5B0030;" d="M775.432,262.293c-0.519,0.432-1.015,0.734-1.625,1.024
		c-1.121,0.475-2.129,0.704-3.344,0.66c-0.014,0-0.032-0.002-0.051-0.005c-0.015,0.002-0.033,0.002-0.051,0.002
		c-0.083-0.005-0.388-0.047-0.428-0.04c-1.335-0.178-2.386-0.568-3.55-1.246c-0.16-0.056-0.805-0.537-0.972-0.675
		c-0.276-0.223-1.882-1.632-1.334-2.114c0.421-0.328,1.708,0.742,2.125,1.006c0.297,0.181,0.584,0.348,0.892,0.509
		c1.012,0.504,1.889,0.802,3.013,0.918c0.051,0.014,0.268,0.02,0.345,0.023c0.014,0,0.029,0.004,0.04,0.007
		c0.014-0.004,0.029-0.004,0.04-0.004c0.994,0.051,1.744-0.082,2.684-0.426c0.522-0.212,0.928-0.432,1.403-0.732
		c0.424-0.281,1.762-1.472,2.169-1.195C777.372,260.467,775.697,262.068,775.432,262.293z"/>
	<path style="fill-rule:evenodd;clip-rule:evenodd;fill:#5B0030;" d="M775.461,265.495c-0.62,0.259-1.186,0.403-1.853,0.499
		c-1.211,0.125-2.241,0.045-3.391-0.352c-0.014-0.006-0.029-0.013-0.043-0.02c-0.018-0.004-0.033-0.009-0.051-0.014
		c-0.08-0.031-0.355-0.158-0.395-0.165c-1.226-0.562-2.114-1.244-3.028-2.236c-0.138-0.1-0.609-0.749-0.732-0.93
		c-0.196-0.294-1.316-2.112-0.653-2.413c0.5-0.191,1.414,1.213,1.737,1.587c0.229,0.261,0.453,0.506,0.704,0.751
		c0.816,0.78,1.567,1.324,2.607,1.764c0.044,0.029,0.254,0.098,0.323,0.123c0.014,0.005,0.025,0.011,0.036,0.018
		c0.015,0.002,0.029,0.006,0.04,0.011c0.932,0.339,1.69,0.435,2.687,0.379c0.566-0.045,1.015-0.138,1.559-0.285
		c0.49-0.145,2.118-0.888,2.426-0.502C777.855,264.318,775.784,265.357,775.461,265.495z"/>
	<path style="fill-rule:evenodd;clip-rule:evenodd;fill:#FFFFFF;" d="M761.362,268.527c2.314,0,4.203-1.888,4.203-4.203
		c0-2.314-1.889-4.203-4.203-4.203c-2.317,0-4.203,1.889-4.203,4.203C757.159,266.639,759.045,268.527,761.362,268.527z"/>
	<path style="fill-rule:evenodd;clip-rule:evenodd;fill:#5B0030;" d="M822.286,241.439c0,15.717-4.366,30.511-12.054,43.426
		c-7.383,12.404-17.824,23.046-30.378,31.071c5.81,6.916,8.558,15.699,8.533,23.212c-0.018,4.511-1.023,8.631-2.952,11.735
		c-1.527,2.453-3.597,4.29-6.194,5.247c1.037,8.379,0.863,17.144-0.258,25.595c-1.32,9.983-3.96,19.563-7.467,27.586
		c-4.352,9.951-9.563,15.606-14.691,17.905c-3.202,1.436-6.368,1.608-9.309,0.72c-2.865-0.865-5.458-2.725-7.597-5.383
		c-3.068-3.808-5.244-9.351-5.947-15.958c-5.222,2.034-9.479,1.915-10.571,1.842c-1.095,0.072-5.349,0.19-10.567-1.842
		c-0.704,6.607-2.883,12.15-5.947,15.958c-2.143,2.658-4.732,4.519-7.601,5.383c-2.941,0.889-6.103,0.716-9.309-0.72
		c-5.128-2.299-10.335-7.954-14.687-17.905c-0.558-1.275-1.095-2.589-1.607-3.938c-0.341,0.076-0.685,0.147-1.03,0.207
		c-1.251,0.218-2.528,0.332-3.815,0.332c-6.121,0-11.659-2.482-15.67-6.491c-4.011-4.009-6.488-9.548-6.488-15.666
		c0-6.12,2.477-11.659,6.488-15.668c3.616-3.617,8.479-5.989,13.885-6.419c0.116-1.86,0.283-3.708,0.511-5.537
		c-2.596-0.957-4.667-2.794-6.194-5.247c-1.933-3.104-2.934-7.224-2.952-11.735c-0.029-7.514,2.723-16.297,8.533-23.211
		c-12.558-8.025-22.995-18.669-30.378-31.073c-7.688-12.916-12.058-27.709-12.058-43.426c0-8.433,1.255-16.6,3.601-24.351
		c2.107-6.954,5.106-13.586,8.881-19.787c-2.502-1.36-4.787-3.072-6.785-5.07c-5.324-5.325-8.62-12.682-8.62-20.808
		c0-8.125,3.296-15.483,8.62-20.808c5.327-5.325,12.685-8.62,20.812-8.62c8.123,0,15.481,3.295,20.808,8.62
		c2.825,2.827,5.081,6.227,6.575,10.011c6.368-2.99,13.146-5.367,20.235-7.046c7.92-1.873,16.217-2.87,24.758-2.87
		c8.544,0,16.837,0.997,24.758,2.87c7.089,1.679,13.867,4.056,20.235,7.046c1.494-3.784,3.75-7.184,6.575-10.011
		c5.327-5.325,12.685-8.62,20.812-8.62c8.123,0,15.481,3.295,20.808,8.62c5.324,5.325,8.62,12.683,8.62,20.808
		c0,8.127-3.296,15.483-8.62,20.808c-1.998,1.998-4.283,3.71-6.785,5.068c3.775,6.203,6.774,12.836,8.881,19.789
		C821.031,224.839,822.286,233.006,822.286,241.439L822.286,241.439z M671.844,400.053c-1.802-5.744-3.18-11.953-4.025-18.326
		c-0.627-4.751-0.957-9.599-0.943-14.422c-3.793,0.446-7.191,2.174-9.755,4.736c-2.995,2.999-4.848,7.14-4.848,11.715
		c0,4.573,1.853,8.714,4.848,11.713c2.999,2.997,7.14,4.85,11.717,4.85c0.99,0,1.951-0.083,2.872-0.243L671.844,400.053
		L671.844,400.053z M672.501,364.412c0,0.042,0,0.082-0.004,0.121l-0.004,0.069c-0.174,5.452,0.134,10.99,0.852,16.404
		c1.251,9.454,3.742,18.507,7.053,26.079c3.742,8.553,7.909,13.276,11.851,15.042c1.908,0.854,3.753,0.968,5.443,0.459
		c1.759-0.531,3.412-1.752,4.845-3.529c3.402-4.223,5.436-11.338,4.863-19.94c-0.105-1.538,1.059-2.869,2.596-2.972
		c1.538-0.102,2.868,1.062,2.97,2.6c0.044,0.631,0.073,1.253,0.091,1.871c5.265,2.602,9.534,2.299,10.023,2.254
		c0.083-0.011,0.17-0.016,0.258-0.018h0.014h0.047h0.047h0.018c0.084,0.002,0.167,0.007,0.25,0.018
		c0.468,0.044,4.747,0.355,10.031-2.254c0.015-0.618,0.044-1.24,0.087-1.871c0.102-1.538,1.432-2.702,2.97-2.6
		c1.538,0.103,2.702,1.434,2.6,2.972c-0.573,8.602,1.458,15.717,4.859,19.94c1.432,1.777,3.086,2.997,4.848,3.529
		c1.686,0.509,3.536,0.395,5.443-0.459c3.938-1.766,8.105-6.489,11.847-15.042c3.311-7.572,5.802-16.625,7.053-26.079
		c1.062-8.02,1.233-16.306,0.254-24.197c-3.42-0.314-7.391-1.898-11.855-5.13c0.018,2.379-0.196,4.83-0.7,7.318
		c-0.961,4.72-2.981,9.55-6.531,14.263c-3.536,4.696-8.236,8.56-13.697,11.216c-5.255,2.555-11.216,4-17.526,4
		c-6.31,0-12.268-1.445-17.523-4c-5.465-2.656-10.165-6.52-13.701-11.216c-3.547-4.713-5.567-9.543-6.528-14.263
		c-0.508-2.488-0.718-4.937-0.704-7.318c-4.464,3.231-8.435,4.814-11.855,5.13C672.784,359.312,672.588,361.854,672.501,364.412
		L672.501,364.412z M666.143,181.172c0.344-0.743,0.613-1.541,0.809-2.377c0.218-0.947,0.33-1.951,0.33-2.995
		c0-3.606-1.461-6.874-3.826-9.238c-2.364-2.364-5.632-3.826-9.24-3.826c-3.608,0-6.872,1.461-9.237,3.826
		c-2.364,2.364-3.826,5.632-3.826,9.238h-0.011v0.063c0.018,3.583,1.48,6.839,3.837,9.198c2.343,2.348,5.581,3.804,9.168,3.804
		v0.007h0.062c0.417,0,0.849-0.025,1.295-0.073c0.439-0.045,0.867-0.112,1.28-0.198c0.141-0.029,0.286-0.043,0.424-0.045
		c1.113-1.133,2.281-2.219,3.507-3.291c0.326-0.277,0.653-0.553,0.983-0.825c0.043-0.036,0.094-0.073,0.145-0.103
		c0.043-0.043,0.091-0.087,0.138-0.125C663.268,183.181,664.668,182.155,666.143,181.172L666.143,181.172z M653.132,193.309
		c-4.406-0.255-8.377-2.159-11.315-5.102c-3.151-3.157-5.109-7.517-5.131-12.326v-0.082h-0.007c0-4.841,1.962-9.227,5.139-12.4
		c3.173-3.173,7.557-5.137,12.399-5.137c4.845,0,9.229,1.964,12.402,5.137c3.173,3.173,5.139,7.559,5.139,12.4
		c0,0.725-0.047,1.443-0.13,2.154c0.914-0.468,1.839-0.905,2.767-1.307c-0.014-0.234,0-0.473,0.044-0.714
		c0.149-0.767,0.258-1.514,0.326-2.238c0.062-0.682,0.094-1.438,0.094-2.272c0-6.582-2.665-12.542-6.981-16.854
		c-4.312-4.314-10.27-6.983-16.852-6.983c-6.586,0-12.544,2.669-16.855,6.983c-4.315,4.312-6.981,10.272-6.981,16.854
		c0,6.582,2.666,12.542,6.981,16.854c4.312,4.315,10.27,6.983,16.855,6.983c0.236,0,0.464,0.031,0.685,0.085
		C652.171,194.642,652.642,193.964,653.132,193.309L653.132,193.309z M642.184,199.5c-3.71,5.969-6.654,12.41-8.714,19.206
		c-2.19,7.233-3.362,14.857-3.362,22.734c0,14.711,4.076,28.538,11.249,40.587c2.749,4.615,5.951,8.974,9.556,13.026
		c-2.956-5.889-4.562-12.239-4.562-18.864c0-15.452,8.733-29.387,22.857-39.426c13.9-9.884,33.066-15.996,54.193-15.996
		s40.293,6.112,54.196,15.996c14.121,10.04,22.854,23.974,22.854,39.426c0,6.625-1.606,12.975-4.562,18.863
		c3.605-4.051,6.81-8.41,9.559-13.024c7.169-12.049,11.246-25.876,11.246-40.587c0-7.877-1.171-15.501-3.362-22.734
		c-2.06-6.796-5.004-13.236-8.711-19.207c-2.19,0.691-4.493,1.13-6.872,1.287c0.841,2.569,1.82,6.571,0.113,7.374
		c-0.838,0.243-3.166-6.152-3.724-7.169c-0.453-0.772-0.921-1.512-1.422-2.245c-2.792-3.918-5.846-7.022-9.458-10.04
		c-0.316-0.265-0.638-0.522-0.961-0.781c-0.044-0.038-0.087-0.074-0.127-0.118c-0.051-0.033-0.102-0.067-0.149-0.105
		c-4.812-3.853-9.791-6.943-15.619-9.362c-0.881-0.354-6.814-1.965-6.386-3.289c0.569-1.442,4.272-0.865,6.524-0.363
		c-0.018-0.156-0.033-0.312-0.047-0.472c-0.094-0.986-0.141-1.92-0.141-2.794c0-1.828,0.167-3.616,0.486-5.351
		c-6.27-3.017-12.95-5.398-19.945-7.053c-7.499-1.773-15.369-2.718-23.492-2.718c-8.12,0-15.992,0.945-23.492,2.718
		c-6.995,1.655-13.675,4.036-19.945,7.053c0.319,1.735,0.49,3.523,0.49,5.351c0,0.874-0.051,1.808-0.141,2.794
		c-0.018,0.16-0.033,0.316-0.051,0.472c2.252-0.502,5.955-1.079,6.524,0.363c0.428,1.324-5.501,2.935-6.386,3.289
		c-5.828,2.419-10.807,5.509-15.619,9.362c-0.047,0.038-0.098,0.073-0.149,0.105c-0.04,0.042-0.083,0.081-0.127,0.118
		c-0.323,0.259-0.642,0.517-0.961,0.781c-3.612,3.017-6.665,6.121-9.458,10.04c-0.5,0.732-0.968,1.472-1.422,2.245
		c-0.559,1.017-2.887,7.412-3.724,7.169c-1.708-0.803-0.729-4.805,0.112-7.374C646.673,200.628,644.374,200.189,642.184,199.5
		L642.184,199.5z M775.175,177.953c-0.083-0.711-0.131-1.429-0.131-2.154c0-4.841,1.966-9.227,5.139-12.4
		c3.173-3.173,7.557-5.137,12.402-5.137c4.841,0,9.225,1.964,12.402,5.137c3.173,3.173,5.135,7.559,5.135,12.4h-0.007v0.082
		c-0.022,4.809-1.98,9.169-5.131,12.326c-2.937,2.943-6.905,4.847-11.311,5.102c0.486,0.655,0.958,1.333,1.418,2.035
		c0.221-0.054,0.45-0.085,0.689-0.085c6.582,0,12.54-2.667,16.852-6.983c4.315-4.312,6.984-10.272,6.984-16.854
		c0-6.582-2.669-12.542-6.984-16.854c-4.312-4.314-10.27-6.983-16.852-6.983c-6.582,0-12.544,2.669-16.855,6.983
		c-4.315,4.312-6.981,10.272-6.981,16.854c0,0.834,0.033,1.59,0.098,2.272c0.065,0.723,0.174,1.471,0.323,2.238
		c0.043,0.241,0.058,0.481,0.043,0.714C773.336,177.049,774.265,177.486,775.175,177.953L775.175,177.953z M789.594,188.557
		c0.138,0.002,0.283,0.016,0.424,0.045c0.413,0.085,0.841,0.152,1.28,0.198c0.446,0.047,0.881,0.073,1.295,0.073h0.062v-0.007
		c3.586,0,6.825-1.456,9.168-3.804c2.357-2.359,3.819-5.615,3.837-9.198v-0.063h-0.007c0-3.606-1.465-6.874-3.83-9.238
		c-2.361-2.364-5.628-3.826-9.236-3.826c-3.608,0-6.876,1.461-9.24,3.826c-2.364,2.364-3.826,5.632-3.826,9.238
		c0,1.044,0.112,2.049,0.33,2.995c0.196,0.836,0.464,1.632,0.809,2.377c1.476,0.983,2.876,2.009,4.163,3.041
		c0.051,0.038,0.094,0.082,0.138,0.125c0.051,0.031,0.102,0.067,0.149,0.103c0.33,0.272,0.653,0.548,0.979,0.825
		C787.313,186.338,788.48,187.424,789.594,188.557L789.594,188.557z M773.739,317.507c-0.12-0.096-0.228-0.203-0.334-0.319
		c-1.512-1.431-3.217-2.722-5.113-3.815c-4.214-2.433-7.913-2.747-10.821-1.652c-1.86,0.702-3.441,1.991-4.649,3.674
		c-1.262,1.755-2.125,3.949-2.499,6.375c-0.794,5.169,0.667,11.278,5.24,16.448c8.714,9.849,15.383,13.394,19.971,13.048
		c2.234-0.169,3.967-1.412,5.16-3.331c1.385-2.228,2.107-5.316,2.121-8.785C782.841,332.023,779.925,323.557,773.739,317.507
		L773.739,317.507z M775.501,311.621c6.198-4.491,11.231-9.775,14.756-15.606c3.681-6.094,5.722-12.798,5.722-19.827
		c0-13.924-8.014-26.582-20.968-35.791c-13.175-9.365-31.419-15.158-51.611-15.158s-38.433,5.793-51.607,15.158
		c-12.957,9.209-20.972,21.867-20.972,35.791c0,7.03,2.042,13.733,5.723,19.827c3.529,5.831,8.562,11.115,14.759,15.606
		c1.364-1.124,2.839-2.158,4.431-3.077c5.82-3.356,11.173-3.697,15.564-2.044c2.919,1.101,5.364,3.077,7.206,5.639
		c1.788,2.488,2.995,5.514,3.503,8.8c0.17,1.121,0.261,2.274,0.265,3.449c3.05,0.646,6.158,1.153,9.309,1.516
		c3.848,0.444,7.793,0.673,11.819,0.673c4.025,0,7.971-0.228,11.822-0.673c3.151-0.363,6.255-0.87,9.305-1.516
		c0.004-1.175,0.094-2.328,0.268-3.449c0.504-3.284,1.715-6.312,3.503-8.8c1.839-2.56,4.286-4.538,7.206-5.639
		c4.388-1.654,9.744-1.313,15.561,2.044C772.658,309.463,774.138,310.497,775.501,311.621L775.501,311.621z M745.156,329.963
		c-3.046,0.627-6.15,1.126-9.298,1.489c-4.102,0.473-8.261,0.716-12.457,0.716c-4.196,0-8.352-0.243-12.453-0.716
		c-3.151-0.363-6.252-0.861-9.298-1.489c-0.936,4.092-2.945,8.225-6.237,11.945c-1.987,2.245-3.906,4.203-5.755,5.898
		c-0.395,3.282-0.359,6.76,0.359,10.301c0.838,4.116,2.611,8.341,5.726,12.478c3.108,4.125,7.249,7.525,12.072,9.873
		c4.66,2.265,9.958,3.545,15.586,3.545c5.628,0,10.926-1.28,15.586-3.545c4.827-2.348,8.968-5.748,12.072-9.873
		c3.119-4.138,4.888-8.364,5.726-12.478c0.722-3.541,0.754-7.021,0.359-10.303c-1.849-1.694-3.768-3.652-5.752-5.896
		C748.1,338.186,746.088,334.056,745.156,329.963L745.156,329.963z M673.396,317.189c-0.102,0.116-0.214,0.221-0.33,0.317
		c-6.19,6.051-9.102,14.516-9.077,21.642c0.015,3.469,0.733,6.557,2.122,8.785c1.193,1.918,2.927,3.162,5.157,3.331
		c4.591,0.346,11.26-3.198,19.97-13.048c4.573-5.169,6.038-11.278,5.244-16.448c-0.373-2.426-1.237-4.62-2.499-6.375
		c-1.208-1.683-2.789-2.972-4.653-3.674c-2.905-1.095-6.607-0.781-10.821,1.652C676.613,314.466,674.912,315.757,673.396,317.189z"
		/>
	<path style="fill-rule:evenodd;clip-rule:evenodd;fill:#5B0030;" d="M252.563,237.082c0,25.091-11.106,47.802-29.062,64.233
		c-5.474,5.01-11.588,9.434-18.214,13.164c2.167,3.309,3.521,6.363,4.189,9.178c0.589,2.486,0.664,4.774,0.303,6.879
		c14.232,5.619,22.569,14.52,25.303,22.081c1.004,2.78,1.296,5.436,0.888,7.771c-0.448,2.571-1.703,4.745-3.75,6.31
		c-2.965,2.265-7.556,3.113-13.644,1.733c0.085,10.078-2.065,18.593-6.718,21.646c-1.775,1.164-3.708,1.951-5.688,2.459
		c-0.546,1.966-1.128,3.848-1.741,5.634c-0.792,2.312-1.675,4.582-2.638,6.787c-4.352,9.949-9.563,15.604-14.689,17.904
		c-3.206,1.436-6.37,1.608-9.311,0.722c-2.865-0.867-5.456-2.727-7.597-5.385c-3.066-3.808-5.246-9.351-5.947-15.958
		c-5.218,2.034-9.474,1.915-10.569,1.842c-1.092,0.073-5.349,0.192-10.571-1.842c-0.702,6.607-2.881,12.15-5.946,15.958
		c-2.143,2.658-4.732,4.518-7.599,5.385c-2.941,0.887-6.105,0.714-9.309-0.722c-5.128-2.299-10.339-7.955-14.689-17.904
		c-4.419-10.101-7.456-22.663-8.226-35.392c-0.083-1.367-0.14-2.736-0.169-4.105c-8.763,4.004-15.407,4.412-19.717,2.602
		c-2.995-1.257-4.941-3.5-5.806-6.375c-0.791-2.624-0.609-5.737,0.571-9.024c2.725-7.581,11.079-16.515,25.356-22.143
		c-0.357-2.102-0.283-4.383,0.305-6.863c0.667-2.816,2.022-5.869,4.19-9.178c-6.627-3.73-12.74-8.154-18.215-13.164
		c-17.956-16.431-29.062-39.142-29.062-64.233c0-25.091,11.106-47.801,29.062-64.233c17.891-16.371,42.578-26.498,69.825-26.498
		c27.245,0,51.934,10.127,69.823,26.498C241.457,189.28,252.563,211.991,252.563,237.082L252.563,237.082z M152.525,197.904
		c0.071-0.042,0.145-0.082,0.219-0.116c0.301-0.138,0.618-0.203,0.934-0.203c0.314,0,0.631,0.065,0.932,0.203
		c0.072,0.032,0.143,0.071,0.21,0.11c0.631,0.368,25.678,15.001,30.779,23.47c13.32,4.355,24.607,11.354,32.547,20.059
		c7.96,8.727,12.582,19.164,12.582,30.402c0,6.627-1.608,12.977-4.558,18.859c13.004-14.632,20.801-33.29,20.801-53.607
		c0-23.474-10.406-44.732-27.227-60.126c-16.886-15.454-40.244-25.013-66.066-25.013c-25.824,0-49.181,9.559-66.068,25.013
		c-16.821,15.394-27.227,36.652-27.227,60.126c0,20.317,7.797,38.973,20.801,53.606c-2.95-5.882-4.558-12.23-4.558-18.857
		c0-11.238,4.622-21.675,12.582-30.402c7.942-8.705,19.227-15.704,32.547-20.059C126.828,212.948,151.624,198.43,152.525,197.904
		L152.525,197.904z M185.942,226.186c-4.208,7.735-30.589,12.649-31.814,12.875c-0.125,0.025-0.254,0.04-0.384,0.044h-0.005
		l-0.038,0.002h-0.022h-0.024l-0.038-0.002h-0.005c-0.131-0.004-0.258-0.018-0.381-0.044c-1.193-0.219-27.606-5.135-31.818-12.875
		c-11.818,4.136-21.809,10.473-28.902,18.248c-7.218,7.913-11.41,17.323-11.41,27.396c0,13.922,8.014,26.58,20.97,35.791
		c1.592,1.133,3.26,2.212,4.997,3.236l0.234,0.123c0.096,0.044,0.19,0.091,0.281,0.145c13.594,7.061,29.325,11.093,46.097,11.093
		c16.77,0,32.5-4.031,46.093-11.091c0.092-0.056,0.187-0.105,0.285-0.149l0.23-0.12c1.737-1.026,3.405-2.105,5.001-3.238
		c12.955-9.211,20.968-21.869,20.968-35.791c0-10.072-4.192-19.483-11.41-27.396C207.753,236.659,197.761,230.322,185.942,226.186
		L185.942,226.186z M153.678,234.609c3.57-0.673,29.882-5.793,28.38-10.381c-1.882-5.755-23.211-18.732-28.38-21.811
		c-5.171,3.079-26.498,16.056-28.382,21.811C123.795,228.816,150.106,233.936,153.678,234.609L153.678,234.609z M212.87,364.982
		c-0.009-0.082-0.013-0.163-0.014-0.245l-0.033-0.468c-0.631-8.941-2.874-18.763-6.513-26.389c-0.533,0.646-1.117,1.266-1.746,1.862
		c-3.907,3.702-9.603,6.372-15.838,8.288c1.146,4.228,2.292,9.612,2.896,15.739c0.675,6.867,0.675,14.676-0.762,22.855
		c2.776,0.722,7.654,1.654,12.275,0.887c0.187-0.054,0.379-0.091,0.575-0.105c1.797-0.357,3.541-0.985,5.09-2.002
		C212.232,383.152,213.479,374.802,212.87,364.982L212.87,364.982z M218.293,362.596c5.104,1.478,8.609,1.146,10.542-0.332
		c0.881-0.673,1.427-1.643,1.63-2.814c0.245-1.405,0.038-3.088-0.627-4.932c-1.986-5.494-7.735-11.913-17.485-16.75
		C215.545,345.292,217.574,354.271,218.293,362.596L218.293,362.596z M183.348,349.481c-12.157,2.868-25.071,3.409-29.669,3.409
		c-5.119,0-20.529-0.669-33.74-4.47v0.016c-0.029,0.546-0.044,1.17-0.044,1.867c0,18.968,15.126,34.346,33.784,34.346
		c7.665,0,14.729-2.589,20.388-6.95c5.36-4.129,9.469-9.84,11.652-16.444C185.114,356.733,184.231,352.739,183.348,349.481
		L183.348,349.481z M186.452,370.322c-2.515,4.23-5.8,7.935-9.661,10.908c-6.428,4.954-14.437,7.893-23.113,7.893
		c-21.129,0-38.257-17.38-38.257-38.819c0-0.629,0.02-1.329,0.06-2.096c0.022-0.403,0.047-0.803,0.082-1.198
		c-3.759-1.358-7.224-3.028-10.096-5.077c-2.402,8.51-3.124,17.953-2.558,27.307c0.731,12.074,3.599,23.96,7.768,33.49
		c3.741,8.553,7.909,13.276,11.849,15.042c1.906,0.854,3.755,0.968,5.441,0.459c1.762-0.531,3.416-1.751,4.847-3.529
		c3.402-4.223,5.434-11.336,4.861-19.94c-0.102-1.538,1.063-2.869,2.6-2.97c1.538-0.103,2.868,1.061,2.97,2.598
		c0.042,0.631,0.072,1.255,0.089,1.871c5.282,2.609,9.561,2.297,10.027,2.254c0.085-0.009,0.169-0.015,0.254-0.018h0.016h0.047
		h0.047h0.014c0.087,0.004,0.172,0.009,0.258,0.018c0.49,0.045,4.76,0.348,10.023-2.254c0.018-0.616,0.047-1.24,0.089-1.871
		c0.103-1.538,1.432-2.702,2.97-2.598c1.539,0.101,2.702,1.432,2.6,2.97c-0.573,8.604,1.46,15.717,4.861,19.94
		c1.431,1.777,3.084,2.997,4.847,3.529c1.686,0.509,3.536,0.395,5.443-0.459c3.938-1.766,8.107-6.489,11.849-15.042
		c0.863-1.977,1.688-4.109,2.464-6.372c0.346-1.008,0.675-2.022,0.986-3.039c-6.674,0.138-12.585-1.831-13.323-2.087
		c-1.353-0.424-2.189-1.813-1.893-3.228C186.211,381.835,186.602,375.85,186.452,370.322L186.452,370.322z M97.226,359.243
		c0.305-7.467,1.472-14.796,3.684-21.528c-0.511-0.635-0.974-1.291-1.383-1.975c-12.564,4.961-19.8,12.497-22.065,18.801
		c-0.767,2.132-0.917,4.047-0.464,5.552c0.377,1.253,1.255,2.241,2.616,2.814C82.982,364.32,88.844,363.565,97.226,359.243
		L97.226,359.243z M200.321,317.093c-13.898,6.839-29.78,10.72-46.643,10.72c-16.865,0-32.746-3.88-46.644-10.72
		c-1.966,2.912-3.162,5.519-3.715,7.853c-0.977,4.123,0.185,7.439,2.673,10.105c0.076,0.071,0.147,0.147,0.214,0.225
		c0.14,0.143,0.283,0.285,0.432,0.424c3.276,3.106,8.361,5.407,14.009,7.108c12.72,3.826,28.021,4.49,33.033,4.49
		s20.312-0.664,33.031-4.49c5.648-1.701,10.732-4.002,14.011-7.108c2.925-2.771,4.373-6.29,3.316-10.754
		C203.483,322.613,202.287,320.005,200.321,317.093z"/>
	<path style="fill-rule:evenodd;clip-rule:evenodd;fill:#FFFFFF;" d="M107.654,207.929c7.597,0,13.755-6.158,13.755-13.755
		c0-7.596-6.158-13.755-13.755-13.755c-7.595,0-13.755,6.159-13.755,13.755C93.899,201.772,100.058,207.929,107.654,207.929
		L107.654,207.929z M199.703,207.929c7.595,0,13.753-6.158,13.753-13.755c0-7.596-6.158-13.755-13.753-13.755
		c-7.597,0-13.755,6.159-13.755,13.755C185.948,201.772,192.105,207.929,199.703,207.929z"/>
	<path style="fill-rule:evenodd;clip-rule:evenodd;fill:#5B0030;" d="M107.654,183.141c6.094,0,11.035,4.939,11.035,11.033
		c0,6.094-4.941,11.033-11.035,11.033c-6.094,0-11.033-4.939-11.033-11.033c0-1.541,0.317-3.01,0.888-4.343
		c0.656,1.753,2.348,3.003,4.33,3.003c2.555,0,4.624-2.071,4.624-4.624c0-1.942-1.197-3.603-2.892-4.288
		C104.832,183.418,106.21,183.141,107.654,183.141z"/>
	<path style="fill-rule:evenodd;clip-rule:evenodd;fill:#5B0030;" d="M199.703,183.141c6.092,0,11.033,4.939,11.033,11.033
		c0,6.094-4.941,11.033-11.033,11.033c-6.094,0-11.035-4.939-11.035-11.033c0-1.541,0.317-3.01,0.888-4.343
		c0.656,1.753,2.348,3.003,4.332,3.003c2.553,0,4.624-2.071,4.624-4.624c0-1.942-1.197-3.603-2.894-4.288
		C196.881,183.418,198.26,183.141,199.703,183.141z"/>
	<path style="fill-rule:evenodd;clip-rule:evenodd;fill:#5B0030;" d="M113.543,268.59c0-1.144-0.926-2.071-2.071-2.071
		s-2.071,0.927-2.071,2.071c0,2.997,1.215,5.71,3.179,7.675c1.964,1.964,4.676,3.178,7.673,3.178c2.997,0,5.71-1.215,7.673-3.178
		c1.966-1.966,3.179-4.678,3.179-7.675c0-1.144-0.926-2.071-2.071-2.071c-1.144,0-2.071,0.927-2.071,2.071
		c0,1.853-0.751,3.532-1.966,4.747c-1.215,1.213-2.892,1.964-4.745,1.964c-1.853,0-3.532-0.751-4.745-1.964
		C114.294,272.122,113.543,270.443,113.543,268.59z"/>
	<path style="fill-rule:evenodd;clip-rule:evenodd;fill:#5B0030;" d="M180.39,268.59c0-1.144-0.927-2.071-2.071-2.071
		s-2.071,0.927-2.071,2.071c0,2.997,1.215,5.71,3.179,7.675c1.964,1.964,4.676,3.178,7.673,3.178c2.997,0,5.71-1.215,7.675-3.178
		c1.964-1.966,3.179-4.678,3.179-7.675c0-1.144-0.928-2.071-2.071-2.071c-1.144,0-2.072,0.927-2.072,2.071
		c0,1.853-0.751,3.532-1.966,4.747c-1.213,1.213-2.892,1.964-4.745,1.964c-1.853,0-3.53-0.751-4.745-1.964
		C181.141,272.122,180.39,270.443,180.39,268.59z"/>
	<path style="fill-rule:evenodd;clip-rule:evenodd;fill:#5B0030;" d="M163.745,293.668c0.159-0.649,0.816-1.048,1.467-0.888
		c0.649,0.159,1.046,0.818,0.887,1.467c-0.004,0.016-1.407,5.452,4.45,6.814c0.653,0.149,1.061,0.799,0.912,1.452
		c-0.151,0.651-0.8,1.059-1.452,0.91c-2.223-0.517-3.704-1.458-4.682-2.557c-1.48,2.228-4.791,5.4-11.648,5.4
		c-0.6,0-1.175-0.025-1.728-0.071c-0.553-0.047-1.081-0.116-1.583-0.205c-4.66-0.818-7.12-3.291-8.339-5.126
		c-0.977,1.101-2.459,2.042-4.682,2.558c-0.653,0.149-1.302-0.259-1.452-0.91c-0.149-0.653,0.259-1.304,0.912-1.452
		c5.857-1.362,4.453-6.798,4.45-6.814c-0.159-0.649,0.237-1.307,0.887-1.467c0.651-0.16,1.307,0.239,1.467,0.888
		c0.004,0.011,0.6,2.328-0.189,4.747c0.471,1.112,2.245,4.285,7.365,5.184c0.43,0.076,0.883,0.136,1.364,0.176
		c0.481,0.04,0.988,0.062,1.528,0.062c7.374,0,9.704-4.12,10.256-5.422C163.145,295.997,163.743,293.679,163.745,293.668z"/>
	<path style="fill-rule:evenodd;clip-rule:evenodd;fill:#5B0030;" d="M443.959,289.977c1.349-0.754,2.508-1.599,3.842-1.795
		c3.499-0.517,3.264,4.315,2.036,6.509c-2.426,4.332-6.879,6.46-11.298,6.388c-4.419,0.073-8.874-2.056-11.298-6.388
		c-1.228-2.194-1.463-7.026,2.036-6.509c1.335,0.196,2.493,1.041,3.842,1.795c1.715,0.959,3.572,1.391,5.42,1.34
		C440.387,291.367,442.244,290.936,443.959,289.977z"/>
	<path style="fill-rule:evenodd;clip-rule:evenodd;fill:#5B0030;" d="M479.708,259.426c0.943-0.593,1.226-1.839,0.633-2.783
		c-0.595-0.943-1.84-1.226-2.783-0.633c-0.038,0.024-12.74,7.963-13.013,12.001c-0.308,4.549,13.882,9.318,13.922,9.333
		c1.057,0.354,2.201-0.216,2.555-1.275c0.354-1.055-0.218-2.199-1.273-2.553c-0.033-0.011-11.269-3.788-11.169-5.237
		C468.711,266.318,479.676,259.446,479.708,259.426z"/>
	<path style="fill-rule:evenodd;clip-rule:evenodd;fill:#5B0030;" d="M399.521,256.01c-0.943-0.593-2.189-0.31-2.783,0.633
		c-0.593,0.945-0.31,2.19,0.633,2.783c0.031,0.02,10.997,6.892,11.13,8.854c0.098,1.449-11.137,5.226-11.169,5.237
		c-1.057,0.354-1.626,1.498-1.273,2.553c0.354,1.059,1.498,1.628,2.555,1.275c0.04-0.014,14.228-4.783,13.922-9.333
		C412.261,263.973,399.557,256.034,399.521,256.01z"/>
	<path style="fill-rule:evenodd;clip-rule:evenodd;fill:#5B0030;" d="M487.857,161.145c-0.014,0.085-0.034,0.17-0.058,0.254
		c-0.865,3.868-1.695,7.895-2.484,12.085c2.377,1.191,4.519,2.428,6.508,3.75c11.452-36.182,24.953-56.555,34.755-64.298
		c5.073-4.007,9.508-4.896,12.62-3.063c3.09,1.817,4.573,6.154,3.775,12.616c-1.599,12.946-12.471,36.15-38.716,65.848
		c0.885,0.992,1.777,2.031,2.694,3.122c2.51-2.495,4.896-4.977,7.162-7.445c0.04-0.043,0.08-0.089,0.12-0.131
		c29.367-32.01,38.748-61.533,37.098-80.771c-0.801-9.367-4.214-16.081-9.117-19.146c-4.696-2.932-10.988-2.48-17.827,2.303
		C511.601,95.213,497.476,118.363,487.857,161.145L487.857,161.145z M495.632,180.008c11.247-36.128,24.335-56.171,33.706-63.576
		c3.478-2.747,6.121-3.588,7.608-2.714c1.509,0.888,2.147,3.697,1.588,8.23c-1.509,12.217-11.982,34.355-37.334,63.116
		C499.39,183.221,497.566,181.551,495.632,180.008L495.632,180.008z M481.919,162.2c-0.629,2.883-1.238,5.848-1.824,8.896
		l-0.403-0.169c-0.843-0.348-10.114-4.033-10.64-1.837c-0.223,1.474,7.842,4.649,9.073,5.258c0.791,0.399,1.55,0.791,2.287,1.179
		c0.393,0.426,0.923,0.731,1.536,0.843l0.045,0.007c10.865,5.947,16.016,11.128,25.205,21.61c0.823,0.974,1.614,1.949,2.393,2.961
		c0.972,1.322,5.574,9.387,6.596,9.278c2.879-0.838-3.028-10.654-3.539-11.47c-0.693-1.024-1.407-1.996-2.165-2.966
		c0.073-0.06,0.145-0.125,0.218-0.194c1.835-1.821,3.605-3.635,5.313-5.445c4.772,6.477,8.595,13.583,11.285,21.149
		c2.941,8.274,4.533,17.113,4.533,26.3c0,20.317-7.797,38.973-20.801,53.606c2.952-5.882,4.558-12.23,4.558-18.857
		c0-15.45-8.732-29.387-22.855-39.426c-13.902-9.884-33.066-15.996-54.195-15.996c-21.129,0-40.293,6.112-54.195,15.996
		c-14.123,10.04-22.857,23.976-22.857,39.426c0,6.627,1.608,12.975,4.558,18.857c-13.004-14.632-20.799-33.289-20.799-53.606
		c0-9.187,1.59-18.027,4.531-26.302c2.691-7.565,6.513-14.671,11.285-21.147c1.71,1.81,3.479,3.625,5.315,5.445
		c0.071,0.069,0.143,0.134,0.218,0.194c-0.756,0.97-1.474,1.942-2.165,2.966c-0.511,0.816-6.419,10.633-3.539,11.47
		c1.023,0.109,5.625-7.956,6.598-9.278c0.776-1.012,1.566-1.987,2.392-2.961c9.187-10.482,14.341-15.663,25.205-21.61l0.045-0.007
		c0.613-0.112,1.142-0.417,1.538-0.843c0.736-0.388,1.496-0.78,2.285-1.179c1.231-0.609,9.296-3.784,9.073-5.258
		c-0.526-2.196-9.797,1.489-10.64,1.837l-0.403,0.169c-0.586-3.048-1.193-6.014-1.822-8.897c6.254-3.001,12.93-5.376,19.929-7.028
		c7.483-1.768,15.342-2.709,23.448-2.709c8.107,0,15.965,0.941,23.45,2.709C468.987,156.822,475.663,159.198,481.919,162.2
		L481.919,162.2z M519.862,185.977c5.396,7.14,9.704,15.03,12.703,23.465c3.155,8.874,4.859,18.337,4.859,28.159
		c0,25.091-11.108,47.802-29.062,64.233c-5.476,5.01-11.586,9.434-18.214,13.164c2.169,3.309,3.521,6.363,4.189,9.179l0.051,0.218
		c9.47-4.626,16.6-5.18,21.14-3.275c2.995,1.258,4.939,3.5,5.806,6.375c0.791,2.624,0.609,5.737-0.573,9.024
		c-2.752,7.661-11.256,16.707-25.813,22.322c0.107,2.094,0.143,4.201,0.114,6.31c6.729,0.113,11.461,3.394,14.09,8.016
		c1.592,2.805,2.372,6.094,2.31,9.449c-0.058,3.325-0.936,6.718-2.64,9.76c-3.543,6.306-10.582,11.171-21.24,10.885
		c-0.303,0.751-0.613,1.489-0.93,2.216c-4.352,9.949-9.561,15.606-14.689,17.904c-3.204,1.436-6.368,1.608-9.309,0.722
		c-2.867-0.867-5.458-2.725-7.599-5.385c-3.066-3.808-5.244-9.351-5.947-15.958c-5.222,2.034-9.479,1.915-10.571,1.842
		c-1.093,0.073-5.349,0.192-10.567-1.842c-0.703,6.607-2.881,12.15-5.947,15.958c-2.141,2.658-4.732,4.519-7.599,5.385
		c-2.941,0.887-6.105,0.714-9.309-0.722c-5.128-2.297-10.337-7.955-14.689-17.904c-0.965-2.205-1.848-4.475-2.64-6.785
		c-0.613-1.788-1.195-3.67-1.741-5.636c-1.98-0.508-3.913-1.294-5.686-2.459c-5.342-3.505-7.385-14.205-6.537-26.203
		c0.216-3.046,0.611-6.196,1.179-9.343c-10.919-6.125-16.979-14.288-18.406-20.968c-0.602-2.816-0.421-5.443,0.526-7.668
		c1.006-2.362,2.818-4.207,5.414-5.296c4.399-1.846,11.226-1.383,20.255,2.852c0.684-2.76,2.024-5.744,4.14-8.974
		c-6.627-3.73-12.74-8.154-18.215-13.164c-17.954-16.431-29.06-39.142-29.06-64.233c0-9.822,1.704-19.285,4.859-28.159
		c2.999-8.435,7.305-16.324,12.701-23.466c-29.387-32.723-38.763-63.19-37.038-83.32c0.961-11.208,5.354-19.439,11.739-23.427
		c6.597-4.12,15.086-3.733,23.965,2.477c13.378,9.356,28.02,32.656,38.016,74.922c6.288-2.925,12.961-5.251,19.927-6.896
		c7.907-1.867,16.19-2.861,24.716-2.861c8.526,0,16.81,0.994,24.718,2.861c6.966,1.647,13.639,3.973,19.925,6.898
		c9.998-42.268,24.636-65.567,38.014-74.923c8.881-6.21,17.37-6.596,23.967-2.477c6.386,3.987,10.778,12.219,11.739,23.427
		C558.628,122.785,549.25,153.252,519.862,185.977L519.862,185.977z M494.836,370.742c-0.626,9.389-2.479,18.665-5.2,26.908
		c7.18-0.343,11.909-3.719,14.313-8.005c1.258-2.239,1.9-4.713,1.944-7.117c0.043-2.375-0.493-4.678-1.592-6.609
		C502.604,372.929,499.434,370.813,494.836,370.742L494.836,370.742z M483.041,399.568c0.04-0.136,0.089-0.266,0.147-0.39
		c3.271-8.741,5.49-19.012,6.12-29.421c0.034-0.548,0.064-1.097,0.087-1.645c0-0.092,0.004-0.185,0.011-0.276
		c0.363-8.722-0.417-17.459-2.655-25.387c-2.872,2.049-6.339,3.719-10.096,5.077c0.033,0.395,0.06,0.796,0.082,1.199
		c0.04,0.767,0.06,1.467,0.06,2.096c0,21.439-17.128,38.819-38.257,38.819c-8.678,0-16.687-2.939-23.115-7.893
		c-3.86-2.974-7.146-6.676-9.659-10.908c-0.152,5.528,0.239,11.516,1.538,17.682c0.294,1.414-0.542,2.803-1.893,3.228
		c-0.74,0.256-6.649,2.225-13.325,2.089c0.312,1.015,0.642,2.029,0.988,3.039c0.774,2.261,1.599,4.393,2.464,6.37
		c3.741,8.553,7.909,13.276,11.849,15.042c1.907,0.856,3.755,0.968,5.441,0.459c1.763-0.531,3.416-1.751,4.847-3.529
		c3.403-4.223,5.434-11.336,4.863-19.94c-0.103-1.538,1.061-2.869,2.598-2.97c1.538-0.103,2.868,1.061,2.97,2.6
		c0.043,0.629,0.072,1.253,0.089,1.87c5.265,2.602,9.534,2.299,10.023,2.254c0.085-0.009,0.17-0.015,0.258-0.016l0.016-0.002h0.047
		h0.047l0.014,0.002c0.087,0.002,0.17,0.007,0.254,0.016c0.466,0.043,4.747,0.355,10.029-2.254c0.016-0.616,0.045-1.24,0.087-1.87
		c0.103-1.539,1.434-2.703,2.972-2.6c1.538,0.101,2.702,1.432,2.6,2.97c-0.575,8.604,1.458,15.717,4.859,19.94
		c1.432,1.777,3.086,2.997,4.847,3.529c1.688,0.509,3.536,0.397,5.443-0.459c3.94-1.766,8.109-6.489,11.849-15.042
		C482.062,402.056,482.564,400.829,483.041,399.568L483.041,399.568z M376.229,349.314c1.536-6.154,3.728-12.049,6.522-16.854
		c-0.223-0.814-0.379-1.657-0.462-2.531c-8.373-4.315-14.228-5.066-17.592-3.655c-1.193,0.502-2.009,1.309-2.442,2.326
		c-0.491,1.155-0.56,2.636-0.2,4.324C363.134,337.965,367.787,344.204,376.229,349.314L376.229,349.314z M380.883,353.974
		c-0.014,0.092-0.035,0.187-0.058,0.279c-0.707,3.525-1.189,7.095-1.432,10.535c-0.716,10.125,0.509,18.83,4.024,21.135
		c1.548,1.017,3.293,1.645,5.09,2.002c0.198,0.014,0.39,0.051,0.575,0.105c4.622,0.767,9.499-0.165,12.277-0.887
		c-1.436-8.179-1.438-15.989-0.761-22.855c0.602-6.125,1.748-11.51,2.894-15.739c-6.234-1.917-11.929-4.586-15.836-8.288
		c-0.631-0.597-1.215-1.217-1.748-1.862C383.705,343.013,382.015,348.432,380.883,353.974L380.883,353.974z M494.727,330.48
		c-0.384,2.914-1.59,5.485-3.422,7.753c1.543,4.694,2.578,9.677,3.166,14.796c11.936-4.959,18.845-12.255,21.049-18.389
		c0.765-2.132,0.914-4.047,0.461-5.552c-0.377-1.253-1.251-2.241-2.615-2.814C509.864,324.805,503.662,325.679,494.727,330.48
		L494.727,330.48z M381.449,180.008c-11.251-36.128-24.337-56.171-33.709-63.576c-3.478-2.747-6.121-3.588-7.606-2.714
		c-1.509,0.888-2.149,3.697-1.588,8.23c1.509,12.217,11.982,34.355,37.332,63.116C377.689,183.221,379.513,181.551,381.449,180.008
		L381.449,180.008z M372.822,188.336c-26.244-29.698-37.116-52.9-38.716-65.846c-0.798-6.462,0.684-10.799,3.773-12.616
		c3.113-1.833,7.548-0.945,12.622,3.063c9.8,7.742,23.303,28.115,34.757,64.298c1.989-1.322,4.13-2.558,6.506-3.75
		c-0.789-4.19-1.617-8.219-2.484-12.085c-0.024-0.085-0.042-0.169-0.058-0.254c-9.619-42.783-23.744-65.932-36.531-74.874
		c-6.839-4.783-13.131-5.235-17.827-2.303c-4.905,3.064-8.313,9.779-9.117,19.146c-1.648,19.238,7.73,48.761,37.096,80.771
		c0.042,0.042,0.082,0.085,0.122,0.131c2.268,2.468,4.653,4.95,7.162,7.445C371.043,190.369,371.937,189.329,372.822,188.336
		L372.822,188.336z M408.868,349.999c-0.881,3.258-1.766,7.253-2.37,11.775c2.183,6.604,6.294,12.315,11.653,16.446
		c5.659,4.359,12.723,6.948,20.388,6.948c18.658,0,33.784-15.378,33.784-34.346c0-0.698-0.014-1.322-0.043-1.867v-0.016
		c-13.213,3.801-28.623,4.47-33.74,4.47C433.941,353.408,421.028,352.868,408.868,349.999L408.868,349.999z M392.167,311.501
		c0.092,0.042,0.185,0.091,0.274,0.143c13.595,7.061,29.327,11.093,46.099,11.093c16.772,0,32.502-4.033,46.095-11.093
		c0.092-0.053,0.185-0.101,0.279-0.145l0.239-0.125c1.735-1.023,3.402-2.103,4.995-3.235c12.955-9.211,20.97-21.869,20.97-35.791
		c0-13.924-8.014-26.58-20.97-35.791c-13.175-9.365-31.419-15.158-51.609-15.158c-20.192,0-38.434,5.793-51.609,15.158
		c-12.955,9.211-20.97,21.867-20.97,35.791c0,13.922,8.014,26.58,20.97,35.791c1.592,1.131,3.26,2.212,4.995,3.235L392.167,311.501
		L392.167,311.501z M391.895,317.612c-1.966,2.912-3.162,5.519-3.715,7.853c-1.057,4.464,0.393,7.984,3.318,10.754
		c3.278,3.106,8.362,5.409,14.011,7.108c12.719,3.826,28.019,4.49,33.031,4.49c5.012,0,20.313-0.664,33.031-4.49
		c5.648-1.699,10.732-4.002,14.011-7.108c0.147-0.14,0.29-0.281,0.432-0.424c0.065-0.078,0.136-0.152,0.212-0.225
		c2.488-2.665,3.65-5.982,2.674-10.105c-0.553-2.333-1.75-4.941-3.715-7.853c-13.898,6.839-29.782,10.72-46.645,10.72
		C421.677,328.331,405.793,324.451,391.895,317.612z"/>
</g>
</svg>
